<svg xmlns="http://www.w3.org/2000/svg" viewBox="0 0 27.9 82.15"><defs><style>.cls-1{isolation:isolate;}.cls-2{fill:#66708c;}.cls-3{fill:#686f73;}.cls-3,.cls-6,.cls-8{mix-blend-mode:multiply;}.cls-4,.cls-5{fill:#cfd1d2;}.cls-5{mix-blend-mode:screen;}.cls-7,.cls-8{fill:#707275;}</style></defs><g class="cls-1"><g id="Шар_2" data-name="Шар 2"><g id="Layer_1" data-name="Layer 1"><rect class="cls-2" x="0.36" y="29.79" width="27.18" height="11.86"/><rect class="cls-3" x="0.36" y="33.68" width="27.18" height="1.4"/><rect class="cls-3" x="0.36" y="39.47" width="27.18" height="1.4"/><rect class="cls-3" x="0.36" y="29.79" width="27.18" height="1"/><rect class="cls-4" y="32.08" width="27.9" height="2.31"/><rect class="cls-2" x="0.36" y="25.84" width="27.18" height="2.71"/><rect class="cls-3" x="0.36" y="25.84" width="27.18" height="1"/><rect class="cls-4" y="28.12" width="27.9" height="2.31"/><rect class="cls-2" x="0.36" y="21.79" width="27.18" height="2.71"/><rect class="cls-3" x="0.36" y="21.79" width="27.18" height="1"/><rect class="cls-4" y="24.07" width="27.9" height="2.31"/><rect class="cls-2" x="0.36" y="17.83" width="27.18" height="2.71"/><rect class="cls-3" x="0.36" y="17.83" width="27.18" height="1"/><rect class="cls-4" y="20.11" width="27.9" height="2.31"/><rect class="cls-2" x="0.36" y="13.78" width="27.18" height="2.71"/><rect class="cls-3" x="0.36" y="13.78" width="27.18" height="1"/><rect class="cls-4" y="16.06" width="27.9" height="2.31"/><rect class="cls-2" x="0.36" y="9.82" width="27.18" height="2.71"/><rect class="cls-3" x="0.36" y="9.82" width="27.18" height="1"/><rect class="cls-4" y="12.11" width="27.9" height="2.31"/><rect class="cls-2" x="0.36" y="5.77" width="27.18" height="2.71"/><rect class="cls-3" x="0.36" y="5.77" width="27.18" height="1"/><rect class="cls-4" y="8.06" width="27.9" height="2.31"/><rect class="cls-2" x="0.36" y="1.81" width="27.18" height="2.71"/><rect class="cls-3" x="0.36" y="1.81" width="27.18" height="1"/><rect class="cls-4" width="27.9" height="2.31"/><rect class="cls-4" y="4.1" width="27.9" height="2.31"/><rect class="cls-5" y="0.42" width="27.9" height="0.36"/><rect class="cls-2" x="0.36" y="69.64" width="27.18" height="11.86"/><rect class="cls-3" x="0.36" y="73.53" width="27.18" height="1.4"/><rect class="cls-3" x="0.36" y="79.33" width="27.18" height="1.4"/><rect class="cls-3" x="0.36" y="69.64" width="27.18" height="1"/><rect class="cls-4" y="71.93" width="27.9" height="2.31"/><rect class="cls-4" y="79.84" width="27.9" height="2.31"/><rect class="cls-2" x="0.36" y="65.69" width="27.18" height="2.71"/><rect class="cls-3" x="0.36" y="65.69" width="27.18" height="1"/><rect class="cls-4" y="67.97" width="27.9" height="2.31"/><rect class="cls-2" x="0.36" y="61.64" width="27.18" height="2.71"/><rect class="cls-3" x="0.36" y="61.64" width="27.18" height="1"/><rect class="cls-4" y="63.92" width="27.9" height="2.31"/><rect class="cls-2" x="0.36" y="57.68" width="27.18" height="2.71"/><rect class="cls-3" x="0.36" y="57.68" width="27.18" height="1"/><rect class="cls-4" y="59.97" width="27.9" height="2.31"/><rect class="cls-2" x="0.36" y="53.63" width="27.18" height="2.71"/><rect class="cls-3" x="0.36" y="53.63" width="27.18" height="1"/><rect class="cls-4" y="55.91" width="27.9" height="2.31"/><rect class="cls-2" x="0.36" y="49.67" width="27.18" height="2.71"/><rect class="cls-3" x="0.36" y="49.67" width="27.18" height="1"/><rect class="cls-4" y="51.96" width="27.9" height="2.31"/><rect class="cls-2" x="0.36" y="45.62" width="27.18" height="2.71"/><rect class="cls-3" x="0.36" y="45.62" width="27.18" height="1"/><rect class="cls-4" y="47.91" width="27.9" height="2.31"/><rect class="cls-2" x="0.36" y="41.66" width="27.18" height="2.71"/><rect class="cls-3" x="0.36" y="41.66" width="27.18" height="1"/><rect class="cls-4" y="39.85" width="27.9" height="2.31"/><rect class="cls-4" y="43.95" width="27.9" height="2.31"/><rect class="cls-5" y="40.28" width="27.9" height="0.36"/><g class="cls-6"><rect class="cls-7" x="1.45" y="35.86" width="3.96" height="3.06"/><rect class="cls-7" x="6.6" y="35.86" width="3.96" height="3.06"/><rect class="cls-7" x="11.75" y="35.86" width="3.96" height="3.06"/><rect class="cls-7" x="16.9" y="35.86" width="3.96" height="3.06"/><rect class="cls-7" x="22.05" y="35.86" width="3.96" height="3.06"/></g><polygon class="cls-8" points="10.95 2.31 10.95 0 4.41 0 3.81 0 0 0 0 2.31 0.36 2.31 0.36 4.1 0 4.1 0 6.41 0.36 6.41 0.36 8.05 0 8.05 0 10.36 0.36 10.36 0.36 12.11 0 12.11 0 14.41 0.36 14.41 0.36 16.06 0 16.06 0 18.37 0.36 18.37 0.36 20.11 0 20.11 0 22.42 0.36 22.42 0.36 24.07 0 24.07 0 26.38 0.36 26.38 0.36 28.12 0 28.12 0 30.43 0.36 30.43 0.36 32.08 0 32.08 0 34.39 0.36 34.39 0.36 39.85 0 39.85 0 42.16 0.36 42.16 0.36 43.95 0 43.95 0 46.26 0.36 46.26 0.36 47.91 0 47.91 0 50.21 0.36 50.21 0.36 51.96 0 51.96 0 54.27 0.36 54.27 0.36 55.91 0 55.91 0 58.22 0.36 58.22 0.36 59.97 0 59.97 0 62.27 0.36 62.27 0.36 63.92 0 63.92 0 66.23 0.36 66.23 0.36 67.97 0 67.97 0 70.28 0.36 70.28 0.36 71.93 0 71.93 0 74.24 0.36 74.24 0.36 79.84 0 79.84 0 82.15 3.81 82.15 4.41 82.15 10.95 82.15 10.95 79.84 10.59 79.84 10.59 74.24 10.95 74.24 10.95 71.93 10.59 71.93 10.59 70.28 10.95 70.28 10.95 67.97 10.59 67.97 10.59 66.23 10.95 66.23 10.95 63.92 10.59 63.92 10.59 62.27 10.95 62.27 10.95 59.97 10.59 59.97 10.59 58.22 10.95 58.22 10.95 55.91 10.59 55.91 10.59 54.27 10.95 54.27 10.95 51.96 10.59 51.96 10.59 50.21 10.95 50.21 10.95 47.91 10.59 47.91 10.59 46.26 10.95 46.26 10.95 43.95 10.59 43.95 10.59 42.16 10.95 42.16 10.95 39.85 10.59 39.85 10.59 34.39 10.95 34.39 10.95 32.08 10.59 32.08 10.59 30.43 10.95 30.43 10.95 28.12 10.59 28.12 10.59 26.38 10.95 26.38 10.95 24.07 10.59 24.07 10.59 22.42 10.95 22.42 10.95 20.11 10.59 20.11 10.59 18.37 10.95 18.37 10.95 16.06 10.59 16.06 10.59 14.41 10.95 14.41 10.95 12.11 10.59 12.11 10.59 10.36 10.95 10.36 10.95 8.05 10.59 8.05 10.59 6.41 10.95 6.41 10.95 4.1 10.59 4.1 10.59 2.31 10.95 2.31"/></g></g></g></svg>