<svg xmlns="http://www.w3.org/2000/svg" viewBox="0 0 58.58 47.42"><defs><style>.cls-1{isolation:isolate;}.cls-2{fill:#66708c;}.cls-3{fill:#686f73;}.cls-3,.cls-6{mix-blend-mode:multiply;}.cls-4,.cls-5{fill:#cfd1d2;}.cls-5{mix-blend-mode:screen;}.cls-6{fill:#707275;}</style></defs><g class="cls-1"><g id="Шар_2" data-name="Шар 2"><g id="Layer_1" data-name="Layer 1"><rect class="cls-2" x="0.76" y="33.4" width="57.06" height="13.29"/><rect class="cls-3" x="0.76" y="37.76" width="57.06" height="1.57"/><rect class="cls-3" x="0.76" y="44.26" width="57.06" height="1.57"/><rect class="cls-3" x="0.76" y="33.4" width="57.06" height="1.12"/><rect class="cls-4" y="35.96" width="58.58" height="2.59"/><rect class="cls-4" y="44.84" width="58.58" height="2.59"/><rect class="cls-2" x="0.76" y="28.97" width="57.06" height="3.04"/><rect class="cls-3" x="0.76" y="28.97" width="57.06" height="1.12"/><rect class="cls-4" y="31.53" width="58.58" height="2.59"/><rect class="cls-2" x="0.76" y="24.42" width="57.06" height="3.04"/><rect class="cls-3" x="0.76" y="24.42" width="57.06" height="1.12"/><rect class="cls-4" y="26.99" width="58.58" height="2.59"/><rect class="cls-2" x="0.76" y="19.99" width="57.06" height="3.04"/><rect class="cls-3" x="0.76" y="19.99" width="57.06" height="1.12"/><rect class="cls-4" y="22.55" width="58.58" height="2.59"/><rect class="cls-2" x="0.76" y="15.45" width="57.06" height="3.04"/><rect class="cls-3" x="0.76" y="15.45" width="57.06" height="1.12"/><rect class="cls-4" y="18.01" width="58.58" height="2.59"/><rect class="cls-2" x="0.76" y="11.01" width="57.06" height="3.04"/><rect class="cls-3" x="0.76" y="11.01" width="57.06" height="1.12"/><rect class="cls-4" y="13.57" width="58.58" height="2.59"/><rect class="cls-2" x="0.76" y="6.47" width="57.06" height="3.04"/><rect class="cls-3" x="0.76" y="6.47" width="57.06" height="1.12"/><rect class="cls-4" y="9.03" width="58.58" height="2.59"/><rect class="cls-2" x="0.76" y="2.03" width="57.06" height="3.04"/><rect class="cls-3" x="0.76" y="2.03" width="57.06" height="1.12"/><rect class="cls-4" width="58.58" height="2.59"/><rect class="cls-4" y="4.59" width="58.58" height="2.59"/><rect class="cls-5" y="0.48" width="58.58" height="0.41"/><polygon class="cls-6" points="22.44 44.84 22.44 44.26 22.44 39.33 22.44 38.55 23.2 38.55 23.2 35.96 22.44 35.96 22.44 34.52 22.44 34.12 23.2 34.12 23.2 31.53 22.44 31.53 22.44 30.09 22.44 29.57 23.2 29.57 23.2 26.99 22.44 26.99 22.44 25.55 22.44 25.14 23.2 25.14 23.2 22.55 22.44 22.55 22.44 21.11 22.44 20.6 23.2 20.6 23.2 18.01 22.44 18.01 22.44 16.57 22.44 16.16 23.2 16.16 23.2 13.57 22.44 13.57 22.44 12.13 22.44 11.62 23.2 11.62 23.2 9.03 22.44 9.03 22.44 7.59 22.44 7.18 23.2 7.18 23.2 4.59 22.44 4.59 22.44 3.16 22.44 2.59 23.2 2.59 23.2 0 0 0 0 2.59 0.76 2.59 0.76 3.16 0.76 4.59 0 4.59 0 7.18 0.76 7.18 0.76 7.59 0.76 9.03 0 9.03 0 11.62 0.76 11.62 0.76 12.13 0.76 13.57 0 13.57 0 16.16 0.76 16.16 0.76 16.57 0.76 18.01 0 18.01 0 20.6 0.76 20.6 0.76 21.11 0.76 22.55 0 22.55 0 25.14 0.76 25.14 0.76 25.55 0.76 26.99 0 26.99 0 29.57 0.76 29.57 0.76 30.09 0.76 31.53 0 31.53 0 34.12 0.76 34.12 0.76 34.52 0.76 35.96 0 35.96 0 38.55 0.76 38.55 0.76 39.33 0.76 44.26 0.76 44.84 0 44.84 0 47.42 23.2 47.42 23.2 44.84 22.44 44.84"/></g></g></g></svg>