<svg xmlns="http://www.w3.org/2000/svg" viewBox="0 0 191.55 110.5"><defs><style>.cls-1{fill:#e38700;}.cls-2{fill:#b56d00;}.cls-3{fill:#888;}.cls-4{fill:#6d6d6d;}.cls-5{fill:#747474;}.cls-6{fill:#5d5d5d;}.cls-7{fill:#999;}.cls-8{fill:#fe9900;}.cls-9{fill:#a3a3a3;}.cls-10{fill:#cccdc9;}.cls-11{fill:#e3e5e3;}.cls-12{fill:#2b7394;}.cls-13{fill:#2d88b6;}.cls-14{fill:#fff;opacity:0.15;}.cls-15{fill:#235b77;}.cls-16{fill:#246d91;}.cls-17{fill:#fe9a00;}.cls-18{fill:#b56d01;}.cls-19{fill:#e38800;}.cls-20{fill:#b66d03;}.cls-21{fill:#2d3134;}.cls-22{fill:#e28901;}.cls-23{fill:#f90;}.cls-24{fill:#fd9a01;}</style></defs><g id="Шар_2" ><g id="icogram"><g id="s10"><polygon class="cls-1" points="185.08 15.51 187.39 16.72 186.56 17.14 185.08 16.44 185.08 15.51"/><polygon class="cls-2" points="148.45 33.92 185.08 15.51 185.08 16.27 148.45 34.7 148.45 33.92"/><polygon class="cls-3" points="171.59 25.45 187.51 17.52 187.51 25.45 171.59 33.43 171.59 25.45"/><polygon class="cls-4" points="168.38 23.9 171.59 25.45 171.59 33.43 168.38 31.84 168.38 23.9"/><polygon class="cls-5" points="171.59 31.39 187.51 23.41 187.51 23.84 171.59 31.83 171.59 31.39"/><polygon class="cls-6" points="168.38 29.82 171.59 31.39 171.59 31.83 168.38 30.25 168.38 29.82"/><polygon class="cls-5" points="171.59 29.34 187.51 21.36 187.51 21.79 171.59 29.78 171.59 29.34"/><polygon class="cls-6" points="168.38 27.77 171.59 29.34 171.59 29.78 168.38 28.2 168.38 27.77"/><polygon class="cls-7" points="168.38 23.9 184.28 15.91 187.51 17.52 171.59 25.45 168.38 23.9"/><polygon class="cls-2" points="148.45 30.63 184.28 12.76 184.28 13.56 148.45 31.41 148.45 30.63"/><polygon class="cls-8" points="148.45 32.16 184.28 14.29 191.54 17.89 154.82 36.17 154.61 34.7 189.04 17.59 185.08 15.51 148.45 33.92 148.45 32.16"/><polygon class="cls-2" points="154.82 36.17 191.54 17.89 191.54 18.71 154.82 37 154.82 36.17"/><polygon class="cls-2" points="154.51 33.97 191.54 15.51 191.54 16.33 154.61 34.67 154.51 33.97"/><polygon class="cls-1" points="184.28 12.76 189.82 15.52 189.04 15.9 184.28 13.56 184.28 12.76"/><polygon class="cls-1" points="165.95 25.12 168.3 26.23 167.48 26.64 165.95 25.89 165.95 25.12"/><polygon class="cls-8" points="166.84 24.67 169.16 25.81 168.3 26.23 165.95 25.12 166.84 24.67"/><polygon class="cls-1" points="159.59 28.32 161.91 29.42 161.09 29.83 159.59 29.1 159.59 28.32"/><polygon class="cls-8" points="160.47 27.88 162.76 29 161.91 29.42 159.59 28.32 160.47 27.88"/><polygon class="cls-1" points="153.23 31.52 155.52 32.6 154.7 33.01 153.23 32.29 153.23 31.52"/><polygon class="cls-8" points="154.11 31.07 156.38 32.18 155.52 32.6 153.23 31.52 154.11 31.07"/><polygon class="cls-8" points="148.45 29.76 184.27 11.9 191.54 15.51 154.51 33.97 154.39 33.16 189.82 15.52 184.28 12.76 148.45 30.63 148.45 29.76"/><g id="cabin"><polygon class="cls-9" points="142.52 51.63 142.52 53.79 147.58 51.22 147.58 41 140.44 44.55 140.44 45.54 142.52 51.63"/><polygon class="cls-10" points="132.89 40.81 135.28 48.02 135.28 50.15 142.52 53.79 142.52 51.63 140.44 45.54 140.44 44.55 132.89 40.81"/><polygon class="cls-11" points="132.89 40.81 140.44 44.55 147.58 41 140.18 37.25 132.89 40.81"/><polygon class="cls-12" points="135.8 48.32 142.06 51.45 140.05 45.33 133.73 42.17 135.8 48.32"/><polygon class="cls-13" points="134.48 42.55 136.39 48.13 141.86 50.86 140.05 45.33 134.48 42.55"/><polygon class="cls-14" points="142.06 51.45 135.8 48.32 133.73 42.17 142.06 51.45"/><polygon class="cls-15" points="140.8 45.3 142.86 51.45 145.53 50.18 145.53 42.98 140.8 45.3"/><polygon class="cls-16" points="140.8 45.3 142.8 51.27 145.07 50.17 145.07 43.2 140.8 45.3"/></g><polygon id="tros" points="90.15 64.54 143.12 38.39 143.96 38.81 90.15 65.41 90.15 64.54"/><polygon class="cls-17" points="74.35 70.59 87.41 64.09 93.49 67.46 80.75 73.8 74.35 70.59"/><polygon class="cls-18" points="80.75 73.8 93.49 67.46 93.49 69.84 80.75 76.19 80.75 73.8"/><polygon class="cls-19" points="74.35 70.59 80.75 73.8 80.75 76.19 74.35 73.03 74.35 70.59"/><polygon class="cls-17" points="6.38 110.05 6.38 109.3 7.18 109.72 7.18 110.5 6.38 110.05"/><polygon class="cls-17" points="3.21 102.44 3.21 101.69 4.01 102.11 4.01 102.89 3.21 102.44"/><polygon class="cls-17" points="0 106.83 0 105.99 0.81 106.42 0.81 107.27 0 106.83"/><polygon class="cls-17" points="7.18 102.49 7.18 103.32 0.81 106.42 0 105.99 7.18 102.49"/><polygon class="cls-20" points="0.81 106.42 3.61 103.31 3.77 103.65 1.62 106.02 0.81 106.42"/><polygon class="cls-2" points="4.01 102.11 8.8 99.73 8.8 100.5 4.01 102.89 4.01 102.11"/><polygon class="cls-17" points="3.21 101.69 4.01 102.11 8.8 99.73 8.8 98.9 3.21 101.69"/><polygon class="cls-2" points="7.18 103.32 7.18 104.09 0.81 107.27 0.81 106.42 7.18 103.32"/><polygon class="cls-17" points="1.62 106.02 2.37 105.66 8.8 108.92 7.99 109.32 1.62 106.02"/><polygon class="cls-2" points="7.99 100.91 8.8 100.5 8.8 108.92 7.99 109.32 7.99 100.91"/><polygon class="cls-19" points="7.18 101.31 7.99 100.91 7.99 109.32 7.18 109.72 7.18 101.31"/><polygon class="cls-19" points="1.62 106.87 1.62 106.02 7.99 109.32 7.96 110.11 1.62 106.87"/><polygon class="cls-2" points="7.18 109.72 8.8 108.92 8.8 109.69 7.18 110.5 7.18 109.72"/><polygon class="cls-2" points="4.83 102.47 4.01 102.89 7.18 109.72 7.99 109.32 4.83 102.47"/><polygon class="cls-19" points="4.01 102.89 3.21 102.44 0 105.99 0.81 106.42 3.61 103.31 6.38 109.3 7.18 109.72 4.01 102.89"/><path class="cls-21" d="M150.76,2.47,176.13,17a.47.47,0,0,0,.25.05.5.5,0,0,0,.35-.21L184.17,21a.46.46,0,0,0,.42-.74L150.79,1.51Z"/><polygon class="cls-22" points="144.98 4.26 140.33 36.17 141.18 36.55 145.79 4.68 144.98 4.26"/><polygon class="cls-22" points="146.8 4.41 146.75 39.35 147.58 39.76 147.58 4.03 146.8 4.41"/><polygon class="cls-2" points="147.58 4.03 147.58 39.76 148.45 39.33 148.42 3.62 147.58 4.03"/><polygon class="cls-22" points="148.51 3.57 153.07 36.17 153.95 36.6 149.22 3.22 148.51 3.57"/><polygon class="cls-2" points="149.22 3.22 153.95 36.6 154.82 36.17 150.04 2.82 149.22 3.22"/><polygon class="cls-2" points="145.79 4.68 141.18 36.55 142.08 36.17 146.6 4.51 145.79 4.68"/><polygon class="cls-22" points="144.43 2.38 144.43 3.97 146.02 4.79 146.02 3.2 144.43 2.38"/><polygon class="cls-2" points="150.79 0.81 146.02 3.2 146.02 4.79 150.79 2.45 150.79 0.81"/><polygon class="cls-23" points="149.19 0 144.43 2.38 146.02 3.2 150.79 0.81 149.19 0"/><polygon class="cls-17" points="8.8 108.09 11.16 106.91 11.97 107.34 8.8 108.92 8.8 108.09"/><polygon class="cls-17" points="11.97 100.11 11.97 100.94 8.8 102.52 8.8 101.69 11.97 100.11"/><polygon class="cls-2" points="8.8 108.92 13.58 106.54 13.58 107.31 8.8 109.69 8.8 108.92"/><polygon class="cls-2" points="8.8 99.73 13.58 97.35 13.58 98.12 8.8 100.5 8.8 99.73"/><polygon class="cls-17" points="8.8 98.9 8.8 99.73 13.58 97.35 13.58 96.52 8.8 98.9"/><polygon class="cls-2" points="12.77 98.52 13.58 98.12 13.58 106.54 12.77 106.94 12.77 98.52"/><polygon class="cls-19" points="11.97 98.92 12.77 98.52 12.77 106.94 11.97 107.34 11.97 98.92"/><polygon class="cls-2" points="9.62 100.09 8.8 100.5 11.97 107.34 12.77 106.94 9.62 100.09"/><polygon class="cls-2" points="11.97 100.94 11.97 101.71 8.8 103.29 8.8 102.52 11.97 100.94"/><polygon class="cls-19" points="8.8 100.5 8.8 101.9 11.16 106.91 11.97 107.34 8.8 100.5"/><polygon class="cls-17" points="13.58 105.66 15.95 104.48 16.75 104.91 13.58 106.48 13.58 105.66"/><polygon class="cls-17" points="16.75 97.68 16.75 98.5 13.58 100.08 13.58 99.26 16.75 97.68"/><polygon class="cls-2" points="13.58 106.48 18.37 104.1 18.37 104.88 13.58 107.26 13.58 106.48"/><polygon class="cls-2" points="13.58 97.29 18.37 94.91 18.37 95.69 13.58 98.07 13.58 97.29"/><polygon class="cls-17" points="13.58 96.47 13.58 97.29 18.37 94.91 18.37 94.08 13.58 96.47"/><polygon class="cls-2" points="17.56 96.09 18.37 95.69 18.37 104.1 17.56 104.5 17.56 96.09"/><polygon class="cls-19" points="16.75 96.49 17.56 96.09 17.56 104.5 16.75 104.91 16.75 96.49"/><polygon class="cls-2" points="14.41 97.66 13.58 98.07 16.75 104.91 17.56 104.5 14.41 97.66"/><polygon class="cls-2" points="16.75 98.5 16.75 99.28 13.58 100.86 13.58 100.08 16.75 98.5"/><polygon class="cls-19" points="13.58 98.07 13.58 99.46 15.95 104.48 16.75 104.91 13.58 98.07"/><polygon class="cls-17" points="18.37 103.28 20.73 102.1 21.54 102.52 18.37 104.1 18.37 103.28"/><polygon class="cls-17" points="21.54 95.29 21.54 96.12 18.37 97.7 18.37 96.87 21.54 95.29"/><polygon class="cls-2" points="18.37 104.1 23.15 101.72 23.15 102.49 18.37 104.88 18.37 104.1"/><polygon class="cls-2" points="18.37 94.91 23.15 92.53 23.15 93.3 18.37 95.69 18.37 94.91"/><polygon class="cls-17" points="18.37 94.08 18.37 94.91 23.15 92.53 23.15 91.7 18.37 94.08"/><polygon class="cls-2" points="22.35 93.7 23.15 93.3 23.15 101.72 22.35 102.12 22.35 93.7"/><polygon class="cls-19" points="21.54 94.11 22.35 93.7 22.35 102.12 21.54 102.52 21.54 94.11"/><polygon class="cls-2" points="19.19 95.28 18.37 95.69 21.54 102.52 22.35 102.12 19.19 95.28"/><polygon class="cls-2" points="21.54 96.12 21.54 96.89 18.37 98.47 18.37 97.7 21.54 96.12"/><polygon class="cls-19" points="18.37 95.69 18.37 97.08 20.73 102.1 21.54 102.52 18.37 95.69"/><polygon class="cls-17" points="23.15 100.89 25.52 99.71 26.33 100.14 23.15 101.72 23.15 100.89"/><polygon class="cls-17" points="26.33 92.91 26.33 93.74 23.15 95.32 23.15 94.49 26.33 92.91"/><polygon class="cls-2" points="23.15 101.72 27.94 99.34 27.94 100.11 23.15 102.49 23.15 101.72"/><polygon class="cls-2" points="23.15 92.53 27.94 90.15 27.94 90.92 23.15 93.3 23.15 92.53"/><polygon class="cls-17" points="23.15 91.7 23.15 92.53 27.94 90.15 27.94 89.32 23.15 91.7"/><polygon class="cls-2" points="27.13 91.32 27.94 90.92 27.94 99.34 27.13 99.74 27.13 91.32"/><polygon class="cls-19" points="26.33 91.72 27.13 91.32 27.13 99.74 26.33 100.14 26.33 91.72"/><polygon class="cls-2" points="23.98 92.89 23.15 93.3 26.33 100.14 27.13 99.74 23.98 92.89"/><polygon class="cls-2" points="26.33 93.74 26.33 94.51 23.15 96.09 23.15 95.32 26.33 93.74"/><polygon class="cls-19" points="23.15 93.3 23.15 94.7 25.52 99.71 26.33 100.14 23.15 93.3"/><polygon class="cls-17" points="27.94 98.51 30.31 97.33 31.11 97.76 27.94 99.34 27.94 98.51"/><polygon class="cls-17" points="31.11 90.53 31.11 91.35 27.94 92.93 27.94 92.11 31.11 90.53"/><polygon class="cls-2" points="27.94 99.34 32.73 96.95 32.73 97.73 27.94 100.11 27.94 99.34"/><polygon class="cls-2" points="27.94 90.15 32.73 87.76 32.73 88.54 27.94 90.92 27.94 90.15"/><polygon class="cls-17" points="27.94 89.32 27.94 90.15 32.73 87.76 32.73 86.94 27.94 89.32"/><polygon class="cls-2" points="31.92 88.94 32.73 88.54 32.73 96.95 31.92 97.36 31.92 88.94"/><polygon class="cls-19" points="31.11 89.34 31.92 88.94 31.92 97.36 31.11 97.76 31.11 89.34"/><polygon class="cls-2" points="28.76 90.51 27.94 90.92 31.11 97.76 31.92 97.36 28.76 90.51"/><polygon class="cls-2" points="31.11 91.35 31.11 92.13 27.94 93.71 27.94 92.93 31.11 91.35"/><polygon class="cls-19" points="27.94 90.92 27.94 92.31 30.31 97.33 31.11 97.76 27.94 90.92"/><polygon class="cls-17" points="32.73 96.13 35.09 94.95 35.9 95.37 32.73 96.95 32.73 96.13"/><polygon class="cls-17" points="35.9 88.14 35.9 88.97 32.73 90.55 32.73 89.72 35.9 88.14"/><polygon class="cls-2" points="32.73 96.95 37.51 94.57 37.51 95.34 32.73 97.73 32.73 96.95"/><polygon class="cls-2" points="32.73 87.76 37.51 85.38 37.51 86.15 32.73 88.54 32.73 87.76"/><polygon class="cls-17" points="32.73 86.94 32.73 87.76 37.51 85.38 37.51 84.55 32.73 86.94"/><polygon class="cls-2" points="36.7 86.56 37.51 86.15 37.51 94.57 36.7 94.97 36.7 86.56"/><polygon class="cls-19" points="35.9 86.96 36.7 86.56 36.7 94.97 35.9 95.37 35.9 86.96"/><polygon class="cls-2" points="33.55 88.13 32.73 88.54 35.9 95.37 36.7 94.97 33.55 88.13"/><polygon class="cls-2" points="35.9 88.97 35.9 89.75 32.73 91.33 32.73 90.55 35.9 88.97"/><polygon class="cls-19" points="32.73 88.54 32.73 89.93 35.09 94.95 35.9 95.37 32.73 88.54"/><polygon class="cls-17" points="37.51 93.74 39.88 92.57 40.68 92.99 37.51 94.57 37.51 93.74"/><polygon class="cls-17" points="40.68 85.76 40.68 86.59 37.51 88.17 37.51 87.34 40.68 85.76"/><polygon class="cls-2" points="37.51 94.57 42.3 92.19 42.3 92.96 37.51 95.34 37.51 94.57"/><polygon class="cls-2" points="37.51 85.38 42.3 83 42.3 83.77 37.51 86.15 37.51 85.38"/><polygon class="cls-17" points="37.51 84.55 37.51 85.38 42.3 83 42.3 82.17 37.51 84.55"/><polygon class="cls-2" points="41.49 84.17 42.3 83.77 42.3 92.19 41.49 92.59 41.49 84.17"/><polygon class="cls-19" points="40.68 84.58 41.49 84.17 41.49 92.59 40.68 92.99 40.68 84.58"/><polygon class="cls-2" points="38.34 85.74 37.51 86.15 40.68 92.99 41.49 92.59 38.34 85.74"/><polygon class="cls-2" points="40.68 86.59 40.68 87.36 37.51 88.94 37.51 88.17 40.68 86.59"/><polygon class="cls-19" points="37.51 86.15 37.51 87.55 39.88 92.57 40.68 92.99 37.51 86.15"/><polygon class="cls-17" points="42.3 91.36 44.66 90.18 45.47 90.61 42.3 92.19 42.3 91.36"/><polygon class="cls-17" points="45.47 83.38 45.47 84.2 42.3 85.78 42.3 84.96 45.47 83.38"/><polygon class="cls-2" points="42.3 92.19 47.08 89.8 47.08 90.58 42.3 92.96 42.3 92.19"/><polygon class="cls-2" points="42.3 83 47.08 80.61 47.08 81.39 42.3 83.77 42.3 83"/><polygon class="cls-17" points="42.3 82.17 42.3 83 47.08 80.61 47.08 79.79 42.3 82.17"/><polygon class="cls-2" points="46.27 81.79 47.08 81.39 47.08 89.8 46.27 90.21 46.27 81.79"/><polygon class="cls-19" points="45.47 82.19 46.27 81.79 46.27 90.21 45.47 90.61 45.47 82.19"/><polygon class="cls-2" points="43.12 83.36 42.3 83.77 45.47 90.61 46.27 90.21 43.12 83.36"/><polygon class="cls-2" points="45.47 84.2 45.47 84.98 42.3 86.56 42.3 85.78 45.47 84.2"/><polygon class="cls-19" points="42.3 83.77 42.3 85.16 44.66 90.18 45.47 90.61 42.3 83.77"/><polygon class="cls-17" points="47.08 88.98 49.45 87.8 50.25 88.22 47.08 89.8 47.08 88.98"/><polygon class="cls-17" points="50.25 81 50.25 81.82 47.08 83.4 47.08 82.58 50.25 81"/><polygon class="cls-2" points="47.08 89.8 51.87 87.42 51.87 88.2 47.08 90.58 47.08 89.8"/><polygon class="cls-2" points="47.08 80.61 51.87 78.23 51.87 79.01 47.08 81.39 47.08 80.61"/><polygon class="cls-17" points="47.08 79.79 47.08 80.61 51.87 78.23 51.87 77.41 47.08 79.79"/><polygon class="cls-2" points="51.06 79.41 51.87 79.01 51.87 87.42 51.06 87.82 51.06 79.41"/><polygon class="cls-19" points="50.25 79.81 51.06 79.41 51.06 87.82 50.25 88.22 50.25 79.81"/><polygon class="cls-2" points="47.91 80.98 47.08 81.39 50.25 88.22 51.06 87.82 47.91 80.98"/><polygon class="cls-2" points="50.25 81.82 50.25 82.6 47.08 84.18 47.08 83.4 50.25 81.82"/><polygon class="cls-19" points="47.08 81.39 47.08 82.78 49.45 87.8 50.25 88.22 47.08 81.39"/><polygon class="cls-17" points="51.87 86.59 54.23 85.42 55.04 85.84 51.87 87.42 51.87 86.59"/><polygon class="cls-17" points="55.04 78.61 55.04 79.44 51.87 81.02 51.87 80.19 55.04 78.61"/><polygon class="cls-2" points="51.87 87.42 56.65 85.04 56.65 85.81 51.87 88.2 51.87 87.42"/><polygon class="cls-2" points="51.87 78.23 56.65 75.85 56.65 76.62 51.87 79.01 51.87 78.23"/><polygon class="cls-17" points="51.87 77.41 51.87 78.23 56.65 75.85 56.65 75.02 51.87 77.41"/><polygon class="cls-2" points="55.84 77.03 56.65 76.62 56.65 85.04 55.84 85.44 55.84 77.03"/><polygon class="cls-19" points="55.04 77.43 55.84 77.03 55.84 85.44 55.04 85.84 55.04 77.43"/><polygon class="cls-2" points="52.69 78.59 51.87 79.01 55.04 85.84 55.84 85.44 52.69 78.59"/><polygon class="cls-2" points="55.04 79.44 55.04 80.21 51.87 81.79 51.87 81.02 55.04 79.44"/><polygon class="cls-19" points="51.87 79.01 51.87 80.4 54.23 85.42 55.04 85.84 51.87 79.01"/><polygon class="cls-17" points="56.65 84.21 59.02 83.03 59.83 83.46 56.65 85.04 56.65 84.21"/><polygon class="cls-17" points="59.83 76.23 59.83 77.06 56.65 78.64 56.65 77.81 59.83 76.23"/><polygon class="cls-2" points="56.65 85.04 61.44 82.66 61.44 83.43 56.65 85.81 56.65 85.04"/><polygon class="cls-2" points="56.65 75.85 61.44 73.47 61.44 74.24 56.65 76.62 56.65 75.85"/><polygon class="cls-17" points="56.65 75.02 56.65 75.85 61.44 73.47 61.44 72.64 56.65 75.02"/><polygon class="cls-2" points="60.63 74.64 61.44 74.24 61.44 82.66 60.63 83.06 60.63 74.64"/><polygon class="cls-19" points="59.83 75.04 60.63 74.64 60.63 83.06 59.83 83.46 59.83 75.04"/><polygon class="cls-2" points="57.48 76.21 56.65 76.62 59.83 83.46 60.63 83.06 57.48 76.21"/><polygon class="cls-2" points="59.83 77.06 59.83 77.83 56.65 79.41 56.65 78.64 59.83 77.06"/><polygon class="cls-19" points="56.65 76.62 56.65 78.02 59.02 83.03 59.83 83.46 56.65 76.62"/><polygon class="cls-17" points="61.44 81.83 63.8 80.65 64.61 81.08 61.44 82.66 61.44 81.83"/><polygon class="cls-17" points="64.61 73.85 64.61 74.67 61.44 76.25 61.44 75.43 64.61 73.85"/><polygon class="cls-2" points="61.44 82.66 66.22 80.27 66.22 81.05 61.44 83.43 61.44 82.66"/><polygon class="cls-2" points="61.44 73.47 66.22 71.08 66.22 71.86 61.44 74.24 61.44 73.47"/><polygon class="cls-17" points="61.44 72.64 61.44 73.47 66.22 71.08 66.22 70.26 61.44 72.64"/><polygon class="cls-2" points="65.42 72.26 66.22 71.86 66.22 80.27 65.42 80.67 65.42 72.26"/><polygon class="cls-19" points="64.61 72.66 65.42 72.26 65.42 80.67 64.61 81.08 64.61 72.66"/><polygon class="cls-2" points="62.26 73.83 61.44 74.24 64.61 81.08 65.42 80.67 62.26 73.83"/><polygon class="cls-2" points="64.61 74.67 64.61 75.45 61.44 77.03 61.44 76.25 64.61 74.67"/><polygon class="cls-19" points="61.44 74.24 61.44 75.63 63.8 80.65 64.61 81.08 61.44 74.24"/><polygon class="cls-17" points="66.22 79.45 68.59 78.27 69.4 78.69 66.22 80.27 66.22 79.45"/><polygon class="cls-17" points="69.4 71.47 69.4 72.29 66.22 73.87 66.22 73.04 69.4 71.47"/><polygon class="cls-2" points="66.22 80.27 71.01 77.89 71.01 78.66 66.22 81.05 66.22 80.27"/><polygon class="cls-2" points="66.22 71.08 71.01 68.7 71.01 69.47 66.22 71.86 66.22 71.08"/><polygon class="cls-17" points="66.22 70.26 66.22 71.08 71.01 68.7 71.01 67.87 66.22 70.26"/><polygon class="cls-2" points="70.2 69.88 71.01 69.47 71.01 77.89 70.2 78.29 70.2 69.88"/><polygon class="cls-19" points="69.4 70.28 70.2 69.88 70.2 78.29 69.4 78.69 69.4 70.28"/><polygon class="cls-2" points="67.05 71.45 66.22 71.86 69.4 78.69 70.2 78.29 67.05 71.45"/><polygon class="cls-2" points="69.4 72.29 69.4 73.06 66.22 74.64 66.22 73.87 69.4 72.29"/><polygon class="cls-19" points="66.22 71.86 66.22 73.25 68.59 78.27 69.4 78.69 66.22 71.86"/><polygon class="cls-17" points="71.01 77.06 73.38 75.89 74.18 76.31 71.01 77.89 71.01 77.06"/><polygon class="cls-17" points="74.18 69.08 74.18 69.91 71.01 71.49 71.01 70.66 74.18 69.08"/><polygon class="cls-2" points="71.01 77.89 75.8 75.51 75.8 76.28 71.01 78.66 71.01 77.89"/><polygon class="cls-2" points="71.01 68.7 75.8 66.32 75.8 67.09 71.01 69.47 71.01 68.7"/><polygon class="cls-17" points="71.01 67.87 71.01 68.7 75.8 66.32 75.8 65.49 71.01 67.87"/><polygon class="cls-2" points="74.99 67.49 75.8 67.09 75.8 75.51 74.99 75.91 74.99 67.49"/><polygon class="cls-19" points="74.18 67.89 74.99 67.49 74.99 75.91 74.18 76.31 74.18 67.89"/><polygon class="cls-2" points="71.83 69.06 71.01 69.47 74.18 76.31 74.99 75.91 71.83 69.06"/><polygon class="cls-2" points="74.18 69.91 74.18 70.68 71.01 72.26 71.01 71.49 74.18 69.91"/><polygon class="cls-19" points="71.01 69.47 71.01 70.87 73.38 75.89 74.18 76.31 71.01 69.47"/><polygon class="cls-17" points="75.8 74.68 78.16 73.5 78.97 73.93 75.8 75.51 75.8 74.68"/><polygon class="cls-17" points="78.97 66.7 78.97 67.53 75.8 69.11 75.8 68.28 78.97 66.7"/><polygon class="cls-2" points="75.8 75.51 80.58 73.12 80.58 73.9 75.8 76.28 75.8 75.51"/><polygon class="cls-2" points="75.8 66.32 80.58 63.93 80.58 64.71 75.8 67.09 75.8 66.32"/><polygon class="cls-17" points="75.8 65.49 75.8 66.32 80.58 63.93 80.58 63.11 75.8 65.49"/><polygon class="cls-2" points="79.77 65.11 80.58 64.71 80.58 73.12 79.77 73.53 79.77 65.11"/><polygon class="cls-19" points="78.97 65.51 79.77 65.11 79.77 73.53 78.97 73.93 78.97 65.51"/><polygon class="cls-2" points="76.62 66.68 75.8 67.09 78.97 73.93 79.77 73.53 76.62 66.68"/><polygon class="cls-2" points="78.97 67.53 78.97 68.3 75.8 69.88 75.8 69.11 78.97 67.53"/><polygon class="cls-19" points="75.8 67.09 75.8 68.48 78.16 73.5 78.97 73.93 75.8 67.09"/><polygon class="cls-17" points="80.58 72.3 82.95 71.12 83.75 71.54 80.58 73.12 80.58 72.3"/><polygon class="cls-17" points="83.75 64.32 83.75 65.14 80.58 66.72 80.58 65.9 83.75 64.32"/><polygon class="cls-2" points="80.58 73.12 85.37 70.74 85.37 71.52 80.58 73.9 80.58 73.12"/><polygon class="cls-2" points="80.58 63.93 85.37 61.55 85.37 62.33 80.58 64.71 80.58 63.93"/><polygon class="cls-17" points="80.58 63.11 80.58 63.93 85.37 61.55 85.37 60.73 80.58 63.11"/><polygon class="cls-2" points="84.56 62.73 85.37 62.33 85.37 70.74 84.56 71.14 84.56 62.73"/><polygon class="cls-19" points="83.75 63.13 84.56 62.73 84.56 71.14 83.75 71.54 83.75 63.13"/><polygon class="cls-2" points="81.41 64.3 80.58 64.71 83.75 71.54 84.56 71.14 81.41 64.3"/><polygon class="cls-2" points="83.75 65.14 83.75 65.92 80.58 67.5 80.58 66.72 83.75 65.14"/><polygon class="cls-19" points="80.58 64.71 80.58 66.1 82.95 71.12 83.75 71.54 80.58 64.71"/><polygon class="cls-17" points="85.37 69.92 87.73 68.74 88.54 69.16 85.37 70.74 85.37 69.92"/><polygon class="cls-17" points="88.54 61.93 88.54 62.76 85.37 64.34 85.37 63.51 88.54 61.93"/><polygon class="cls-2" points="85.37 70.74 90.15 68.36 90.15 69.13 85.37 71.52 85.37 70.74"/><polygon class="cls-2" points="85.37 61.55 90.15 59.17 90.15 59.94 85.37 62.33 85.37 61.55"/><polygon class="cls-17" points="85.37 60.73 85.37 61.55 90.15 59.17 90.15 58.34 85.37 60.73"/><polygon class="cls-2" points="89.34 60.34 90.15 59.94 90.15 68.36 89.34 68.76 89.34 60.34"/><polygon class="cls-19" points="88.54 60.75 89.34 60.34 89.34 68.76 88.54 69.16 88.54 60.75"/><polygon class="cls-2" points="86.19 61.91 85.37 62.33 88.54 69.16 89.34 68.76 86.19 61.91"/><polygon class="cls-2" points="88.54 62.76 88.54 63.53 85.37 65.11 85.37 64.34 88.54 62.76"/><polygon class="cls-19" points="85.37 62.33 85.37 63.72 87.73 68.74 88.54 69.16 85.37 62.33"/><polygon class="cls-17" points="90.15 67.53 92.52 66.35 93.32 66.78 90.15 68.36 90.15 67.53"/><polygon class="cls-17" points="93.32 59.55 93.32 60.38 90.15 61.96 90.15 61.13 93.32 59.55"/><polygon class="cls-2" points="90.15 68.36 94.94 65.97 94.94 66.75 90.15 69.13 90.15 68.36"/><polygon class="cls-2" points="90.15 59.17 94.94 56.78 94.94 57.56 90.15 59.94 90.15 59.17"/><polygon class="cls-17" points="90.15 58.34 90.15 59.17 94.94 56.78 94.94 55.96 90.15 58.34"/><polygon class="cls-2" points="94.13 57.96 94.94 57.56 94.94 65.97 94.13 66.38 94.13 57.96"/><polygon class="cls-19" points="93.32 58.36 94.13 57.96 94.13 66.38 93.32 66.78 93.32 58.36"/><polygon class="cls-2" points="90.98 59.53 90.15 59.94 93.32 66.78 94.13 66.38 90.98 59.53"/><polygon class="cls-2" points="93.32 60.38 93.32 61.15 90.15 62.73 90.15 61.96 93.32 60.38"/><polygon class="cls-19" points="90.15 59.94 90.15 61.34 92.52 66.35 93.32 66.78 90.15 59.94"/><polygon class="cls-17" points="94.94 65.15 97.3 63.97 98.11 64.4 94.94 65.97 94.94 65.15"/><polygon class="cls-17" points="98.11 57.17 98.11 57.99 94.94 59.57 94.94 58.75 98.11 57.17"/><polygon class="cls-2" points="94.94 65.97 99.72 63.59 99.72 64.37 94.94 66.75 94.94 65.97"/><polygon class="cls-2" points="94.94 56.78 99.72 54.4 99.72 55.18 94.94 57.56 94.94 56.78"/><polygon class="cls-17" points="94.94 55.96 94.94 56.78 99.72 54.4 99.72 53.58 94.94 55.96"/><polygon class="cls-2" points="98.92 55.58 99.72 55.18 99.72 63.59 98.92 63.99 98.92 55.58"/><polygon class="cls-19" points="98.11 55.98 98.92 55.58 98.92 63.99 98.11 64.4 98.11 55.98"/><polygon class="cls-2" points="95.76 57.15 94.94 57.56 98.11 64.4 98.92 63.99 95.76 57.15"/><polygon class="cls-2" points="98.11 57.99 98.11 58.77 94.94 60.35 94.94 59.57 98.11 57.99"/><polygon class="cls-19" points="94.94 57.56 94.94 58.95 97.3 63.97 98.11 64.4 94.94 57.56"/><polygon class="cls-17" points="99.72 62.77 102.09 61.59 102.89 62.01 99.72 63.59 99.72 62.77"/><polygon class="cls-17" points="102.89 54.78 102.89 55.61 99.72 57.19 99.72 56.36 102.89 54.78"/><polygon class="cls-2" points="99.72 63.59 104.51 61.21 104.51 61.98 99.72 64.37 99.72 63.59"/><polygon class="cls-2" points="99.72 54.4 104.51 52.02 104.51 52.79 99.72 55.18 99.72 54.4"/><polygon class="cls-17" points="99.72 53.58 99.72 54.4 104.51 52.02 104.51 51.19 99.72 53.58"/><polygon class="cls-2" points="103.7 53.2 104.51 52.79 104.51 61.21 103.7 61.61 103.7 53.2"/><polygon class="cls-19" points="102.89 53.6 103.7 53.2 103.7 61.61 102.89 62.01 102.89 53.6"/><polygon class="cls-2" points="100.55 54.77 99.72 55.18 102.89 62.01 103.7 61.61 100.55 54.77"/><polygon class="cls-2" points="102.89 55.61 102.89 56.38 99.72 57.97 99.72 57.19 102.89 55.61"/><polygon class="cls-19" points="99.72 55.18 99.72 56.57 102.09 61.59 102.89 62.01 99.72 55.18"/><polygon class="cls-17" points="104.51 60.38 106.88 59.2 107.68 59.63 104.51 61.21 104.51 60.38"/><polygon class="cls-17" points="107.68 52.4 107.68 53.23 104.51 54.81 104.51 53.98 107.68 52.4"/><polygon class="cls-2" points="104.51 61.21 109.29 58.83 109.29 59.6 104.51 61.98 104.51 61.21"/><polygon class="cls-2" points="104.51 52.02 109.29 49.64 109.29 50.41 104.51 52.79 104.51 52.02"/><polygon class="cls-17" points="104.51 51.19 104.51 52.02 109.29 49.64 109.29 48.81 104.51 51.19"/><polygon class="cls-2" points="108.49 50.81 109.29 50.41 109.29 58.83 108.49 59.23 108.49 50.81"/><polygon class="cls-19" points="107.68 51.21 108.49 50.81 108.49 59.23 107.68 59.63 107.68 51.21"/><polygon class="cls-2" points="105.33 52.38 104.51 52.79 107.68 59.63 108.49 59.23 105.33 52.38"/><polygon class="cls-2" points="107.68 53.23 107.68 54 104.51 55.58 104.51 54.81 107.68 53.23"/><polygon class="cls-19" points="104.51 52.79 104.51 54.19 106.88 59.2 107.68 59.63 104.51 52.79"/><polygon class="cls-17" points="109.29 58 111.66 56.82 112.47 57.25 109.29 58.83 109.29 58"/><polygon class="cls-17" points="112.47 50.02 112.47 50.84 109.29 52.42 109.29 51.6 112.47 50.02"/><polygon class="cls-2" points="109.29 58.83 114.08 56.44 114.08 57.22 109.29 59.6 109.29 58.83"/><polygon class="cls-2" points="109.29 49.64 114.08 47.25 114.08 48.03 109.29 50.41 109.29 49.64"/><polygon class="cls-17" points="109.29 48.81 109.29 49.64 114.08 47.25 114.08 46.43 109.29 48.81"/><polygon class="cls-2" points="113.27 48.43 114.08 48.03 114.08 56.44 113.27 56.85 113.27 48.43"/><polygon class="cls-19" points="112.47 48.83 113.27 48.43 113.27 56.85 112.47 57.25 112.47 48.83"/><polygon class="cls-2" points="110.12 50 109.29 50.41 112.47 57.25 113.27 56.85 110.12 50"/><polygon class="cls-2" points="112.47 50.84 112.47 51.62 109.29 53.2 109.29 52.42 112.47 50.84"/><polygon class="cls-19" points="109.29 50.41 109.29 51.8 111.66 56.82 112.47 57.25 109.29 50.41"/><polygon class="cls-17" points="114.08 55.62 116.45 54.44 117.25 54.86 114.08 56.44 114.08 55.62"/><polygon class="cls-17" points="117.25 47.64 117.25 48.46 114.08 50.04 114.08 49.22 117.25 47.64"/><polygon class="cls-2" points="114.08 56.44 118.87 54.06 118.87 54.84 114.08 57.22 114.08 56.44"/><polygon class="cls-2" points="114.08 47.25 118.87 44.87 118.87 45.65 114.08 48.03 114.08 47.25"/><polygon class="cls-17" points="114.08 46.43 114.08 47.25 118.87 44.87 118.87 44.04 114.08 46.43"/><polygon class="cls-2" points="118.06 46.05 118.87 45.65 118.87 54.06 118.06 54.46 118.06 46.05"/><polygon class="cls-19" points="117.25 46.45 118.06 46.05 118.06 54.46 117.25 54.86 117.25 46.45"/><polygon class="cls-2" points="114.9 47.62 114.08 48.03 117.25 54.86 118.06 54.46 114.9 47.62"/><polygon class="cls-2" points="117.25 48.46 117.25 49.24 114.08 50.82 114.08 50.04 117.25 48.46"/><polygon class="cls-19" points="114.08 48.03 114.08 49.42 116.45 54.44 117.25 54.86 114.08 48.03"/><polygon class="cls-17" points="118.87 53.23 121.23 52.06 122.04 52.48 118.87 54.06 118.87 53.23"/><polygon class="cls-17" points="122.04 45.25 122.04 46.08 118.87 47.66 118.87 46.83 122.04 45.25"/><polygon class="cls-2" points="118.87 54.06 123.65 51.68 123.65 52.45 118.87 54.84 118.87 54.06"/><polygon class="cls-2" points="118.87 44.87 123.65 42.49 123.65 43.26 118.87 45.65 118.87 44.87"/><polygon class="cls-17" points="118.87 44.04 118.87 44.87 123.65 42.49 123.65 41.66 118.87 44.04"/><polygon class="cls-2" points="122.84 43.66 123.65 43.26 123.65 51.68 122.84 52.08 122.84 43.66"/><polygon class="cls-19" points="122.04 44.06 122.84 43.66 122.84 52.08 122.04 52.48 122.04 44.06"/><polygon class="cls-2" points="119.69 45.23 118.87 45.65 122.04 52.48 122.84 52.08 119.69 45.23"/><polygon class="cls-2" points="122.04 46.08 122.04 46.85 118.87 48.43 118.87 47.66 122.04 46.08"/><polygon class="cls-19" points="118.87 45.65 118.87 47.04 121.23 52.06 122.04 52.48 118.87 45.65"/><polygon class="cls-17" points="123.65 50.85 126.02 49.67 126.82 50.1 123.65 51.68 123.65 50.85"/><polygon class="cls-17" points="126.82 42.87 126.82 43.7 123.65 45.28 123.65 44.45 126.82 42.87"/><polygon class="cls-2" points="123.65 51.68 128.44 49.3 128.44 50.07 123.65 52.45 123.65 51.68"/><polygon class="cls-2" points="123.65 42.49 128.44 40.1 128.44 40.88 123.65 43.26 123.65 42.49"/><polygon class="cls-17" points="123.65 41.66 123.65 42.49 128.44 40.1 128.44 39.28 123.65 41.66"/><polygon class="cls-2" points="127.63 41.28 128.44 40.88 128.44 49.3 127.63 49.7 127.63 41.28"/><polygon class="cls-19" points="126.82 41.68 127.63 41.28 127.63 49.7 126.82 50.1 126.82 41.68"/><polygon class="cls-2" points="124.48 42.85 123.65 43.26 126.82 50.1 127.63 49.7 124.48 42.85"/><polygon class="cls-2" points="126.82 43.7 126.82 44.47 123.65 46.05 123.65 45.28 126.82 43.7"/><polygon class="cls-19" points="123.65 43.26 123.65 44.66 126.02 49.67 126.82 50.1 123.65 43.26"/><polygon class="cls-17" points="128.44 48.47 130.8 47.29 131.61 47.72 128.44 49.3 128.44 48.47"/><polygon class="cls-17" points="131.61 40.49 131.61 41.31 128.44 42.89 128.44 42.07 131.61 40.49"/><polygon class="cls-2" points="128.44 49.3 133.22 46.91 133.22 47.69 128.44 50.07 128.44 49.3"/><polygon class="cls-2" points="128.44 40.1 133.22 37.72 133.22 38.5 128.44 40.88 128.44 40.1"/><polygon class="cls-17" points="128.44 39.28 128.44 40.1 133.22 37.72 133.22 36.9 128.44 39.28"/><polygon class="cls-2" points="132.41 38.9 133.22 38.5 133.22 46.91 132.41 47.31 132.41 38.9"/><polygon class="cls-19" points="131.61 39.3 132.41 38.9 132.41 47.31 131.61 47.72 131.61 39.3"/><polygon class="cls-2" points="129.26 40.47 128.44 40.88 131.61 47.72 132.41 47.31 129.26 40.47"/><polygon class="cls-2" points="131.61 41.31 131.61 42.09 128.44 43.67 128.44 42.89 131.61 41.31"/><polygon class="cls-19" points="128.44 40.88 128.44 42.27 130.8 47.29 131.61 47.72 128.44 40.88"/><polygon class="cls-17" points="133.22 46.09 135.59 44.91 136.4 45.33 133.22 46.91 133.22 46.09"/><polygon class="cls-17" points="136.4 38.1 136.4 38.93 133.22 40.51 133.22 39.68 136.4 38.1"/><polygon class="cls-2" points="133.22 46.91 138.01 44.53 138.01 45.3 133.22 47.69 133.22 46.91"/><polygon class="cls-2" points="133.22 37.72 138.01 35.34 138.01 36.11 133.22 38.5 133.22 37.72"/><polygon class="cls-17" points="133.22 36.9 133.22 37.72 138.01 35.34 138.01 34.51 133.22 36.9"/><polygon class="cls-2" points="137.2 36.52 138.01 36.11 138.01 44.53 137.2 44.93 137.2 36.52"/><polygon class="cls-19" points="136.4 36.92 137.2 36.52 137.2 44.93 136.4 45.33 136.4 36.92"/><polygon class="cls-2" points="134.05 38.09 133.22 38.5 136.4 45.33 137.2 44.93 134.05 38.09"/><polygon class="cls-2" points="136.4 38.93 136.4 39.7 133.22 41.28 133.22 40.51 136.4 38.93"/><polygon class="cls-19" points="133.22 38.5 133.22 39.89 135.59 44.91 136.4 45.33 133.22 38.5"/><g id="horizontal_part"><polygon class="cls-17" points="138.01 43.7 140.38 42.52 141.18 42.95 138.01 44.53 138.01 43.7"/><polygon class="cls-17" points="141.18 35.72 141.18 36.55 138.01 38.13 138.01 37.3 141.18 35.72"/><polygon class="cls-2" points="138.01 44.53 142.79 42.15 142.79 42.92 138.01 45.3 138.01 44.53"/><polygon class="cls-2" points="138.01 35.34 142.79 32.96 142.79 33.73 138.01 36.11 138.01 35.34"/><polygon class="cls-17" points="138.01 34.51 138.01 35.34 142.79 32.96 142.79 32.13 138.01 34.51"/><polygon class="cls-2" points="141.99 34.13 142.79 33.73 142.79 42.15 141.99 42.55 141.99 34.13"/><polygon class="cls-19" points="141.18 34.53 141.99 34.13 141.99 42.55 141.18 42.95 141.18 34.53"/><polygon class="cls-2" points="138.83 35.7 138.01 36.11 141.18 42.95 141.99 42.55 138.83 35.7"/><polygon class="cls-2" points="141.18 36.55 141.18 37.32 138.01 38.9 138.01 38.13 141.18 36.55"/><polygon class="cls-19" points="138.01 36.11 138.01 37.51 140.38 42.52 141.18 42.95 138.01 36.11"/></g><path class="cls-21" d="M144.73,3.17,89.59,58.09l.56.53,55.17-55a.39.39,0,0,0-.15-.44A.36.36,0,0,0,144.73,3.17Z"/><polygon class="cls-24" points="89.34 57.98 88.54 58.36 89.34 58.74 90.15 58.34 89.34 57.98"/><polygon class="cls-2" points="89.34 58.74 89.34 59.57 90.15 59.17 90.15 58.34 89.34 58.74"/><polygon class="cls-19" points="88.54 58.36 88.54 59.15 89.34 59.57 89.34 58.74 88.54 58.36"/><polygon class="cls-17" points="142.79 41.32 146.75 39.35 147.58 39.76 142.79 42.15 142.79 41.32"/><polygon class="cls-2" points="142.79 42.15 147.58 39.76 147.58 40.54 142.79 42.92 142.79 42.15"/><polygon class="cls-2" points="142.79 32.96 143.62 32.55 143.62 33.32 142.79 33.73 142.79 32.96"/><polygon class="cls-17" points="143.62 32.55 142.79 32.96 142.79 32.13 143.62 32.55"/><polygon class="cls-2" points="143.62 33.32 142.79 33.73 145.97 40.57 146.77 40.17 143.62 33.32"/><polygon class="cls-19" points="142.79 33.73 142.79 35.12 145.16 40.14 145.97 40.57 142.79 33.73"/></g></g></g></svg>