<svg xmlns="http://www.w3.org/2000/svg" viewBox="0 0 14.49 26.2"><g id="Шар_2"><g><g id="s10"><g id="cran"><polygon class="cls-1" points="1.75 19.62 5.75 11.89 7.25 11.16 1.75 21.73 1.75 19.62"/><polygon class="cls-2" points="1.75 21.73 7.25 11.16 7.25 12.05 1.75 22.6 1.75 21.73"/><polygon class="cls-1" points="12.74 19.62 8.74 11.89 7.25 11.16 12.74 21.73 12.74 19.62"/><polygon class="cls-3" points="12.74 21.73 7.25 11.16 7.25 12.05 12.74 22.6 12.74 21.73"/><polygon class="cls-3" points="6.37 16.23 7.25 16.66 7.25 26.2 6.37 25.76 6.37 16.23"/><polygon class="cls-3" points="0 13.07 0.88 13.51 0.88 23.04 0 22.6 0 13.07"/><polygon class="cls-2" points="1.75 13.07 0.88 13.51 0.88 23.04 1.75 22.6 1.75 13.07"/><polygon class="cls-2" points="1.75 13.07 7.25 10.4 7.25 11.16 1.75 13.85 1.75 13.07"/><polygon class="cls-3" points="0.88 13.51 6.37 16.23 6.37 17.09 0.88 14.33 0.88 13.51"/><polygon class="cls-3" points="0.88 14.33 0.88 15.26 6.37 25.76 6.37 24.9 0.88 14.33"/><polygon class="cls-1" points="0.88 14.33 2.27 15.03 6.37 22.86 6.37 24.9 0.88 14.33"/><polygon class="cls-1" points="0.88 13.51 1.75 13.07 7.25 15.8 7.25 16.66 0.88 13.51"/><polygon class="cls-1" points="0.88 13.51 0 13.07 7.25 9.53 7.25 10.4 0.88 13.51"/><polygon class="cls-2" points="8.12 16.23 7.25 16.66 7.25 26.2 8.12 25.76 8.12 16.23"/><polygon class="cls-2" points="14.49 13.07 13.62 13.51 13.62 23.04 14.49 22.6 14.49 13.07"/><polygon class="cls-4" points="12.74 13.07 13.62 13.51 13.62 23.04 12.74 22.6 12.74 13.07"/><polygon class="cls-2" points="13.62 13.51 8.12 16.23 8.12 17.09 13.62 14.33 13.62 13.51"/><polygon class="cls-3" points="12.74 13.07 7.25 10.4 7.25 11.16 12.74 13.85 12.74 13.07"/><polygon class="cls-2" points="13.62 14.33 13.62 15.25 8.12 25.76 8.12 24.9 13.62 14.33"/><polygon class="cls-1" points="13.62 14.33 12.23 15.03 8.12 22.86 8.12 24.9 13.62 14.33"/><polygon class="cls-1" points="13.62 13.51 12.74 13.07 7.25 15.8 7.25 16.66 13.62 13.51"/><polygon class="cls-1" points="13.62 13.51 14.49 13.07 7.25 9.53 7.25 10.4 13.62 13.51"/><polygon class="cls-3" points="6.37 1.01 7.25 1.45 7.25 10.98 6.37 10.54 6.37 1.01"/><polygon class="cls-2" points="8.12 1.01 7.25 1.45 7.25 10.98 8.12 10.54 8.12 1.01"/><polygon class="cls-1" points="1.75 10.08 5.75 2.36 7.25 1.63 1.75 12.19 1.75 10.08"/><polygon class="cls-2" points="1.75 12.19 7.25 1.63 7.25 2.52 1.75 13.07 1.75 12.19"/><polygon class="cls-1" points="12.74 10.08 8.74 2.36 7.25 1.63 12.74 12.19 12.74 10.08"/><polygon class="cls-3" points="12.74 12.19 7.25 1.63 7.25 2.52 12.74 13.07 12.74 12.19"/><polygon class="cls-3" points="6.37 6.7 7.25 7.13 7.25 16.66 6.37 16.23 6.37 6.7"/><polygon class="cls-3" points="0 3.54 0.88 3.98 0.88 13.51 0 13.07 0 3.54"/><polygon class="cls-2" points="1.75 3.54 0.88 3.98 0.88 13.51 1.75 13.07 1.75 3.54"/><polygon class="cls-2" points="1.75 3.54 7.25 0.86 7.25 1.63 1.75 4.31 1.75 3.54"/><polygon class="cls-3" points="0.88 3.98 6.37 6.7 6.37 7.56 0.88 4.8 0.88 3.98"/><polygon class="cls-3" points="0.88 4.8 0.88 5.73 6.37 16.23 6.37 15.37 0.88 4.8"/><polygon class="cls-1" points="0.88 4.8 2.27 5.5 6.37 13.33 6.37 15.37 0.88 4.8"/><polygon class="cls-1" points="0.88 3.98 1.75 3.54 7.25 6.27 7.25 7.13 0.88 3.98"/><polygon class="cls-1" points="0.88 3.98 0 3.54 7.25 0 7.25 0.86 0.88 3.98"/><polygon class="cls-2" points="8.12 6.7 7.25 7.13 7.25 16.66 8.12 16.23 8.12 6.7"/><polygon class="cls-2" points="14.49 3.54 13.62 3.98 13.62 13.51 14.49 13.07 14.49 3.54"/><polygon class="cls-4" points="12.74 3.54 13.62 3.98 13.62 13.51 12.74 13.07 12.74 3.54"/><polygon class="cls-2" points="13.62 3.98 8.12 6.7 8.12 7.56 13.62 4.8 13.62 3.98"/><polygon class="cls-3" points="12.74 3.54 7.25 0.86 7.25 1.63 12.74 4.31 12.74 3.54"/><polygon class="cls-2" points="13.62 4.8 13.62 5.72 8.12 16.23 8.12 15.37 13.62 4.8"/><polygon class="cls-1" points="13.62 4.8 12.23 5.5 8.12 13.33 8.12 15.37 13.62 4.8"/><polygon class="cls-1" points="13.62 3.98 12.74 3.54 7.25 6.27 7.25 7.13 13.62 3.98"/><polygon class="cls-1" points="13.62 3.98 14.49 3.54 7.25 0 7.25 0.86 13.62 3.98"/></g></g></g></g></svg>