<svg xmlns="http://www.w3.org/2000/svg" viewBox="0 0 25.6 31.67"><g id="Шар_2"><g><g id="s10"><g id="cran"><polygon class="cls-1" points="0 23.76 0 25.35 12.83 31.67 12.83 30.08 0 23.76"/><polygon class="cls-2" points="12.83 30.08 25.6 23.69 25.6 25.28 12.83 31.67 12.83 30.08"/><polygon class="cls-3" points="0 23.76 12.83 17.37 25.6 23.69 12.83 30.08 0 23.76"/><polygon class="cls-4" points="3.15 22.19 12.83 26.96 12.83 28.54 3.15 23.78 3.15 22.19"/><polygon class="cls-5" points="12.83 26.96 22.46 22.14 22.46 23.72 12.83 28.54 12.83 26.96"/><polygon class="cls-6" points="3.15 22.19 12.83 17.37 22.46 22.14 12.83 26.96 3.15 22.19"/><polygon class="cls-6" points="7.33 19.62 11.33 11.89 12.83 11.16 7.33 21.73 7.33 19.62"/><polygon class="cls-5" points="7.33 21.73 12.83 11.16 12.83 12.05 7.33 22.6 7.33 21.73"/><polygon class="cls-6" points="18.32 19.62 14.32 11.89 12.83 11.16 18.32 21.73 18.32 19.62"/><polygon class="cls-4" points="18.32 21.73 12.83 11.16 12.83 12.05 18.32 22.6 18.32 21.73"/><polygon class="cls-4" points="11.95 16.23 12.83 16.66 12.83 26.2 11.95 25.76 11.95 16.23"/><polygon class="cls-4" points="5.58 13.07 6.46 13.51 6.46 23.04 5.58 22.6 5.58 13.07"/><polygon class="cls-5" points="7.33 13.07 6.46 13.51 6.46 23.04 7.33 22.6 7.33 13.07"/><polygon class="cls-5" points="7.33 13.07 12.83 10.4 12.83 11.16 7.33 13.85 7.33 13.07"/><polygon class="cls-4" points="6.46 13.51 11.95 16.23 11.95 17.09 6.46 14.33 6.46 13.51"/><polygon class="cls-4" points="6.46 14.33 6.46 15.26 11.95 25.76 11.95 24.9 6.46 14.33"/><polygon class="cls-6" points="6.46 14.33 7.85 15.03 11.95 22.86 11.95 24.9 6.46 14.33"/><polygon class="cls-6" points="6.46 13.51 7.33 13.07 12.83 15.8 12.83 16.66 6.46 13.51"/><polygon class="cls-6" points="6.46 13.51 5.58 13.07 12.83 9.53 12.83 10.4 6.46 13.51"/><polygon class="cls-5" points="13.7 16.23 12.83 16.66 12.83 26.2 13.7 25.76 13.7 16.23"/><polygon class="cls-5" points="20.07 13.07 19.2 13.51 19.2 23.04 20.07 22.6 20.07 13.07"/><polygon class="cls-7" points="18.32 13.07 19.2 13.51 19.2 23.04 18.32 22.6 18.32 13.07"/><polygon class="cls-5" points="19.2 13.51 13.7 16.23 13.7 17.09 19.2 14.33 19.2 13.51"/><polygon class="cls-4" points="18.32 13.07 12.83 10.4 12.83 11.16 18.32 13.85 18.32 13.07"/><polygon class="cls-5" points="19.2 14.33 19.2 15.25 13.7 25.76 13.7 24.9 19.2 14.33"/><polygon class="cls-6" points="19.2 14.33 17.81 15.03 13.7 22.86 13.7 24.9 19.2 14.33"/><polygon class="cls-6" points="19.2 13.51 18.32 13.07 12.83 15.8 12.83 16.66 19.2 13.51"/><polygon class="cls-6" points="19.2 13.51 20.07 13.07 12.83 9.53 12.83 10.4 19.2 13.51"/><polygon class="cls-6" points="7.33 10.08 11.33 2.36 12.83 1.63 7.33 12.19 7.33 10.08"/><polygon class="cls-5" points="7.33 12.19 12.83 1.63 12.83 2.52 7.33 13.07 7.33 12.19"/><polygon class="cls-6" points="18.32 10.08 14.32 2.36 12.83 1.63 18.32 12.19 18.32 10.08"/><polygon class="cls-4" points="18.32 12.19 12.83 1.63 12.83 2.52 18.32 13.07 18.32 12.19"/><polygon class="cls-4" points="11.95 6.7 12.83 7.13 12.83 16.66 11.95 16.23 11.95 6.7"/><polygon class="cls-4" points="5.58 3.54 6.46 3.98 6.46 13.51 5.58 13.07 5.58 3.54"/><polygon class="cls-5" points="7.33 3.54 6.46 3.98 6.46 13.51 7.33 13.07 7.33 3.54"/><polygon class="cls-5" points="7.33 3.54 12.83 0.86 12.83 1.63 7.33 4.31 7.33 3.54"/><polygon class="cls-4" points="6.46 3.98 11.95 6.7 11.95 7.56 6.46 4.8 6.46 3.98"/><polygon class="cls-4" points="6.46 4.8 6.46 5.73 11.95 16.23 11.95 15.37 6.46 4.8"/><polygon class="cls-6" points="6.46 4.8 7.85 5.5 11.95 13.33 11.95 15.37 6.46 4.8"/><polygon class="cls-6" points="6.46 3.98 7.33 3.54 12.83 6.27 12.83 7.13 6.46 3.98"/><polygon class="cls-6" points="6.46 3.98 5.58 3.54 12.83 0 12.83 0.86 6.46 3.98"/><polygon class="cls-5" points="13.7 6.7 12.83 7.13 12.83 16.66 13.7 16.23 13.7 6.7"/><polygon class="cls-5" points="20.07 3.54 19.2 3.98 19.2 13.51 20.07 13.07 20.07 3.54"/><polygon class="cls-7" points="18.32 3.54 19.2 3.98 19.2 13.51 18.32 13.07 18.32 3.54"/><polygon class="cls-5" points="19.2 3.98 13.7 6.7 13.7 7.56 19.2 4.8 19.2 3.98"/><polygon class="cls-4" points="18.32 3.54 12.83 0.86 12.83 1.63 18.32 4.31 18.32 3.54"/><polygon class="cls-5" points="19.2 4.8 19.2 5.72 13.7 16.23 13.7 15.37 19.2 4.8"/><polygon class="cls-6" points="19.2 4.8 17.81 5.5 13.7 13.33 13.7 15.37 19.2 4.8"/><polygon class="cls-6" points="19.2 3.98 18.32 3.54 12.83 6.27 12.83 7.13 19.2 3.98"/><polygon class="cls-6" points="19.2 3.98 20.07 3.54 12.83 0 12.83 0.86 19.2 3.98"/></g></g></g></g></svg>