<svg xmlns="http://www.w3.org/2000/svg" viewBox="0 0 16.99 46.68"><g id="Шар_2"><g><g id="floor_base_process"><g id="hook"><g id="pos_9"><g id="empty-hook"><polygon id="left_tros" class="cls-1" points="6.58 12.89 6.61 1.85 7.33 1.48 7.33 12.65 6.58 12.89"/><g id="hook-2" ><polygon class="cls-2" points="8.43 16.3 8.96 16.03 8.96 17.76 8.43 18.03 8.43 16.3"/><polygon class="cls-3" points="7.84 15.99 8.43 16.3 8.43 18.03 7.84 17.62 7.84 15.99"/><path class="cls-4" d="M7.43,18.86a2.19,2.19,0,0,0,1.31.92h.08l-.08.57-1.49-.72-.33-.54Z"/><path class="cls-2" d="M9.5,19.57l.55-.27a1.18,1.18,0,0,1-.1.58,1.54,1.54,0,0,1-1.24.75Z"/><path class="cls-4" d="M8.43,18,9,17.76a2,2,0,0,1,.87.84,1.89,1.89,0,0,1,.22.7l-.55.27Z"/><path class="cls-3" d="M6.92,19.1a2.27,2.27,0,0,0,.47.48c.08.07.89.69,1.28.42.24-.16.2-.6.19-.77a2.39,2.39,0,0,0-1-1.61l.59.41a2.69,2.69,0,0,1,.7.73,1.67,1.67,0,0,1,.38.9.94.94,0,0,1-.22.75,1,1,0,0,1-.76.22C7.55,20.56,7,19.21,6.92,19.1Z"/><path class="cls-5" d="M7.4,12.65l3,1.41.29-.11a2.25,2.25,0,0,0-.11-.83,2.41,2.41,0,0,0-2.26-1.66,1.12,1.12,0,0,0-.71.3A1.12,1.12,0,0,0,7.4,12.65Z"/><path class="cls-6" d="M9.65,15.38l.8-1.32a2.85,2.85,0,0,0-1.15-2c-.13-.08-1.09-.67-1.61-.25a1.06,1.06,0,0,0-.29.83l.74,1.94Z"/><path class="cls-1" d="M7.66,12.27a1,1,0,0,1,1-.08,2.12,2.12,0,0,1,.87.8,1.69,1.69,0,0,1,.29,1,1.09,1.09,0,0,1-.12.48,1.13,1.13,0,0,1-.68.47Z"/><polygon class="cls-5" points="6.92 15.23 8.14 14.59 9.65 15.38 8.73 15.86 6.92 15.23"/><polygon class="cls-7" points="9.23 14.7 9.52 14.58 8.73 15.86 8.43 16.02 9.23 14.7"/><polygon class="cls-7" points="10.45 14.06 10.74 13.95 9.96 15.23 9.65 15.38 10.45 14.06"/><path class="cls-5" d="M6.18,13.29,9.23,14.7l.29-.12A2.69,2.69,0,0,0,9,13.05a2.34,2.34,0,0,0-1.68-1,1.17,1.17,0,0,0-.87.29A1.09,1.09,0,0,0,6.18,13.29Z"/><polygon class="cls-7" points="8.43 16.02 9.96 15.23 9.96 15.52 8.43 16.3 8.43 16.02"/><path class="cls-6" d="M6.18,13.29a1,1,0,0,1,.29-.83C7,12,8,12.62,8.08,12.71a2.84,2.84,0,0,1,1.15,2L8.43,16v.28l-1.52-.8v-.27Z"/></g><polygon id="right_tros" class="cls-1" points="8.99 12.89 9.02 0.36 9.75 0 9.75 13.46 8.99 12.89"/></g><g id="hook-full"><g id="bricks_full"><g id="palette"><polygon class="cls-9" points="8.51 44.83 7.47 44.3 7.47 45.73 4.75 44.35 4.75 42.92 3.71 42.39 3.71 43.82 1.04 42.46 1.04 41.02 8.51 44.83 8.51 44.38 0 40.05 0 42.35 8.51 46.68 8.51 44.83"/><polygon class="cls-10" points="7.47 44.65 7.47 45.73 4.75 44.35 5.81 43.81 7.47 44.65"/><polygon class="cls-10" points="3.71 42.74 3.71 43.82 1.04 42.46 2.1 41.91 3.71 42.74"/><polygon class="cls-9" points="2.1 41.57 2.1 41.91 1.04 42.46 1.04 41.02 2.1 41.57"/><polygon class="cls-9" points="5.81 43.81 4.75 44.35 4.75 42.92 5.81 43.46 5.81 43.81"/><polygon class="cls-9" points="12.21 43.32 12.21 44.79 10.77 44.05 12.21 43.32"/><polygon class="cls-9" points="15.93 41.42 15.93 42.9 14.48 42.16 15.93 41.42"/><polygon class="cls-10" points="15.93 41.05 14.89 40.52 8.53 43.76 9.57 44.29 15.93 41.05"/><polygon class="cls-11" points="9.57 46.14 8.51 46.68 8.51 44.38 9.57 43.84 9.57 44.29 10.32 43.91 10.32 43.46 11.39 42.92 11.39 43.36 12.21 42.94 12.21 42.49 13.28 41.95 13.28 42.4 14.08 41.99 14.08 41.54 15.15 41 15.15 41.45 15.93 41.05 15.93 40.6 16.99 40.06 16.99 42.35 15.93 42.9 15.93 41.42 13.28 42.77 13.28 44.25 12.21 44.79 12.21 43.32 9.57 44.66 9.57 46.14"/><polygon class="cls-10" points="12.17 39.13 11.14 38.6 4.78 41.85 5.81 42.37 12.17 39.13"/><polygon class="cls-11" points="9.61 37.83 9.61 38.18 8.48 37.61 5.11 39.32 5.78 39.66 5.78 40.06 4.72 39.52 2.91 40.45 2.54 40.26 8.46 37.24 9.61 37.83"/><polygon class="cls-10" points="8.46 37.24 7.42 36.71 1.06 39.95 2.1 40.48 8.46 37.24"/><polygon class="cls-10" points="9.57 43.84 8.51 44.38 0 40.05 1.06 39.51 9.57 43.84"/><polygon class="cls-11" points="13.32 39.72 13.32 40.07 12.2 39.5 6.62 42.34 6.25 42.15 12.17 39.13 13.32 39.72"/><polygon class="cls-10" points="13.28 41.95 12.21 42.49 3.71 38.16 4.77 37.62 13.28 41.95"/><polygon class="cls-9" points="3.71 38.61 12.21 42.94 12.21 42.49 3.71 38.16 3.71 38.61"/><polygon class="cls-10" points="11.39 42.92 10.32 43.46 1.82 39.13 2.88 38.58 11.39 42.92"/><polygon class="cls-9" points="1.82 39.57 10.32 43.91 10.32 43.46 1.82 39.13 1.82 39.57"/><polygon class="cls-10" points="16.99 40.06 15.93 40.6 7.42 36.27 8.49 35.73 16.99 40.06"/><polygon class="cls-9" points="7.42 36.71 15.93 41.05 15.93 40.6 7.42 36.27 7.42 36.71"/><polygon class="cls-10" points="15.15 41 14.08 41.54 5.58 37.21 6.64 36.67 15.15 41"/><polygon class="cls-9" points="5.58 37.66 14.08 41.99 14.08 41.54 5.58 37.21 5.58 37.66"/></g><g id="brick"><polygon class="cls-12" points="12.57 38.89 12.57 39.51 14.85 40.68 14.85 40.05 12.57 38.89"/><polygon class="cls-13" points="14.85 40.05 15.95 39.49 15.95 40.12 14.85 40.68 14.85 40.05"/><polygon class="cls-14" points="12.57 38.89 13.67 38.33 15.95 39.49 14.85 40.05 12.57 38.89"/></g><g id="brick-2" ><polygon class="cls-12" points="11.3 39.53 11.3 40.15 13.59 41.31 13.59 40.69 11.3 39.53"/><polygon class="cls-13" points="13.59 40.69 14.69 40.13 14.69 40.75 13.59 41.31 13.59 40.69"/><polygon class="cls-14" points="11.3 39.53 12.4 38.97 14.69 40.13 13.59 40.69 11.3 39.53"/></g><g id="brick-3" ><polygon class="cls-12" points="10.06 40.13 10.06 40.75 12.34 41.92 12.34 41.29 10.06 40.13"/><polygon class="cls-13" points="12.34 41.29 13.44 40.73 13.44 41.35 12.34 41.92 12.34 41.29"/><polygon class="cls-14" points="10.06 40.13 11.16 39.57 13.44 40.73 12.34 41.29 10.06 40.13"/></g><g id="brick-4" ><polygon class="cls-12" points="8.82 40.75 8.82 41.37 11.1 42.53 11.1 41.91 8.82 40.75"/><polygon class="cls-13" points="11.1 41.91 12.2 41.35 12.2 41.97 11.1 42.53 11.1 41.91"/><polygon class="cls-14" points="8.82 40.75 9.92 40.19 12.2 41.35 11.1 41.91 8.82 40.75"/></g><g id="brick-5" ><polygon class="cls-12" points="7.6 41.4 7.6 42.02 9.88 43.18 9.88 42.56 7.6 41.4"/><polygon class="cls-13" points="9.88 42.56 10.98 42 10.98 42.62 9.88 43.18 9.88 42.56"/><polygon class="cls-14" points="7.6 41.4 8.7 40.84 10.98 42 9.88 42.56 7.6 41.4"/></g><g id="brick-6" ><polygon class="cls-12" points="1.33 39.51 1.33 40.14 3.61 41.3 3.61 40.68 1.33 39.51"/><polygon class="cls-13" points="3.61 40.68 4.71 40.12 4.71 40.74 3.61 41.3 3.61 40.68"/><polygon class="cls-14" points="1.33 39.51 2.43 38.95 4.71 40.12 3.61 40.68 1.33 39.51"/></g><g id="brick-7" ><polygon class="cls-12" points="3.85 40.77 3.85 41.39 6.14 42.55 6.14 41.93 3.85 40.77"/><polygon class="cls-13" points="6.14 41.93 7.24 41.37 7.24 41.99 6.14 42.55 6.14 41.93"/><polygon class="cls-14" points="3.85 40.77 4.96 40.21 7.24 41.37 6.14 41.93 3.85 40.77"/></g><g id="brick-8" ><polygon class="cls-12" points="6.34 42 6.34 42.62 8.62 43.79 8.62 43.16 6.34 42"/><polygon class="cls-13" points="8.62 43.16 9.72 42.6 9.72 43.23 8.62 43.79 8.62 43.16"/><polygon class="cls-14" points="6.34 42 7.44 41.44 9.72 42.6 8.62 43.16 6.34 42"/></g><g id="brick-9" ><polygon class="cls-13" points="4.61 38.2 4.61 38.82 2.33 39.98 2.33 39.36 4.61 38.2"/><polygon class="cls-12" points="2.33 39.36 1.23 38.8 1.23 39.42 2.33 39.98 2.33 39.36"/><polygon class="cls-14" points="4.61 38.2 3.51 37.64 1.23 38.8 2.33 39.36 4.61 38.2"/></g><g id="brick-10" ><polygon class="cls-13" points="5.83 38.84 5.83 39.47 3.55 40.63 3.55 40.01 5.83 38.84"/><polygon class="cls-12" points="3.55 40.01 2.45 39.45 2.45 40.07 3.55 40.63 3.55 40.01"/><polygon class="cls-14" points="5.83 38.84 4.73 38.28 2.45 39.45 3.55 40.01 5.83 38.84"/></g><g id="brick-11" ><polygon class="cls-13" points="7.08 39.49 7.08 40.11 4.79 41.27 4.79 40.65 7.08 39.49"/><polygon class="cls-12" points="4.79 40.65 3.69 40.09 3.69 40.71 4.79 41.27 4.79 40.65"/><polygon class="cls-14" points="7.08 39.49 5.98 38.93 3.69 40.09 4.79 40.65 7.08 39.49"/></g><g id="brick-12" ><polygon class="cls-13" points="8.3 40.12 8.3 40.74 6.02 41.91 6.02 41.28 8.3 40.12"/><polygon class="cls-12" points="6.02 41.28 4.92 40.72 4.92 41.35 6.02 41.91 6.02 41.28"/><polygon class="cls-14" points="8.3 40.12 7.2 39.56 4.92 40.72 6.02 41.28 8.3 40.12"/></g><g id="brick-13" ><polygon class="cls-13" points="9.55 40.76 9.55 41.38 7.26 42.54 7.26 41.92 9.55 40.76"/><polygon class="cls-12" points="7.26 41.92 6.16 41.36 6.16 41.98 7.26 42.54 7.26 41.92"/><polygon class="cls-14" points="9.55 40.76 8.45 40.2 6.16 41.36 7.26 41.92 9.55 40.76"/></g><g id="brick-14" ><polygon class="cls-13" points="15.77 38.76 15.77 39.38 13.49 40.55 13.49 39.92 15.77 38.76"/><polygon class="cls-12" points="13.49 39.92 12.39 39.36 12.39 39.98 13.49 40.55 13.49 39.92"/><polygon class="cls-14" points="15.77 38.76 14.67 38.2 12.39 39.36 13.49 39.92 15.77 38.76"/></g><g id="brick-15" ><polygon class="cls-13" points="13.27 40.05 13.27 40.67 10.99 41.83 10.99 41.21 13.27 40.05"/><polygon class="cls-12" points="10.99 41.21 9.88 40.65 9.88 41.27 10.99 41.83 10.99 41.21"/><polygon class="cls-14" points="13.27 40.05 12.17 39.49 9.88 40.65 10.99 41.21 13.27 40.05"/></g><g id="brick-16" ><polygon class="cls-13" points="10.79 41.37 10.79 41.99 8.51 43.15 8.51 42.53 10.79 41.37"/><polygon class="cls-12" points="8.51 42.53 7.41 41.97 7.41 42.59 8.51 43.15 8.51 42.53"/><polygon class="cls-14" points="10.79 41.37 9.69 40.81 7.41 41.97 8.51 42.53 10.79 41.37"/></g><g id="brick-17" ><polygon class="cls-12" points="12.57 37.61 12.57 38.23 14.85 39.39 14.85 38.77 12.57 37.61"/><polygon class="cls-13" points="14.85 38.77 15.95 38.21 15.95 38.83 14.85 39.39 14.85 38.77"/><polygon class="cls-14" points="12.57 37.61 13.67 37.05 15.95 38.21 14.85 38.77 12.57 37.61"/></g><g id="brick-18" ><polygon class="cls-12" points="11.3 38.24 11.3 38.87 13.58 40.03 13.58 39.41 11.3 38.24"/><polygon class="cls-13" points="13.58 39.41 14.68 38.85 14.68 39.47 13.58 40.03 13.58 39.41"/><polygon class="cls-14" points="11.3 38.24 12.4 37.68 14.68 38.85 13.58 39.41 11.3 38.24"/></g><g id="brick-19" ><polygon class="cls-12" points="10.06 38.85 10.06 39.47 12.34 40.63 12.34 40.01 10.06 38.85"/><polygon class="cls-13" points="12.34 40.01 13.44 39.45 13.44 40.07 12.34 40.63 12.34 40.01"/><polygon class="cls-14" points="10.06 38.85 11.16 38.28 13.44 39.45 12.34 40.01 10.06 38.85"/></g><g id="brick-20" ><polygon class="cls-12" points="8.82 39.46 8.82 40.09 11.1 41.25 11.1 40.63 8.82 39.46"/><polygon class="cls-13" points="11.1 40.63 12.2 40.06 12.2 40.69 11.1 41.25 11.1 40.63"/><polygon class="cls-14" points="8.82 39.46 9.92 38.9 12.2 40.06 11.1 40.63 8.82 39.46"/></g><g id="brick-21" ><polygon class="cls-12" points="7.6 40.11 7.6 40.74 9.88 41.9 9.88 41.28 7.6 40.11"/><polygon class="cls-13" points="9.88 41.28 10.98 40.72 10.98 41.34 9.88 41.9 9.88 41.28"/><polygon class="cls-14" points="7.6 40.11 8.7 39.55 10.98 40.72 9.88 41.28 7.6 40.11"/></g><g id="brick-22" ><polygon class="cls-12" points="1.33 38.23 1.33 38.85 3.61 40.01 3.61 39.39 1.33 38.23"/><polygon class="cls-13" points="3.61 39.39 4.71 38.83 4.71 39.45 3.61 40.01 3.61 39.39"/><polygon class="cls-14" points="1.33 38.23 2.43 37.67 4.71 38.83 3.61 39.39 1.33 38.23"/></g><g id="brick-23" ><polygon class="cls-12" points="3.85 39.48 3.85 40.1 6.13 41.27 6.13 40.65 3.85 39.48"/><polygon class="cls-13" points="6.13 40.65 7.24 40.08 7.24 40.71 6.13 41.27 6.13 40.65"/><polygon class="cls-14" points="3.85 39.48 4.95 38.92 7.24 40.08 6.13 40.65 3.85 39.48"/></g><g id="brick-24" ><polygon class="cls-12" points="6.34 40.72 6.34 41.34 8.62 42.5 8.62 41.88 6.34 40.72"/><polygon class="cls-13" points="8.62 41.88 9.72 41.32 9.72 41.94 8.62 42.5 8.62 41.88"/><polygon class="cls-14" points="6.34 40.72 7.44 40.16 9.72 41.32 8.62 41.88 6.34 40.72"/></g><g id="brick-25" ><polygon class="cls-13" points="4.64 36.91 4.64 37.54 2.35 38.7 2.35 38.08 4.64 36.91"/><polygon class="cls-12" points="2.35 38.08 1.25 37.52 1.25 38.14 2.35 38.7 2.35 38.08"/><polygon class="cls-14" points="4.64 36.91 3.54 36.35 1.25 37.52 2.35 38.08 4.64 36.91"/></g><g id="brick-26" ><polygon class="cls-13" points="5.86 37.56 5.86 38.18 3.58 39.35 3.58 38.72 5.86 37.56"/><polygon class="cls-12" points="3.58 38.72 2.48 38.16 2.48 38.78 3.58 39.35 3.58 38.72"/><polygon class="cls-14" points="5.86 37.56 4.76 37 2.48 38.16 3.58 38.72 5.86 37.56"/></g><g id="brick-27" ><polygon class="cls-13" points="7.11 38.21 7.11 38.83 4.82 39.99 4.82 39.37 7.11 38.21"/><polygon class="cls-12" points="4.82 39.37 3.72 38.81 3.72 39.43 4.82 39.99 4.82 39.37"/><polygon class="cls-14" points="7.11 38.21 6 37.65 3.72 38.81 4.82 39.37 7.11 38.21"/></g><g id="brick-28" ><polygon class="cls-13" points="8.33 38.84 8.33 39.46 6.05 40.62 6.05 40 8.33 38.84"/><polygon class="cls-12" points="6.05 40 4.95 39.44 4.95 40.06 6.05 40.62 6.05 40"/><polygon class="cls-14" points="8.33 38.84 7.23 38.28 4.95 39.44 6.05 40 8.33 38.84"/></g><g id="brick-29" ><polygon class="cls-13" points="9.57 39.48 9.57 40.1 7.29 41.26 7.29 40.64 9.57 39.48"/><polygon class="cls-12" points="7.29 40.64 6.19 40.08 6.19 40.7 7.29 41.26 7.29 40.64"/><polygon class="cls-14" points="9.57 39.48 8.47 38.91 6.19 40.08 7.29 40.64 9.57 39.48"/></g><g id="brick-30" ><polygon class="cls-13" points="15.8 37.48 15.8 38.1 13.52 39.26 13.52 38.64 15.8 37.48"/><polygon class="cls-12" points="13.52 38.64 12.41 38.08 12.41 38.7 13.52 39.26 13.52 38.64"/><polygon class="cls-14" points="15.8 37.48 14.7 36.92 12.41 38.08 13.52 38.64 15.8 37.48"/></g><g id="brick-31" ><polygon class="cls-13" points="13.3 38.77 13.3 39.39 11.01 40.55 11.01 39.93 13.3 38.77"/><polygon class="cls-12" points="11.01 39.93 9.91 39.37 9.91 39.99 11.01 40.55 11.01 39.93"/><polygon class="cls-14" points="13.3 38.77 12.2 38.21 9.91 39.37 11.01 39.93 13.3 38.77"/></g><g id="brick-32" ><polygon class="cls-13" points="10.82 40.09 10.82 40.71 8.54 41.87 8.54 41.25 10.82 40.09"/><polygon class="cls-12" points="8.54 41.25 7.44 40.69 7.44 41.31 8.54 41.87 8.54 41.25"/><polygon class="cls-14" points="10.82 40.09 9.72 39.52 7.44 40.69 8.54 41.25 10.82 40.09"/></g><g id="brick-33" ><polygon class="cls-12" points="12.33 36.38 12.33 37 14.62 38.16 14.62 37.54 12.33 36.38"/><polygon class="cls-13" points="14.62 37.54 15.72 36.98 15.72 37.6 14.62 38.16 14.62 37.54"/><polygon class="cls-14" points="12.33 36.38 13.43 35.82 15.72 36.98 14.62 37.54 12.33 36.38"/></g><g id="brick-34" ><polygon class="cls-12" points="11.07 37.01 11.07 37.64 13.35 38.8 13.35 38.18 11.07 37.01"/><polygon class="cls-13" points="13.35 38.18 14.45 37.62 14.45 38.24 13.35 38.8 13.35 38.18"/><polygon class="cls-14" points="11.07 37.01 12.17 36.45 14.45 37.62 13.35 38.18 11.07 37.01"/></g><g id="brick-35" ><polygon class="cls-12" points="9.82 37.62 9.82 38.24 12.1 39.4 12.1 38.78 9.82 37.62"/><polygon class="cls-13" points="12.1 38.78 13.21 38.22 13.21 38.84 12.1 39.4 12.1 38.78"/><polygon class="cls-14" points="9.82 37.62 10.92 37.05 13.21 38.22 12.1 38.78 9.82 37.62"/></g><g id="brick-36" ><polygon class="cls-12" points="8.58 38.23 8.58 38.85 10.86 40.02 10.86 39.4 8.58 38.23"/><polygon class="cls-13" points="10.86 39.4 11.96 38.84 11.96 39.46 10.86 40.02 10.86 39.4"/><polygon class="cls-14" points="8.58 38.23 9.68 37.67 11.96 38.84 10.86 39.4 8.58 38.23"/></g><g id="brick-37" ><polygon class="cls-12" points="7.37 38.88 7.37 39.51 9.65 40.67 9.65 40.05 7.37 38.88"/><polygon class="cls-13" points="9.65 40.05 10.75 39.49 10.75 40.11 9.65 40.67 9.65 40.05"/><polygon class="cls-14" points="7.37 38.88 8.47 38.32 10.75 39.49 9.65 40.05 7.37 38.88"/></g><g id="brick-38" ><polygon class="cls-12" points="1.1 37 1.1 37.62 3.38 38.78 3.38 38.16 1.1 37"/><polygon class="cls-13" points="3.38 38.16 4.48 37.6 4.48 38.22 3.38 38.78 3.38 38.16"/><polygon class="cls-14" points="1.1 37 2.2 36.44 4.48 37.6 3.38 38.16 1.1 37"/></g><g id="brick-39" ><polygon class="cls-12" points="3.62 38.25 3.62 38.88 5.9 40.04 5.9 39.41 3.62 38.25"/><polygon class="cls-13" points="5.9 39.41 7 38.85 7 39.48 5.9 40.04 5.9 39.41"/><polygon class="cls-14" points="3.62 38.25 4.72 37.69 7 38.85 5.9 39.41 3.62 38.25"/></g><g id="brick-40" ><polygon class="cls-12" points="6.1 39.49 6.1 40.11 8.38 41.27 8.38 40.65 6.1 39.49"/><polygon class="cls-13" points="8.38 40.65 9.48 40.09 9.48 40.71 8.38 41.27 8.38 40.65"/><polygon class="cls-14" points="6.1 39.49 7.2 38.92 9.48 40.09 8.38 40.65 6.1 39.49"/></g><g id="brick-41" ><polygon class="cls-13" points="4.67 35.72 4.67 36.34 2.39 37.5 2.39 36.88 4.67 35.72"/><polygon class="cls-12" points="2.39 36.88 1.29 36.32 1.29 36.94 2.39 37.5 2.39 36.88"/><polygon class="cls-14" points="4.67 35.72 3.57 35.16 1.29 36.32 2.39 36.88 4.67 35.72"/></g><g id="brick-42" ><polygon class="cls-13" points="5.89 36.36 5.89 36.99 3.61 38.15 3.61 37.53 5.89 36.36"/><polygon class="cls-12" points="3.61 37.53 2.51 36.97 2.51 37.59 3.61 38.15 3.61 37.53"/><polygon class="cls-14" points="5.89 36.36 4.79 35.8 2.51 36.97 3.61 37.53 5.89 36.36"/></g><g id="brick-43" ><polygon class="cls-13" points="7.14 37.01 7.14 37.63 4.86 38.8 4.86 38.17 7.14 37.01"/><polygon class="cls-12" points="4.86 38.17 3.76 37.61 3.76 38.23 4.86 38.8 4.86 38.17"/><polygon class="cls-14" points="7.14 37.01 6.04 36.45 3.76 37.61 4.86 38.17 7.14 37.01"/></g><g id="brick-44" ><polygon class="cls-13" points="8.36 37.64 8.36 38.27 6.08 39.43 6.08 38.8 8.36 37.64"/><polygon class="cls-12" points="6.08 38.8 4.98 38.24 4.98 38.87 6.08 39.43 6.08 38.8"/><polygon class="cls-14" points="8.36 37.64 7.26 37.08 4.98 38.24 6.08 38.8 8.36 37.64"/></g><g id="brick-45" ><polygon class="cls-13" points="9.61 38.28 9.61 38.9 7.33 40.06 7.33 39.44 9.61 38.28"/><polygon class="cls-12" points="7.33 39.44 6.23 38.88 6.23 39.5 7.33 40.06 7.33 39.44"/><polygon class="cls-14" points="9.61 38.28 8.51 37.72 6.23 38.88 7.33 39.44 9.61 38.28"/></g><g id="brick-46" ><polygon class="cls-13" points="15.83 36.28 15.83 36.9 13.55 38.07 13.55 37.44 15.83 36.28"/><polygon class="cls-12" points="13.55 37.44 12.45 36.88 12.45 37.51 13.55 38.07 13.55 37.44"/><polygon class="cls-14" points="15.83 36.28 14.73 35.72 12.45 36.88 13.55 37.44 15.83 36.28"/></g><g id="brick-47" ><polygon class="cls-13" points="13.33 37.57 13.33 38.19 11.05 39.35 11.05 38.73 13.33 37.57"/><polygon class="cls-12" points="11.05 38.73 9.95 38.17 9.95 38.79 11.05 39.35 11.05 38.73"/><polygon class="cls-14" points="13.33 37.57 12.23 37.01 9.95 38.17 11.05 38.73 13.33 37.57"/></g><g id="brick-48" ><polygon class="cls-13" points="10.85 38.89 10.85 39.51 8.57 40.67 8.57 40.05 10.85 38.89"/><polygon class="cls-12" points="8.57 40.05 7.47 39.49 7.47 40.11 8.57 40.67 8.57 40.05"/><polygon class="cls-14" points="10.85 38.89 9.75 38.33 7.47 39.49 8.57 40.05 10.85 38.89"/></g><g id="brick-49" ><polygon class="cls-12" points="12.39 35.16 12.39 35.79 14.68 36.95 14.68 36.33 12.39 35.16"/><polygon class="cls-13" points="14.68 36.33 15.78 35.77 15.78 36.39 14.68 36.95 14.68 36.33"/><polygon class="cls-14" points="12.39 35.16 13.49 34.6 15.78 35.77 14.68 36.33 12.39 35.16"/></g><g id="brick-50" ><polygon class="cls-12" points="11.13 35.8 11.13 36.42 13.41 37.59 13.41 36.96 11.13 35.8"/><polygon class="cls-13" points="13.41 36.96 14.51 36.4 14.51 37.03 13.41 37.59 13.41 36.96"/><polygon class="cls-14" points="11.13 35.8 12.23 35.24 14.51 36.4 13.41 36.96 11.13 35.8"/></g><g id="brick-51" ><polygon class="cls-12" points="9.88 36.4 9.88 37.03 12.16 38.19 12.16 37.57 9.88 36.4"/><polygon class="cls-13" points="12.16 37.57 13.27 37.01 13.27 37.63 12.16 38.19 12.16 37.57"/><polygon class="cls-14" points="9.88 36.4 10.98 35.84 13.27 37.01 12.16 37.57 9.88 36.4"/></g><g id="brick-52" ><polygon class="cls-12" points="8.64 37.02 8.64 37.64 10.92 38.8 10.92 38.18 8.64 37.02"/><polygon class="cls-13" points="10.92 38.18 12.03 37.62 12.03 38.24 10.92 38.8 10.92 38.18"/><polygon class="cls-14" points="8.64 37.02 9.74 36.46 12.03 37.62 10.92 38.18 8.64 37.02"/></g><g id="brick-53" ><polygon class="cls-12" points="7.43 37.67 7.43 38.29 9.71 39.46 9.71 38.83 7.43 37.67"/><polygon class="cls-13" points="9.71 38.83 10.81 38.27 10.81 38.9 9.71 39.46 9.71 38.83"/><polygon class="cls-14" points="7.43 37.67 8.53 37.11 10.81 38.27 9.71 38.83 7.43 37.67"/></g><g id="brick-54" ><polygon class="cls-12" points="1.16 35.79 1.16 36.41 3.44 37.57 3.44 36.95 1.16 35.79"/><polygon class="cls-13" points="3.44 36.95 4.54 36.39 4.54 37.01 3.44 37.57 3.44 36.95"/><polygon class="cls-14" points="1.16 35.79 2.26 35.23 4.54 36.39 3.44 36.95 1.16 35.79"/></g><g id="brick-55" ><polygon class="cls-12" points="3.68 37.04 3.68 37.66 5.96 38.83 5.96 38.2 3.68 37.04"/><polygon class="cls-13" points="5.96 38.2 7.06 37.64 7.06 38.26 5.96 38.83 5.96 38.2"/><polygon class="cls-14" points="3.68 37.04 4.78 36.48 7.06 37.64 5.96 38.2 3.68 37.04"/></g><g id="brick-56" ><polygon class="cls-12" points="6.16 38.27 6.16 38.9 8.44 40.06 8.44 39.44 6.16 38.27"/><polygon class="cls-13" points="8.44 39.44 9.54 38.88 9.54 39.5 8.44 40.06 8.44 39.44"/><polygon class="cls-14" points="6.16 38.27 7.26 37.71 9.54 38.88 8.44 39.44 6.16 38.27"/></g><g id="brick-57" ><polygon class="cls-12" points="12.28 34.58 12.28 35.2 14.56 36.37 14.56 35.74 12.28 34.58"/><polygon class="cls-13" points="14.56 35.74 15.66 35.18 15.66 35.81 14.56 36.37 14.56 35.74"/><polygon class="cls-14" points="12.28 34.58 13.38 34.02 15.66 35.18 14.56 35.74 12.28 34.58"/></g><g id="brick-58" ><polygon class="cls-12" points="11.01 35.22 11.01 35.84 13.29 37 13.29 36.38 11.01 35.22"/><polygon class="cls-13" points="13.29 36.38 14.39 35.82 14.39 36.44 13.29 37 13.29 36.38"/><polygon class="cls-14" points="11.01 35.22 12.11 34.66 14.39 35.82 13.29 36.38 11.01 35.22"/></g><g id="brick-59" ><polygon class="cls-12" points="9.77 35.82 9.77 36.44 12.05 37.61 12.05 36.98 9.77 35.82"/><polygon class="cls-13" points="12.05 36.98 13.15 36.42 13.15 37.05 12.05 37.61 12.05 36.98"/><polygon class="cls-14" points="9.77 35.82 10.87 35.26 13.15 36.42 12.05 36.98 9.77 35.82"/></g><g id="brick-60" ><polygon class="cls-12" points="8.52 36.44 8.52 37.06 10.81 38.22 10.81 37.6 8.52 36.44"/><polygon class="cls-13" points="10.81 37.6 11.91 37.04 11.91 37.66 10.81 38.22 10.81 37.6"/><polygon class="cls-14" points="8.52 36.44 9.63 35.88 11.91 37.04 10.81 37.6 8.52 36.44"/></g><g id="brick-61" ><polygon class="cls-12" points="7.31 37.09 7.31 37.71 9.59 38.87 9.59 38.25 7.31 37.09"/><polygon class="cls-13" points="9.59 38.25 10.69 37.69 10.69 38.31 9.59 38.87 9.59 38.25"/><polygon class="cls-14" points="7.31 37.09 8.41 36.53 10.69 37.69 9.59 38.25 7.31 37.09"/></g><g id="brick-62" ><polygon class="cls-12" points="1.04 35.2 1.04 35.83 3.32 36.99 3.32 36.37 1.04 35.2"/><polygon class="cls-13" points="3.32 36.37 4.42 35.81 4.42 36.43 3.32 36.99 3.32 36.37"/><polygon class="cls-14" points="1.04 35.2 2.14 34.64 4.42 35.81 3.32 36.37 1.04 35.2"/></g><g id="brick-63" ><polygon class="cls-12" points="3.56 36.46 3.56 37.08 5.84 38.24 5.84 37.62 3.56 36.46"/><polygon class="cls-13" points="5.84 37.62 6.94 37.06 6.94 37.68 5.84 38.24 5.84 37.62"/><polygon class="cls-14" points="3.56 36.46 4.66 35.9 6.94 37.06 5.84 37.62 3.56 36.46"/></g><g id="brick-64" ><polygon class="cls-12" points="6.04 37.69 6.04 38.31 8.33 39.48 8.33 38.85 6.04 37.69"/><polygon class="cls-13" points="8.33 38.85 9.43 38.29 9.43 38.91 8.33 39.48 8.33 38.85"/><polygon class="cls-14" points="6.04 37.69 7.14 37.13 9.43 38.29 8.33 38.85 6.04 37.69"/></g><g id="brick-65" ><polygon class="cls-13" points="4.61 33.92 4.61 34.55 2.33 35.71 2.33 35.09 4.61 33.92"/><polygon class="cls-12" points="2.33 35.09 1.23 34.52 1.23 35.15 2.33 35.71 2.33 35.09"/><polygon class="cls-14" points="4.61 33.92 3.51 33.36 1.23 34.52 2.33 35.09 4.61 33.92"/></g><g id="brick-66" ><polygon class="cls-13" points="5.84 34.57 5.84 35.19 3.56 36.35 3.56 35.73 5.84 34.57"/><polygon class="cls-12" points="3.56 35.73 2.46 35.17 2.46 35.79 3.56 36.35 3.56 35.73"/><polygon class="cls-14" points="5.84 34.57 4.74 34.01 2.46 35.17 3.56 35.73 5.84 34.57"/></g><g id="brick-67" ><polygon class="cls-13" points="7.08 35.22 7.08 35.84 4.8 37 4.8 36.38 7.08 35.22"/><polygon class="cls-12" points="4.8 36.38 3.7 35.82 3.7 36.44 4.8 37 4.8 36.38"/><polygon class="cls-14" points="7.08 35.22 5.98 34.65 3.7 35.82 4.8 36.38 7.08 35.22"/></g><g id="brick-68" ><polygon class="cls-13" points="8.31 35.85 8.31 36.47 6.03 37.63 6.03 37.01 8.31 35.85"/><polygon class="cls-12" points="6.03 37.01 4.92 36.45 4.92 37.07 6.03 37.63 6.03 37.01"/><polygon class="cls-14" points="8.31 35.85 7.21 35.29 4.92 36.45 6.03 37.01 8.31 35.85"/></g><g id="brick-69" ><polygon class="cls-13" points="9.55 36.48 9.55 37.1 7.27 38.27 7.27 37.65 9.55 36.48"/><polygon class="cls-12" points="7.27 37.65 6.17 37.08 6.17 37.71 7.27 38.27 7.27 37.65"/><polygon class="cls-14" points="9.55 36.48 8.45 35.92 6.17 37.08 7.27 37.65 9.55 36.48"/></g><g id="brick-70" ><polygon class="cls-13" points="15.77 34.49 15.77 35.11 13.49 36.27 13.49 35.65 15.77 34.49"/><polygon class="cls-12" points="13.49 35.65 12.39 35.09 12.39 35.71 13.49 36.27 13.49 35.65"/><polygon class="cls-14" points="15.77 34.49 14.67 33.92 12.39 35.09 13.49 35.65 15.77 34.49"/></g><g id="brick-71" ><polygon class="cls-13" points="13.27 35.77 13.27 36.4 10.99 37.56 10.99 36.94 13.27 35.77"/><polygon class="cls-12" points="10.99 36.94 9.89 36.38 9.89 37 10.99 37.56 10.99 36.94"/><polygon class="cls-14" points="13.27 35.77 12.17 35.21 9.89 36.38 10.99 36.94 13.27 35.77"/></g><g id="brick-72" ><polygon class="cls-13" points="10.8 37.09 10.8 37.72 8.51 38.88 8.51 38.26 10.8 37.09"/><polygon class="cls-12" points="8.51 38.26 7.41 37.69 7.41 38.32 8.51 38.88 8.51 38.26"/><polygon class="cls-14" points="10.8 37.09 9.7 36.53 7.41 37.69 8.51 38.26 10.8 37.09"/></g><g id="brick-73" ><polygon class="cls-12" points="7.33 30.88 7.33 31.5 9.61 32.67 9.61 32.05 7.33 30.88"/><polygon class="cls-13" points="9.61 32.05 10.71 31.48 10.71 32.11 9.61 32.67 9.61 32.05"/><polygon class="cls-14" points="7.33 30.88 8.43 30.32 10.71 31.48 9.61 32.05 7.33 30.88"/><ellipse class="cls-15" cx="7.98" cy="30.9" rx="0.2" ry="0.12"/><ellipse class="cls-15" cx="8.42" cy="31.12" rx="0.2" ry="0.12"/><ellipse class="cls-15" cx="8.91" cy="30.88" rx="0.2" ry="0.12"/><ellipse class="cls-15" cx="8.47" cy="30.65" rx="0.2" ry="0.12"/><ellipse class="cls-15" cx="9.14" cy="31.47" rx="0.2" ry="0.12"/><ellipse class="cls-15" cx="9.58" cy="31.69" rx="0.2" ry="0.12"/><ellipse class="cls-15" cx="10.07" cy="31.45" rx="0.2" ry="0.12"/><ellipse class="cls-15" cx="9.63" cy="31.22" rx="0.2" ry="0.12"/></g><g id="brick-74" ><polygon class="cls-12" points="9.85 32.14 9.85 32.76 12.13 33.92 12.13 33.3 9.85 32.14"/><polygon class="cls-13" points="12.13 33.3 13.23 32.74 13.23 33.36 12.13 33.92 12.13 33.3"/><polygon class="cls-14" points="9.85 32.14 10.95 31.57 13.23 32.74 12.13 33.3 9.85 32.14"/><ellipse class="cls-15" cx="10.51" cy="32.15" rx="0.2" ry="0.12"/><ellipse class="cls-15" cx="10.94" cy="32.38" rx="0.2" ry="0.12"/><ellipse class="cls-15" cx="11.43" cy="32.13" rx="0.2" ry="0.12"/><ellipse class="cls-15" cx="10.99" cy="31.91" rx="0.2" ry="0.12"/><ellipse class="cls-15" cx="11.67" cy="32.72" rx="0.2" ry="0.12"/><ellipse class="cls-15" cx="12.1" cy="32.95" rx="0.2" ry="0.12"/><ellipse class="cls-15" cx="12.59" cy="32.7" rx="0.2" ry="0.12"/><ellipse class="cls-15" cx="12.15" cy="32.48" rx="0.2" ry="0.12"/></g><g id="brick-75" ><polygon class="cls-12" points="12.34 33.37 12.34 33.99 14.62 35.15 14.62 34.53 12.34 33.37"/><polygon class="cls-13" points="14.62 34.53 15.72 33.97 15.72 34.59 14.62 35.15 14.62 34.53"/><polygon class="cls-14" points="12.34 33.37 13.44 32.81 15.72 33.97 14.62 34.53 12.34 33.37"/><ellipse class="cls-15" cx="12.99" cy="33.39" rx="0.2" ry="0.12"/><ellipse class="cls-15" cx="13.43" cy="33.61" rx="0.2" ry="0.12"/><ellipse class="cls-15" cx="13.91" cy="33.36" rx="0.2" ry="0.12"/><ellipse class="cls-15" cx="13.47" cy="33.14" rx="0.2" ry="0.12"/><ellipse class="cls-15" cx="14.15" cy="33.96" rx="0.2" ry="0.12"/><ellipse class="cls-15" cx="14.59" cy="34.18" rx="0.2" ry="0.12"/><ellipse class="cls-15" cx="15.07" cy="33.93" rx="0.2" ry="0.12"/><ellipse class="cls-15" cx="14.63" cy="33.71" rx="0.2" ry="0.12"/></g><g id="brick-76" ><polygon class="cls-12" points="6.06 31.52 6.06 32.14 8.35 33.3 8.35 32.68 6.06 31.52"/><polygon class="cls-13" points="8.35 32.68 9.45 32.12 9.45 32.74 8.35 33.3 8.35 32.68"/><polygon class="cls-14" points="6.06 31.52 7.17 30.96 9.45 32.12 8.35 32.68 6.06 31.52"/><ellipse class="cls-15" cx="6.72" cy="31.54" rx="0.2" ry="0.12"/><ellipse class="cls-15" cx="7.16" cy="31.76" rx="0.2" ry="0.12"/><ellipse class="cls-15" cx="7.64" cy="31.51" rx="0.2" ry="0.12"/><ellipse class="cls-15" cx="7.2" cy="31.29" rx="0.2" ry="0.12"/><ellipse class="cls-15" cx="7.88" cy="32.11" rx="0.2" ry="0.12"/><ellipse class="cls-15" cx="8.32" cy="32.33" rx="0.2" ry="0.12"/><ellipse class="cls-15" cx="8.8" cy="32.08" rx="0.2" ry="0.12"/><ellipse class="cls-15" cx="8.36" cy="31.86" rx="0.2" ry="0.12"/></g><g id="brick-77" ><polygon class="cls-12" points="8.59 32.77 8.59 33.4 10.87 34.56 10.87 33.94 8.59 32.77"/><polygon class="cls-13" points="10.87 33.94 11.97 33.37 11.97 34 10.87 34.56 10.87 33.94"/><polygon class="cls-14" points="8.59 32.77 9.69 32.21 11.97 33.37 10.87 33.94 8.59 32.77"/><ellipse class="cls-15" cx="9.24" cy="32.79" rx="0.2" ry="0.12"/><ellipse class="cls-15" cx="9.68" cy="33.01" rx="0.2" ry="0.12"/><ellipse class="cls-15" cx="10.16" cy="32.77" rx="0.2" ry="0.12"/><ellipse class="cls-15" cx="9.72" cy="32.54" rx="0.2" ry="0.12"/><ellipse class="cls-15" cx="10.4" cy="33.36" rx="0.2" ry="0.12"/><ellipse class="cls-15" cx="10.84" cy="33.58" rx="0.2" ry="0.12"/><ellipse class="cls-15" cx="11.32" cy="33.34" rx="0.2" ry="0.12"/><ellipse class="cls-15" cx="10.88" cy="33.11" rx="0.2" ry="0.12"/></g><g id="brick-78" ><polygon class="cls-12" points="11.07 34.01 11.07 34.63 13.35 35.79 13.35 35.17 11.07 34.01"/><polygon class="cls-13" points="13.35 35.17 14.45 34.61 14.45 35.23 13.35 35.79 13.35 35.17"/><polygon class="cls-14" points="11.07 34.01 12.17 33.45 14.45 34.61 13.35 35.17 11.07 34.01"/><ellipse class="cls-15" cx="11.72" cy="34.02" rx="0.2" ry="0.12"/><ellipse class="cls-15" cx="12.16" cy="34.25" rx="0.2" ry="0.12"/><ellipse class="cls-15" cx="12.65" cy="34" rx="0.2" ry="0.12"/><ellipse class="cls-15" cx="12.21" cy="33.78" rx="0.2" ry="0.12"/><ellipse class="cls-15" cx="12.88" cy="34.59" rx="0.2" ry="0.12"/><ellipse class="cls-15" cx="13.32" cy="34.82" rx="0.2" ry="0.12"/><ellipse class="cls-15" cx="13.81" cy="34.57" rx="0.2" ry="0.12"/><ellipse class="cls-15" cx="13.37" cy="34.35" rx="0.2" ry="0.12"/></g><g id="brick-79" ><polygon class="cls-12" points="4.82 32.12 4.82 32.74 7.1 33.91 7.1 33.28 4.82 32.12"/><polygon class="cls-13" points="7.1 33.28 8.2 32.72 8.2 33.34 7.1 33.91 7.1 33.28"/><polygon class="cls-14" points="4.82 32.12 5.92 31.56 8.2 32.72 7.1 33.28 4.82 32.12"/><ellipse class="cls-15" cx="5.47" cy="32.14" rx="0.2" ry="0.12"/><ellipse class="cls-15" cx="5.91" cy="32.36" rx="0.2" ry="0.12"/><ellipse class="cls-15" cx="6.4" cy="32.11" rx="0.2" ry="0.12"/><ellipse class="cls-15" cx="5.96" cy="31.89" rx="0.2" ry="0.12"/><ellipse class="cls-15" cx="6.63" cy="32.71" rx="0.2" ry="0.12"/><ellipse class="cls-15" cx="7.07" cy="32.93" rx="0.2" ry="0.12"/><ellipse class="cls-15" cx="7.56" cy="32.68" rx="0.2" ry="0.12"/><ellipse class="cls-15" cx="7.12" cy="32.46" rx="0.2" ry="0.12"/></g><g id="brick-80" ><polygon class="cls-12" points="7.34 33.37 7.34 34 9.62 35.16 9.62 34.54 7.34 33.37"/><polygon class="cls-13" points="9.62 34.54 10.72 33.98 10.72 34.6 9.62 35.16 9.62 34.54"/><polygon class="cls-14" points="7.34 33.37 8.44 32.81 10.72 33.98 9.62 34.54 7.34 33.37"/><ellipse class="cls-15" cx="7.99" cy="33.39" rx="0.2" ry="0.12"/><ellipse class="cls-15" cx="8.43" cy="33.61" rx="0.2" ry="0.12"/><ellipse class="cls-15" cx="8.92" cy="33.37" rx="0.2" ry="0.12"/><ellipse class="cls-15" cx="8.48" cy="33.14" rx="0.2" ry="0.12"/><ellipse class="cls-15" cx="9.15" cy="33.96" rx="0.2" ry="0.12"/><ellipse class="cls-15" cx="9.59" cy="34.19" rx="0.2" ry="0.12"/><ellipse class="cls-15" cx="10.08" cy="33.94" rx="0.2" ry="0.12"/><ellipse class="cls-15" cx="9.64" cy="33.71" rx="0.2" ry="0.12"/></g><g id="brick-81" ><polygon class="cls-12" points="9.82 34.61 9.82 35.23 12.11 36.39 12.11 35.77 9.82 34.61"/><polygon class="cls-13" points="12.11 35.77 13.21 35.21 13.21 35.83 12.11 36.39 12.11 35.77"/><polygon class="cls-14" points="9.82 34.61 10.93 34.05 13.21 35.21 12.11 35.77 9.82 34.61"/><ellipse class="cls-15" cx="10.48" cy="34.62" rx="0.2" ry="0.12"/><ellipse class="cls-15" cx="10.92" cy="34.85" rx="0.2" ry="0.12"/><ellipse class="cls-15" cx="11.4" cy="34.6" rx="0.2" ry="0.12"/><ellipse class="cls-15" cx="10.96" cy="34.38" rx="0.2" ry="0.12"/><ellipse class="cls-15" cx="11.64" cy="35.2" rx="0.2" ry="0.12"/><ellipse class="cls-15" cx="12.08" cy="35.42" rx="0.2" ry="0.12"/><ellipse class="cls-15" cx="12.56" cy="35.17" rx="0.2" ry="0.12"/><ellipse class="cls-15" cx="12.12" cy="34.95" rx="0.2" ry="0.12"/></g><g id="brick-82" ><polygon class="cls-12" points="3.58 32.74 3.58 33.36 5.86 34.52 5.86 33.9 3.58 32.74"/><polygon class="cls-13" points="5.86 33.9 6.96 33.34 6.96 33.96 5.86 34.52 5.86 33.9"/><polygon class="cls-14" points="3.58 32.74 4.68 32.18 6.96 33.34 5.86 33.9 3.58 32.74"/><ellipse class="cls-15" cx="4.23" cy="32.75" rx="0.2" ry="0.12"/><ellipse class="cls-15" cx="4.67" cy="32.98" rx="0.2" ry="0.12"/><ellipse class="cls-15" cx="5.16" cy="32.73" rx="0.2" ry="0.12"/><ellipse class="cls-15" cx="4.72" cy="32.51" rx="0.2" ry="0.12"/><ellipse class="cls-15" cx="5.39" cy="33.33" rx="0.2" ry="0.12"/><ellipse class="cls-15" cx="5.83" cy="33.55" rx="0.2" ry="0.12"/><ellipse class="cls-15" cx="6.32" cy="33.3" rx="0.2" ry="0.12"/><ellipse class="cls-15" cx="5.88" cy="33.08" rx="0.2" ry="0.12"/></g><g id="brick-83" ><polygon class="cls-12" points="6.1 33.99 6.1 34.61 8.38 35.78 8.38 35.15 6.1 33.99"/><polygon class="cls-13" points="8.38 35.15 9.48 34.59 9.48 35.22 8.38 35.78 8.38 35.15"/><polygon class="cls-14" points="6.1 33.99 7.2 33.43 9.48 34.59 8.38 35.15 6.1 33.99"/><ellipse class="cls-15" cx="6.75" cy="34.01" rx="0.2" ry="0.12"/><ellipse class="cls-15" cx="7.19" cy="34.23" rx="0.2" ry="0.12"/><ellipse class="cls-15" cx="7.68" cy="33.98" rx="0.2" ry="0.12"/><ellipse class="cls-15" cx="7.24" cy="33.76" rx="0.2" ry="0.12"/><ellipse class="cls-15" cx="7.91" cy="34.58" rx="0.2" ry="0.12"/><ellipse class="cls-15" cx="8.35" cy="34.8" rx="0.2" ry="0.12"/><ellipse class="cls-15" cx="8.84" cy="34.55" rx="0.2" ry="0.12"/><ellipse class="cls-15" cx="8.4" cy="34.33" rx="0.2" ry="0.12"/></g><g id="brick-84" ><polygon class="cls-12" points="8.59 35.23 8.59 35.85 10.87 37.01 10.87 36.39 8.59 35.23"/><polygon class="cls-13" points="10.87 36.39 11.97 35.83 11.97 36.45 10.87 37.01 10.87 36.39"/><polygon class="cls-14" points="8.59 35.23 9.69 34.66 11.97 35.83 10.87 36.39 8.59 35.23"/><ellipse class="cls-15" cx="9.24" cy="35.24" rx="0.2" ry="0.12"/><ellipse class="cls-15" cx="9.68" cy="35.46" rx="0.2" ry="0.12"/><ellipse class="cls-15" cx="10.16" cy="35.22" rx="0.2" ry="0.12"/><ellipse class="cls-15" cx="9.72" cy="34.99" rx="0.2" ry="0.12"/><ellipse class="cls-15" cx="10.4" cy="35.81" rx="0.2" ry="0.12"/><ellipse class="cls-15" cx="10.84" cy="36.04" rx="0.2" ry="0.12"/><ellipse class="cls-15" cx="11.32" cy="35.79" rx="0.2" ry="0.12"/><ellipse class="cls-15" cx="10.88" cy="35.56" rx="0.2" ry="0.12"/></g><g id="brick-85" ><polygon class="cls-12" points="2.36 33.39 2.36 34.01 4.64 35.17 4.64 34.55 2.36 33.39"/><polygon class="cls-13" points="4.64 34.55 5.75 33.99 5.75 34.61 4.64 35.17 4.64 34.55"/><polygon class="cls-14" points="2.36 33.39 3.46 32.83 5.75 33.99 4.64 34.55 2.36 33.39"/><ellipse class="cls-15" cx="3.02" cy="33.41" rx="0.2" ry="0.12"/><ellipse class="cls-15" cx="3.45" cy="33.63" rx="0.2" ry="0.12"/><ellipse class="cls-15" cx="3.94" cy="33.38" rx="0.2" ry="0.12"/><ellipse class="cls-15" cx="3.5" cy="33.16" rx="0.2" ry="0.12"/><ellipse class="cls-15" cx="4.18" cy="33.98" rx="0.2" ry="0.12"/><ellipse class="cls-15" cx="4.61" cy="34.2" rx="0.2" ry="0.12"/><ellipse class="cls-15" cx="5.1" cy="33.95" rx="0.2" ry="0.12"/><ellipse class="cls-15" cx="4.66" cy="33.73" rx="0.2" ry="0.12"/></g><g id="brick-86" ><polygon class="cls-12" points="4.88 34.64 4.88 35.27 7.17 36.43 7.17 35.8 4.88 34.64"/><polygon class="cls-13" points="7.17 35.8 8.27 35.24 8.27 35.87 7.17 36.43 7.17 35.8"/><polygon class="cls-14" points="4.88 34.64 5.99 34.08 8.27 35.24 7.17 35.8 4.88 34.64"/><ellipse class="cls-15" cx="5.54" cy="34.66" rx="0.2" ry="0.12"/><ellipse class="cls-15" cx="5.98" cy="34.88" rx="0.2" ry="0.12"/><ellipse class="cls-15" cx="6.46" cy="34.64" rx="0.2" ry="0.12"/><ellipse class="cls-15" cx="6.02" cy="34.41" rx="0.2" ry="0.12"/><ellipse class="cls-15" cx="6.7" cy="35.23" rx="0.2" ry="0.12"/><ellipse class="cls-15" cx="7.14" cy="35.45" rx="0.2" ry="0.12"/><ellipse class="cls-15" cx="7.62" cy="35.21" rx="0.2" ry="0.12"/><ellipse class="cls-15" cx="7.18" cy="34.98" rx="0.2" ry="0.12"/></g><g id="brick-87" ><polygon class="cls-12" points="7.37 35.88 7.37 36.5 9.65 37.66 9.65 37.04 7.37 35.88"/><polygon class="cls-13" points="9.65 37.04 10.75 36.48 10.75 37.1 9.65 37.66 9.65 37.04"/><polygon class="cls-14" points="7.37 35.88 8.47 35.31 10.75 36.48 9.65 37.04 7.37 35.88"/><ellipse class="cls-15" cx="8.02" cy="35.89" rx="0.2" ry="0.12"/><ellipse class="cls-15" cx="8.46" cy="36.12" rx="0.2" ry="0.12"/><ellipse class="cls-15" cx="8.94" cy="35.87" rx="0.2" ry="0.12"/><ellipse class="cls-15" cx="8.51" cy="35.65" rx="0.2" ry="0.12"/><ellipse class="cls-15" cx="9.18" cy="36.46" rx="0.2" ry="0.12"/><ellipse class="cls-15" cx="9.62" cy="36.69" rx="0.2" ry="0.12"/><ellipse class="cls-15" cx="10.11" cy="36.44" rx="0.2" ry="0.12"/><ellipse class="cls-15" cx="9.67" cy="36.22" rx="0.2" ry="0.12"/></g><g id="brick-88" ><polygon class="cls-12" points="1.1 33.99 1.1 34.61 3.38 35.78 3.38 35.15 1.1 33.99"/><polygon class="cls-13" points="3.38 35.15 4.48 34.59 4.48 35.22 3.38 35.78 3.38 35.15"/><polygon class="cls-14" points="1.1 33.99 2.2 33.43 4.48 34.59 3.38 35.15 1.1 33.99"/><ellipse class="cls-15" cx="1.75" cy="34.01" rx="0.2" ry="0.12"/><ellipse class="cls-15" cx="2.19" cy="34.23" rx="0.2" ry="0.12"/><ellipse class="cls-15" cx="2.68" cy="33.98" rx="0.2" ry="0.12"/><ellipse class="cls-15" cx="2.24" cy="33.76" rx="0.2" ry="0.12"/><ellipse class="cls-15" cx="2.91" cy="34.58" rx="0.2" ry="0.12"/><ellipse class="cls-15" cx="3.35" cy="34.8" rx="0.2" ry="0.12"/><ellipse class="cls-15" cx="3.84" cy="34.55" rx="0.2" ry="0.12"/><ellipse class="cls-15" cx="3.4" cy="34.33" rx="0.2" ry="0.12"/></g><g id="brick-89" ><polygon class="cls-12" points="3.62 35.24 3.62 35.87 5.9 37.03 5.9 36.41 3.62 35.24"/><polygon class="cls-13" points="5.9 36.41 7 35.85 7 36.47 5.9 37.03 5.9 36.41"/><polygon class="cls-14" points="3.62 35.24 4.72 34.68 7 35.85 5.9 36.41 3.62 35.24"/><ellipse class="cls-15" cx="4.27" cy="35.26" rx="0.2" ry="0.12"/><ellipse class="cls-15" cx="4.71" cy="35.48" rx="0.2" ry="0.12"/><ellipse class="cls-15" cx="5.2" cy="35.24" rx="0.2" ry="0.12"/><ellipse class="cls-15" cx="4.76" cy="35.01" rx="0.2" ry="0.12"/><ellipse class="cls-15" cx="5.43" cy="35.83" rx="0.2" ry="0.12"/><ellipse class="cls-15" cx="5.87" cy="36.06" rx="0.2" ry="0.12"/><ellipse class="cls-15" cx="6.36" cy="35.81" rx="0.2" ry="0.12"/><ellipse class="cls-15" cx="5.92" cy="35.58" rx="0.2" ry="0.12"/></g><g id="brick-90" ><polygon class="cls-12" points="6.11 36.48 6.11 37.1 8.39 38.26 8.39 37.64 6.11 36.48"/><polygon class="cls-13" points="8.39 37.64 9.49 37.08 9.49 37.7 8.39 38.26 8.39 37.64"/><polygon class="cls-14" points="6.11 36.48 7.21 35.92 9.49 37.08 8.39 37.64 6.11 36.48"/><ellipse class="cls-15" cx="6.76" cy="36.49" rx="0.2" ry="0.12"/><ellipse class="cls-15" cx="7.2" cy="36.72" rx="0.2" ry="0.12"/><ellipse class="cls-15" cx="7.68" cy="36.47" rx="0.2" ry="0.12"/><ellipse class="cls-15" cx="7.24" cy="36.25" rx="0.2" ry="0.12"/><ellipse class="cls-15" cx="7.92" cy="37.07" rx="0.2" ry="0.12"/><ellipse class="cls-15" cx="8.36" cy="37.29" rx="0.2" ry="0.12"/><ellipse class="cls-15" cx="8.84" cy="37.04" rx="0.2" ry="0.12"/><ellipse class="cls-15" cx="8.4" cy="36.82" rx="0.2" ry="0.12"/></g></g><polygon class="cls-16" points="1.89 33.61 3.9 32.58 11.22 36.24 9.21 37.27 1.89 33.61"/><polygon class="cls-16" points="5.55 31.76 7.56 30.74 14.88 34.4 12.87 35.42 5.55 31.76"/><polygon class="cls-16" points="15.07 33.63 14.05 33.12 6.77 36.83 7.79 37.34 15.07 33.63"/><polygon class="cls-16" points="12.58 32.39 11.56 31.87 4.28 35.58 5.31 36.1 12.58 32.39"/><polygon class="cls-16" points="10.06 31.16 9.04 30.64 1.76 34.35 2.78 34.87 10.06 31.16"/><polygon class="cls-17" points="7.29 43.76 7.79 37.34 6.77 36.83 6.27 43.24 7.29 43.76"/><polygon class="cls-17" points="4.73 42.46 5.31 36.1 4.28 35.58 3.71 41.94 4.73 42.46"/><polygon class="cls-17" points="2.61 41.38 2.78 34.87 1.76 34.35 1.59 40.87 2.61 41.38"/><polygon class="cls-18" points="9.83 43.72 9.21 37.27 11.22 36.25 11.84 42.7 9.83 43.72"/><polygon class="cls-18" points="13.71 41.75 12.87 35.42 14.88 34.4 15.72 40.72 13.71 41.75"/><polygon class="cls-19" points="9.83 44.53 9.83 43.72 11.84 42.7 11.84 43.51 9.83 44.53"/><polygon class="cls-19" points="13.71 42.56 13.71 41.75 15.72 40.72 15.72 41.53 13.71 42.56"/><polygon class="cls-20" points="7.29 44.21 7.29 43.76 6.27 43.24 6.27 43.69 7.29 44.21"/><polygon class="cls-20" points="2.61 41.83 2.61 41.38 1.59 40.87 1.59 41.31 2.61 41.83"/><polygon class="cls-20" points="4.73 44.76 4.73 42.46 3.71 41.94 3.71 44.24 4.73 44.76"/><polygon class="cls-1" points="7.19 44.16 8.49 19.88 8.78 19.58 8.93 19.61 8.77 19.83 7.47 44.3 7.19 44.16"/><polygon class="cls-1" points="8.75 19.58 8.47 19.88 1.33 41.17 1.04 41.02 8.19 19.81 8.47 19.47 8.75 19.58"/><polygon class="cls-1" points="13.49 32.84 9.21 20.37 9.49 20.26 13.76 32.98 13.49 32.84"/><polygon class="cls-1" points="9.44 30.84 8.54 20.43 8.82 20.45 9.72 30.99 9.44 30.84"/></g></g></g></g></g></g></svg>