<svg xmlns="http://www.w3.org/2000/svg" viewBox="0 0 200.46 94.33"><g id="Шар_2"><g><g id="insolution_painting"><g id="base"><polygon class="cls-1" points="157.84 83.65 153.35 81.36 137.27 89.56 141.76 91.85 157.84 83.65"/><polygon class="cls-2" points="138.46 78.44 137.87 78.75 137.86 89.86 138.46 89.56 138.46 78.44"/><polygon class="cls-3" points="137.87 78.75 137.27 78.44 137.27 89.56 137.86 89.86 137.87 78.75"/><polygon class="cls-4" points="138.46 78.44 137.87 78.14 137.27 78.44 137.87 78.75 138.46 78.44"/><polygon class="cls-3" points="141.16 90.74 137.96 89.11 137.96 89.42 141.16 91.05 141.16 90.74"/><polygon class="cls-4" points="141.16 90.42 138.27 88.95 137.96 89.11 141.16 90.74 141.16 90.42"/><polygon class="cls-2" points="141.16 82.9 137.96 81.27 137.96 81.58 141.16 83.22 141.16 82.9"/><polygon class="cls-4" points="141.16 82.59 138.27 81.11 137.96 81.27 141.16 82.9 141.16 82.59"/><polygon class="cls-2" points="157.84 72.54 157.25 72.84 157.25 83.95 157.84 83.65 157.84 72.54"/><polygon class="cls-4" points="157.84 72.54 157.25 72.24 156.66 72.54 157.25 72.84 157.84 72.54"/><polygon class="cls-2" points="153.94 70.55 153.35 70.86 153.35 81.97 153.95 81.67 153.94 70.55"/><polygon class="cls-3" points="153.35 70.86 152.76 70.55 152.76 81.67 153.35 81.97 153.35 70.86"/><polygon class="cls-4" points="153.94 70.55 153.35 70.25 152.76 70.55 153.35 70.86 153.94 70.55"/><polygon class="cls-3" points="156.66 82.85 153.45 81.21 153.45 81.53 156.66 83.16 156.66 82.85"/><polygon class="cls-4" points="156.66 82.53 153.76 81.06 153.45 81.21 156.66 82.85 156.66 82.53"/><polygon class="cls-3" points="156.66 78.92 153.45 77.29 153.45 77.6 156.66 79.24 156.66 78.92"/><polygon class="cls-4" points="156.66 78.61 153.76 77.13 153.45 77.29 156.66 78.92 156.66 78.61"/><polygon class="cls-5" points="153.18 73.88 138.46 88.58 138.46 88.23 152.95 73.76 153.18 73.88"/><polygon class="cls-2" points="153.18 73.88 153.18 74.2 138.46 88.95 138.46 88.58 153.18 73.88"/><polygon class="cls-3" points="141.16 86.81 137.96 85.18 137.96 85.5 141.16 87.13 141.16 86.81"/><polygon class="cls-4" points="141.16 86.5 138.27 85.02 137.96 85.18 141.16 86.81 141.16 86.5"/><polygon class="cls-6" points="141.16 82.65 137.86 80.97 137.86 81.31 141.16 83 141.16 82.65"/><polygon class="cls-3" points="157.25 72.84 156.66 72.54 156.66 83.65 157.25 83.95 157.25 72.84"/><polygon class="cls-5" points="157.07 75.79 142.35 90.49 142.35 90.15 156.85 75.67 157.07 75.79"/><polygon class="cls-2" points="157.07 75.79 157.07 76.11 142.35 90.86 142.35 90.49 157.07 75.79"/><polygon class="cls-7" points="156.65 74.76 157.25 75.06 142.35 82.65 142.35 82.05 141.16 82.65 137.86 80.97 138.46 80.66 138.46 80.07 152.77 72.78 153.35 73.07 153.95 72.77 156.66 74.15 156.65 74.76"/><polygon class="cls-8" points="157.25 75.06 157.25 75.41 142.35 83 142.35 82.65 157.25 75.06"/><polygon class="cls-2" points="142.35 80.43 141.76 80.73 141.76 91.85 142.35 91.54 142.35 80.43"/><polygon class="cls-3" points="141.76 80.73 141.17 80.43 141.16 91.55 141.76 91.85 141.76 80.73"/><polygon class="cls-4" points="142.35 80.43 141.76 80.13 141.17 80.43 141.76 80.73 142.35 80.43"/><polygon class="cls-1" points="200.46 72.27 195.97 69.98 179.88 78.18 184.37 80.46 200.46 72.27"/><polygon class="cls-2" points="181.07 67.06 180.48 67.36 180.48 78.48 181.07 78.17 181.07 67.06"/><polygon class="cls-3" points="180.48 67.36 179.89 67.06 179.88 78.18 180.48 78.48 180.48 67.36"/><polygon class="cls-4" points="181.07 67.06 180.48 66.76 179.89 67.06 180.48 67.36 181.07 67.06"/><polygon class="cls-3" points="183.78 79.36 180.57 77.72 180.57 78.04 183.78 79.67 183.78 79.36"/><polygon class="cls-4" points="183.78 79.04 180.88 77.56 180.57 77.72 183.78 79.36 183.78 79.04"/><polygon class="cls-2" points="183.78 71.52 180.57 69.88 180.57 70.2 183.78 71.83 183.78 71.52"/><polygon class="cls-4" points="183.78 71.2 180.88 69.73 180.57 69.88 183.78 71.52 183.78 71.2"/><polygon class="cls-2" points="200.46 61.16 199.86 61.46 199.86 72.57 200.46 72.27 200.46 61.16"/><polygon class="cls-4" points="200.46 61.16 199.86 60.85 199.27 61.16 199.86 61.46 200.46 61.16"/><polygon class="cls-2" points="196.56 59.17 195.97 59.47 195.97 70.58 196.56 70.28 196.56 59.17"/><polygon class="cls-3" points="195.97 59.47 195.38 59.17 195.38 70.28 195.97 70.58 195.97 59.47"/><polygon class="cls-4" points="196.56 59.17 195.97 58.87 195.38 59.17 195.97 59.47 196.56 59.17"/><polygon class="cls-3" points="199.27 71.46 196.06 69.83 196.06 70.14 199.27 71.78 199.27 71.46"/><polygon class="cls-4" points="199.27 71.15 196.37 69.67 196.06 69.83 199.27 71.46 199.27 71.15"/><polygon class="cls-3" points="199.27 67.54 196.06 65.9 196.06 66.22 199.27 67.85 199.27 67.54"/><polygon class="cls-4" points="199.27 67.22 196.37 65.75 196.06 65.9 199.27 67.54 199.27 67.22"/><polygon class="cls-5" points="195.79 62.49 181.07 77.19 181.07 76.85 195.57 62.38 195.79 62.49"/><polygon class="cls-2" points="195.79 62.49 195.79 62.81 181.07 77.56 181.07 77.19 195.79 62.49"/><polygon class="cls-3" points="183.78 75.43 180.57 73.8 180.57 74.11 183.78 75.75 183.78 75.43"/><polygon class="cls-4" points="183.78 75.12 180.88 73.64 180.57 73.8 183.78 75.43 183.78 75.12"/><polygon class="cls-6" points="183.78 71.27 180.48 69.58 180.48 69.93 183.78 71.61 183.78 71.27"/><polygon class="cls-3" points="199.86 61.46 199.27 61.16 199.27 72.27 199.86 72.57 199.86 61.46"/><polygon class="cls-5" points="199.69 64.4 184.97 79.1 184.97 78.76 199.46 64.29 199.69 64.4"/><polygon class="cls-2" points="199.69 64.4 199.69 64.72 184.97 79.48 184.97 79.1 199.69 64.4"/><polygon class="cls-7" points="199.27 63.37 199.86 63.67 184.97 71.27 184.97 70.67 183.78 71.27 180.48 69.58 181.07 69.28 181.07 68.68 195.38 61.39 195.97 61.69 196.56 61.39 199.27 62.77 199.27 63.37"/><polygon class="cls-8" points="199.86 63.67 199.86 64.03 184.97 71.61 184.97 71.27 199.86 63.67"/><polygon class="cls-2" points="184.97 69.05 184.38 69.35 184.37 80.46 184.97 80.16 184.97 69.05"/><polygon class="cls-3" points="184.38 69.35 183.78 69.05 183.78 80.16 184.37 80.46 184.38 69.35"/><polygon class="cls-4" points="184.97 69.05 184.38 68.74 183.78 69.05 184.38 69.35 184.97 69.05"/><polygon class="cls-1" points="184.97 80.16 180.48 77.87 164.39 86.07 168.88 88.36 184.97 80.16"/><polygon class="cls-2" points="165.58 74.95 164.99 75.26 164.99 86.37 165.58 86.07 165.58 74.95"/><polygon class="cls-3" points="164.99 75.26 164.4 74.95 164.39 86.07 164.99 86.37 164.99 75.26"/><polygon class="cls-4" points="165.58 74.95 164.99 74.65 164.4 74.95 164.99 75.26 165.58 74.95"/><polygon class="cls-3" points="168.29 87.25 165.08 85.61 165.08 85.93 168.29 87.56 168.29 87.25"/><polygon class="cls-4" points="168.29 86.94 165.39 85.46 165.08 85.61 168.29 87.25 168.29 86.94"/><polygon class="cls-2" points="168.29 79.41 165.08 77.78 165.08 78.09 168.29 79.72 168.29 79.41"/><polygon class="cls-4" points="168.29 79.1 165.39 77.62 165.08 77.78 168.29 79.41 168.29 79.1"/><polygon class="cls-2" points="184.96 69.05 184.37 69.35 184.37 80.46 184.97 80.16 184.96 69.05"/><polygon class="cls-4" points="184.96 69.05 184.37 68.75 183.78 69.05 184.37 69.35 184.96 69.05"/><polygon class="cls-2" points="181.07 67.06 180.48 67.36 180.48 78.48 181.07 78.17 181.07 67.06"/><polygon class="cls-3" points="180.48 67.36 179.88 67.06 179.88 78.18 180.48 78.48 180.48 67.36"/><polygon class="cls-4" points="181.07 67.06 180.48 66.76 179.88 67.06 180.48 67.36 181.07 67.06"/><polygon class="cls-3" points="183.78 79.36 180.57 77.72 180.57 78.04 183.78 79.67 183.78 79.36"/><polygon class="cls-4" points="183.78 79.04 180.88 77.56 180.57 77.72 183.78 79.36 183.78 79.04"/><polygon class="cls-3" points="183.78 75.43 180.57 73.8 180.57 74.11 183.78 75.75 183.78 75.43"/><polygon class="cls-4" points="183.78 75.12 180.88 73.64 180.57 73.8 183.78 75.43 183.78 75.12"/><polygon class="cls-5" points="180.3 70.39 165.58 85.08 165.58 84.74 180.08 70.27 180.3 70.39"/><polygon class="cls-2" points="180.3 70.39 180.3 70.7 165.58 85.46 165.58 85.08 180.3 70.39"/><polygon class="cls-3" points="168.29 83.32 165.08 81.69 165.08 82 168.29 83.64 168.29 83.32"/><polygon class="cls-4" points="168.29 83.01 165.39 81.53 165.08 81.69 168.29 83.32 168.29 83.01"/><polygon class="cls-6" points="168.29 79.16 164.99 77.48 164.99 77.82 168.29 79.51 168.29 79.16"/><polygon class="cls-3" points="184.37 69.35 183.78 69.05 183.78 80.16 184.37 80.46 184.37 69.35"/><polygon class="cls-5" points="184.2 72.3 169.48 87 169.48 86.66 183.97 72.18 184.2 72.3"/><polygon class="cls-2" points="184.2 72.3 184.2 72.62 169.48 87.37 169.48 87 184.2 72.3"/><polygon class="cls-7" points="183.78 71.27 184.37 71.57 169.48 79.16 169.48 78.56 168.29 79.16 164.99 77.48 165.58 77.17 165.58 76.58 179.89 69.28 180.48 69.58 181.07 69.28 183.78 70.66 183.78 71.27"/><polygon class="cls-8" points="184.37 71.57 184.37 71.92 169.48 79.51 169.48 79.16 184.37 71.57"/><polygon class="cls-2" points="169.48 76.94 168.88 77.24 168.88 88.36 169.48 88.05 169.48 76.94"/><polygon class="cls-3" points="168.88 77.24 168.29 76.94 168.29 88.05 168.88 88.36 168.88 77.24"/><polygon class="cls-4" points="169.48 76.94 168.88 76.64 168.29 76.94 168.88 77.24 169.48 76.94"/><polygon class="cls-1" points="105.31 78.24 109.79 75.96 125.88 84.15 121.39 86.44 105.31 78.24"/><polygon class="cls-3" points="124.69 73.04 125.28 73.34 125.29 84.45 124.69 84.15 124.69 73.04"/><polygon class="cls-2" points="125.28 73.34 125.88 73.04 125.88 84.15 125.29 84.45 125.28 73.34"/><polygon class="cls-4" points="124.69 73.04 125.28 72.74 125.88 73.04 125.28 73.34 124.69 73.04"/><polygon class="cls-2" points="121.98 85.33 125.19 83.7 125.19 84.01 121.98 85.65 121.98 85.33"/><polygon class="cls-4" points="121.98 85.02 124.88 83.54 125.19 83.7 121.98 85.33 121.98 85.02"/><polygon class="cls-2" points="121.98 77.49 125.19 75.86 125.19 76.17 121.98 77.81 121.98 77.49"/><polygon class="cls-4" points="121.98 77.18 124.88 75.7 125.19 75.86 121.98 77.49 121.98 77.18"/><polygon class="cls-3" points="105.31 67.13 105.9 67.43 105.9 78.55 105.31 78.24 105.31 67.13"/><polygon class="cls-4" points="105.31 67.13 105.9 66.83 106.49 67.13 105.9 67.43 105.31 67.13"/><polygon class="cls-3" points="109.2 65.15 109.8 65.45 109.8 76.56 109.2 76.26 109.2 65.15"/><polygon class="cls-2" points="109.8 65.45 110.39 65.15 110.39 76.26 109.8 76.56 109.8 65.45"/><polygon class="cls-4" points="109.2 65.15 109.8 64.84 110.39 65.15 109.8 65.45 109.2 65.15"/><polygon class="cls-2" points="106.49 77.44 109.7 75.81 109.7 76.12 106.49 77.75 106.49 77.44"/><polygon class="cls-4" points="106.49 77.13 109.39 75.65 109.7 75.81 106.49 77.44 106.49 77.13"/><polygon class="cls-2" points="106.49 73.51 109.7 71.88 109.7 72.19 106.49 73.83 106.49 73.51"/><polygon class="cls-4" points="106.49 73.2 109.39 71.72 109.7 71.88 106.49 73.51 106.49 73.2"/><polygon class="cls-5" points="109.97 68.47 124.69 83.17 124.69 82.83 110.19 68.35 109.97 68.47"/><polygon class="cls-3" points="109.97 68.47 109.97 68.79 124.69 83.54 124.69 83.17 109.97 68.47"/><polygon class="cls-2" points="121.98 81.41 125.19 79.77 125.19 80.09 121.98 81.72 121.98 81.41"/><polygon class="cls-4" points="121.98 81.09 124.88 79.62 125.19 79.77 121.98 81.41 121.98 81.09"/><polygon class="cls-8" points="121.98 77.24 125.29 75.56 125.29 75.91 121.98 77.59 121.98 77.24"/><polygon class="cls-2" points="105.9 67.43 106.49 67.13 106.49 78.25 105.9 78.55 105.9 67.43"/><polygon class="cls-5" points="106.07 70.38 120.8 85.08 120.8 84.74 106.3 70.27 106.07 70.38"/><polygon class="cls-3" points="106.07 70.38 106.07 70.7 120.8 85.45 120.8 85.08 106.07 70.38"/><polygon class="cls-7" points="106.5 69.35 105.9 69.65 120.8 77.24 120.8 76.64 121.98 77.24 125.29 75.56 124.69 75.26 124.69 74.66 110.38 67.37 109.8 67.67 109.2 67.36 106.49 68.74 106.5 69.35"/><polygon class="cls-6" points="105.9 69.65 105.9 70 120.8 77.59 120.8 77.24 105.9 69.65"/><polygon class="cls-3" points="120.8 75.02 121.39 75.33 121.39 86.44 120.8 86.14 120.8 75.02"/><polygon class="cls-2" points="121.39 75.33 121.98 75.02 121.98 86.14 121.39 86.44 121.39 75.33"/><polygon class="cls-4" points="120.8 75.02 121.39 74.72 121.98 75.02 121.39 75.33 120.8 75.02"/><polygon class="cls-1" points="120.8 86.14 125.28 83.85 141.37 92.05 136.88 94.33 120.8 86.14"/><polygon class="cls-3" points="140.18 80.93 140.78 81.23 140.78 92.35 140.18 92.05 140.18 80.93"/><polygon class="cls-2" points="140.78 81.23 141.37 80.93 141.37 92.05 140.78 92.35 140.78 81.23"/><polygon class="cls-4" points="140.18 80.93 140.78 80.63 141.37 80.93 140.78 81.23 140.18 80.93"/><polygon class="cls-2" points="137.47 93.22 140.68 91.59 140.68 91.91 137.47 93.54 137.47 93.22"/><polygon class="cls-4" points="137.47 92.91 140.37 91.43 140.68 91.59 137.47 93.22 137.47 92.91"/><polygon class="cls-2" points="137.47 85.39 140.68 83.75 140.68 84.07 137.47 85.7 137.47 85.39"/><polygon class="cls-4" points="137.47 85.07 140.37 83.59 140.68 83.75 137.47 85.39 137.47 85.07"/><polygon class="cls-3" points="120.8 75.02 121.39 75.33 121.39 86.44 120.8 86.14 120.8 75.02"/><polygon class="cls-4" points="120.8 75.02 121.39 74.72 121.98 75.02 121.39 75.33 120.8 75.02"/><polygon class="cls-3" points="124.69 73.04 125.29 73.34 125.29 84.45 124.69 84.15 124.69 73.04"/><polygon class="cls-2" points="125.29 73.34 125.88 73.04 125.88 84.15 125.29 84.45 125.29 73.34"/><polygon class="cls-4" points="124.69 73.04 125.29 72.74 125.88 73.04 125.29 73.34 124.69 73.04"/><polygon class="cls-2" points="121.98 85.33 125.19 83.7 125.19 84.01 121.98 85.65 121.98 85.33"/><polygon class="cls-4" points="121.98 85.02 124.88 83.54 125.19 83.7 121.98 85.33 121.98 85.02"/><polygon class="cls-2" points="121.98 81.41 125.19 79.77 125.19 80.09 121.98 81.72 121.98 81.41"/><polygon class="cls-4" points="121.98 81.09 124.88 79.62 125.19 79.77 121.98 81.41 121.98 81.09"/><polygon class="cls-5" points="125.46 76.36 140.18 91.06 140.18 90.72 125.69 76.25 125.46 76.36"/><polygon class="cls-3" points="125.46 76.36 125.46 76.68 140.18 91.43 140.18 91.06 125.46 76.36"/><polygon class="cls-2" points="137.47 89.3 140.68 87.67 140.68 87.98 137.47 89.61 137.47 89.3"/><polygon class="cls-4" points="137.47 88.99 140.37 87.51 140.68 87.67 137.47 89.3 137.47 88.99"/><polygon class="cls-8" points="137.47 85.14 140.78 83.45 140.78 83.8 137.47 85.48 137.47 85.14"/><polygon class="cls-2" points="121.39 75.33 121.98 75.02 121.98 86.14 121.39 86.44 121.39 75.33"/><polygon class="cls-5" points="121.56 78.27 136.29 92.97 136.29 92.63 121.79 78.16 121.56 78.27"/><polygon class="cls-3" points="121.56 78.27 121.56 78.59 136.29 93.34 136.29 92.97 121.56 78.27"/><polygon class="cls-7" points="121.99 77.24 121.39 77.55 136.29 85.14 136.29 84.54 137.47 85.14 140.78 83.45 140.18 83.15 140.18 82.55 125.87 75.26 125.29 75.56 124.69 75.26 121.98 76.64 121.99 77.24"/><polygon class="cls-6" points="121.39 77.55 121.39 77.89 136.29 85.48 136.29 85.14 121.39 77.55"/><polygon class="cls-3" points="136.29 82.92 136.88 83.22 136.88 94.33 136.29 94.03 136.29 82.92"/><polygon class="cls-2" points="136.88 83.22 137.47 82.92 137.47 94.03 136.88 94.33 136.88 83.22"/><polygon class="cls-4" points="136.29 82.92 136.88 82.61 137.47 82.92 136.88 83.22 136.29 82.92"/><polygon class="cls-1" points="42.58 55.83 47.06 53.55 63.15 61.74 58.66 64.03 42.58 55.83"/><polygon class="cls-3" points="61.96 50.63 62.55 50.93 62.56 62.05 61.96 61.74 61.96 50.63"/><polygon class="cls-2" points="62.55 50.93 63.15 50.63 63.15 61.74 62.56 62.05 62.55 50.93"/><polygon class="cls-4" points="61.96 50.63 62.55 50.33 63.15 50.63 62.55 50.93 61.96 50.63"/><polygon class="cls-2" points="59.26 62.92 62.46 61.29 62.46 61.6 59.26 63.24 59.26 62.92"/><polygon class="cls-4" points="59.26 62.61 62.16 61.13 62.46 61.29 59.26 62.92 59.26 62.61"/><polygon class="cls-2" points="59.26 55.08 62.46 53.45 62.46 53.76 59.26 55.4 59.26 55.08"/><polygon class="cls-4" points="59.26 54.77 62.16 53.29 62.46 53.45 59.26 55.08 59.26 54.77"/><polygon class="cls-3" points="42.58 44.72 43.17 45.02 43.17 56.14 42.58 55.83 42.58 44.72"/><polygon class="cls-4" points="42.58 44.72 43.17 44.42 43.76 44.72 43.17 45.02 42.58 44.72"/><polygon class="cls-3" points="46.48 42.74 47.07 43.04 47.07 54.15 46.47 53.85 46.48 42.74"/><polygon class="cls-2" points="47.07 43.04 47.66 42.74 47.66 53.85 47.07 54.15 47.07 43.04"/><polygon class="cls-4" points="46.48 42.74 47.07 42.44 47.66 42.74 47.07 43.04 46.48 42.74"/><polygon class="cls-2" points="43.76 55.03 46.97 53.4 46.97 53.71 43.76 55.34 43.76 55.03"/><polygon class="cls-4" points="43.76 54.72 46.66 53.24 46.97 53.4 43.76 55.03 43.76 54.72"/><polygon class="cls-2" points="43.76 51.1 46.97 49.47 46.97 49.78 43.76 51.42 43.76 51.1"/><polygon class="cls-4" points="43.76 50.79 46.66 49.31 46.97 49.47 43.76 51.1 43.76 50.79"/><polygon class="cls-5" points="47.24 46.06 61.96 60.76 61.96 60.42 47.47 45.94 47.24 46.06"/><polygon class="cls-3" points="47.24 46.06 47.24 46.38 61.96 61.13 61.96 60.76 47.24 46.06"/><g class="stage-1" id="s1"><polygon class="cls-9" points="55.89 50.91 55.35 51.19 46.95 46.91 47.5 46.63 55.89 50.91"/><polygon class="cls-10" points="55.89 50.91 55.89 58.73 55.35 59.01 55.35 51.19 55.89 50.91"/><polygon class="cls-11" points="55.35 51.19 55.35 59.01 46.95 54.73 46.95 46.91 55.35 51.19"/><polygon class="cls-9" points="55.27 50.96 54.73 51.24 46.33 46.96 46.88 46.68 55.27 50.96"/><polygon class="cls-10" points="55.27 50.96 55.27 58.78 54.73 59.05 54.73 51.24 55.27 50.96"/><polygon class="cls-11" points="54.73 51.24 54.73 59.05 46.33 54.78 46.33 46.96 54.73 51.24"/><polygon class="cls-9" points="54.8 51.57 54.25 51.85 45.86 47.57 46.4 47.3 54.8 51.57"/><polygon class="cls-10" points="54.8 51.57 54.8 59.39 54.25 59.67 54.25 51.85 54.8 51.57"/><polygon class="cls-11" points="54.25 51.85 54.25 59.67 45.86 55.39 45.86 47.57 54.25 51.85"/><polygon class="cls-9" points="54.18 51.98 53.63 52.26 45.24 47.98 45.79 47.7 54.18 51.98"/><polygon class="cls-10" points="54.18 51.98 54.18 59.8 53.63 60.08 53.63 52.26 54.18 51.98"/><polygon class="cls-11" points="53.63 52.26 53.63 60.08 45.24 55.8 45.24 47.98 53.63 52.26"/><polygon class="cls-9" points="53.56 52.03 53.02 52.31 44.62 48.03 45.17 47.76 53.56 52.03"/><polygon class="cls-10" points="53.56 52.03 53.56 59.85 53.02 60.13 53.02 52.31 53.56 52.03"/><polygon class="cls-11" points="53.02 52.31 53.02 60.13 44.62 55.85 44.62 48.03 53.02 52.31"/><polygon class="cls-9" points="53.09 52.64 52.54 52.92 44.15 48.64 44.69 48.37 53.09 52.64"/><polygon class="cls-10" points="53.09 52.64 53.09 60.46 52.54 60.74 52.54 52.92 53.09 52.64"/><polygon class="cls-11" points="52.54 52.92 52.54 60.74 44.15 56.46 44.15 48.64 52.54 52.92"/></g><polygon class="cls-2" points="59.26 59 62.46 57.36 62.46 57.68 59.26 59.31 59.26 59"/><polygon class="cls-4" points="59.26 58.68 62.16 57.21 62.46 57.36 59.26 59 59.26 58.68"/><polygon class="cls-8" points="59.26 54.83 62.56 53.15 62.56 53.5 59.26 55.18 59.26 54.83"/><polygon class="cls-2" points="43.17 45.02 43.76 44.72 43.76 55.84 43.17 56.14 43.17 45.02"/><polygon class="cls-5" points="43.34 47.97 58.07 62.67 58.07 62.33 43.57 47.85 43.34 47.97"/><polygon class="cls-3" points="43.34 47.97 43.34 48.29 58.07 63.04 58.07 62.67 43.34 47.97"/><polygon class="cls-7" points="43.77 46.94 43.17 47.24 58.07 54.83 58.07 54.23 59.26 54.83 62.56 53.15 61.96 52.85 61.96 52.25 47.65 44.96 47.07 45.26 46.47 44.95 43.76 46.33 43.77 46.94"/><polygon class="cls-6" points="43.17 47.24 43.17 47.59 58.07 55.18 58.07 54.83 43.17 47.24"/><polygon class="cls-3" points="58.07 52.61 58.66 52.91 58.66 64.03 58.07 63.73 58.07 52.61"/><polygon class="cls-2" points="58.66 52.91 59.25 52.61 59.26 63.73 58.66 64.03 58.66 52.91"/><polygon class="cls-4" points="58.07 52.61 58.66 52.31 59.25 52.61 58.66 52.91 58.07 52.61"/><polygon class="cls-1" points="58.07 63.73 62.56 61.44 78.64 69.64 74.15 71.92 58.07 63.73"/><polygon class="cls-3" points="77.45 58.52 78.05 58.82 78.05 69.94 77.45 69.64 77.45 58.52"/><polygon class="cls-2" points="78.05 58.82 78.64 58.52 78.64 69.64 78.05 69.94 78.05 58.82"/><polygon class="cls-4" points="77.45 58.52 78.05 58.22 78.64 58.52 78.05 58.82 77.45 58.52"/><polygon class="cls-2" points="74.75 70.81 77.95 69.18 77.95 69.5 74.75 71.13 74.75 70.81"/><polygon class="cls-4" points="74.75 70.5 77.64 69.02 77.95 69.18 74.75 70.81 74.75 70.5"/><polygon class="cls-2" points="74.75 62.98 77.95 61.34 77.95 61.66 74.75 63.29 74.75 62.98"/><polygon class="cls-4" points="74.75 62.66 77.64 61.19 77.95 61.34 74.75 62.98 74.75 62.66"/><polygon class="cls-3" points="58.07 52.61 58.66 52.92 58.66 64.03 58.07 63.73 58.07 52.61"/><polygon class="cls-4" points="58.07 52.61 58.66 52.31 59.26 52.61 58.66 52.92 58.07 52.61"/><polygon class="cls-3" points="61.97 50.63 62.56 50.93 62.56 62.05 61.96 61.74 61.97 50.63"/><polygon class="cls-2" points="62.56 50.93 63.15 50.63 63.15 61.74 62.56 62.05 62.56 50.93"/><polygon class="cls-4" points="61.97 50.63 62.56 50.33 63.15 50.63 62.56 50.93 61.97 50.63"/><polygon class="cls-2" points="59.26 62.92 62.46 61.29 62.46 61.6 59.26 63.24 59.26 62.92"/><polygon class="cls-4" points="59.26 62.61 62.16 61.13 62.46 61.29 59.26 62.92 59.26 62.61"/><polygon class="cls-2" points="59.26 59 62.46 57.36 62.46 57.68 59.26 59.31 59.26 59"/><polygon class="cls-4" points="59.26 58.68 62.16 57.21 62.46 57.36 59.26 59 59.26 58.68"/><polygon class="cls-5" points="62.73 53.95 77.45 68.65 77.45 68.31 62.96 53.84 62.73 53.95"/><polygon class="cls-3" points="62.73 53.95 62.73 54.27 77.45 69.02 77.45 68.65 62.73 53.95"/><polygon class="cls-2" points="74.75 66.89 77.95 65.26 77.95 65.57 74.75 67.2 74.75 66.89"/><polygon class="cls-4" points="74.75 66.58 77.64 65.1 77.95 65.26 74.75 66.89 74.75 66.58"/><polygon class="cls-8" points="74.75 62.73 78.05 61.04 78.05 61.39 74.75 63.07 74.75 62.73"/><polygon class="cls-2" points="58.66 52.92 59.26 52.61 59.26 63.73 58.66 64.03 58.66 52.92"/><g class="stage-2" id="s2"><ellipse class="cls-12" cx="71.09" cy="68.32" rx="1.86" ry="1.07"/><rect class="cls-12" x="69.23" y="66.95" width="3.72" height="1.38"/><path class="cls-13" d="M71.09,68.3c-1,0-1.86-.48-1.86-1.07V68c0,.59.83,1.07,1.86,1.07a3.29,3.29,0,0,0,.45,0v-.81A3.29,3.29,0,0,1,71.09,68.3Z"/><path class="cls-14" d="M72.4,67.55v.37s0,.17.17.06c.46-.29.48-.41.48-.59v-.48Z"/><path class="cls-15" d="M72.69,67.49s.59.05.57-.2a.36.36,0,0,0-.2-.26l.08-.13s.29.2.26.41c0,.39-.71.34-.71.34Z"/><ellipse class="cls-15" cx="72.69" cy="67.57" rx="0.06" ry="0.08"/><ellipse class="cls-14" cx="71.09" cy="66.75" rx="2.07" ry="1.18"/><rect class="cls-14" x="69.03" y="66.5" width="4.13" height="0.24"/><path class="cls-16" d="M73.16,66.5c0,.65-.93,1.18-2.07,1.18S69,67.15,69,66.5s.92-1.17,2.06-1.17a2.16,2.16,0,0,1,2,.91A.8.8,0,0,1,73.16,66.5Z"/><polygon class="cls-16" points="72.98 65.94 73.11 66.24 69.09 66.21 69.2 65.97 72.98 65.94"/><ellipse class="cls-17" cx="71.1" cy="66.32" rx="1.99" ry="1.17"/><ellipse class="cls-18" cx="71.1" cy="66.31" rx="1.94" ry="1.12"/><path class="cls-19" d="M71.1,65.41c-1,0-1.82.5-1.82,1.12a.74.74,0,0,0,0,.25,2.28,2.28,0,0,0,1.77.66,2.25,2.25,0,0,0,1.77-.68.59.59,0,0,0,0-.23C72.91,65.91,72.1,65.41,71.1,65.41Z"/><ellipse class="cls-13" cx="71.09" cy="66.43" rx="1.55" ry="0.87"/><ellipse class="cls-12" cx="71.09" cy="66.24" rx="1.86" ry="1.07"/><rect class="cls-12" x="69.23" y="64.87" width="3.72" height="1.38"/><path class="cls-13" d="M71.09,66.22c-1,0-1.86-.48-1.86-1.07V66c0,.59.83,1.07,1.86,1.07a3.29,3.29,0,0,0,.45,0v-.81A3.29,3.29,0,0,1,71.09,66.22Z"/><path class="cls-14" d="M72.4,65.47v.37s0,.17.17.06c.46-.29.48-.41.48-.59v-.48Z"/><path class="cls-15" d="M72.69,65.41s.59,0,.57-.2a.36.36,0,0,0-.2-.26l.08-.14s.29.21.26.42c0,.39-.71.34-.71.34Z"/><ellipse class="cls-15" cx="72.69" cy="65.49" rx="0.06" ry="0.08"/><ellipse class="cls-14" cx="71.09" cy="64.66" rx="2.07" ry="1.18"/><rect class="cls-14" x="69.03" y="64.42" width="4.13" height="0.24"/><path class="cls-16" d="M73.16,64.42c0,.65-.93,1.18-2.07,1.18S69,65.07,69,64.42s.92-1.17,2.06-1.17a2.16,2.16,0,0,1,2,.91A.75.75,0,0,1,73.16,64.42Z"/><polygon class="cls-16" points="72.98 63.87 73.11 64.16 69.09 64.13 69.2 63.89 72.98 63.87"/><ellipse class="cls-17" cx="71.1" cy="64.24" rx="1.99" ry="1.17"/><ellipse class="cls-18" cx="71.1" cy="64.23" rx="1.94" ry="1.12"/><path class="cls-19" d="M71.1,63.33c-1,0-1.82.5-1.82,1.12a.69.69,0,0,0,0,.24,2.29,2.29,0,0,0,1.77.67,2.25,2.25,0,0,0,1.77-.68.62.62,0,0,0,0-.23C72.91,63.83,72.1,63.33,71.1,63.33Z"/><ellipse class="cls-13" cx="71.09" cy="64.35" rx="1.55" ry="0.87"/></g><polygon class="cls-5" points="58.84 55.86 73.56 70.56 73.56 70.22 59.06 55.75 58.84 55.86"/><polygon class="cls-3" points="58.84 55.86 58.84 56.18 73.56 70.94 73.56 70.56 58.84 55.86"/><polygon class="cls-7" points="59.26 54.83 58.66 55.13 73.56 62.73 73.56 62.13 74.75 62.73 78.05 61.04 77.45 60.74 77.45 60.14 63.14 52.85 62.56 53.15 61.96 52.85 59.26 54.23 59.26 54.83"/><polygon class="cls-6" points="58.66 55.13 58.66 55.48 73.56 63.07 73.56 62.73 58.66 55.13"/><polygon class="cls-3" points="73.56 60.51 74.15 60.81 74.15 71.92 73.56 71.62 73.56 60.51"/><polygon class="cls-2" points="74.15 60.81 74.74 60.51 74.75 71.62 74.15 71.92 74.15 60.81"/><polygon class="cls-4" points="73.56 60.51 74.15 60.2 74.74 60.51 74.15 60.81 73.56 60.51"/><polygon class="cls-1" points="0 24.51 4.49 22.23 20.58 30.42 16.09 32.71 0 24.51"/><polygon class="cls-3" points="19.39 19.31 19.98 19.61 19.98 30.73 19.39 30.42 19.39 19.31"/><polygon class="cls-2" points="19.98 19.61 20.57 19.31 20.58 30.42 19.98 30.73 19.98 19.61"/><polygon class="cls-4" points="19.39 19.31 19.98 19.01 20.57 19.31 19.98 19.61 19.39 19.31"/><polygon class="cls-2" points="16.68 31.6 19.89 29.97 19.89 30.28 16.68 31.92 16.68 31.6"/><polygon class="cls-4" points="16.68 31.29 19.58 29.81 19.89 29.97 16.68 31.6 16.68 31.29"/><polygon class="cls-2" points="16.68 23.76 19.89 22.13 19.89 22.44 16.68 24.08 16.68 23.76"/><polygon class="cls-4" points="16.68 23.45 19.58 21.97 19.89 22.13 16.68 23.76 16.68 23.45"/><polygon class="cls-3" points="0.01 13.4 0.6 13.7 0.6 24.82 0 24.51 0.01 13.4"/><polygon class="cls-4" points="0.01 13.4 0.6 13.1 1.19 13.4 0.6 13.7 0.01 13.4"/><polygon class="cls-3" points="3.9 11.42 4.49 11.72 4.49 22.83 3.9 22.53 3.9 11.42"/><polygon class="cls-2" points="4.49 11.72 5.08 11.42 5.08 22.53 4.49 22.83 4.49 11.72"/><polygon class="cls-4" points="3.9 11.42 4.49 11.12 5.08 11.42 4.49 11.72 3.9 11.42"/><polygon class="cls-2" points="1.19 23.71 4.4 22.07 4.4 22.39 1.19 24.02 1.19 23.71"/><polygon class="cls-4" points="1.19 23.4 4.09 21.92 4.4 22.07 1.19 23.71 1.19 23.4"/><polygon class="cls-2" points="1.19 19.78 4.4 18.15 4.4 18.46 1.19 20.1 1.19 19.78"/><polygon class="cls-4" points="1.19 19.47 4.09 17.99 4.4 18.15 1.19 19.78 1.19 19.47"/><polygon class="cls-5" points="4.67 14.74 19.39 29.44 19.39 29.1 4.89 14.62 4.67 14.74"/><polygon class="cls-3" points="4.67 14.74 4.67 15.06 19.39 29.81 19.39 29.44 4.67 14.74"/><polygon class="cls-2" points="16.68 27.68 19.89 26.04 19.89 26.36 16.68 27.99 16.68 27.68"/><polygon class="cls-4" points="16.68 27.36 19.58 25.89 19.89 26.04 16.68 27.68 16.68 27.36"/><polygon class="cls-8" points="16.68 23.51 19.98 21.83 19.98 22.18 16.68 23.86 16.68 23.51"/><polygon class="cls-2" points="0.6 13.7 1.19 13.4 1.19 24.52 0.6 24.82 0.6 13.7"/><polygon class="cls-5" points="0.77 16.65 15.49 31.35 15.49 31.01 1 16.54 0.77 16.65"/><polygon class="cls-3" points="0.77 16.65 0.77 16.97 15.49 31.72 15.49 31.35 0.77 16.65"/><polygon class="cls-7" points="1.19 15.62 0.6 15.92 15.49 23.51 15.49 22.91 16.68 23.51 19.98 21.83 19.39 21.53 19.39 20.93 5.08 13.64 4.49 13.94 3.9 13.63 1.19 15.02 1.19 15.62"/><polygon class="cls-6" points="0.6 15.92 0.6 16.27 15.49 23.86 15.49 23.51 0.6 15.92"/><polygon class="cls-3" points="15.49 21.29 16.09 21.59 16.09 32.71 15.49 32.41 15.49 21.29"/><polygon class="cls-2" points="16.09 21.59 16.68 21.29 16.68 32.41 16.09 32.71 16.09 21.59"/><polygon class="cls-4" points="15.49 21.29 16.09 20.99 16.68 21.29 16.09 21.59 15.49 21.29"/><polygon class="cls-1" points="15.49 32.41 19.98 30.12 36.07 38.32 31.58 40.6 15.49 32.41"/><polygon class="cls-3" points="34.88 27.2 35.47 27.5 35.47 38.62 34.88 38.31 34.88 27.2"/><polygon class="cls-2" points="35.47 27.5 36.06 27.2 36.07 38.32 35.47 38.62 35.47 27.5"/><polygon class="cls-4" points="34.88 27.2 35.47 26.9 36.06 27.2 35.47 27.5 34.88 27.2"/><polygon class="cls-2" points="32.17 39.49 35.38 37.86 35.38 38.18 32.17 39.81 32.17 39.49"/><polygon class="cls-4" points="32.17 39.18 35.07 37.7 35.38 37.86 32.17 39.49 32.17 39.18"/><polygon class="cls-2" points="32.17 31.66 35.38 30.02 35.38 30.34 32.17 31.97 32.17 31.66"/><polygon class="cls-4" points="32.17 31.34 35.07 29.86 35.38 30.02 32.17 31.66 32.17 31.34"/><polygon class="cls-3" points="15.5 21.3 16.09 21.6 16.09 32.71 15.49 32.41 15.5 21.3"/><polygon class="cls-4" points="15.5 21.3 16.09 20.99 16.68 21.3 16.09 21.6 15.5 21.3"/><polygon class="cls-3" points="19.39 19.31 19.98 19.61 19.98 30.73 19.39 30.42 19.39 19.31"/><polygon class="cls-2" points="19.98 19.61 20.58 19.31 20.58 30.42 19.98 30.73 19.98 19.61"/><polygon class="cls-4" points="19.39 19.31 19.98 19.01 20.58 19.31 19.98 19.61 19.39 19.31"/><polygon class="cls-2" points="16.68 31.6 19.89 29.97 19.89 30.28 16.68 31.92 16.68 31.6"/><polygon class="cls-4" points="16.68 31.29 19.58 29.81 19.89 29.97 16.68 31.6 16.68 31.29"/><polygon class="cls-2" points="16.68 27.68 19.89 26.04 19.89 26.36 16.68 27.99 16.68 27.68"/><polygon class="cls-4" points="16.68 27.36 19.58 25.89 19.89 26.04 16.68 27.68 16.68 27.36"/><polygon class="cls-5" points="20.16 22.63 34.88 37.33 34.88 36.99 20.38 22.52 20.16 22.63"/><polygon class="cls-3" points="20.16 22.63 20.16 22.95 34.88 37.7 34.88 37.33 20.16 22.63"/><polygon class="cls-2" points="32.17 35.57 35.38 33.94 35.38 34.25 32.17 35.88 32.17 35.57"/><polygon class="cls-4" points="32.17 35.26 35.07 33.78 35.38 33.94 32.17 35.57 32.17 35.26"/><polygon class="cls-8" points="32.17 31.41 35.47 29.72 35.47 30.07 32.17 31.75 32.17 31.41"/><polygon class="cls-2" points="16.09 21.6 16.68 21.3 16.68 32.41 16.09 32.71 16.09 21.6"/><polygon class="cls-5" points="16.26 24.54 30.98 39.24 30.98 38.9 16.49 24.43 16.26 24.54"/><polygon class="cls-3" points="16.26 24.54 16.26 24.86 30.98 39.62 30.98 39.24 16.26 24.54"/><polygon class="cls-7" points="16.68 23.51 16.09 23.82 30.98 31.41 30.98 30.81 32.17 31.41 35.47 29.72 34.88 29.42 34.88 28.82 20.57 21.53 19.98 21.83 19.39 21.53 16.68 22.91 16.68 23.51"/><polygon class="cls-6" points="16.09 23.82 16.09 24.16 30.98 31.75 30.98 31.41 16.09 23.82"/><polygon class="cls-3" points="30.98 29.19 31.58 29.49 31.58 40.6 30.98 40.3 30.98 29.19"/><polygon class="cls-2" points="31.58 29.49 32.17 29.19 32.17 40.3 31.58 40.6 31.58 29.49"/><polygon class="cls-4" points="30.98 29.19 31.58 28.88 32.17 29.19 31.58 29.49 30.98 29.19"/><polygon class="cls-2" points="138.46 67.33 137.87 67.63 137.87 78.75 138.46 78.44 138.46 67.33"/><polygon class="cls-3" points="137.87 67.63 137.28 67.33 137.27 78.44 137.87 78.75 137.87 67.63"/><polygon class="cls-4" points="138.46 67.33 137.87 67.03 137.28 67.33 137.87 67.63 138.46 67.33"/><polygon class="cls-3" points="141.17 79.62 137.96 77.99 137.96 78.31 141.17 79.94 141.17 79.62"/><polygon class="cls-4" points="141.17 79.31 138.27 77.83 137.96 77.99 141.17 79.62 141.17 79.31"/><polygon class="cls-2" points="141.17 71.78 137.96 70.15 137.96 70.47 141.17 72.1 141.17 71.78"/><polygon class="cls-4" points="141.17 71.47 138.27 69.99 137.96 70.15 141.17 71.78 141.17 71.47"/><polygon class="cls-2" points="157.84 61.42 157.25 61.73 157.25 72.84 157.84 72.54 157.84 61.42"/><polygon class="cls-4" points="157.84 61.42 157.25 61.12 156.66 61.42 157.25 61.73 157.84 61.42"/><polygon class="cls-2" points="153.95 59.44 153.35 59.74 153.35 70.85 153.95 70.55 153.95 59.44"/><polygon class="cls-3" points="153.35 59.74 152.76 59.44 152.76 70.55 153.35 70.85 153.35 59.74"/><polygon class="cls-4" points="153.95 59.44 153.35 59.14 152.76 59.44 153.35 59.74 153.95 59.44"/><polygon class="cls-3" points="156.66 71.73 153.45 70.1 153.45 70.41 156.66 72.05 156.66 71.73"/><polygon class="cls-4" points="156.66 71.42 153.76 69.94 153.45 70.1 156.66 71.73 156.66 71.42"/><polygon class="cls-3" points="156.66 67.81 153.45 66.17 153.45 66.49 156.66 68.12 156.66 67.81"/><polygon class="cls-4" points="156.66 67.49 153.76 66.02 153.45 66.17 156.66 67.81 156.66 67.49"/><polygon class="cls-5" points="153.18 62.76 138.46 77.46 138.46 77.12 152.96 62.65 153.18 62.76"/><polygon class="cls-2" points="153.18 62.76 153.18 63.08 138.46 77.83 138.46 77.46 153.18 62.76"/><polygon class="cls-3" points="141.17 75.7 137.96 74.06 137.96 74.38 141.17 76.01 141.17 75.7"/><polygon class="cls-4" points="141.17 75.39 138.27 73.91 137.96 74.06 141.17 75.7 141.17 75.39"/><polygon class="cls-6" points="141.17 71.53 137.87 69.85 137.87 70.2 141.17 71.88 141.17 71.53"/><polygon class="cls-3" points="157.25 61.73 156.66 61.42 156.66 72.54 157.25 72.84 157.25 61.73"/><polygon class="cls-5" points="157.08 64.67 142.35 79.37 142.35 79.03 156.85 64.56 157.08 64.67"/><polygon class="cls-2" points="157.08 64.67 157.08 64.99 142.35 79.74 142.35 79.37 157.08 64.67"/><polygon class="cls-7" points="156.66 63.64 157.25 63.94 142.35 71.53 142.35 70.94 141.17 71.53 137.87 69.85 138.46 69.55 138.46 68.95 152.77 61.66 153.36 61.96 153.95 61.66 156.66 63.04 156.66 63.64"/><polygon class="cls-8" points="157.25 63.94 157.25 64.29 142.35 71.88 142.35 71.53 157.25 63.94"/><polygon class="cls-2" points="142.35 69.31 141.76 69.62 141.76 80.73 142.35 80.43 142.35 69.31"/><polygon class="cls-3" points="141.76 69.62 141.17 69.31 141.17 80.43 141.76 80.73 141.76 69.62"/><polygon class="cls-4" points="142.35 69.31 141.76 69.01 141.17 69.31 141.76 69.62 142.35 69.31"/><g class="stage-1" id="s1-2" ><polygon class="cls-9" points="143.79 58.64 144.34 58.92 152.73 54.64 152.19 54.36 143.79 58.64"/><polygon class="cls-11" points="143.79 58.64 143.79 66.46 144.34 66.73 144.34 58.92 143.79 58.64"/><polygon class="cls-10" points="144.34 58.92 144.34 66.73 152.73 62.46 152.73 54.64 144.34 58.92"/><polygon class="cls-9" points="144.41 58.69 144.96 58.97 153.35 54.69 152.81 54.41 144.41 58.69"/><polygon class="cls-11" points="144.41 58.69 144.41 66.51 144.96 66.79 144.96 58.97 144.41 58.69"/><polygon class="cls-10" points="144.96 58.97 144.96 66.79 153.35 62.51 153.35 54.69 144.96 58.97"/><polygon class="cls-9" points="144.89 59.3 145.43 59.58 153.83 55.3 153.28 55.03 144.89 59.3"/><polygon class="cls-11" points="144.89 59.3 144.89 67.12 145.43 67.4 145.43 59.58 144.89 59.3"/><polygon class="cls-10" points="145.43 59.58 145.43 67.4 153.83 63.12 153.83 55.3 145.43 59.58"/><polygon class="cls-9" points="145.5 59.71 146.05 59.99 154.44 55.71 153.9 55.43 145.5 59.71"/><polygon class="cls-11" points="145.5 59.71 145.5 67.53 146.05 67.81 146.05 59.99 145.5 59.71"/><polygon class="cls-10" points="146.05 59.99 146.05 67.81 154.44 63.53 154.44 55.71 146.05 59.99"/><polygon class="cls-9" points="146.12 59.76 146.67 60.04 155.06 55.76 154.52 55.48 146.12 59.76"/><polygon class="cls-11" points="146.12 59.76 146.12 67.58 146.67 67.86 146.67 60.04 146.12 59.76"/><polygon class="cls-10" points="146.67 60.04 146.67 67.86 155.06 63.58 155.06 55.76 146.67 60.04"/><polygon class="cls-9" points="146.6 60.37 147.14 60.65 155.54 56.37 154.99 56.1 146.6 60.37"/><polygon class="cls-11" points="146.6 60.37 146.6 68.19 147.14 68.47 147.14 60.65 146.6 60.37"/><polygon class="cls-10" points="147.14 60.65 147.14 68.47 155.54 64.19 155.54 56.37 147.14 60.65"/></g><polygon class="cls-2" points="181.07 55.95 180.48 56.25 180.48 67.36 181.07 67.06 181.07 55.95"/><polygon class="cls-3" points="180.48 56.25 179.89 55.95 179.89 67.06 180.48 67.36 180.48 56.25"/><polygon class="cls-4" points="181.07 55.95 180.48 55.65 179.89 55.95 180.48 56.25 181.07 55.95"/><polygon class="cls-3" points="183.78 68.24 180.57 66.61 180.57 66.92 183.78 68.56 183.78 68.24"/><polygon class="cls-4" points="183.78 67.93 180.88 66.45 180.57 66.61 183.78 68.24 183.78 67.93"/><polygon class="cls-2" points="183.78 60.4 180.57 58.77 180.57 59.08 183.78 60.72 183.78 60.4"/><polygon class="cls-4" points="183.78 60.09 180.88 58.61 180.57 58.77 183.78 60.4 183.78 60.09"/><polygon class="cls-2" points="200.46 50.04 199.87 50.34 199.87 61.45 200.46 61.15 200.46 50.04"/><polygon class="cls-4" points="200.46 50.04 199.87 49.74 199.27 50.04 199.87 50.34 200.46 50.04"/><polygon class="cls-2" points="196.56 48.05 195.97 48.36 195.97 59.47 196.56 59.17 196.56 48.05"/><polygon class="cls-3" points="195.97 48.36 195.38 48.05 195.38 59.17 195.97 59.47 195.97 48.36"/><polygon class="cls-4" points="196.56 48.05 195.97 47.75 195.38 48.05 195.97 48.36 196.56 48.05"/><polygon class="cls-3" points="199.27 60.35 196.07 58.71 196.07 59.03 199.27 60.66 199.27 60.35"/><polygon class="cls-4" points="199.27 60.03 196.37 58.56 196.07 58.71 199.27 60.35 199.27 60.03"/><polygon class="cls-3" points="199.27 56.42 196.07 54.79 196.07 55.1 199.27 56.74 199.27 56.42"/><polygon class="cls-4" points="199.27 56.11 196.37 54.63 196.07 54.79 199.27 56.42 199.27 56.11"/><polygon class="cls-5" points="195.8 51.38 181.07 66.08 181.07 65.74 195.57 51.26 195.8 51.38"/><polygon class="cls-2" points="195.8 51.38 195.8 51.7 181.07 66.45 181.07 66.08 195.8 51.38"/><polygon class="cls-3" points="183.78 64.31 180.57 62.68 180.57 63 183.78 64.63 183.78 64.31"/><polygon class="cls-4" points="183.78 64 180.88 62.52 180.57 62.68 183.78 64.31 183.78 64"/><polygon class="cls-6" points="183.78 60.15 180.48 58.47 180.48 58.82 183.78 60.5 183.78 60.15"/><polygon class="cls-3" points="199.87 50.34 199.27 50.04 199.27 61.15 199.87 61.45 199.87 50.34"/><polygon class="cls-5" points="199.69 53.29 184.97 67.99 184.97 67.65 199.47 53.17 199.69 53.29"/><polygon class="cls-2" points="199.69 53.29 199.69 53.61 184.97 68.36 184.97 67.99 199.69 53.29"/><polygon class="cls-7" points="199.27 52.26 199.87 52.56 184.97 60.15 184.97 59.55 183.78 60.15 180.48 58.47 181.07 58.16 181.07 57.57 195.38 50.28 195.97 50.58 196.56 50.27 199.27 51.65 199.27 52.26"/><polygon class="cls-8" points="199.87 52.56 199.87 52.91 184.97 60.5 184.97 60.15 199.87 52.56"/><polygon class="cls-2" points="184.97 57.93 184.38 58.23 184.38 69.35 184.97 69.05 184.97 57.93"/><polygon class="cls-3" points="184.38 58.23 183.78 57.93 183.78 69.05 184.38 69.35 184.38 58.23"/><polygon class="cls-4" points="184.97 57.93 184.38 57.63 183.78 57.93 184.38 58.23 184.97 57.93"/><polygon class="cls-2" points="165.58 63.84 164.99 64.14 164.99 75.26 165.58 74.95 165.58 63.84"/><polygon class="cls-3" points="164.99 64.14 164.4 63.84 164.4 74.95 164.99 75.26 164.99 64.14"/><polygon class="cls-4" points="165.58 63.84 164.99 63.54 164.4 63.84 164.99 64.14 165.58 63.84"/><polygon class="cls-3" points="168.29 76.13 165.09 74.5 165.09 74.81 168.29 76.45 168.29 76.13"/><polygon class="cls-4" points="168.29 75.82 165.39 74.34 165.09 74.5 168.29 76.13 168.29 75.82"/><polygon class="cls-2" points="168.29 68.29 165.09 66.66 165.09 66.97 168.29 68.61 168.29 68.29"/><polygon class="cls-4" points="168.29 67.98 165.39 66.5 165.09 66.66 168.29 68.29 168.29 67.98"/><polygon class="cls-2" points="184.97 57.93 184.38 58.23 184.38 69.35 184.97 69.05 184.97 57.93"/><polygon class="cls-4" points="184.97 57.93 184.38 57.63 183.78 57.93 184.38 58.23 184.97 57.93"/><polygon class="cls-2" points="181.07 55.95 180.48 56.25 180.48 67.36 181.07 67.06 181.07 55.95"/><polygon class="cls-3" points="180.48 56.25 179.89 55.95 179.89 67.06 180.48 67.36 180.48 56.25"/><polygon class="cls-4" points="181.07 55.95 180.48 55.65 179.89 55.95 180.48 56.25 181.07 55.95"/><polygon class="cls-3" points="183.78 68.24 180.57 66.61 180.57 66.92 183.78 68.56 183.78 68.24"/><polygon class="cls-4" points="183.78 67.93 180.88 66.45 180.57 66.61 183.78 68.24 183.78 67.93"/><polygon class="cls-3" points="183.78 64.31 180.57 62.68 180.57 63 183.78 64.63 183.78 64.31"/><polygon class="cls-4" points="183.78 64 180.88 62.52 180.57 62.68 183.78 64.31 183.78 64"/><polygon class="cls-5" points="180.31 59.27 165.58 73.97 165.58 73.63 180.08 59.16 180.31 59.27"/><polygon class="cls-2" points="180.31 59.27 180.31 59.59 165.58 74.34 165.58 73.97 180.31 59.27"/><g class="stage-1" id="s1-3" ><polygon class="cls-9" points="168.58 67.35 169.13 67.63 177.52 63.35 176.98 63.07 168.58 67.35"/><polygon class="cls-11" points="168.58 67.35 168.58 75.17 169.13 75.44 169.13 67.63 168.58 67.35"/><polygon class="cls-10" points="169.13 67.63 169.13 75.44 177.52 71.17 177.52 63.35 169.13 67.63"/><polygon class="cls-9" points="169.2 67.4 169.75 67.68 178.14 63.4 177.59 63.12 169.2 67.4"/><polygon class="cls-11" points="169.2 67.4 169.2 75.22 169.75 75.49 169.75 67.68 169.2 67.4"/><polygon class="cls-10" points="169.75 67.68 169.75 75.49 178.14 71.22 178.14 63.4 169.75 67.68"/><polygon class="cls-9" points="169.68 68.01 170.22 68.29 178.62 64.01 178.07 63.73 169.68 68.01"/><polygon class="cls-11" points="169.68 68.01 169.68 75.83 170.22 76.1 170.22 68.29 169.68 68.01"/><polygon class="cls-10" points="170.22 68.29 170.22 76.1 178.62 71.83 178.62 64.01 170.22 68.29"/></g><polygon class="cls-3" points="168.29 72.21 165.09 70.57 165.09 70.89 168.29 72.52 168.29 72.21"/><polygon class="cls-4" points="168.29 71.89 165.39 70.42 165.09 70.57 168.29 72.21 168.29 71.89"/><polygon class="cls-6" points="168.29 68.05 164.99 66.36 164.99 66.71 168.29 68.39 168.29 68.05"/><polygon class="cls-3" points="184.38 58.23 183.78 57.93 183.78 69.05 184.38 69.35 184.38 58.23"/><g class="stage-2" id="s2-2" ><ellipse class="cls-12" cx="175.78" cy="74.11" rx="1.86" ry="1.07"/><rect class="cls-12" x="173.92" y="72.74" width="3.72" height="1.38"/><path class="cls-13" d="M175.78,74.09c-1,0-1.86-.48-1.86-1.07v.81c0,.59.84,1.07,1.86,1.07a3.19,3.19,0,0,0,.45,0v-.81A3.19,3.19,0,0,1,175.78,74.09Z"/><path class="cls-14" d="M177.09,73.34l0,.37s0,.17.16.06c.46-.29.49-.41.49-.59V72.7Z"/><path class="cls-15" d="M177.39,73.28s.59,0,.56-.2a.33.33,0,0,0-.19-.26l.07-.14s.29.21.27.42c0,.39-.71.34-.71.34Z"/><ellipse class="cls-15" cx="177.39" cy="73.36" rx="0.06" ry="0.08"/><ellipse class="cls-14" cx="175.79" cy="72.53" rx="2.07" ry="1.18"/><rect class="cls-14" x="173.72" y="72.29" width="4.13" height="0.24"/><path class="cls-16" d="M177.85,72.29c0,.65-.92,1.18-2.06,1.18s-2.07-.53-2.07-1.18.93-1.17,2.07-1.17a2.14,2.14,0,0,1,2,.91A.58.58,0,0,1,177.85,72.29Z"/><polygon class="cls-16" points="177.68 71.73 177.8 72.03 173.78 72 173.89 71.76 177.68 71.73"/><ellipse class="cls-17" cx="175.79" cy="72.11" rx="1.99" ry="1.17"/><ellipse class="cls-18" cx="175.79" cy="72.1" rx="1.94" ry="1.12"/><path class="cls-19" d="M175.79,71.2c-1,0-1.81.5-1.81,1.12a.67.67,0,0,0,0,.24,2.3,2.3,0,0,0,1.77.67,2.26,2.26,0,0,0,1.78-.68.93.93,0,0,0,0-.23C177.61,71.7,176.8,71.2,175.79,71.2Z"/><ellipse class="cls-13" cx="175.78" cy="72.22" rx="1.55" ry="0.87"/><ellipse class="cls-12" cx="172.24" cy="75.66" rx="1.86" ry="1.07"/><rect class="cls-12" x="170.38" y="74.28" width="3.72" height="1.38"/><path class="cls-13" d="M172.24,75.64c-1,0-1.86-.48-1.86-1.07v.81c0,.59.83,1.07,1.86,1.07a3.19,3.19,0,0,0,.45,0v-.81A3.19,3.19,0,0,1,172.24,75.64Z"/><path class="cls-14" d="M173.55,74.89v.37s0,.16.17.06c.46-.29.49-.41.49-.6v-.47Z"/><path class="cls-15" d="M173.85,74.83s.58,0,.56-.2a.33.33,0,0,0-.19-.26l.07-.14s.29.21.27.42c0,.39-.71.34-.71.34Z"/><ellipse class="cls-15" cx="173.85" cy="74.91" rx="0.06" ry="0.08"/><ellipse class="cls-14" cx="172.24" cy="74.08" rx="2.07" ry="1.18"/><rect class="cls-14" x="170.18" y="73.84" width="4.13" height="0.24"/><path class="cls-16" d="M174.31,73.84c0,.65-.92,1.17-2.07,1.17s-2.06-.52-2.06-1.17.92-1.18,2.06-1.18a2.16,2.16,0,0,1,2,.92A.75.75,0,0,1,174.31,73.84Z"/><polygon class="cls-16" points="174.13 73.28 174.26 73.58 170.24 73.55 170.35 73.31 174.13 73.28"/><ellipse class="cls-17" cx="172.25" cy="73.66" rx="1.99" ry="1.17"/><ellipse class="cls-18" cx="172.25" cy="73.65" rx="1.94" ry="1.12"/><path class="cls-19" d="M172.25,72.75c-1,0-1.82.5-1.82,1.11a.7.7,0,0,0,0,.25,2.67,2.67,0,0,0,3.55,0,1,1,0,0,0,0-.24C174.07,73.25,173.25,72.75,172.25,72.75Z"/><ellipse class="cls-13" cx="172.24" cy="73.77" rx="1.55" ry="0.87"/></g><polygon class="cls-5" points="184.2 61.18 169.48 75.88 169.48 75.54 183.98 61.07 184.2 61.18"/><polygon class="cls-2" points="184.2 61.18 184.2 61.5 169.48 76.25 169.48 75.88 184.2 61.18"/><polygon class="cls-7" points="183.78 60.15 184.38 60.45 169.48 68.04 169.48 67.44 168.29 68.05 164.99 66.36 165.58 66.06 165.58 65.46 179.89 58.17 180.48 58.47 181.07 58.17 183.78 59.55 183.78 60.15"/><polygon class="cls-8" points="184.38 60.45 184.38 60.8 169.48 68.39 169.48 68.04 184.38 60.45"/><polygon class="cls-2" points="169.48 65.82 168.89 66.13 168.88 77.24 169.48 76.94 169.48 65.82"/><polygon class="cls-3" points="168.89 66.13 168.29 65.82 168.29 76.94 168.88 77.24 168.89 66.13"/><polygon class="cls-4" points="169.48 65.82 168.89 65.52 168.29 65.82 168.89 66.13 169.48 65.82"/><g class="stage-2" id="s2-3" ><ellipse class="cls-12" cx="194.97" cy="53.03" rx="1.86" ry="1.07"/><rect class="cls-12" x="193.11" y="51.65" width="3.72" height="1.38"/><path class="cls-13" d="M195,53c-1,0-1.86-.48-1.86-1.07v.81c0,.59.84,1.07,1.86,1.07a3.19,3.19,0,0,0,.45,0V53A3.19,3.19,0,0,1,195,53Z"/><path class="cls-14" d="M196.28,52.25l0,.37s0,.17.16.06c.46-.29.49-.4.49-.59v-.47Z"/><path class="cls-15" d="M196.58,52.2s.59,0,.56-.21a.33.33,0,0,0-.19-.25l.07-.14s.29.21.27.41c0,.4-.71.35-.71.35Z"/><ellipse class="cls-15" cx="196.58" cy="52.28" rx="0.06" ry="0.08"/><ellipse class="cls-14" cx="194.98" cy="51.45" rx="2.07" ry="1.18"/><rect class="cls-14" x="192.91" y="51.21" width="4.13" height="0.24"/><path class="cls-16" d="M197,51.21c0,.65-.92,1.17-2.06,1.17s-2.07-.52-2.07-1.17S193.83,50,195,50a2.13,2.13,0,0,1,2,.92A.58.58,0,0,1,197,51.21Z"/><polygon class="cls-16" points="196.86 50.65 196.99 50.95 192.97 50.91 193.08 50.67 196.86 50.65"/><ellipse class="cls-17" cx="194.98" cy="51.02" rx="1.99" ry="1.17"/><ellipse class="cls-18" cx="194.98" cy="51.02" rx="1.94" ry="1.12"/><path class="cls-19" d="M195,50.11c-1,0-1.81.5-1.81,1.12a.69.69,0,0,0,0,.25,2.7,2.7,0,0,0,3.55,0,1,1,0,0,0,0-.24C196.8,50.61,196,50.11,195,50.11Z"/><ellipse class="cls-13" cx="194.97" cy="51.14" rx="1.55" ry="0.87"/></g><polygon class="cls-3" points="124.69 61.92 125.28 62.23 125.28 73.34 124.69 73.04 124.69 61.92"/><polygon class="cls-2" points="125.28 62.23 125.87 61.92 125.88 73.04 125.28 73.34 125.28 62.23"/><polygon class="cls-4" points="124.69 61.92 125.28 61.62 125.87 61.92 125.28 62.23 124.69 61.92"/><polygon class="cls-2" points="121.98 74.22 125.19 72.58 125.19 72.9 121.98 74.53 121.98 74.22"/><polygon class="cls-4" points="121.98 73.9 124.88 72.43 125.19 72.58 121.98 74.22 121.98 73.9"/><polygon class="cls-2" points="121.98 66.38 125.19 64.74 125.19 65.06 121.98 66.69 121.98 66.38"/><polygon class="cls-4" points="121.98 66.06 124.88 64.59 125.19 64.74 121.98 66.38 121.98 66.06"/><polygon class="cls-3" points="105.31 56.02 105.9 56.32 105.9 67.43 105.3 67.13 105.31 56.02"/><polygon class="cls-4" points="105.31 56.02 105.9 55.71 106.49 56.02 105.9 56.32 105.31 56.02"/><polygon class="cls-3" points="109.2 54.03 109.79 54.33 109.79 65.45 109.2 65.14 109.2 54.03"/><polygon class="cls-2" points="109.79 54.33 110.39 54.03 110.39 65.14 109.79 65.45 109.79 54.33"/><polygon class="cls-4" points="109.2 54.03 109.79 53.73 110.39 54.03 109.79 54.33 109.2 54.03"/><polygon class="cls-2" points="106.49 66.32 109.7 64.69 109.7 65 106.49 66.64 106.49 66.32"/><polygon class="cls-4" points="106.49 66.01 109.39 64.53 109.7 64.69 106.49 66.32 106.49 66.01"/><polygon class="cls-2" points="106.49 62.4 109.7 60.77 109.7 61.08 106.49 62.71 106.49 62.4"/><polygon class="cls-4" points="106.49 62.09 109.39 60.61 109.7 60.77 106.49 62.4 106.49 62.09"/><polygon class="cls-5" points="109.97 57.35 124.69 72.05 124.69 71.71 110.19 57.24 109.97 57.35"/><polygon class="cls-3" points="109.97 57.35 109.97 57.67 124.69 72.43 124.69 72.05 109.97 57.35"/><polygon class="cls-2" points="121.98 70.29 125.19 68.66 125.19 68.97 121.98 70.61 121.98 70.29"/><polygon class="cls-4" points="121.98 69.98 124.88 68.5 125.19 68.66 121.98 70.29 121.98 69.98"/><polygon class="cls-8" points="121.98 66.13 125.28 64.44 125.28 64.79 121.98 66.48 121.98 66.13"/><polygon class="cls-2" points="105.9 56.32 106.49 56.02 106.49 67.13 105.9 67.43 105.9 56.32"/><polygon class="cls-5" points="106.07 59.27 120.79 73.96 120.79 73.62 106.3 59.15 106.07 59.27"/><polygon class="cls-3" points="106.07 59.27 106.07 59.59 120.79 74.34 120.79 73.96 106.07 59.27"/><polygon class="cls-7" points="106.49 58.23 105.9 58.54 120.79 66.13 120.79 65.53 121.98 66.13 125.28 64.44 124.69 64.14 124.69 63.54 110.38 56.25 109.79 56.55 109.2 56.25 106.49 57.63 106.49 58.23"/><polygon class="cls-6" points="105.9 58.54 105.9 58.89 120.79 66.47 120.79 66.13 105.9 58.54"/><polygon class="cls-3" points="120.79 63.91 121.39 64.21 121.39 75.33 120.79 75.02 120.79 63.91"/><polygon class="cls-2" points="121.39 64.21 121.98 63.91 121.98 75.02 121.39 75.33 121.39 64.21"/><polygon class="cls-4" points="120.79 63.91 121.39 63.61 121.98 63.91 121.39 64.21 120.79 63.91"/><polygon class="cls-3" points="140.18 69.82 140.77 70.12 140.78 81.23 140.18 80.93 140.18 69.82"/><polygon class="cls-2" points="140.77 70.12 141.37 69.82 141.37 80.93 140.78 81.23 140.77 70.12"/><polygon class="cls-4" points="140.18 69.82 140.77 69.51 141.37 69.82 140.77 70.12 140.18 69.82"/><polygon class="cls-2" points="137.47 82.11 140.68 80.48 140.68 80.79 137.47 82.42 137.47 82.11"/><polygon class="cls-4" points="137.47 81.8 140.37 80.32 140.68 80.48 137.47 82.11 137.47 81.8"/><polygon class="cls-2" points="137.47 74.27 140.68 72.64 140.68 72.95 137.47 74.59 137.47 74.27"/><polygon class="cls-4" points="137.47 73.96 140.37 72.48 140.68 72.64 137.47 74.27 137.47 73.96"/><polygon class="cls-3" points="120.8 63.91 121.39 64.21 121.39 75.33 120.79 75.02 120.8 63.91"/><polygon class="cls-4" points="120.8 63.91 121.39 63.61 121.98 63.91 121.39 64.21 120.8 63.91"/><polygon class="cls-3" points="124.69 61.92 125.28 62.23 125.28 73.34 124.69 73.04 124.69 61.92"/><polygon class="cls-2" points="125.28 62.23 125.88 61.92 125.88 73.04 125.28 73.34 125.28 62.23"/><polygon class="cls-4" points="124.69 61.92 125.28 61.62 125.88 61.92 125.28 62.23 124.69 61.92"/><polygon class="cls-2" points="121.98 74.22 125.19 72.58 125.19 72.9 121.98 74.53 121.98 74.22"/><polygon class="cls-4" points="121.98 73.9 124.88 72.43 125.19 72.58 121.98 74.22 121.98 73.9"/><polygon class="cls-2" points="121.98 70.29 125.19 68.66 125.19 68.97 121.98 70.61 121.98 70.29"/><polygon class="cls-4" points="121.98 69.98 124.88 68.5 125.19 68.66 121.98 70.29 121.98 69.98"/><polygon class="cls-5" points="125.46 65.25 140.18 79.95 140.18 79.61 125.68 65.13 125.46 65.25"/><polygon class="cls-3" points="125.46 65.25 125.46 65.57 140.18 80.32 140.18 79.95 125.46 65.25"/><g class="stage-1" id="s1-4" ><polygon class="cls-9" points="136.45 73.96 135.91 74.24 127.51 69.96 128.06 69.68 136.45 73.96"/><polygon class="cls-10" points="136.45 73.96 136.45 81.78 135.91 82.05 135.91 74.24 136.45 73.96"/><polygon class="cls-11" points="135.91 74.24 135.91 82.05 127.51 77.78 127.51 69.96 135.91 74.24"/><polygon class="cls-9" points="135.83 74.01 135.29 74.29 126.89 70.01 127.44 69.73 135.83 74.01"/><polygon class="cls-10" points="135.83 74.01 135.83 81.83 135.29 82.1 135.29 74.29 135.83 74.01"/><polygon class="cls-11" points="135.29 74.29 135.29 82.1 126.89 77.83 126.89 70.01 135.29 74.29"/><polygon class="cls-9" points="135.36 74.62 134.81 74.9 126.42 70.62 126.96 70.34 135.36 74.62"/><polygon class="cls-10" points="135.36 74.62 135.36 82.44 134.81 82.71 134.81 74.9 135.36 74.62"/><polygon class="cls-11" points="134.81 74.9 134.81 82.71 126.42 78.44 126.42 70.62 134.81 74.9"/></g><polygon class="cls-2" points="137.47 78.19 140.68 76.55 140.68 76.87 137.47 78.5 137.47 78.19"/><polygon class="cls-4" points="137.47 77.87 140.37 76.39 140.68 76.55 137.47 78.19 137.47 77.87"/><polygon class="cls-8" points="137.47 74.02 140.78 72.34 140.78 72.69 137.47 74.37 137.47 74.02"/><polygon class="cls-2" points="121.39 64.21 121.98 63.91 121.98 75.02 121.39 75.33 121.39 64.21"/><g class="stage-2" id="s2-4" ><ellipse class="cls-12" cx="129.8" cy="79.97" rx="1.86" ry="1.07"/><rect class="cls-12" x="127.93" y="78.6" width="3.72" height="1.38"/><path class="cls-13" d="M129.8,80c-1,0-1.87-.48-1.87-1.07v.81c0,.59.84,1.07,1.87,1.07a3.4,3.4,0,0,0,.45,0v-.81A3.4,3.4,0,0,1,129.8,80Z"/><path class="cls-14" d="M131.1,79.2l0,.37s0,.17.16.06c.46-.29.49-.41.49-.59v-.48Z"/><path class="cls-15" d="M131.4,79.15s.59,0,.56-.21a.35.35,0,0,0-.19-.26l.07-.13s.29.21.27.41c0,.39-.71.34-.71.34Z"/><ellipse class="cls-15" cx="131.4" cy="79.22" rx="0.06" ry="0.08"/><ellipse class="cls-14" cx="129.8" cy="78.4" rx="2.07" ry="1.18"/><rect class="cls-14" x="127.73" y="78.15" width="4.13" height="0.24"/><path class="cls-16" d="M131.87,78.15c0,.65-.93,1.18-2.07,1.18s-2.07-.53-2.07-1.18S128.66,77,129.8,77a2.17,2.17,0,0,1,2,.91A.8.8,0,0,1,131.87,78.15Z"/><polygon class="cls-16" points="131.69 77.6 131.82 77.89 127.8 77.86 127.91 77.62 131.69 77.6"/><ellipse class="cls-17" cx="129.8" cy="77.97" rx="1.99" ry="1.17"/><ellipse class="cls-18" cx="129.8" cy="77.96" rx="1.94" ry="1.12"/><path class="cls-19" d="M129.81,77.06c-1,0-1.82.5-1.82,1.12a.73.73,0,0,0,0,.25,2.32,2.32,0,0,0,1.77.66,2.26,2.26,0,0,0,1.78-.68.59.59,0,0,0,0-.23C131.62,77.56,130.81,77.06,129.81,77.06Z"/><ellipse class="cls-13" cx="129.8" cy="78.08" rx="1.55" ry="0.87"/><ellipse class="cls-12" cx="133.28" cy="81.51" rx="1.86" ry="1.07"/><rect class="cls-12" x="131.42" y="80.14" width="3.72" height="1.38"/><path class="cls-13" d="M133.28,81.49c-1,0-1.86-.48-1.86-1.07v.81c0,.59.83,1.07,1.86,1.07a3.19,3.19,0,0,0,.45,0v-.81A3.19,3.19,0,0,1,133.28,81.49Z"/><path class="cls-14" d="M134.59,80.74v.37s0,.17.17.06c.46-.29.48-.41.48-.59V80.1Z"/><path class="cls-15" d="M134.88,80.68s.59,0,.57-.2a.36.36,0,0,0-.2-.26l.08-.13s.29.2.27.41c0,.39-.72.34-.72.34Z"/><ellipse class="cls-15" cx="134.88" cy="80.76" rx="0.06" ry="0.08"/><ellipse class="cls-14" cx="133.28" cy="79.94" rx="2.07" ry="1.18"/><rect class="cls-14" x="131.22" y="79.69" width="4.13" height="0.24"/><path class="cls-16" d="M135.35,79.69c0,.65-.92,1.18-2.07,1.18s-2.06-.53-2.06-1.18.92-1.17,2.06-1.17a2.16,2.16,0,0,1,2,.91A.8.8,0,0,1,135.35,79.69Z"/><polygon class="cls-16" points="135.17 79.14 135.3 79.43 131.28 79.4 131.39 79.16 135.17 79.14"/><ellipse class="cls-17" cx="133.29" cy="79.51" rx="1.99" ry="1.17"/><ellipse class="cls-18" cx="133.29" cy="79.5" rx="1.94" ry="1.12"/><path class="cls-19" d="M133.29,78.6c-1,0-1.82.5-1.82,1.12a.74.74,0,0,0,.05.25,2.28,2.28,0,0,0,1.77.66,2.24,2.24,0,0,0,1.77-.68.59.59,0,0,0,.05-.23C135.11,79.1,134.29,78.6,133.29,78.6Z"/><ellipse class="cls-13" cx="133.28" cy="79.62" rx="1.55" ry="0.87"/></g><polygon class="cls-5" points="121.56 67.16 136.28 81.86 136.28 81.52 121.79 67.04 121.56 67.16"/><polygon class="cls-3" points="121.56 67.16 121.56 67.48 136.28 82.23 136.28 81.86 121.56 67.16"/><polygon class="cls-7" points="121.98 66.13 121.39 66.43 136.28 74.02 136.28 73.42 137.47 74.02 140.78 72.34 140.18 72.03 140.18 71.44 125.87 64.15 125.28 64.44 124.69 64.14 121.98 65.52 121.98 66.13"/><polygon class="cls-6" points="121.39 66.43 121.39 66.78 136.28 74.37 136.28 74.02 121.39 66.43"/><polygon class="cls-3" points="136.28 71.8 136.88 72.1 136.88 83.22 136.28 82.92 136.28 71.8"/><polygon class="cls-2" points="136.88 72.1 137.47 71.8 137.47 82.92 136.88 83.22 136.88 72.1"/><polygon class="cls-4" points="136.28 71.8 136.88 71.5 137.47 71.8 136.88 72.1 136.28 71.8"/><g class="stage-2" id="s2-5" ><ellipse class="cls-12" cx="111.7" cy="59.09" rx="1.86" ry="1.07"/><rect class="cls-12" x="109.84" y="57.72" width="3.72" height="1.38"/><path class="cls-13" d="M111.7,59.07c-1,0-1.86-.48-1.86-1.07v.81c0,.59.83,1.07,1.86,1.07a3.19,3.19,0,0,0,.45,0V59A3.19,3.19,0,0,1,111.7,59.07Z"/><path class="cls-14" d="M113,58.32v.37s0,.17.17.06c.46-.29.48-.41.48-.59v-.48Z"/><path class="cls-15" d="M113.3,58.27s.59,0,.57-.21a.36.36,0,0,0-.2-.26l.08-.13s.29.21.27.41c0,.39-.72.34-.72.34Z"/><ellipse class="cls-15" cx="113.3" cy="58.34" rx="0.06" ry="0.08"/><ellipse class="cls-14" cx="111.7" cy="57.52" rx="2.07" ry="1.18"/><rect class="cls-14" x="109.64" y="57.27" width="4.13" height="0.24"/><path class="cls-16" d="M113.77,57.27c0,.65-.92,1.18-2.07,1.18s-2.06-.53-2.06-1.18.92-1.17,2.06-1.17a2.16,2.16,0,0,1,2,.91A.8.8,0,0,1,113.77,57.27Z"/><polygon class="cls-16" points="113.59 56.72 113.72 57.01 109.7 56.98 109.81 56.74 113.59 56.72"/><ellipse class="cls-17" cx="111.71" cy="57.09" rx="1.99" ry="1.17"/><ellipse class="cls-18" cx="111.71" cy="57.08" rx="1.94" ry="1.12"/><path class="cls-19" d="M111.71,56.18c-1,0-1.82.5-1.82,1.12a.74.74,0,0,0,0,.25,2.28,2.28,0,0,0,1.77.66,2.24,2.24,0,0,0,1.77-.68.59.59,0,0,0,0-.23C113.53,56.68,112.71,56.18,111.71,56.18Z"/><ellipse class="cls-13" cx="111.7" cy="57.2" rx="1.55" ry="0.87"/></g><polygon class="cls-3" points="61.96 39.51 62.55 39.81 62.55 50.93 61.96 50.63 61.96 39.51"/><polygon class="cls-2" points="62.55 39.81 63.15 39.51 63.15 50.63 62.55 50.93 62.55 39.81"/><polygon class="cls-4" points="61.96 39.51 62.55 39.21 63.15 39.51 62.55 39.81 61.96 39.51"/><polygon class="cls-2" points="59.25 51.81 62.46 50.17 62.46 50.49 59.25 52.12 59.25 51.81"/><polygon class="cls-4" points="59.25 51.49 62.15 50.02 62.46 50.17 59.25 51.81 59.25 51.49"/><polygon class="cls-2" points="59.25 43.97 62.46 42.33 62.46 42.65 59.25 44.28 59.25 43.97"/><polygon class="cls-4" points="59.25 43.66 62.15 42.18 62.46 42.33 59.25 43.97 59.25 43.66"/><polygon class="cls-3" points="42.58 33.61 43.17 33.91 43.17 45.02 42.58 44.72 42.58 33.61"/><polygon class="cls-4" points="42.58 33.61 43.17 33.3 43.76 33.61 43.17 33.91 42.58 33.61"/><polygon class="cls-3" points="46.47 31.62 47.06 31.92 47.06 43.04 46.47 42.73 46.47 31.62"/><polygon class="cls-2" points="47.06 31.92 47.66 31.62 47.66 42.73 47.06 43.04 47.06 31.92"/><polygon class="cls-4" points="46.47 31.62 47.06 31.32 47.66 31.62 47.06 31.92 46.47 31.62"/><polygon class="cls-2" points="43.76 43.91 46.97 42.28 46.97 42.59 43.76 44.23 43.76 43.91"/><polygon class="cls-4" points="43.76 43.6 46.66 42.12 46.97 42.28 43.76 43.91 43.76 43.6"/><polygon class="cls-2" points="43.76 39.99 46.97 38.35 46.97 38.67 43.76 40.3 43.76 39.99"/><polygon class="cls-4" points="43.76 39.67 46.66 38.2 46.97 38.35 43.76 39.99 43.76 39.67"/><polygon class="cls-5" points="47.24 34.94 61.96 49.64 61.96 49.3 47.46 34.83 47.24 34.94"/><polygon class="cls-3" points="47.24 34.94 47.24 35.26 61.96 50.02 61.96 49.64 47.24 34.94"/><polygon class="cls-2" points="59.25 47.88 62.46 46.25 62.46 46.56 59.25 48.2 59.25 47.88"/><polygon class="cls-4" points="59.25 47.57 62.15 46.09 62.46 46.25 59.25 47.88 59.25 47.57"/><polygon class="cls-8" points="59.25 43.72 62.55 42.04 62.55 42.38 59.25 44.07 59.25 43.72"/><polygon class="cls-2" points="43.17 33.91 43.76 33.61 43.76 44.72 43.17 45.02 43.17 33.91"/><polygon class="cls-5" points="43.34 36.85 58.07 51.55 58.07 51.21 43.57 36.74 43.34 36.85"/><polygon class="cls-3" points="43.34 36.85 43.34 37.17 58.07 51.93 58.07 51.55 43.34 36.85"/><polygon class="cls-7" points="43.76 35.82 43.17 36.13 58.06 43.72 58.06 43.12 59.25 43.72 62.55 42.04 61.96 41.73 61.96 41.13 47.65 33.84 47.06 34.14 46.47 33.84 43.76 35.22 43.76 35.82"/><polygon class="cls-6" points="43.17 36.13 43.17 36.48 58.06 44.06 58.06 43.72 43.17 36.13"/><polygon class="cls-3" points="58.06 41.5 58.66 41.8 58.66 52.91 58.07 52.61 58.06 41.5"/><polygon class="cls-2" points="58.66 41.8 59.25 41.5 59.25 52.61 58.66 52.91 58.66 41.8"/><polygon class="cls-4" points="58.06 41.5 58.66 41.2 59.25 41.5 58.66 41.8 58.06 41.5"/><polygon class="cls-3" points="77.45 47.41 78.04 47.71 78.05 58.82 77.45 58.52 77.45 47.41"/><polygon class="cls-2" points="78.04 47.71 78.64 47.41 78.64 58.52 78.05 58.82 78.04 47.71"/><polygon class="cls-4" points="77.45 47.41 78.04 47.1 78.64 47.41 78.04 47.71 77.45 47.41"/><polygon class="cls-2" points="74.74 59.7 77.95 58.07 77.95 58.38 74.74 60.02 74.74 59.7"/><polygon class="cls-4" points="74.74 59.39 77.64 57.91 77.95 58.07 74.74 59.7 74.74 59.39"/><polygon class="cls-2" points="74.74 51.86 77.95 50.23 77.95 50.54 74.74 52.18 74.74 51.86"/><polygon class="cls-4" points="74.74 51.55 77.64 50.07 77.95 50.23 74.74 51.86 74.74 51.55"/><polygon class="cls-3" points="58.07 41.5 58.66 41.8 58.66 52.91 58.07 52.61 58.07 41.5"/><polygon class="cls-4" points="58.07 41.5 58.66 41.2 59.25 41.5 58.66 41.8 58.07 41.5"/><polygon class="cls-3" points="61.96 39.52 62.55 39.82 62.55 50.93 61.96 50.63 61.96 39.52"/><polygon class="cls-2" points="62.55 39.82 63.15 39.52 63.15 50.63 62.55 50.93 62.55 39.82"/><polygon class="cls-4" points="61.96 39.52 62.55 39.21 63.15 39.52 62.55 39.82 61.96 39.52"/><polygon class="cls-2" points="59.25 51.81 62.46 50.17 62.46 50.49 59.25 52.12 59.25 51.81"/><polygon class="cls-4" points="59.25 51.49 62.15 50.02 62.46 50.17 59.25 51.81 59.25 51.49"/><polygon class="cls-2" points="59.25 47.88 62.46 46.25 62.46 46.56 59.25 48.2 59.25 47.88"/><polygon class="cls-4" points="59.25 47.57 62.15 46.09 62.46 46.25 59.25 47.88 59.25 47.57"/><polygon class="cls-5" points="62.73 42.84 77.45 57.54 77.45 57.2 62.95 42.72 62.73 42.84"/><polygon class="cls-3" points="62.73 42.84 62.73 43.16 77.45 57.91 77.45 57.54 62.73 42.84"/><g class="stage-1" id="s1-5" ><polygon class="cls-9" points="74.81 51.36 74.27 51.63 65.87 47.36 66.42 47.08 74.81 51.36"/><polygon class="cls-10" points="74.81 51.36 74.81 59.17 74.27 59.45 74.27 51.63 74.81 51.36"/><polygon class="cls-11" points="74.27 51.63 74.27 59.45 65.87 55.17 65.87 47.36 74.27 51.63"/><polygon class="cls-9" points="74.19 51.41 73.65 51.68 65.25 47.41 65.8 47.13 74.19 51.41"/><polygon class="cls-10" points="74.19 51.41 74.19 59.22 73.65 59.5 73.65 51.68 74.19 51.41"/><polygon class="cls-11" points="73.65 51.68 73.65 59.5 65.25 55.22 65.25 47.41 73.65 51.68"/><polygon class="cls-9" points="73.72 52.02 73.17 52.3 64.78 48.02 65.33 47.74 73.72 52.02"/><polygon class="cls-10" points="73.72 52.02 73.72 59.83 73.17 60.11 73.17 52.3 73.72 52.02"/><polygon class="cls-11" points="73.17 52.3 73.17 60.11 64.78 55.83 64.78 48.02 73.17 52.3"/></g><polygon class="cls-2" points="74.74 55.77 77.95 54.14 77.95 54.46 74.74 56.09 74.74 55.77"/><polygon class="cls-4" points="74.74 55.46 77.64 53.98 77.95 54.14 74.74 55.77 74.74 55.46"/><polygon class="cls-8" points="74.74 51.61 78.05 49.93 78.05 50.28 74.74 51.96 74.74 51.61"/><polygon class="cls-2" points="58.66 41.8 59.25 41.5 59.25 52.61 58.66 52.91 58.66 41.8"/><polygon class="cls-5" points="58.83 44.75 73.56 59.45 73.56 59.11 59.06 44.63 58.83 44.75"/><polygon class="cls-3" points="58.83 44.75 58.83 45.07 73.56 59.82 73.56 59.45 58.83 44.75"/><polygon class="cls-7" points="59.25 43.72 58.66 44.02 73.56 51.61 73.56 51.01 74.74 51.61 78.05 49.93 77.45 49.63 77.45 49.03 63.14 41.74 62.55 42.03 61.96 41.73 59.25 43.11 59.25 43.72"/><polygon class="cls-6" points="58.66 44.02 58.66 44.37 73.56 51.96 73.56 51.61 58.66 44.02"/><polygon class="cls-3" points="73.56 49.39 74.15 49.69 74.15 60.81 73.56 60.51 73.56 49.39"/><polygon class="cls-2" points="74.15 49.69 74.74 49.39 74.74 60.51 74.15 60.81 74.15 49.69"/><polygon class="cls-4" points="73.56 49.39 74.15 49.09 74.74 49.39 74.15 49.69 73.56 49.39"/><g class="stage-2" id="s2-6" ><ellipse class="cls-12" cx="63.13" cy="55.23" rx="1.86" ry="1.07"/><rect class="cls-12" x="61.27" y="53.86" width="3.72" height="1.38"/><path class="cls-13" d="M63.13,55.21c-1,0-1.86-.48-1.86-1.07V55c0,.59.84,1.07,1.86,1.07a3.19,3.19,0,0,0,.45,0v-.81A3.19,3.19,0,0,1,63.13,55.21Z"/><path class="cls-14" d="M64.44,54.46l0,.37s0,.17.16.06c.46-.29.49-.41.49-.59v-.48Z"/><path class="cls-15" d="M64.74,54.4s.59.05.56-.2a.35.35,0,0,0-.19-.26l.07-.13s.29.2.27.41c0,.39-.71.34-.71.34Z"/><ellipse class="cls-15" cx="64.74" cy="54.48" rx="0.06" ry="0.08"/><ellipse class="cls-14" cx="63.14" cy="53.66" rx="2.07" ry="1.18"/><rect class="cls-14" x="61.07" y="53.41" width="4.13" height="0.24"/><path class="cls-16" d="M65.2,53.41c0,.65-.92,1.18-2.06,1.18s-2.07-.53-2.07-1.18.92-1.17,2.07-1.17a2.15,2.15,0,0,1,2,.91A.6.6,0,0,1,65.2,53.41Z"/><polygon class="cls-16" points="65.02 52.86 65.15 53.15 61.13 53.12 61.24 52.88 65.02 52.86"/><ellipse class="cls-17" cx="63.14" cy="53.23" rx="1.99" ry="1.17"/><ellipse class="cls-18" cx="63.14" cy="53.22" rx="1.94" ry="1.12"/><path class="cls-19" d="M63.14,52.32c-1,0-1.81.5-1.81,1.12a.73.73,0,0,0,0,.25,2.69,2.69,0,0,0,3.55,0,.85.85,0,0,0,0-.23C65,52.82,64.14,52.32,63.14,52.32Z"/><ellipse class="cls-13" cx="63.13" cy="53.34" rx="1.55" ry="0.87"/></g><polygon class="cls-3" points="19.39 8.19 19.98 8.49 19.98 19.61 19.39 19.31 19.39 8.19"/><polygon class="cls-2" points="19.98 8.49 20.57 8.19 20.57 19.31 19.98 19.61 19.98 8.49"/><polygon class="cls-4" points="19.39 8.19 19.98 7.89 20.57 8.19 19.98 8.49 19.39 8.19"/><polygon class="cls-2" points="16.68 20.49 19.89 18.85 19.89 19.17 16.68 20.8 16.68 20.49"/><polygon class="cls-4" points="16.68 20.17 19.58 18.7 19.89 18.85 16.68 20.49 16.68 20.17"/><polygon class="cls-2" points="16.68 12.65 19.89 11.01 19.89 11.33 16.68 12.96 16.68 12.65"/><polygon class="cls-4" points="16.68 12.34 19.58 10.86 19.89 11.01 16.68 12.65 16.68 12.34"/><polygon class="cls-3" points="0 2.29 0.59 2.59 0.59 13.7 0 13.4 0 2.29"/><polygon class="cls-4" points="0 2.29 0.59 1.99 1.19 2.29 0.59 2.59 0 2.29"/><polygon class="cls-3" points="3.9 0.3 4.49 0.6 4.49 11.72 3.9 11.41 3.9 0.3"/><polygon class="cls-2" points="4.49 0.6 5.08 0.3 5.08 11.41 4.49 11.72 4.49 0.6"/><polygon class="cls-4" points="3.9 0.3 4.49 0 5.08 0.3 4.49 0.6 3.9 0.3"/><polygon class="cls-2" points="1.19 12.59 4.39 10.96 4.39 11.28 1.19 12.91 1.19 12.59"/><polygon class="cls-4" points="1.19 12.28 4.09 10.8 4.39 10.96 1.19 12.59 1.19 12.28"/><polygon class="cls-2" points="1.19 8.67 4.39 7.04 4.39 7.35 1.19 8.98 1.19 8.67"/><polygon class="cls-4" points="1.19 8.36 4.09 6.88 4.39 7.04 1.19 8.67 1.19 8.36"/><polygon class="cls-5" points="4.66 3.62 19.39 18.32 19.39 17.98 4.89 3.51 4.66 3.62"/><polygon class="cls-3" points="4.66 3.62 4.66 3.94 19.39 18.7 19.39 18.32 4.66 3.62"/><polygon class="cls-2" points="16.68 16.56 19.89 14.93 19.89 15.24 16.68 16.88 16.68 16.56"/><polygon class="cls-4" points="16.68 16.25 19.58 14.77 19.89 14.93 16.68 16.56 16.68 16.25"/><polygon class="cls-8" points="16.68 12.4 19.98 10.72 19.98 11.06 16.68 12.75 16.68 12.4"/><polygon class="cls-2" points="0.59 2.59 1.19 2.29 1.19 13.4 0.59 13.7 0.59 2.59"/><g class="stage-2" id="s2-7" ><ellipse class="cls-12" cx="5.73" cy="15.99" rx="1.86" ry="1.07"/><rect class="cls-12" x="3.86" y="14.61" width="3.72" height="1.38"/><path class="cls-13" d="M5.73,16c-1,0-1.87-.48-1.87-1.08v.81c0,.6.84,1.08,1.87,1.08a3.42,3.42,0,0,0,.45,0v-.81A3.42,3.42,0,0,1,5.73,16Z"/><path class="cls-14" d="M7,15.21l0,.37s0,.17.16.06c.46-.29.49-.4.49-.59v-.47Z"/><path class="cls-15" d="M7.33,15.16s.59.05.56-.21a.35.35,0,0,0-.19-.26l.07-.13s.29.21.27.41c0,.4-.71.35-.71.35Z"/><ellipse class="cls-15" cx="7.33" cy="15.24" rx="0.06" ry="0.08"/><ellipse class="cls-14" cx="5.73" cy="14.41" rx="2.07" ry="1.18"/><rect class="cls-14" x="3.66" y="14.17" width="4.13" height="0.24"/><path class="cls-16" d="M7.8,14.17c0,.64-.93,1.17-2.07,1.17s-2.07-.53-2.07-1.17S4.59,13,5.73,13a2.15,2.15,0,0,1,2,.92A.75.75,0,0,1,7.8,14.17Z"/><polygon class="cls-16" points="7.62 13.61 7.75 13.9 3.73 13.87 3.83 13.63 7.62 13.61"/><ellipse class="cls-17" cx="5.73" cy="13.98" rx="1.99" ry="1.17"/><ellipse class="cls-18" cx="5.73" cy="13.98" rx="1.94" ry="1.12"/><path class="cls-19" d="M5.73,13.07c-1,0-1.81.5-1.81,1.12a.69.69,0,0,0,0,.25,2.3,2.3,0,0,0,1.77.66,2.3,2.3,0,0,0,1.78-.67.67.67,0,0,0,0-.24C7.55,13.57,6.74,13.07,5.73,13.07Z"/><ellipse class="cls-13" cx="5.73" cy="14.09" rx="1.55" ry="0.87"/><ellipse class="cls-12" cx="5.73" cy="13.91" rx="1.86" ry="1.07"/><rect class="cls-12" x="3.86" y="12.53" width="3.72" height="1.38"/><path class="cls-13" d="M5.73,13.89c-1,0-1.87-.48-1.87-1.08v.81c0,.6.84,1.08,1.87,1.08a3.42,3.42,0,0,0,.45,0v-.81A3.42,3.42,0,0,1,5.73,13.89Z"/><path class="cls-14" d="M7,13.13l0,.37s0,.17.16.06c.46-.29.49-.41.49-.59V12.5Z"/><path class="cls-15" d="M7.33,13.08s.59.05.56-.21a.35.35,0,0,0-.19-.26l.07-.13s.29.21.27.41c0,.4-.71.34-.71.34Z"/><ellipse class="cls-15" cx="7.33" cy="13.16" rx="0.06" ry="0.08"/><ellipse class="cls-14" cx="5.73" cy="12.33" rx="2.07" ry="1.18"/><rect class="cls-14" x="3.66" y="12.08" width="4.13" height="0.24"/><path class="cls-16" d="M7.8,12.08c0,.65-.93,1.18-2.07,1.18s-2.07-.53-2.07-1.18.93-1.17,2.07-1.17a2.17,2.17,0,0,1,2,.91A.85.85,0,0,1,7.8,12.08Z"/><polygon class="cls-16" points="7.62 11.53 7.75 11.82 3.73 11.79 3.83 11.55 7.62 11.53"/><ellipse class="cls-17" cx="5.73" cy="11.9" rx="1.99" ry="1.17"/><ellipse class="cls-18" cx="5.73" cy="11.9" rx="1.94" ry="1.12"/><path class="cls-19" d="M5.73,11c-1,0-1.81.5-1.81,1.12a.73.73,0,0,0,0,.25A2.3,2.3,0,0,0,5.73,13a2.26,2.26,0,0,0,1.78-.68.59.59,0,0,0,0-.23C7.55,11.49,6.74,11,5.73,11Z"/><ellipse class="cls-13" cx="5.73" cy="12.01" rx="1.55" ry="0.87"/></g><polygon class="cls-5" points="0.77 5.54 15.49 20.23 15.49 19.89 0.99 5.42 0.77 5.54"/><polygon class="cls-3" points="0.77 5.54 0.77 5.86 15.49 20.61 15.49 20.23 0.77 5.54"/><polygon class="cls-7" points="1.19 4.5 0.59 4.81 15.49 12.4 15.49 11.8 16.68 12.4 19.98 10.72 19.39 10.41 19.39 9.81 5.08 2.52 4.49 2.82 3.9 2.52 1.19 3.9 1.19 4.5"/><polygon class="cls-6" points="0.59 4.81 0.59 5.16 15.49 12.74 15.49 12.4 0.59 4.81"/><polygon class="cls-3" points="15.49 10.18 16.08 10.48 16.09 21.59 15.49 21.29 15.49 10.18"/><polygon class="cls-2" points="16.08 10.48 16.68 10.18 16.68 21.29 16.09 21.59 16.08 10.48"/><polygon class="cls-4" points="15.49 10.18 16.08 9.88 16.68 10.18 16.08 10.48 15.49 10.18"/><polygon class="cls-3" points="34.88 16.09 35.47 16.39 35.47 27.5 34.88 27.2 34.88 16.09"/><polygon class="cls-2" points="35.47 16.39 36.06 16.09 36.06 27.2 35.47 27.5 35.47 16.39"/><polygon class="cls-4" points="34.88 16.09 35.47 15.78 36.06 16.09 35.47 16.39 34.88 16.09"/><polygon class="cls-2" points="32.17 28.38 35.38 26.75 35.38 27.06 32.17 28.7 32.17 28.38"/><polygon class="cls-4" points="32.17 28.07 35.07 26.59 35.38 26.75 32.17 28.38 32.17 28.07"/><polygon class="cls-2" points="32.17 20.54 35.38 18.91 35.38 19.22 32.17 20.86 32.17 20.54"/><polygon class="cls-4" points="32.17 20.23 35.07 18.75 35.38 18.91 32.17 20.54 32.17 20.23"/><polygon class="cls-3" points="15.49 10.18 16.09 10.48 16.09 21.59 15.49 21.29 15.49 10.18"/><polygon class="cls-4" points="15.49 10.18 16.09 9.88 16.68 10.18 16.09 10.48 15.49 10.18"/><polygon class="cls-3" points="19.39 8.2 19.98 8.5 19.98 19.61 19.39 19.31 19.39 8.2"/><polygon class="cls-2" points="19.98 8.5 20.57 8.2 20.57 19.31 19.98 19.61 19.98 8.5"/><polygon class="cls-4" points="19.39 8.2 19.98 7.89 20.57 8.2 19.98 8.5 19.39 8.2"/><polygon class="cls-2" points="16.68 20.49 19.89 18.85 19.89 19.17 16.68 20.8 16.68 20.49"/><polygon class="cls-4" points="16.68 20.17 19.58 18.7 19.89 18.85 16.68 20.49 16.68 20.17"/><polygon class="cls-2" points="16.68 16.56 19.89 14.93 19.89 15.24 16.68 16.88 16.68 16.56"/><polygon class="cls-4" points="16.68 16.25 19.58 14.77 19.89 14.93 16.68 16.56 16.68 16.25"/><polygon class="cls-5" points="20.15 11.52 34.88 26.22 34.88 25.88 20.38 11.4 20.15 11.52"/><polygon class="cls-3" points="20.15 11.52 20.15 11.84 34.88 26.59 34.88 26.22 20.15 11.52"/><g class="stage-1" id="s1-6" ><polygon class="cls-9" points="32.26 19.83 31.71 20.11 23.32 15.83 23.86 15.55 32.26 19.83"/><polygon class="cls-10" points="32.26 19.83 32.26 27.64 31.71 27.92 31.71 20.11 32.26 19.83"/><polygon class="cls-11" points="31.71 20.11 31.71 27.92 23.32 23.64 23.32 15.83 31.71 20.11"/><polygon class="cls-9" points="31.64 19.88 31.1 20.16 22.7 15.88 23.25 15.6 31.64 19.88"/><polygon class="cls-10" points="31.64 19.88 31.64 27.7 31.1 27.97 31.1 20.16 31.64 19.88"/><polygon class="cls-11" points="31.1 20.16 31.1 27.97 22.7 23.7 22.7 15.88 31.1 20.16"/><polygon class="cls-9" points="31.17 20.49 30.62 20.77 22.23 16.49 22.77 16.21 31.17 20.49"/><polygon class="cls-10" points="31.17 20.49 31.17 28.31 30.62 28.58 30.62 20.77 31.17 20.49"/><polygon class="cls-11" points="30.62 20.77 30.62 28.58 22.23 24.31 22.23 16.49 30.62 20.77"/></g><polygon class="cls-2" points="32.17 24.45 35.38 22.82 35.38 23.14 32.17 24.77 32.17 24.45"/><polygon class="cls-4" points="32.17 24.14 35.07 22.66 35.38 22.82 32.17 24.45 32.17 24.14"/><polygon class="cls-8" points="32.17 20.29 35.47 18.61 35.47 18.96 32.17 20.64 32.17 20.29"/><polygon class="cls-2" points="16.09 10.48 16.68 10.18 16.68 21.29 16.09 21.59 16.09 10.48"/><polygon class="cls-5" points="16.26 13.43 30.98 28.13 30.98 27.79 16.48 13.31 16.26 13.43"/><polygon class="cls-3" points="16.26 13.43 16.26 13.75 30.98 28.5 30.98 28.13 16.26 13.43"/><polygon class="cls-7" points="16.68 12.4 16.09 12.7 30.98 20.29 30.98 19.69 32.17 20.29 35.47 18.61 34.88 18.3 34.88 17.71 20.57 10.42 19.98 10.72 19.39 10.41 16.68 11.79 16.68 12.4"/><polygon class="cls-6" points="16.09 12.7 16.09 13.05 30.98 20.64 30.98 20.29 16.09 12.7"/><polygon class="cls-3" points="30.98 18.07 31.57 18.37 31.58 29.49 30.98 29.18 30.98 18.07"/><polygon class="cls-2" points="31.57 18.37 32.17 18.07 32.17 29.19 31.58 29.49 31.57 18.37"/><polygon class="cls-4" points="30.98 18.07 31.57 17.77 32.17 18.07 31.57 18.37 30.98 18.07"/></g></g></g></g></svg>