<svg xmlns="http://www.w3.org/2000/svg" viewBox="0 0 397.9 215.87"><defs><style>.cls-1{fill:#939a2a;}.cls-2{fill:#b4a494;}.cls-3{fill:#746663;}.cls-4{fill:#988c7f;}.cls-5{fill:#296b2d;}.cls-6{fill:#225e2d;}.cls-7{fill:#327a32;}</style></defs><g id="Шар_2" ><g id="icogram"><g id="ground"><polygon class="cls-1" points="208.07 209.31 397.89 112.59 189.83 6.57 0 103.3 208.07 209.31"/><path class="cls-2" d="M208.37,204.51c60.84-31,120.4-61.35,181.25-92.35L190.08,10.49,8.83,102.84Z"/><polygon class="cls-2" points="40.92 124.15 76.56 142.31 81.43 139.83 45.79 121.67 40.92 124.15"/><polygon class="cls-3" points="208.06 215.87 208.07 209.31 0 103.3 0 109.85 208.06 215.87"/><polygon class="cls-4" points="397.9 119.14 397.89 112.59 208.07 209.31 208.06 215.87 397.9 119.14"/><polygon class="cls-3" points="45.79 121.67 50.06 119.5 18.2 103.26 115.97 53.45 115.97 47.89 8.47 102.66 45.79 121.67"/><polygon class="cls-3" points="310.6 70.57 310.6 78.33 378.06 112.7 207.4 199.66 85.7 137.66 81.43 139.83 208.37 204.51 390.91 111.5 310.6 70.57"/></g><g id="fence_back"><g id="fence_4"><polygon class="cls-5" points="190 0.35 189.94 11.19 189.3 11.52 189.3 0.71 190 0.35"/><polygon class="cls-6" points="188.61 0.35 188.61 11.17 189.3 11.52 189.3 0.71 188.61 0.35"/><path class="cls-7" d="M188.61.35l.7-.35.69.35-.7.36Z"/><polygon class="cls-6" points="189.57 1 189.57 11.39 206.79 20.16 206.79 9.77 189.57 1"/><path class="cls-5" d="M189.57,2v.8l17.22,8.77v-.8Z"/><path class="cls-5" d="M189.57,4.39v.8L206.79,14v-.8Z"/><path class="cls-5" d="M189.57,6.78v.81l17.22,8.77v-.8Z"/><path class="cls-5" d="M189.57,9.19V10l17.22,8.77V18Z"/><path class="cls-7" d="M189.57,1l17.22,8.76.42-.24L190,.76Z"/><polygon class="cls-5" points="208.18 9.61 208.13 20.45 207.49 20.78 207.49 9.96 208.18 9.61"/><polygon class="cls-6" points="206.79 9.61 206.79 20.42 207.49 20.78 207.49 9.96 206.79 9.61"/><path class="cls-7" d="M206.79,9.61l.7-.36.69.36-.69.35Z"/><polygon class="cls-6" points="207.74 10.25 207.74 20.65 224.96 29.42 224.96 19.02 207.74 10.25"/><path class="cls-5" d="M207.74,11.24V12L225,20.82V20Z"/><path class="cls-5" d="M207.74,13.64v.8L225,23.21v-.79Z"/><path class="cls-5" d="M207.74,16v.8L225,25.62v-.81Z"/><path class="cls-5" d="M207.74,18.44v.8L225,28v-.79Z"/><path class="cls-7" d="M207.74,10.25,225,19l.41-.24L208.15,10Z"/><polygon class="cls-5" points="226.34 18.86 226.29 29.7 225.65 30.03 225.65 19.22 226.34 18.86"/><polygon class="cls-6" points="224.96 18.86 224.96 29.68 225.65 30.03 225.65 19.22 224.96 18.86"/><path class="cls-7" d="M225,18.86l.69-.35.69.35-.69.36Z"/><polygon class="cls-6" points="225.9 19.51 225.9 29.9 243.12 38.67 243.12 28.27 225.9 19.51"/><path class="cls-5" d="M225.9,20.5v.8l17.22,8.77v-.8Z"/><path class="cls-5" d="M225.9,22.9v.8l17.22,8.77v-.8Z"/><path class="cls-5" d="M225.9,25.29v.81l17.22,8.77v-.8Z"/><path class="cls-5" d="M225.9,27.7v.8l17.22,8.77v-.8Z"/><path class="cls-7" d="M225.9,19.51l17.22,8.76.42-.24-17.22-8.76Z"/><polygon class="cls-5" points="244.51 28.11 244.45 38.96 243.81 39.28 243.81 28.47 244.51 28.11"/><polygon class="cls-6" points="243.12 28.12 243.12 38.93 243.81 39.28 243.81 28.47 243.12 28.12"/><path class="cls-7" d="M243.12,28.12l.7-.36.69.35-.7.36Z"/><polygon class="cls-6" points="244.06 28.76 244.06 39.16 261.28 47.93 261.28 37.53 244.06 28.76"/><path class="cls-5" d="M244.06,29.75v.8l17.22,8.78v-.8Z"/><path class="cls-5" d="M244.06,32.15V33l17.22,8.77v-.79Z"/><path class="cls-5" d="M244.06,34.55v.8l17.22,8.77v-.8Z"/><path class="cls-5" d="M244.06,37v.8l17.22,8.77v-.79Z"/><path class="cls-7" d="M244.06,28.76l17.22,8.77.42-.24-17.22-8.77Z"/><polygon class="cls-5" points="262.67 37.37 262.62 48.21 261.98 48.54 261.98 37.73 262.67 37.37"/><polygon class="cls-6" points="261.29 37.37 261.29 48.19 261.98 48.54 261.98 37.73 261.29 37.37"/><path class="cls-7" d="M261.28,37.37,262,37l.69.35-.69.36Z"/><polygon class="cls-6" points="262.23 38.02 262.23 48.41 279.45 57.18 279.45 46.78 262.23 38.02"/><path class="cls-5" d="M262.23,39v.8l17.22,8.77v-.8Z"/><path class="cls-5" d="M262.23,41.41v.8L279.45,51v-.8Z"/><path class="cls-5" d="M262.23,43.8v.81l17.22,8.77v-.8Z"/><path class="cls-5" d="M262.23,46.21V47l17.22,8.77V55Z"/><path class="cls-7" d="M262.23,38l17.22,8.76.41-.24-17.22-8.76Z"/><polygon class="cls-5" points="280.83 46.63 280.78 57.47 280.14 57.8 280.14 46.98 280.83 46.63"/><polygon class="cls-6" points="279.45 46.63 279.45 57.44 280.14 57.8 280.14 46.98 279.45 46.63"/><path class="cls-7" d="M279.45,46.63l.69-.36.69.35-.69.36Z"/><polygon class="cls-6" points="280.39 47.27 280.39 57.66 297.61 66.44 297.61 56.04 280.39 47.27"/><path class="cls-5" d="M280.39,48.26v.8l17.22,8.78V57Z"/><path class="cls-5" d="M280.39,50.66v.8l17.22,8.77v-.79Z"/><path class="cls-5" d="M280.39,53.06v.8l17.22,8.77v-.8Z"/><path class="cls-5" d="M280.39,55.46v.8L297.61,65v-.79Z"/><path class="cls-7" d="M280.39,47.27,297.61,56l.42-.24L280.81,47Z"/><polygon class="cls-5" points="299 55.88 298.95 66.72 298.31 67.05 298.31 56.24 299 55.88"/><polygon class="cls-6" points="297.61 55.88 297.61 66.7 298.31 67.05 298.31 56.24 297.61 55.88"/><path class="cls-7" d="M297.61,55.88l.7-.35.69.35-.69.36Z"/><polygon class="cls-6" points="298.56 56.53 298.56 66.92 315.77 75.69 315.78 65.29 298.56 56.53"/><path class="cls-5" d="M298.56,57.52v.8l17.22,8.77v-.8Z"/><path class="cls-5" d="M298.56,59.92v.8l17.21,8.77v-.8Z"/><path class="cls-5" d="M298.56,62.31v.81l17.21,8.77v-.8Z"/><path class="cls-5" d="M298.56,64.72v.8l17.21,8.77v-.8Z"/><path class="cls-7" d="M298.56,56.53l17.22,8.76.41-.24L299,56.29Z"/><polygon class="cls-5" points="317.16 65.14 317.11 75.98 316.47 76.31 316.47 65.49 317.16 65.14"/><polygon class="cls-6" points="315.78 65.14 315.78 75.95 316.47 76.31 316.47 65.49 315.78 65.14"/><path class="cls-7" d="M315.78,65.14l.69-.36.69.35-.69.36Z"/><polygon class="cls-6" points="316.72 65.78 316.72 76.17 333.94 84.95 333.94 74.55 316.72 65.78"/><path class="cls-5" d="M316.72,66.77v.8l17.22,8.78v-.8Z"/><path class="cls-5" d="M316.72,69.17V70l17.22,8.77V78Z"/><path class="cls-5" d="M316.72,71.57v.8l17.22,8.77v-.8Z"/><path class="cls-5" d="M316.72,74v.8l17.22,8.77v-.79Z"/><path class="cls-7" d="M316.72,65.78l17.22,8.77.42-.24-17.22-8.77Z"/><polygon class="cls-5" points="335.33 74.39 335.27 85.23 334.63 85.56 334.63 74.75 335.33 74.39"/><polygon class="cls-6" points="333.94 74.39 333.94 85.21 334.63 85.56 334.63 74.75 333.94 74.39"/><path class="cls-7" d="M333.94,74.39l.7-.35.69.35-.7.36Z"/><polygon class="cls-6" points="334.88 75.04 334.88 85.43 352.1 94.2 352.1 83.8 334.88 75.04"/><path class="cls-5" d="M334.88,76v.8L352.1,85.6v-.8Z"/><path class="cls-5" d="M334.88,78.43v.8L352.1,88v-.8Z"/><path class="cls-5" d="M334.88,80.82v.81L352.1,90.4v-.8Z"/><path class="cls-5" d="M334.88,83.23V84L352.1,92.8V92Z"/><path class="cls-7" d="M334.88,75,352.1,83.8l.42-.24L335.3,74.8Z"/><polygon class="cls-5" points="353.49 83.64 353.44 94.49 352.8 94.81 352.8 84 353.49 83.64"/><polygon class="cls-6" points="352.11 83.65 352.11 94.46 352.8 94.81 352.8 84 352.11 83.65"/><path class="cls-7" d="M352.11,83.65l.69-.36.69.35-.69.36Z"/><polygon class="cls-6" points="353.05 84.29 353.05 94.69 370.27 103.46 370.27 93.06 353.05 84.29"/><path class="cls-5" d="M353.05,85.28v.8l17.22,8.78v-.8Z"/><path class="cls-5" d="M353.05,87.68v.8l17.22,8.77v-.79Z"/><path class="cls-5" d="M353.05,90.08v.8l17.22,8.77v-.8Z"/><path class="cls-5" d="M353.05,92.48v.8l17.22,8.77v-.79Z"/><path class="cls-7" d="M353.05,84.29l17.22,8.77.41-.24-17.22-8.77Z"/><polygon class="cls-5" points="371.65 92.9 371.6 103.74 370.96 104.07 370.96 93.26 371.65 92.9"/><polygon class="cls-6" points="370.27 92.9 370.27 103.72 370.96 104.07 370.96 93.26 370.27 92.9"/><path class="cls-7" d="M370.27,92.9l.69-.35.69.35-.69.36Z"/><polygon class="cls-6" points="371.21 93.55 371.21 103.94 388.43 112.71 388.43 102.31 371.21 93.55"/><path class="cls-5" d="M371.21,94.54v.8l17.22,8.77v-.8Z"/><path class="cls-5" d="M371.21,96.94v.8l17.22,8.77v-.8Z"/><path class="cls-5" d="M371.21,99.33v.81l17.22,8.77v-.8Z"/><path class="cls-5" d="M371.21,101.74v.8l17.22,8.77v-.8Z"/><path class="cls-7" d="M371.21,93.55l17.22,8.76.42-.24-17.22-8.76Z"/></g><g id="fence_3"><polygon class="cls-5" points="189.03 0.99 189.04 11.39 171.88 20.13 171.93 9.7 189.03 0.99"/><path class="cls-6" d="M189.05,2v.8L171.93,11.5v-.8Z"/><path class="cls-6" d="M189.05,4.38v.8l-17.14,8.73v-.8Z"/><path class="cls-6" d="M189.05,6.78v.8L171.9,16.32v-.81Z"/><path class="cls-6" d="M189.05,9.18V10l-17.17,8.75,0-.81Z"/><path class="cls-7" d="M189,1,171.93,9.7l-.43-.22L188.6.77Z"/><polygon class="cls-5" points="171.93 9.54 171.88 20.39 171.24 20.71 171.24 9.9 171.93 9.54"/><polygon class="cls-6" points="170.55 9.55 170.55 20.36 171.24 20.71 171.24 9.9 170.55 9.55"/><path class="cls-7" d="M170.55,9.55l.69-.36.69.35-.69.36Z"/><polygon class="cls-5" points="170.97 10.19 170.98 20.59 153.82 29.33 153.87 18.91 170.97 10.19"/><path class="cls-6" d="M171,11.18V12l-17.11,8.73V19.9Z"/><path class="cls-6" d="M171,13.58v.8l-17.13,8.73v-.8Z"/><path class="cls-6" d="M171,16v.8l-17.14,8.74v-.81Z"/><path class="cls-6" d="M171,18.38v.8l-17.16,8.75,0-.81Z"/><path class="cls-7" d="M171,10.19l-17.1,8.72-.43-.22L170.54,10Z"/><polygon class="cls-5" points="153.87 18.75 153.82 29.59 153.18 29.92 153.18 19.1 153.87 18.75"/><polygon class="cls-6" points="152.49 18.75 152.49 29.56 153.18 29.92 153.18 19.1 152.49 18.75"/><path class="cls-7" d="M152.49,18.75l.69-.36.69.36-.69.35Z"/><polygon class="cls-5" points="152.92 19.4 152.93 29.8 135.77 38.54 135.82 28.12 152.92 19.4"/><path class="cls-6" d="M152.93,20.39v.8l-17.11,8.73v-.8Z"/><path class="cls-6" d="M152.93,22.8v.79L135.8,32.33v-.81Z"/><path class="cls-6" d="M152.93,25.19V26l-17.14,8.74v-.81Z"/><path class="cls-6" d="M152.93,27.59v.8l-17.16,8.75,0-.81Z"/><path class="cls-7" d="M152.92,19.4l-17.1,8.72-.43-.22,17.1-8.72Z"/><polygon class="cls-5" points="135.82 27.96 135.77 38.8 135.13 39.13 135.13 28.32 135.82 27.96"/><polygon class="cls-6" points="134.44 27.96 134.44 38.77 135.13 39.13 135.13 28.32 134.44 27.96"/><path class="cls-7" d="M134.44,28l.69-.35.69.35-.69.35Z"/><polygon class="cls-5" points="134.86 28.6 134.87 38.99 117.71 47.74 117.76 37.31 134.86 28.6"/><path class="cls-6" d="M134.87,29.59v.8l-17.12,8.72v-.8Z"/><path class="cls-6" d="M134.87,32v.8l-17.14,8.73v-.8Z"/><path class="cls-6" d="M134.87,34.38v.81l-17.15,8.74v-.81Z"/><path class="cls-6" d="M134.87,36.79v.8L117.7,46.33l0-.8Z"/><path class="cls-7" d="M134.86,28.6l-17.1,8.71-.43-.22,17.1-8.71Z"/><polygon class="cls-5" points="117.76 37.15 117.7 47.99 117.06 48.32 117.06 37.51 117.76 37.15"/><polygon class="cls-6" points="116.37 37.15 116.37 47.97 117.06 48.32 117.06 37.51 116.37 37.15"/><path class="cls-7" d="M116.37,37.15l.7-.35.69.35-.7.36Z"/><polygon class="cls-5" points="116.8 37.8 116.81 48.2 99.64 56.94 99.7 46.51 116.8 37.8"/><path class="cls-6" d="M116.81,38.79v.8L99.69,48.31v-.8Z"/><path class="cls-6" d="M116.81,41.19V42L99.67,50.72v-.8Z"/><path class="cls-6" d="M116.81,43.59v.8L99.66,53.13v-.81Z"/><path class="cls-6" d="M116.81,46v.8L99.64,55.54l0-.81Z"/><path class="cls-7" d="M116.8,37.8,99.7,46.51l-.43-.22,17.1-8.71Z"/><polygon class="cls-5" points="99.7 46.35 99.64 57.2 99 57.52 99 46.71 99.7 46.35"/><polygon class="cls-6" points="98.31 46.35 98.31 57.17 99 57.52 99 46.71 98.31 46.35"/><path class="cls-7" d="M98.31,46.36,99,46l.69.35-.7.36Z"/><polygon class="cls-5" points="98.75 47.01 98.76 57.41 81.59 66.15 81.65 55.72 98.75 47.01"/><path class="cls-6" d="M98.76,48v.8L81.64,57.52v-.8Z"/><path class="cls-6" d="M98.76,50.4v.8L81.62,59.93v-.8Z"/><path class="cls-6" d="M98.76,52.8v.8L81.61,62.34v-.81Z"/><path class="cls-6" d="M98.76,55.2V56L81.59,64.75l0-.81Z"/><path class="cls-7" d="M98.75,47l-17.1,8.71-.43-.22,17.1-8.71Z"/><polygon class="cls-5" points="81.65 55.56 81.59 66.41 80.95 66.73 80.95 55.92 81.65 55.56"/><polygon class="cls-6" points="80.26 55.57 80.26 66.38 80.95 66.73 80.95 55.92 80.26 55.57"/><path class="cls-7" d="M80.26,55.57l.7-.36.69.35-.7.36Z"/><polygon class="cls-5" points="80.69 56.21 80.7 66.61 63.54 75.35 63.59 64.92 80.69 56.21"/><path class="cls-6" d="M80.7,57.2V58L63.59,66.72v-.8Z"/><path class="cls-6" d="M80.7,59.6v.8L63.57,69.13v-.8Z"/><path class="cls-6" d="M80.7,62v.8L63.56,71.54v-.81Z"/><path class="cls-6" d="M80.7,64.4v.8L63.54,74l0-.81Z"/><path class="cls-7" d="M80.69,56.21l-17.1,8.71-.43-.22L80.26,56Z"/><polygon class="cls-5" points="63.59 64.77 63.54 75.61 62.9 75.94 62.9 65.12 63.59 64.77"/><polygon class="cls-6" points="62.21 64.77 62.21 75.58 62.9 75.94 62.9 65.12 62.21 64.77"/><path class="cls-7" d="M62.21,64.77l.69-.36.69.35-.69.36Z"/><polygon class="cls-5" points="62.63 65.41 62.64 75.81 45.48 84.55 45.53 74.13 62.63 65.41"/><path class="cls-6" d="M62.64,66.4v.8L45.53,75.93v-.81Z"/><path class="cls-6" d="M62.64,68.8v.8L45.51,78.33v-.8Z"/><path class="cls-6" d="M62.64,71.2V72L45.5,80.74v-.81Z"/><path class="cls-6" d="M62.64,73.6v.8L45.48,83.15l0-.81Z"/><path class="cls-7" d="M62.63,65.41l-17.1,8.72-.43-.22,17.1-8.72Z"/><polygon class="cls-5" points="45.53 73.97 45.48 84.81 44.84 85.14 44.84 74.32 45.53 73.97"/><polygon class="cls-6" points="44.15 73.97 44.15 84.78 44.84 85.14 44.84 74.32 44.15 73.97"/><path class="cls-7" d="M44.15,74l.69-.36.69.36-.69.35Z"/><polygon class="cls-5" points="44.57 74.61 44.58 85.01 27.42 93.75 27.47 83.33 44.57 74.61"/><path class="cls-6" d="M44.59,75.61v.8L27.47,85.13v-.8Z"/><path class="cls-6" d="M44.59,78v.79L27.45,87.54v-.81Z"/><path class="cls-6" d="M44.59,80.4v.81L27.44,89.94v-.81Z"/><path class="cls-6" d="M44.59,82.81v.79L27.42,92.35l0-.81Z"/><path class="cls-7" d="M44.57,74.62l-17.1,8.71L27,83.11l17.1-8.71Z"/><polygon class="cls-5" points="27.47 83.17 27.42 94.01 26.78 94.34 26.78 83.53 27.47 83.17"/><polygon class="cls-6" points="26.09 83.17 26.09 93.99 26.78 94.34 26.78 83.53 26.09 83.17"/><path class="cls-7" d="M26.09,83.17l.69-.35.69.35-.69.36Z"/><polygon class="cls-5" points="26.51 83.82 26.52 94.21 9.36 102.96 9.41 92.53 26.51 83.82"/><path class="cls-6" d="M26.52,84.81v.8L9.41,94.33v-.8Z"/><path class="cls-6" d="M26.52,87.21V88L9.39,96.74v-.8Z"/><path class="cls-6" d="M26.52,89.6v.81L9.38,99.14v-.8Z"/><path class="cls-6" d="M26.52,92v.8L9.36,101.55l0-.8Z"/><path class="cls-7" d="M26.51,83.82,9.41,92.53,9,92.31l17.1-8.71Z"/><polygon class="cls-5" points="9.41 92.37 9.36 103.21 8.72 103.54 8.72 92.73 9.41 92.37"/><polygon class="cls-6" points="8.03 92.37 8.03 103.19 8.72 103.54 8.72 92.73 8.03 92.37"/><path class="cls-7" d="M8,92.37,8.72,92l.69.35-.69.36Z"/></g></g></g></g></svg>