<svg xmlns="http://www.w3.org/2000/svg" viewBox="0 0 397.9 215.87"><defs><style>.cls-1{fill:#939a2a;}.cls-2{fill:#b4a494;}.cls-3{fill:#746663;}.cls-4{fill:#988c7f;}.cls-5{fill:#296b2d;}.cls-6{fill:#225e2d;}.cls-7{fill:#327a32;}.cls-8{opacity:0.3;}.cls-9{fill:#e6e7e9;}.cls-10{fill:#888886;}.cls-11{fill:#bbbcbe;}.cls-12{fill:#797a7a;}.cls-13{fill:#5e605f;}.cls-14{fill:#68696b;}.cls-15{fill:#5a320c;}.cls-16{fill:#714710;}.cls-17{fill:#825013;}.cls-18{fill:#cac7cc;}.cls-19{fill:#e5e5e7;}.cls-20{fill:#d5d4d7;}.cls-21{fill:#f1f1f3;}</style></defs><g id="Шар_2" ><g id="icogram"><g id="ground"><polygon class="cls-1" points="208.07 209.31 397.89 112.59 189.83 6.57 0 103.3 208.07 209.31"/><path class="cls-2" d="M208.37,204.51c60.84-31,120.4-61.35,181.25-92.35L190.08,10.49,8.83,102.84Z"/><polygon class="cls-2" points="40.92 124.15 76.56 142.31 81.43 139.83 45.79 121.67 40.92 124.15"/><polygon class="cls-3" points="208.06 215.87 208.07 209.31 0 103.3 0 109.85 208.06 215.87"/><polygon class="cls-4" points="397.9 119.14 397.89 112.59 208.07 209.31 208.06 215.87 397.9 119.14"/></g><g id="fence_back"><g id="fence_4"><polygon class="cls-5" points="190 0.35 189.94 11.19 189.3 11.52 189.3 0.71 190 0.35"/><polygon class="cls-6" points="188.61 0.35 188.61 11.17 189.3 11.52 189.3 0.71 188.61 0.35"/><path class="cls-7" d="M188.61.35l.7-.35.69.35-.7.36Z"/><polygon class="cls-6" points="189.57 1 189.57 11.39 206.79 20.16 206.79 9.77 189.57 1"/><path class="cls-5" d="M189.57,2v.8l17.22,8.77v-.8Z"/><path class="cls-5" d="M189.57,4.39v.8L206.79,14v-.8Z"/><path class="cls-5" d="M189.57,6.78v.81l17.22,8.77v-.8Z"/><path class="cls-5" d="M189.57,9.19V10l17.22,8.77V18Z"/><path class="cls-7" d="M189.57,1l17.22,8.76.42-.24L190,.76Z"/><polygon class="cls-5" points="208.18 9.61 208.13 20.45 207.49 20.78 207.49 9.96 208.18 9.61"/><polygon class="cls-6" points="206.79 9.61 206.79 20.42 207.49 20.78 207.49 9.96 206.79 9.61"/><path class="cls-7" d="M206.79,9.61l.7-.36.69.36-.69.35Z"/><polygon class="cls-6" points="207.74 10.25 207.74 20.65 224.96 29.42 224.96 19.02 207.74 10.25"/><path class="cls-5" d="M207.74,11.24V12L225,20.82V20Z"/><path class="cls-5" d="M207.74,13.64v.8L225,23.21v-.79Z"/><path class="cls-5" d="M207.74,16v.8L225,25.62v-.81Z"/><path class="cls-5" d="M207.74,18.44v.8L225,28v-.79Z"/><path class="cls-7" d="M207.74,10.25,225,19l.41-.24L208.15,10Z"/><polygon class="cls-5" points="226.34 18.86 226.29 29.7 225.65 30.03 225.65 19.22 226.34 18.86"/><polygon class="cls-6" points="224.96 18.86 224.96 29.68 225.65 30.03 225.65 19.22 224.96 18.86"/><path class="cls-7" d="M225,18.86l.69-.35.69.35-.69.36Z"/><polygon class="cls-6" points="225.9 19.51 225.9 29.9 243.12 38.67 243.12 28.27 225.9 19.51"/><path class="cls-5" d="M225.9,20.5v.8l17.22,8.77v-.8Z"/><path class="cls-5" d="M225.9,22.9v.8l17.22,8.77v-.8Z"/><path class="cls-5" d="M225.9,25.29v.81l17.22,8.77v-.8Z"/><path class="cls-5" d="M225.9,27.7v.8l17.22,8.77v-.8Z"/><path class="cls-7" d="M225.9,19.51l17.22,8.76.42-.24-17.22-8.76Z"/><polygon class="cls-5" points="244.51 28.11 244.45 38.96 243.81 39.28 243.81 28.47 244.51 28.11"/><polygon class="cls-6" points="243.12 28.12 243.12 38.93 243.81 39.28 243.81 28.47 243.12 28.12"/><path class="cls-7" d="M243.12,28.12l.7-.36.69.35-.7.36Z"/><polygon class="cls-6" points="244.06 28.76 244.06 39.16 261.28 47.93 261.28 37.53 244.06 28.76"/><path class="cls-5" d="M244.06,29.75v.8l17.22,8.78v-.8Z"/><path class="cls-5" d="M244.06,32.15V33l17.22,8.77v-.79Z"/><path class="cls-5" d="M244.06,34.55v.8l17.22,8.77v-.8Z"/><path class="cls-5" d="M244.06,37v.8l17.22,8.77v-.79Z"/><path class="cls-7" d="M244.06,28.76l17.22,8.77.42-.24-17.22-8.77Z"/><polygon class="cls-5" points="262.67 37.37 262.62 48.21 261.98 48.54 261.98 37.73 262.67 37.37"/><polygon class="cls-6" points="261.29 37.37 261.29 48.19 261.98 48.54 261.98 37.73 261.29 37.37"/><path class="cls-7" d="M261.28,37.37,262,37l.69.35-.69.36Z"/><polygon class="cls-6" points="262.23 38.02 262.23 48.41 279.45 57.18 279.45 46.78 262.23 38.02"/><path class="cls-5" d="M262.23,39v.8l17.22,8.77v-.8Z"/><path class="cls-5" d="M262.23,41.41v.8L279.45,51v-.8Z"/><path class="cls-5" d="M262.23,43.8v.81l17.22,8.77v-.8Z"/><path class="cls-5" d="M262.23,46.21V47l17.22,8.77V55Z"/><path class="cls-7" d="M262.23,38l17.22,8.76.41-.24-17.22-8.76Z"/><polygon class="cls-5" points="280.83 46.63 280.78 57.47 280.14 57.8 280.14 46.98 280.83 46.63"/><polygon class="cls-6" points="279.45 46.63 279.45 57.44 280.14 57.8 280.14 46.98 279.45 46.63"/><path class="cls-7" d="M279.45,46.63l.69-.36.69.35-.69.36Z"/><polygon class="cls-6" points="280.39 47.27 280.39 57.66 297.61 66.44 297.61 56.04 280.39 47.27"/><path class="cls-5" d="M280.39,48.26v.8l17.22,8.78V57Z"/><path class="cls-5" d="M280.39,50.66v.8l17.22,8.77v-.79Z"/><path class="cls-5" d="M280.39,53.06v.8l17.22,8.77v-.8Z"/><path class="cls-5" d="M280.39,55.46v.8L297.61,65v-.79Z"/><path class="cls-7" d="M280.39,47.27,297.61,56l.42-.24L280.81,47Z"/><polygon class="cls-5" points="299 55.88 298.95 66.72 298.31 67.05 298.31 56.24 299 55.88"/><polygon class="cls-6" points="297.61 55.88 297.61 66.7 298.31 67.05 298.31 56.24 297.61 55.88"/><path class="cls-7" d="M297.61,55.88l.7-.35.69.35-.69.36Z"/><polygon class="cls-6" points="298.56 56.53 298.56 66.92 315.77 75.69 315.78 65.29 298.56 56.53"/><path class="cls-5" d="M298.56,57.52v.8l17.22,8.77v-.8Z"/><path class="cls-5" d="M298.56,59.92v.8l17.21,8.77v-.8Z"/><path class="cls-5" d="M298.56,62.31v.81l17.21,8.77v-.8Z"/><path class="cls-5" d="M298.56,64.72v.8l17.21,8.77v-.8Z"/><path class="cls-7" d="M298.56,56.53l17.22,8.76.41-.24L299,56.29Z"/><polygon class="cls-5" points="317.16 65.14 317.11 75.98 316.47 76.31 316.47 65.49 317.16 65.14"/><polygon class="cls-6" points="315.78 65.14 315.78 75.95 316.47 76.31 316.47 65.49 315.78 65.14"/><path class="cls-7" d="M315.78,65.14l.69-.36.69.35-.69.36Z"/><polygon class="cls-6" points="316.72 65.78 316.72 76.17 333.94 84.95 333.94 74.55 316.72 65.78"/><path class="cls-5" d="M316.72,66.77v.8l17.22,8.78v-.8Z"/><path class="cls-5" d="M316.72,69.17V70l17.22,8.77V78Z"/><path class="cls-5" d="M316.72,71.57v.8l17.22,8.77v-.8Z"/><path class="cls-5" d="M316.72,74v.8l17.22,8.77v-.79Z"/><path class="cls-7" d="M316.72,65.78l17.22,8.77.42-.24-17.22-8.77Z"/><polygon class="cls-5" points="335.33 74.39 335.27 85.23 334.63 85.56 334.63 74.75 335.33 74.39"/><polygon class="cls-6" points="333.94 74.39 333.94 85.21 334.63 85.56 334.63 74.75 333.94 74.39"/><path class="cls-7" d="M333.94,74.39l.7-.35.69.35-.7.36Z"/><polygon class="cls-6" points="334.88 75.04 334.88 85.43 352.1 94.2 352.1 83.8 334.88 75.04"/><path class="cls-5" d="M334.88,76v.8L352.1,85.6v-.8Z"/><path class="cls-5" d="M334.88,78.43v.8L352.1,88v-.8Z"/><path class="cls-5" d="M334.88,80.82v.81L352.1,90.4v-.8Z"/><path class="cls-5" d="M334.88,83.23V84L352.1,92.8V92Z"/><path class="cls-7" d="M334.88,75,352.1,83.8l.42-.24L335.3,74.8Z"/><polygon class="cls-5" points="353.49 83.64 353.44 94.49 352.8 94.81 352.8 84 353.49 83.64"/><polygon class="cls-6" points="352.11 83.65 352.11 94.46 352.8 94.81 352.8 84 352.11 83.65"/><path class="cls-7" d="M352.11,83.65l.69-.36.69.35-.69.36Z"/><polygon class="cls-6" points="353.05 84.29 353.05 94.69 370.27 103.46 370.27 93.06 353.05 84.29"/><path class="cls-5" d="M353.05,85.28v.8l17.22,8.78v-.8Z"/><path class="cls-5" d="M353.05,87.68v.8l17.22,8.77v-.79Z"/><path class="cls-5" d="M353.05,90.08v.8l17.22,8.77v-.8Z"/><path class="cls-5" d="M353.05,92.48v.8l17.22,8.77v-.79Z"/><path class="cls-7" d="M353.05,84.29l17.22,8.77.41-.24-17.22-8.77Z"/><polygon class="cls-5" points="371.65 92.9 371.6 103.74 370.96 104.07 370.96 93.26 371.65 92.9"/><polygon class="cls-6" points="370.27 92.9 370.27 103.72 370.96 104.07 370.96 93.26 370.27 92.9"/><path class="cls-7" d="M370.27,92.9l.69-.35.69.35-.69.36Z"/><polygon class="cls-6" points="371.21 93.55 371.21 103.94 388.43 112.71 388.43 102.31 371.21 93.55"/><path class="cls-5" d="M371.21,94.54v.8l17.22,8.77v-.8Z"/><path class="cls-5" d="M371.21,96.94v.8l17.22,8.77v-.8Z"/><path class="cls-5" d="M371.21,99.33v.81l17.22,8.77v-.8Z"/><path class="cls-5" d="M371.21,101.74v.8l17.22,8.77v-.8Z"/><path class="cls-7" d="M371.21,93.55l17.22,8.76.42-.24-17.22-8.76Z"/></g><g id="fence_3"><polygon class="cls-5" points="189.03 0.99 189.04 11.39 171.88 20.13 171.93 9.7 189.03 0.99"/><path class="cls-6" d="M189.05,2v.8L171.93,11.5v-.8Z"/><path class="cls-6" d="M189.05,4.38v.8l-17.14,8.73v-.8Z"/><path class="cls-6" d="M189.05,6.78v.8L171.9,16.32v-.81Z"/><path class="cls-6" d="M189.05,9.18V10l-17.17,8.75,0-.81Z"/><path class="cls-7" d="M189,1,171.93,9.7l-.43-.22L188.6.77Z"/><polygon class="cls-5" points="171.93 9.54 171.88 20.39 171.24 20.71 171.24 9.9 171.93 9.54"/><polygon class="cls-6" points="170.55 9.55 170.55 20.36 171.24 20.71 171.24 9.9 170.55 9.55"/><path class="cls-7" d="M170.55,9.55l.69-.36.69.35-.69.36Z"/><polygon class="cls-5" points="170.97 10.19 170.98 20.59 153.82 29.33 153.87 18.91 170.97 10.19"/><path class="cls-6" d="M171,11.18V12l-17.11,8.73V19.9Z"/><path class="cls-6" d="M171,13.58v.8l-17.13,8.73v-.8Z"/><path class="cls-6" d="M171,16v.8l-17.14,8.74v-.81Z"/><path class="cls-6" d="M171,18.38v.8l-17.16,8.75,0-.81Z"/><path class="cls-7" d="M171,10.19l-17.1,8.72-.43-.22L170.54,10Z"/><polygon class="cls-5" points="153.87 18.75 153.82 29.59 153.18 29.92 153.18 19.1 153.87 18.75"/><polygon class="cls-6" points="152.49 18.75 152.49 29.56 153.18 29.92 153.18 19.1 152.49 18.75"/><path class="cls-7" d="M152.49,18.75l.69-.36.69.36-.69.35Z"/><polygon class="cls-5" points="152.92 19.4 152.93 29.8 135.77 38.54 135.82 28.12 152.92 19.4"/><path class="cls-6" d="M152.93,20.39v.8l-17.11,8.73v-.8Z"/><path class="cls-6" d="M152.93,22.8v.79L135.8,32.33v-.81Z"/><path class="cls-6" d="M152.93,25.19V26l-17.14,8.74v-.81Z"/><path class="cls-6" d="M152.93,27.59v.8l-17.16,8.75,0-.81Z"/><path class="cls-7" d="M152.92,19.4l-17.1,8.72-.43-.22,17.1-8.72Z"/><polygon class="cls-5" points="135.82 27.96 135.77 38.8 135.13 39.13 135.13 28.32 135.82 27.96"/><polygon class="cls-6" points="134.44 27.96 134.44 38.77 135.13 39.13 135.13 28.32 134.44 27.96"/><path class="cls-7" d="M134.44,28l.69-.35.69.35-.69.35Z"/><polygon class="cls-5" points="134.86 28.6 134.87 38.99 117.71 47.74 117.76 37.31 134.86 28.6"/><path class="cls-6" d="M134.87,29.59v.8l-17.12,8.72v-.8Z"/><path class="cls-6" d="M134.87,32v.8l-17.14,8.73v-.8Z"/><path class="cls-6" d="M134.87,34.38v.81l-17.15,8.74v-.81Z"/><path class="cls-6" d="M134.87,36.79v.8L117.7,46.33l0-.8Z"/><path class="cls-7" d="M134.86,28.6l-17.1,8.71-.43-.22,17.1-8.71Z"/><polygon class="cls-5" points="117.76 37.15 117.7 47.99 117.06 48.32 117.06 37.51 117.76 37.15"/><polygon class="cls-6" points="116.37 37.15 116.37 47.97 117.06 48.32 117.06 37.51 116.37 37.15"/><path class="cls-7" d="M116.37,37.15l.7-.35.69.35-.7.36Z"/><polygon class="cls-5" points="116.8 37.8 116.81 48.2 99.64 56.94 99.7 46.51 116.8 37.8"/><path class="cls-6" d="M116.81,38.79v.8L99.69,48.31v-.8Z"/><path class="cls-6" d="M116.81,41.19V42L99.67,50.72v-.8Z"/><path class="cls-6" d="M116.81,43.59v.8L99.66,53.13v-.81Z"/><path class="cls-6" d="M116.81,46v.8L99.64,55.54l0-.81Z"/><path class="cls-7" d="M116.8,37.8,99.7,46.51l-.43-.22,17.1-8.71Z"/><polygon class="cls-5" points="99.7 46.35 99.64 57.2 99 57.52 99 46.71 99.7 46.35"/><polygon class="cls-6" points="98.31 46.35 98.31 57.17 99 57.52 99 46.71 98.31 46.35"/><path class="cls-7" d="M98.31,46.36,99,46l.69.35-.7.36Z"/><polygon class="cls-5" points="98.75 47.01 98.76 57.41 81.59 66.15 81.65 55.72 98.75 47.01"/><path class="cls-6" d="M98.76,48v.8L81.64,57.52v-.8Z"/><path class="cls-6" d="M98.76,50.4v.8L81.62,59.93v-.8Z"/><path class="cls-6" d="M98.76,52.8v.8L81.61,62.34v-.81Z"/><path class="cls-6" d="M98.76,55.2V56L81.59,64.75l0-.81Z"/><path class="cls-7" d="M98.75,47l-17.1,8.71-.43-.22,17.1-8.71Z"/><polygon class="cls-5" points="81.65 55.56 81.59 66.41 80.95 66.73 80.95 55.92 81.65 55.56"/><polygon class="cls-6" points="80.26 55.57 80.26 66.38 80.95 66.73 80.95 55.92 80.26 55.57"/><path class="cls-7" d="M80.26,55.57l.7-.36.69.35-.7.36Z"/><polygon class="cls-5" points="80.69 56.21 80.7 66.61 63.54 75.35 63.59 64.92 80.69 56.21"/><path class="cls-6" d="M80.7,57.2V58L63.59,66.72v-.8Z"/><path class="cls-6" d="M80.7,59.6v.8L63.57,69.13v-.8Z"/><path class="cls-6" d="M80.7,62v.8L63.56,71.54v-.81Z"/><path class="cls-6" d="M80.7,64.4v.8L63.54,74l0-.81Z"/><path class="cls-7" d="M80.69,56.21l-17.1,8.71-.43-.22L80.26,56Z"/><polygon class="cls-5" points="63.59 64.77 63.54 75.61 62.9 75.94 62.9 65.12 63.59 64.77"/><polygon class="cls-6" points="62.21 64.77 62.21 75.58 62.9 75.94 62.9 65.12 62.21 64.77"/><path class="cls-7" d="M62.21,64.77l.69-.36.69.35-.69.36Z"/><polygon class="cls-5" points="62.63 65.41 62.64 75.81 45.48 84.55 45.53 74.13 62.63 65.41"/><path class="cls-6" d="M62.64,66.4v.8L45.53,75.93v-.81Z"/><path class="cls-6" d="M62.64,68.8v.8L45.51,78.33v-.8Z"/><path class="cls-6" d="M62.64,71.2V72L45.5,80.74v-.81Z"/><path class="cls-6" d="M62.64,73.6v.8L45.48,83.15l0-.81Z"/><path class="cls-7" d="M62.63,65.41l-17.1,8.72-.43-.22,17.1-8.72Z"/><polygon class="cls-5" points="45.53 73.97 45.48 84.81 44.84 85.14 44.84 74.32 45.53 73.97"/><polygon class="cls-6" points="44.15 73.97 44.15 84.78 44.84 85.14 44.84 74.32 44.15 73.97"/><path class="cls-7" d="M44.15,74l.69-.36.69.36-.69.35Z"/><polygon class="cls-5" points="44.57 74.61 44.58 85.01 27.42 93.75 27.47 83.33 44.57 74.61"/><path class="cls-6" d="M44.59,75.61v.8L27.47,85.13v-.8Z"/><path class="cls-6" d="M44.59,78v.79L27.45,87.54v-.81Z"/><path class="cls-6" d="M44.59,80.4v.81L27.44,89.94v-.81Z"/><path class="cls-6" d="M44.59,82.81v.79L27.42,92.35l0-.81Z"/><path class="cls-7" d="M44.57,74.62l-17.1,8.71L27,83.11l17.1-8.71Z"/><polygon class="cls-5" points="27.47 83.17 27.42 94.01 26.78 94.34 26.78 83.53 27.47 83.17"/><polygon class="cls-6" points="26.09 83.17 26.09 93.99 26.78 94.34 26.78 83.53 26.09 83.17"/><path class="cls-7" d="M26.09,83.17l.69-.35.69.35-.69.36Z"/><polygon class="cls-5" points="26.51 83.82 26.52 94.21 9.36 102.96 9.41 92.53 26.51 83.82"/><path class="cls-6" d="M26.52,84.81v.8L9.41,94.33v-.8Z"/><path class="cls-6" d="M26.52,87.21V88L9.39,96.74v-.8Z"/><path class="cls-6" d="M26.52,89.6v.81L9.38,99.14v-.8Z"/><path class="cls-6" d="M26.52,92v.8L9.36,101.55l0-.8Z"/><path class="cls-7" d="M26.51,83.82,9.41,92.53,9,92.31l17.1-8.71Z"/><polygon class="cls-5" points="9.41 92.37 9.36 103.21 8.72 103.54 8.72 92.73 9.41 92.37"/><polygon class="cls-6" points="8.03 92.37 8.03 103.19 8.72 103.54 8.72 92.73 8.03 92.37"/><path class="cls-7" d="M8,92.37,8.72,92l.69.35-.69.36Z"/></g></g><g id="base_bottom"><polygon class="cls-8" points="321.4 89.01 311.36 83.75 292.44 93.4 302.54 98.62 321.4 89.01"/><polygon class="cls-9" points="321.4 86.64 302.57 96.24 292.44 91.08 311.27 81.48 321.4 86.64"/><polygon class="cls-10" points="321.4 86.64 321.4 88.75 302.57 98.34 302.57 96.24 321.4 86.64"/><polygon class="cls-11" points="302.57 96.24 292.44 91.08 292.44 93.18 302.57 98.34 302.57 96.24"/><ellipse class="cls-12" cx="301.78" cy="96.89" rx="0.53" ry="0.81" transform="translate(-9.84 154.77) rotate(-28.32)"/><ellipse class="cls-12" cx="300.34" cy="96.14" rx="0.53" ry="0.81" transform="translate(-9.66 154) rotate(-28.32)"/><ellipse class="cls-12" cx="298.91" cy="95.42" rx="0.53" ry="0.81" transform="translate(-9.49 153.23) rotate(-28.32)"/><ellipse class="cls-12" cx="297.48" cy="94.7" rx="0.53" ry="0.81" transform="translate(-9.32 152.47) rotate(-28.32)"/><ellipse class="cls-12" cx="296.07" cy="93.99" rx="0.53" ry="0.81" transform="translate(-9.15 151.71) rotate(-28.32)"/><ellipse class="cls-12" cx="294.66" cy="93.25" rx="0.53" ry="0.81" transform="translate(-8.97 150.96) rotate(-28.32)"/><ellipse class="cls-12" cx="293.24" cy="92.52" rx="0.53" ry="0.81" transform="translate(-8.79 150.2) rotate(-28.32)"/><path class="cls-13" d="M317.48,86.56c-.14.18-.39,0-.51-.14,0,0,0-.51-.3-.56-.13,0-.18.21-.18.21a.27.27,0,0,1-.42-.08c.11-.27.29-.54.66-.49A1.08,1.08,0,0,1,317.48,86.56Z"/><path class="cls-13" d="M312,84c-.14.18-.39.06-.51-.14,0,0,0-.5-.3-.55-.13,0-.18.21-.18.21s-.36.09-.42-.08c.11-.28.29-.54.66-.49A1.07,1.07,0,0,1,312,84Z"/><path class="cls-13" d="M303.69,93.86c-.14.17-.39,0-.51-.15,0,0,0-.5-.3-.55s-.19.21-.19.21a.28.28,0,0,1-.42-.08c.11-.27.3-.54.67-.49A1.09,1.09,0,0,1,303.69,93.86Z"/><path class="cls-13" d="M297.93,90.86c-.14.17-.39,0-.5-.15,0,0,0-.5-.31-.55-.13,0-.18.21-.18.21s-.36.09-.42-.08c.11-.27.29-.54.66-.49A1.08,1.08,0,0,1,297.93,90.86Z"/><polygon class="cls-8" points="310.67 95.08 320.71 89.81 339.63 99.46 329.52 104.69 310.67 95.08"/><polygon class="cls-9" points="310.67 92.74 329.5 102.33 339.63 97.17 320.8 87.58 310.67 92.74"/><polygon class="cls-11" points="310.67 92.74 310.67 94.84 329.5 104.44 329.5 102.33 310.67 92.74"/><polygon class="cls-10" points="329.5 102.33 339.63 97.17 339.63 99.28 329.5 104.44 329.5 102.33"/><ellipse class="cls-14" cx="330.29" cy="102.98" rx="0.81" ry="0.53" transform="translate(82.93 344.87) rotate(-61.68)"/><ellipse class="cls-14" cx="331.73" cy="102.23" rx="0.81" ry="0.53" transform="translate(84.35 345.75) rotate(-61.68)"/><ellipse class="cls-14" cx="333.16" cy="101.51" rx="0.81" ry="0.53" transform="translate(85.74 346.63) rotate(-61.68)"/><ellipse class="cls-14" cx="334.59" cy="100.79" rx="0.81" ry="0.53" transform="translate(87.12 347.51) rotate(-61.68)"/><ellipse class="cls-14" cx="336" cy="100.08" rx="0.81" ry="0.53" transform="translate(88.49 348.38) rotate(-61.68)"/><ellipse class="cls-14" cx="337.41" cy="99.35" rx="0.81" ry="0.53" transform="translate(89.88 349.23) rotate(-61.68)"/><ellipse class="cls-14" cx="338.83" cy="98.61" rx="0.81" ry="0.53" transform="translate(91.27 350.1) rotate(-61.68)"/><polygon class="cls-9" points="310.67 90.29 329.5 99.88 339.63 94.72 320.8 85.12 310.67 90.29"/><polygon class="cls-11" points="310.67 90.29 310.67 92.39 329.5 101.99 329.5 99.88 310.67 90.29"/><polygon class="cls-10" points="329.5 99.88 339.63 94.72 339.63 96.83 329.5 101.99 329.5 99.88"/><ellipse class="cls-14" cx="330.29" cy="100.53" rx="0.81" ry="0.53" transform="translate(85.09 343.58) rotate(-61.68)"/><ellipse class="cls-14" cx="331.73" cy="99.78" rx="0.81" ry="0.53" transform="matrix(0.47, -0.88, 0.88, 0.47, 86.51, 344.46)"/><ellipse class="cls-14" cx="333.16" cy="99.06" rx="0.81" ry="0.53" transform="translate(87.9 345.34) rotate(-61.68)"/><ellipse class="cls-14" cx="334.59" cy="98.34" rx="0.81" ry="0.53" transform="translate(89.28 346.22) rotate(-61.68)"/><ellipse class="cls-14" cx="336" cy="97.63" rx="0.81" ry="0.53" transform="translate(90.65 347.09) rotate(-61.68)"/><ellipse class="cls-14" cx="337.41" cy="96.9" rx="0.81" ry="0.53" transform="translate(92.03 347.94) rotate(-61.68)"/><ellipse class="cls-14" cx="338.83" cy="96.16" rx="0.81" ry="0.53" transform="translate(93.43 348.81) rotate(-61.68)"/><polygon class="cls-9" points="310.67 87.83 329.5 97.43 339.63 92.27 320.8 82.67 310.67 87.83"/><polygon class="cls-11" points="310.67 87.83 310.67 89.94 329.5 99.54 329.5 97.43 310.67 87.83"/><polygon class="cls-10" points="329.5 97.43 339.63 92.27 339.63 94.37 329.5 99.54 329.5 97.43"/><ellipse class="cls-14" cx="330.29" cy="98.08" rx="0.81" ry="0.53" transform="translate(87.25 342.3) rotate(-61.68)"/><ellipse class="cls-14" cx="331.73" cy="97.33" rx="0.81" ry="0.53" transform="translate(88.67 343.17) rotate(-61.68)"/><ellipse class="cls-14" cx="333.16" cy="96.61" rx="0.81" ry="0.53" transform="translate(90.05 344.05) rotate(-61.68)"/><ellipse class="cls-14" cx="334.59" cy="95.89" rx="0.81" ry="0.53" transform="translate(91.44 344.93) rotate(-61.68)"/><ellipse class="cls-14" cx="336" cy="95.18" rx="0.81" ry="0.53" transform="translate(92.81 345.8) rotate(-61.68)"/><ellipse class="cls-14" cx="337.41" cy="94.45" rx="0.81" ry="0.53" transform="translate(94.19 346.65) rotate(-61.68)"/><ellipse class="cls-14" cx="338.83" cy="93.71" rx="0.81" ry="0.53" transform="translate(95.58 347.52) rotate(-61.68)"/><polygon class="cls-9" points="310.67 85.38 329.5 94.98 339.63 89.82 320.8 80.22 310.67 85.38"/><polygon class="cls-11" points="310.67 85.38 310.67 87.49 329.5 97.09 329.5 94.98 310.67 85.38"/><polygon class="cls-10" points="329.5 94.98 339.63 89.82 339.63 91.92 329.5 97.09 329.5 94.98"/><ellipse class="cls-14" cx="330.29" cy="95.63" rx="0.81" ry="0.53" transform="translate(89.41 341.01) rotate(-61.68)"/><ellipse class="cls-14" cx="331.73" cy="94.88" rx="0.81" ry="0.53" transform="translate(90.83 341.88) rotate(-61.68)"/><ellipse class="cls-14" cx="333.16" cy="94.16" rx="0.81" ry="0.53" transform="translate(92.21 342.76) rotate(-61.68)"/><ellipse class="cls-14" cx="334.59" cy="93.44" rx="0.81" ry="0.53" transform="translate(93.6 343.64) rotate(-61.68)"/><ellipse class="cls-14" cx="336" cy="92.73" rx="0.81" ry="0.53" transform="translate(94.96 344.51) rotate(-61.68)"/><ellipse class="cls-14" cx="337.41" cy="91.99" rx="0.81" ry="0.53" transform="translate(96.35 345.37) rotate(-61.68)"/><ellipse class="cls-14" cx="338.83" cy="91.26" rx="0.81" ry="0.53" transform="translate(97.74 346.23) rotate(-61.68)"/><path class="cls-13" d="M314.58,85.3c.14.18.39,0,.51-.14,0,0,0-.51.3-.56s.19.21.19.21a.27.27,0,0,0,.42-.08c-.11-.27-.29-.54-.67-.48A1.07,1.07,0,0,0,314.58,85.3Z"/><path class="cls-13" d="M320.08,82.79c.15.17.39,0,.51-.15,0,0,0-.5.31-.55.13,0,.18.21.18.21a.28.28,0,0,0,.42-.08c-.11-.27-.29-.54-.67-.49A1.09,1.09,0,0,0,320.08,82.79Z"/><path class="cls-13" d="M328.38,92.6c.14.18.39.05.5-.14,0,0,0-.51.31-.56.13,0,.18.21.18.21s.36.09.42-.08c-.11-.27-.29-.54-.66-.49A1.08,1.08,0,0,0,328.38,92.6Z"/><path class="cls-13" d="M334.13,89.6c.14.18.39.05.51-.15,0,0,0-.5.3-.55s.19.21.19.21a.28.28,0,0,0,.42-.08c-.11-.27-.29-.54-.67-.49A1.09,1.09,0,0,0,334.13,89.6Z"/><polygon class="cls-8" points="218.32 49 229.14 43.45 235.01 46.47 224.14 51.99 218.32 49"/><polygon class="cls-15" points="226.34 50.61 226.99 50.28 226.99 50.55 226.34 50.88 226.34 50.61"/><polygon class="cls-16" points="226.06 50.47 226.34 50.61 226.34 50.88 225.79 50.6 226.06 50.47"/><polygon class="cls-17" points="226.06 50.47 226.71 50.14 226.99 50.28 226.34 50.61 226.06 50.47"/><polygon class="cls-15" points="233.09 47.17 233.75 46.84 233.75 47.11 233.09 47.44 233.09 47.17"/><polygon class="cls-16" points="232.81 47.03 233.09 47.17 233.09 47.44 232.55 47.16 232.81 47.03"/><polygon class="cls-17" points="232.81 47.03 233.46 46.7 233.75 46.84 233.09 47.17 232.81 47.03"/><polygon class="cls-18" points="221 46.44 231.91 40.88 231.91 44.31 221 49.87 221 46.44"/><polygon class="cls-19" points="220.45 46.16 221 46.44 221 49.87 220.45 49.59 220.45 46.16"/><polygon class="cls-19" points="218.32 45.08 218.85 45.35 218.85 48.77 218.32 48.51 218.32 45.08"/><polygon class="cls-20" points="218.85 45.35 219.39 45.27 219.39 48.76 218.85 48.77 218.85 45.35"/><polygon class="cls-19" points="219.39 45.27 220.45 45.81 220.45 49.3 219.39 48.76 219.39 45.27"/><polygon class="cls-21" points="218.32 45.08 218.85 45.35 219.39 45.27 220.45 45.81 220.45 46.16 221 46.44 231.91 40.88 231.36 40.61 230.86 40.63 229.67 40.03 229.76 39.79 229.23 39.52 218.32 45.08"/><polygon class="cls-20" points="229.76 39.79 229.76 40.07 229.67 40.03 229.76 39.79"/><polygon class="cls-18" points="224.13 48.02 235.03 42.47 235.03 45.89 224.13 51.45 224.13 48.02"/><polygon class="cls-19" points="223.58 47.74 224.13 48.02 224.13 51.45 223.58 51.17 223.58 47.74"/><polygon class="cls-19" points="221.45 46.66 221.98 46.93 221.98 50.35 221.45 50.09 221.45 46.66"/><polygon class="cls-20" points="221.98 46.93 222.52 46.85 222.52 50.34 221.98 50.35 221.98 46.93"/><polygon class="cls-19" points="222.52 46.85 223.58 47.39 223.58 50.88 222.52 50.34 222.52 46.85"/><polygon class="cls-21" points="221.45 46.66 221.98 46.93 222.52 46.85 223.58 47.39 223.58 47.74 224.13 48.02 235.03 42.47 234.49 42.19 233.99 42.22 232.8 41.61 232.89 41.37 232.36 41.1 221.45 46.66"/><polygon class="cls-20" points="232.89 41.37 232.89 41.65 232.8 41.61 232.89 41.37"/><polygon class="cls-15" points="226.34 46.95 226.99 46.62 226.99 46.88 226.34 47.21 226.34 46.95"/><polygon class="cls-16" points="226.06 46.8 226.34 46.95 226.34 47.21 225.79 46.94 226.06 46.8"/><polygon class="cls-17" points="226.06 46.8 226.71 46.47 226.99 46.62 226.34 46.95 226.06 46.8"/><polygon class="cls-15" points="233.09 43.51 233.75 43.17 233.75 43.44 233.09 43.77 233.09 43.51"/><polygon class="cls-16" points="232.81 43.36 233.09 43.51 233.09 43.77 232.55 43.49 232.81 43.36"/><polygon class="cls-17" points="232.81 43.36 233.46 43.03 233.75 43.17 233.09 43.51 232.81 43.36"/><polygon class="cls-18" points="221 42.78 231.91 37.22 231.91 40.65 221 46.2 221 42.78"/><polygon class="cls-19" points="220.45 42.5 221 42.78 221 46.2 220.45 45.92 220.45 42.5"/><polygon class="cls-19" points="218.32 41.41 218.85 41.68 218.85 45.11 218.32 44.84 218.32 41.41"/><polygon class="cls-20" points="218.85 41.68 219.39 41.6 219.39 45.09 218.85 45.11 218.85 41.68"/><polygon class="cls-19" points="219.39 41.6 220.45 42.14 220.45 45.63 219.39 45.09 219.39 41.6"/><polygon class="cls-21" points="218.32 41.41 218.85 41.68 219.39 41.6 220.45 42.14 220.45 42.5 221 42.78 231.91 37.22 231.36 36.94 230.86 36.97 229.67 36.36 229.76 36.13 229.23 35.86 218.32 41.41"/><polygon class="cls-20" points="229.76 36.13 229.76 36.41 229.67 36.36 229.76 36.13"/><path class="cls-13" d="M221.87,40.84c0,.06.14,0,.18,0s0-.17.1-.19.06.07.06.07.12,0,.14,0-.1-.18-.22-.16A.36.36,0,0,0,221.87,40.84Z"/><path class="cls-13" d="M228.39,37.58c.05.06.13,0,.17,0s0-.17.11-.19.06.07.06.07.12,0,.14,0-.1-.18-.22-.16A.38.38,0,0,0,228.39,37.58Z"/><polygon class="cls-18" points="224.13 44.36 235.03 38.8 235.03 42.23 224.13 47.78 224.13 44.36"/><polygon class="cls-19" points="223.58 44.08 224.13 44.36 224.13 47.78 223.58 47.51 223.58 44.08"/><polygon class="cls-19" points="221.45 42.99 221.98 43.26 221.98 46.69 221.45 46.42 221.45 42.99"/><polygon class="cls-20" points="221.98 43.26 222.52 43.18 222.52 46.67 221.98 46.69 221.98 43.26"/><polygon class="cls-19" points="222.52 43.18 223.58 43.72 223.58 47.21 222.52 46.67 222.52 43.18"/><polygon class="cls-21" points="221.45 42.99 221.98 43.26 222.52 43.18 223.58 43.72 223.58 44.08 224.13 44.36 235.03 38.8 234.49 38.52 233.99 38.55 232.8 37.94 232.89 37.71 232.36 37.44 221.45 42.99"/><polygon class="cls-20" points="232.89 37.71 232.89 37.99 232.8 37.94 232.89 37.71"/><path class="cls-13" d="M225,42.42c.05.06.13,0,.17,0s0-.17.11-.19.06.07.06.07a.09.09,0,0,0,.14,0c0-.09-.1-.18-.23-.16A.36.36,0,0,0,225,42.42Z"/><path class="cls-13" d="M231.52,39.16c0,.06.13,0,.17,0s0-.17.1-.19.07.07.07.07a.09.09,0,0,0,.14,0c0-.1-.1-.19-.23-.17A.39.39,0,0,0,231.52,39.16Z"/><polygon class="cls-8" points="227.38 51.24 238.2 45.69 244.06 48.7 233.2 54.23 227.38 51.24"/><polygon class="cls-15" points="235.39 52.85 236.04 52.52 236.04 52.78 235.39 53.12 235.39 52.85"/><polygon class="cls-16" points="235.11 52.71 235.39 52.85 235.39 53.12 234.85 52.84 235.11 52.71"/><polygon class="cls-17" points="235.11 52.71 235.76 52.37 236.04 52.52 235.39 52.85 235.11 52.71"/><polygon class="cls-15" points="242.15 49.41 242.8 49.08 242.8 49.34 242.15 49.68 242.15 49.41"/><polygon class="cls-16" points="241.87 49.27 242.15 49.41 242.15 49.68 241.6 49.4 241.87 49.27"/><polygon class="cls-17" points="241.87 49.27 242.52 48.93 242.8 49.08 242.15 49.41 241.87 49.27"/><polygon class="cls-18" points="230.06 48.68 240.96 43.12 240.96 46.55 230.06 52.11 230.06 48.68"/><polygon class="cls-19" points="229.51 48.4 230.06 48.68 230.06 52.11 229.51 51.83 229.51 48.4"/><polygon class="cls-19" points="227.38 47.32 227.91 47.59 227.91 51.01 227.38 50.74 227.38 47.32"/><polygon class="cls-20" points="227.91 47.59 228.45 47.51 228.45 50.99 227.91 51.01 227.91 47.59"/><polygon class="cls-19" points="228.45 47.51 229.51 48.05 229.51 51.53 228.45 50.99 228.45 47.51"/><polygon class="cls-21" points="227.38 47.32 227.91 47.59 228.45 47.51 229.51 48.05 229.51 48.4 230.06 48.68 240.96 43.12 240.41 42.84 239.92 42.87 238.73 42.27 238.81 42.03 238.29 41.76 227.38 47.32"/><polygon class="cls-20" points="238.81 42.03 238.81 42.31 238.73 42.27 238.81 42.03"/><polygon class="cls-18" points="233.18 50.26 244.09 44.7 244.09 48.13 233.18 53.69 233.18 50.26"/><polygon class="cls-19" points="232.63 49.98 233.18 50.26 233.18 53.69 232.63 53.41 232.63 49.98"/><polygon class="cls-19" points="230.51 48.9 231.03 49.17 231.03 52.59 230.51 52.33 230.51 48.9"/><polygon class="cls-20" points="231.03 49.17 231.57 49.09 231.57 52.58 231.03 52.59 231.03 49.17"/><polygon class="cls-19" points="231.57 49.09 232.63 49.63 232.63 53.12 231.57 52.58 231.57 49.09"/><polygon class="cls-21" points="230.51 48.9 231.03 49.17 231.57 49.09 232.63 49.63 232.63 49.98 233.18 50.26 244.09 44.7 243.54 44.43 243.05 44.45 241.86 43.85 241.94 43.61 241.41 43.34 230.51 48.9"/><polygon class="cls-20" points="241.94 43.61 241.94 43.89 241.86 43.85 241.94 43.61"/><polygon class="cls-15" points="235.39 49.19 236.04 48.85 236.04 49.12 235.39 49.45 235.39 49.19"/><polygon class="cls-16" points="235.11 49.04 235.39 49.19 235.39 49.45 234.85 49.17 235.11 49.04"/><polygon class="cls-17" points="235.11 49.04 235.76 48.71 236.04 48.85 235.39 49.19 235.11 49.04"/><polygon class="cls-15" points="242.15 45.74 242.8 45.41 242.8 45.68 242.15 46.01 242.15 45.74"/><polygon class="cls-16" points="241.87 45.6 242.15 45.74 242.15 46.01 241.6 45.73 241.87 45.6"/><polygon class="cls-17" points="241.87 45.6 242.52 45.27 242.8 45.41 242.15 45.74 241.87 45.6"/><polygon class="cls-18" points="230.06 45.02 240.96 39.46 240.96 42.88 230.06 48.44 230.06 45.02"/><polygon class="cls-19" points="229.51 44.74 230.06 45.02 230.06 48.44 229.51 48.16 229.51 44.74"/><polygon class="cls-19" points="227.38 43.65 227.91 43.92 227.91 47.35 227.38 47.08 227.38 43.65"/><polygon class="cls-20" points="227.91 43.92 228.45 43.84 228.45 47.33 227.91 47.35 227.91 43.92"/><polygon class="cls-19" points="228.45 43.84 229.51 44.38 229.51 47.87 228.45 47.33 228.45 43.84"/><polygon class="cls-21" points="227.38 43.65 227.91 43.92 228.45 43.84 229.51 44.38 229.51 44.74 230.06 45.02 240.96 39.46 240.41 39.18 239.92 39.21 238.73 38.6 238.81 38.36 238.29 38.09 227.38 43.65"/><polygon class="cls-20" points="238.81 38.36 238.81 38.64 238.73 38.6 238.81 38.36"/><path class="cls-13" d="M230.93,43.08c0,.06.13,0,.17,0s0-.17.1-.18.06.07.06.07a.1.1,0,0,0,.15,0c0-.09-.1-.18-.23-.16A.35.35,0,0,0,230.93,43.08Z"/><path class="cls-13" d="M237.45,39.81c.05.06.13,0,.17,0s0-.17.1-.19.06.07.06.07a.1.1,0,0,0,.15,0c0-.09-.1-.18-.23-.16A.35.35,0,0,0,237.45,39.81Z"/><polygon class="cls-18" points="233.18 46.6 244.09 41.04 244.09 44.47 233.18 50.02 233.18 46.6"/><polygon class="cls-19" points="232.63 46.32 233.18 46.6 233.18 50.02 232.63 49.74 232.63 46.32"/><polygon class="cls-19" points="230.51 45.23 231.03 45.5 231.03 48.93 230.51 48.66 230.51 45.23"/><polygon class="cls-20" points="231.03 45.5 231.57 45.42 231.57 48.91 231.03 48.93 231.03 45.5"/><polygon class="cls-19" points="231.57 45.42 232.63 45.96 232.63 49.45 231.57 48.91 231.57 45.42"/><polygon class="cls-21" points="230.51 45.23 231.03 45.5 231.57 45.42 232.63 45.96 232.63 46.32 233.18 46.6 244.09 41.04 243.54 40.76 243.05 40.79 241.86 40.18 241.94 39.94 241.41 39.67 230.51 45.23"/><polygon class="cls-20" points="241.94 39.94 241.94 40.22 241.86 40.18 241.94 39.94"/><path class="cls-13" d="M234.06,44.66c0,.06.13,0,.17,0s0-.17.1-.19.06.07.06.07.12,0,.14,0a.19.19,0,0,0-.22-.16A.35.35,0,0,0,234.06,44.66Z"/><path class="cls-13" d="M240.58,41.4c0,.06.13,0,.17,0s0-.17.1-.19.06.07.06.07.12,0,.14,0a.2.2,0,0,0-.22-.16A.36.36,0,0,0,240.58,41.4Z"/><polygon class="cls-8" points="227.69 57.99 238.51 52.43 244.38 55.45 233.51 60.98 227.69 57.99"/><polygon class="cls-15" points="235.71 59.6 236.36 59.27 236.36 59.53 235.71 59.86 235.71 59.6"/><polygon class="cls-16" points="235.42 59.45 235.71 59.6 235.71 59.86 235.16 59.59 235.42 59.45"/><polygon class="cls-17" points="235.42 59.45 236.07 59.12 236.36 59.27 235.71 59.6 235.42 59.45"/><polygon class="cls-15" points="242.46 56.16 243.11 55.83 243.11 56.09 242.46 56.42 242.46 56.16"/><polygon class="cls-16" points="242.18 56.01 242.46 56.16 242.46 56.42 241.91 56.15 242.18 56.01"/><polygon class="cls-17" points="242.18 56.01 242.83 55.68 243.11 55.83 242.46 56.16 242.18 56.01"/><polygon class="cls-18" points="230.37 55.43 241.27 49.87 241.27 53.3 230.37 58.85 230.37 55.43"/><polygon class="cls-19" points="229.82 55.15 230.37 55.43 230.37 58.85 229.82 58.58 229.82 55.15"/><polygon class="cls-19" points="227.69 54.06 228.22 54.33 228.22 57.76 227.69 57.49 227.69 54.06"/><polygon class="cls-20" points="228.22 54.33 228.76 54.25 228.76 57.74 228.22 57.76 228.22 54.33"/><polygon class="cls-19" points="228.76 54.25 229.82 54.79 229.82 58.28 228.76 57.74 228.76 54.25"/><polygon class="cls-21" points="227.69 54.06 228.22 54.33 228.76 54.25 229.82 54.79 229.82 55.15 230.37 55.43 241.27 49.87 240.72 49.59 240.23 49.62 239.04 49.01 239.13 48.78 238.6 48.51 227.69 54.06"/><polygon class="cls-20" points="239.13 48.78 239.13 49.06 239.04 49.01 239.13 48.78"/><polygon class="cls-18" points="233.49 57.01 244.4 51.45 244.4 54.88 233.49 60.44 233.49 57.01"/><polygon class="cls-19" points="232.95 56.73 233.49 57.01 233.49 60.44 232.95 60.16 232.95 56.73"/><polygon class="cls-19" points="230.82 55.65 231.35 55.91 231.35 59.34 230.82 59.07 230.82 55.65"/><polygon class="cls-20" points="231.35 55.91 231.89 55.83 231.89 59.32 231.35 59.34 231.35 55.91"/><polygon class="cls-19" points="231.89 55.83 232.95 56.37 232.95 59.86 231.89 59.32 231.89 55.83"/><polygon class="cls-21" points="230.82 55.65 231.35 55.91 231.89 55.83 232.95 56.37 232.95 56.73 233.49 57.01 244.4 51.45 243.85 51.17 243.36 51.2 242.17 50.59 242.25 50.36 241.72 50.09 230.82 55.65"/><polygon class="cls-20" points="242.25 50.36 242.25 50.64 242.17 50.59 242.25 50.36"/><polygon class="cls-15" points="235.71 55.93 236.36 55.6 236.36 55.87 235.71 56.2 235.71 55.93"/><polygon class="cls-16" points="235.42 55.79 235.71 55.93 235.71 56.2 235.16 55.92 235.42 55.79"/><polygon class="cls-17" points="235.42 55.79 236.07 55.46 236.36 55.6 235.71 55.93 235.42 55.79"/><polygon class="cls-15" points="242.46 52.49 243.11 52.16 243.11 52.43 242.46 52.76 242.46 52.49"/><polygon class="cls-16" points="242.18 52.35 242.46 52.49 242.46 52.76 241.91 52.48 242.18 52.35"/><polygon class="cls-17" points="242.18 52.35 242.83 52.02 243.11 52.16 242.46 52.49 242.18 52.35"/><polygon class="cls-18" points="230.37 51.76 241.27 46.2 241.27 49.63 230.37 55.19 230.37 51.76"/><polygon class="cls-19" points="229.82 51.48 230.37 51.76 230.37 55.19 229.82 54.91 229.82 51.48"/><polygon class="cls-19" points="227.69 50.4 228.22 50.67 228.22 54.09 227.69 53.83 227.69 50.4"/><polygon class="cls-20" points="228.22 50.67 228.76 50.59 228.76 54.08 228.22 54.09 228.22 50.67"/><polygon class="cls-19" points="228.76 50.59 229.82 51.13 229.82 54.62 228.76 54.08 228.76 50.59"/><polygon class="cls-21" points="227.69 50.4 228.22 50.67 228.76 50.59 229.82 51.13 229.82 51.48 230.37 51.76 241.27 46.2 240.72 45.93 240.23 45.95 239.04 45.35 239.13 45.11 238.6 44.84 227.69 50.4"/><polygon class="cls-20" points="239.13 45.11 239.13 45.39 239.04 45.35 239.13 45.11"/><path class="cls-13" d="M231.24,49.83c0,.06.13,0,.17,0s0-.17.1-.19.07.08.07.08a.09.09,0,0,0,.14,0c0-.09-.1-.18-.23-.16A.36.36,0,0,0,231.24,49.83Z"/><path class="cls-13" d="M237.76,46.56c.05.06.13,0,.17-.05s0-.17.1-.18.06.07.06.07a.1.1,0,0,0,.15,0c0-.09-.1-.18-.23-.16A.35.35,0,0,0,237.76,46.56Z"/><polygon class="cls-18" points="233.49 53.34 244.4 47.79 244.4 51.21 233.49 56.77 233.49 53.34"/><polygon class="cls-19" points="232.95 53.06 233.49 53.34 233.49 56.77 232.95 56.49 232.95 53.06"/><polygon class="cls-19" points="230.82 51.98 231.35 52.25 231.35 55.67 230.82 55.41 230.82 51.98"/><polygon class="cls-20" points="231.35 52.25 231.89 52.17 231.89 55.66 231.35 55.67 231.35 52.25"/><polygon class="cls-19" points="231.89 52.17 232.95 52.71 232.95 56.2 231.89 55.66 231.89 52.17"/><polygon class="cls-21" points="230.82 51.98 231.35 52.25 231.89 52.17 232.95 52.71 232.95 53.06 233.49 53.34 244.4 47.79 243.85 47.51 243.36 47.53 242.17 46.93 242.25 46.69 241.72 46.42 230.82 51.98"/><polygon class="cls-20" points="242.25 46.69 242.25 46.97 242.17 46.93 242.25 46.69"/><path class="cls-13" d="M234.37,51.41c0,.06.13,0,.17,0s0-.17.1-.18.06.07.06.07.12,0,.14,0a.19.19,0,0,0-.22-.16A.35.35,0,0,0,234.37,51.41Z"/><path class="cls-13" d="M240.89,48.14c.05.06.13,0,.17,0s0-.17.1-.19.06.07.06.07.12,0,.14,0a.19.19,0,0,0-.22-.16A.35.35,0,0,0,240.89,48.14Z"/><polygon class="cls-8" points="238.81 59.26 249.63 53.71 255.5 56.72 244.63 62.25 238.81 59.26"/><polygon class="cls-15" points="246.83 60.87 247.48 60.54 247.48 60.8 246.83 61.14 246.83 60.87"/><polygon class="cls-16" points="246.54 60.73 246.83 60.87 246.83 61.14 246.28 60.86 246.54 60.73"/><polygon class="cls-17" points="246.54 60.73 247.19 60.39 247.48 60.54 246.83 60.87 246.54 60.73"/><polygon class="cls-15" points="253.58 57.43 254.24 57.1 254.24 57.36 253.58 57.7 253.58 57.43"/><polygon class="cls-16" points="253.3 57.28 253.58 57.43 253.58 57.7 253.04 57.42 253.3 57.28"/><polygon class="cls-17" points="253.3 57.28 253.95 56.95 254.24 57.1 253.58 57.43 253.3 57.28"/><polygon class="cls-18" points="241.49 56.7 252.4 51.14 252.4 54.57 241.49 60.13 241.49 56.7"/><polygon class="cls-19" points="240.94 56.42 241.49 56.7 241.49 60.13 240.94 59.85 240.94 56.42"/><polygon class="cls-19" points="238.81 55.34 239.34 55.61 239.34 59.03 238.81 58.76 238.81 55.34"/><polygon class="cls-20" points="239.34 55.61 239.88 55.52 239.88 59.02 239.34 59.03 239.34 55.61"/><polygon class="cls-19" points="239.88 55.52 240.94 56.06 240.94 59.55 239.88 59.02 239.88 55.52"/><polygon class="cls-21" points="238.81 55.34 239.34 55.61 239.88 55.52 240.94 56.06 240.94 56.42 241.49 56.7 252.4 51.14 251.85 50.86 251.35 50.89 250.16 50.29 250.25 50.05 249.72 49.78 238.81 55.34"/><polygon class="cls-20" points="250.25 50.05 250.25 50.33 250.16 50.29 250.25 50.05"/><polygon class="cls-18" points="244.62 58.28 255.52 52.72 255.52 56.15 244.62 61.71 244.62 58.28"/><polygon class="cls-19" points="244.07 58 244.62 58.28 244.62 61.71 244.07 61.43 244.07 58"/><polygon class="cls-19" points="241.94 56.92 242.47 57.19 242.47 60.61 241.94 60.34 241.94 56.92"/><polygon class="cls-20" points="242.47 57.19 243.01 57.11 243.01 60.6 242.47 60.61 242.47 57.19"/><polygon class="cls-19" points="243.01 57.11 244.07 57.65 244.07 61.14 243.01 60.6 243.01 57.11"/><polygon class="cls-21" points="241.94 56.92 242.47 57.19 243.01 57.11 244.07 57.65 244.07 58 244.62 58.28 255.52 52.72 254.98 52.45 254.48 52.47 253.29 51.87 253.38 51.63 252.85 51.36 241.94 56.92"/><polygon class="cls-20" points="253.38 51.63 253.38 51.91 253.29 51.87 253.38 51.63"/><polygon class="cls-15" points="246.83 57.2 247.48 56.87 247.48 57.14 246.83 57.47 246.83 57.2"/><polygon class="cls-16" points="246.54 57.06 246.83 57.2 246.83 57.47 246.28 57.19 246.54 57.06"/><polygon class="cls-17" points="246.54 57.06 247.19 56.73 247.48 56.87 246.83 57.2 246.54 57.06"/><polygon class="cls-15" points="253.58 53.76 254.24 53.43 254.24 53.7 253.58 54.03 253.58 53.76"/><polygon class="cls-16" points="253.3 53.62 253.58 53.76 253.58 54.03 253.04 53.75 253.3 53.62"/><polygon class="cls-17" points="253.3 53.62 253.95 53.29 254.24 53.43 253.58 53.76 253.3 53.62"/><polygon class="cls-18" points="241.49 53.03 252.4 47.48 252.4 50.9 241.49 56.46 241.49 53.03"/><polygon class="cls-19" points="240.94 52.76 241.49 53.03 241.49 56.46 240.94 56.18 240.94 52.76"/><polygon class="cls-19" points="238.81 51.67 239.34 51.94 239.34 55.37 238.81 55.1 238.81 51.67"/><polygon class="cls-20" points="239.34 51.94 239.88 51.86 239.88 55.35 239.34 55.37 239.34 51.94"/><polygon class="cls-19" points="239.88 51.86 240.94 52.4 240.94 55.89 239.88 55.35 239.88 51.86"/><polygon class="cls-21" points="238.81 51.67 239.34 51.94 239.88 51.86 240.94 52.4 240.94 52.76 241.49 53.03 252.4 47.48 251.85 47.2 251.35 47.23 250.16 46.62 250.25 46.38 249.72 46.11 238.81 51.67"/><polygon class="cls-20" points="250.25 46.38 250.25 46.66 250.16 46.62 250.25 46.38"/><path class="cls-13" d="M242.36,51.1c0,.06.13,0,.17-.05s0-.17.11-.18.06.07.06.07.12,0,.14,0-.1-.18-.22-.16A.36.36,0,0,0,242.36,51.1Z"/><path class="cls-13" d="M248.88,47.83c.05.06.13,0,.17,0s0-.17.11-.19.06.07.06.07.12,0,.14,0-.1-.18-.22-.16A.36.36,0,0,0,248.88,47.83Z"/><polygon class="cls-18" points="244.62 54.62 255.52 49.06 255.52 52.48 244.62 58.04 244.62 54.62"/><polygon class="cls-19" points="244.07 54.34 244.62 54.62 244.62 58.04 244.07 57.76 244.07 54.34"/><polygon class="cls-19" points="241.94 53.25 242.47 53.52 242.47 56.95 241.94 56.68 241.94 53.25"/><polygon class="cls-20" points="242.47 53.52 243.01 53.44 243.01 56.93 242.47 56.95 242.47 53.52"/><polygon class="cls-19" points="243.01 53.44 244.07 53.98 244.07 57.47 243.01 56.93 243.01 53.44"/><polygon class="cls-21" points="241.94 53.25 242.47 53.52 243.01 53.44 244.07 53.98 244.07 54.34 244.62 54.62 255.52 49.06 254.98 48.78 254.48 48.81 253.29 48.2 253.38 47.96 252.85 47.7 241.94 53.25"/><polygon class="cls-20" points="253.38 47.96 253.38 48.24 253.29 48.2 253.38 47.96"/><path class="cls-13" d="M245.49,52.68c0,.06.13,0,.17,0s0-.16.1-.18.07.07.07.07a.09.09,0,0,0,.14,0c0-.09-.1-.18-.23-.16A.36.36,0,0,0,245.49,52.68Z"/><path class="cls-13" d="M252,49.41c.05.07.13,0,.17,0s0-.17.1-.19.07.07.07.07a.09.09,0,0,0,.14,0c0-.09-.1-.18-.23-.16A.36.36,0,0,0,252,49.41Z"/><polygon class="cls-15" points="235.39 45.51 236.04 45.18 236.04 45.44 235.39 45.77 235.39 45.51"/><polygon class="cls-16" points="235.11 45.36 235.39 45.51 235.39 45.77 234.85 45.5 235.11 45.36"/><polygon class="cls-17" points="235.11 45.36 235.76 45.03 236.04 45.18 235.39 45.51 235.11 45.36"/><polygon class="cls-15" points="242.15 42.07 242.8 41.73 242.8 42 242.15 42.33 242.15 42.07"/><polygon class="cls-16" points="241.87 41.92 242.15 42.07 242.15 42.33 241.6 42.05 241.87 41.92"/><polygon class="cls-17" points="241.87 41.92 242.52 41.59 242.8 41.73 242.15 42.07 241.87 41.92"/><polygon class="cls-18" points="230.06 41.34 240.96 35.78 240.96 39.21 230.06 44.76 230.06 41.34"/><polygon class="cls-19" points="229.51 41.06 230.06 41.34 230.06 44.76 229.51 44.48 229.51 41.06"/><polygon class="cls-19" points="227.38 39.98 227.91 40.24 227.91 43.67 227.38 43.4 227.38 39.98"/><polygon class="cls-20" points="227.91 40.24 228.45 40.16 228.45 43.65 227.91 43.67 227.91 40.24"/><polygon class="cls-19" points="228.45 40.16 229.51 40.7 229.51 44.19 228.45 43.65 228.45 40.16"/><polygon class="cls-21" points="227.38 39.98 227.91 40.24 228.45 40.16 229.51 40.7 229.51 41.06 230.06 41.34 240.96 35.78 240.41 35.5 239.92 35.53 238.73 34.92 238.81 34.69 238.29 34.42 227.38 39.98"/><polygon class="cls-20" points="238.81 34.69 238.81 34.97 238.73 34.92 238.81 34.69"/><polygon class="cls-18" points="233.18 42.92 244.09 37.36 244.09 40.79 233.18 46.34 233.18 42.92"/><polygon class="cls-19" points="232.63 42.64 233.18 42.92 233.18 46.34 232.63 46.07 232.63 42.64"/><polygon class="cls-19" points="230.51 41.56 231.03 41.83 231.03 45.25 230.51 44.98 230.51 41.56"/><polygon class="cls-20" points="231.03 41.83 231.57 41.74 231.57 45.23 231.03 45.25 231.03 41.83"/><polygon class="cls-19" points="231.57 41.74 232.63 42.28 232.63 45.77 231.57 45.23 231.57 41.74"/><polygon class="cls-21" points="230.51 41.56 231.03 41.83 231.57 41.74 232.63 42.28 232.63 42.64 233.18 42.92 244.09 37.36 243.54 37.08 243.05 37.11 241.86 36.51 241.94 36.27 241.41 36 230.51 41.56"/><polygon class="cls-20" points="241.94 36.27 241.94 36.55 241.86 36.51 241.94 36.27"/><polygon class="cls-15" points="235.39 41.84 236.04 41.51 236.04 41.78 235.39 42.11 235.39 41.84"/><polygon class="cls-16" points="235.11 41.7 235.39 41.84 235.39 42.11 234.85 41.83 235.11 41.7"/><polygon class="cls-17" points="235.11 41.7 235.76 41.37 236.04 41.51 235.39 41.84 235.11 41.7"/><polygon class="cls-15" points="242.15 38.4 242.8 38.07 242.8 38.34 242.15 38.67 242.15 38.4"/><polygon class="cls-16" points="241.87 38.26 242.15 38.4 242.15 38.67 241.6 38.39 241.87 38.26"/><polygon class="cls-17" points="241.87 38.26 242.52 37.92 242.8 38.07 242.15 38.4 241.87 38.26"/><polygon class="cls-18" points="230.06 37.67 240.96 32.12 240.96 35.54 230.06 41.1 230.06 37.67"/><polygon class="cls-19" points="229.51 37.39 230.06 37.67 230.06 41.1 229.51 40.82 229.51 37.39"/><polygon class="cls-19" points="227.38 36.31 227.91 36.58 227.91 40 227.38 39.73 227.38 36.31"/><polygon class="cls-20" points="227.91 36.58 228.45 36.5 228.45 39.99 227.91 40 227.91 36.58"/><polygon class="cls-19" points="228.45 36.5 229.51 37.04 229.51 40.53 228.45 39.99 228.45 36.5"/><polygon class="cls-21" points="227.38 36.31 227.91 36.58 228.45 36.5 229.51 37.04 229.51 37.39 230.06 37.67 240.96 32.12 240.41 31.84 239.92 31.86 238.73 31.26 238.81 31.02 238.29 30.75 227.38 36.31"/><polygon class="cls-20" points="238.81 31.02 238.81 31.3 238.73 31.26 238.81 31.02"/><path class="cls-13" d="M230.93,35.74c0,.06.13,0,.17-.05s0-.17.1-.19.06.08.06.08a.1.1,0,0,0,.15,0c0-.09-.1-.18-.23-.17A.37.37,0,0,0,230.93,35.74Z"/><path class="cls-13" d="M237.45,32.47c.05.06.13,0,.17,0s0-.17.1-.18.06.07.06.07a.1.1,0,0,0,.15,0c0-.09-.1-.18-.23-.16A.35.35,0,0,0,237.45,32.47Z"/><polygon class="cls-18" points="233.18 39.25 244.09 33.7 244.09 37.12 233.18 42.68 233.18 39.25"/><polygon class="cls-19" points="232.63 38.98 233.18 39.25 233.18 42.68 232.63 42.4 232.63 38.98"/><polygon class="cls-19" points="230.51 37.89 231.03 38.16 231.03 41.59 230.51 41.32 230.51 37.89"/><polygon class="cls-20" points="231.03 38.16 231.57 38.08 231.57 41.57 231.03 41.59 231.03 38.16"/><polygon class="cls-19" points="231.57 38.08 232.63 38.62 232.63 42.11 231.57 41.57 231.57 38.08"/><polygon class="cls-21" points="230.51 37.89 231.03 38.16 231.57 38.08 232.63 38.62 232.63 38.98 233.18 39.25 244.09 33.7 243.54 33.42 243.05 33.45 241.86 32.84 241.94 32.6 241.41 32.33 230.51 37.89"/><polygon class="cls-20" points="241.94 32.6 241.94 32.88 241.86 32.84 241.94 32.6"/><path class="cls-13" d="M234.06,37.32c0,.06.13,0,.17,0s0-.17.1-.18.06.07.06.07.12,0,.14,0a.19.19,0,0,0-.22-.16A.35.35,0,0,0,234.06,37.32Z"/><path class="cls-13" d="M240.58,34.05c0,.06.13,0,.17,0s0-.17.1-.19.06.07.06.07.12,0,.14,0a.2.2,0,0,0-.22-.16A.34.34,0,0,0,240.58,34.05Z"/><polygon class="cls-19" points="225.63 58.84 214.72 53.29 214.72 56.71 225.63 62.27 225.63 58.84"/><polygon class="cls-18" points="226.18 58.57 225.63 58.84 225.63 62.27 226.18 61.99 226.18 58.57"/><polygon class="cls-18" points="228.31 57.48 227.78 57.75 227.78 61.18 228.31 60.91 228.31 57.48"/><polygon class="cls-20" points="227.78 57.75 227.24 57.67 227.24 61.16 227.78 61.18 227.78 57.75"/><polygon class="cls-18" points="227.24 57.67 226.18 58.21 226.18 61.7 227.24 61.16 227.24 57.67"/><polygon class="cls-21" points="228.31 57.48 227.78 57.75 227.24 57.67 226.18 58.21 226.18 58.57 225.63 58.84 214.72 53.29 215.27 53.01 215.77 53.04 216.96 52.43 216.87 52.19 217.4 51.92 228.31 57.48"/><polygon class="cls-20" points="216.87 52.19 216.87 52.47 216.96 52.43 216.87 52.19"/><path class="cls-13" d="M224.76,56.91c0,.06-.14,0-.17,0s0-.17-.11-.18-.06.07-.06.07-.12,0-.14,0,.1-.18.22-.16A.36.36,0,0,1,224.76,56.91Z"/><path class="cls-13" d="M218.24,53.64c-.05.06-.13,0-.17,0s0-.17-.11-.19-.06.07-.06.07-.12,0-.14,0,.1-.18.22-.16A.36.36,0,0,1,218.24,53.64Z"/><polygon class="cls-19" points="219.87 60.03 208.96 54.47 208.96 57.9 219.87 63.46 219.87 60.03"/><polygon class="cls-18" points="220.42 59.75 219.87 60.03 219.87 63.46 220.42 63.18 220.42 59.75"/><polygon class="cls-18" points="222.54 58.67 222.02 58.94 222.02 62.36 222.54 62.09 222.54 58.67"/><polygon class="cls-20" points="222.02 58.94 221.48 58.85 221.48 62.34 222.02 62.36 222.02 58.94"/><polygon class="cls-18" points="221.48 58.85 220.42 59.4 220.42 62.88 221.48 62.34 221.48 58.85"/><polygon class="cls-21" points="222.54 58.67 222.02 58.94 221.48 58.85 220.42 59.4 220.42 59.75 219.87 60.03 208.96 54.47 209.51 54.19 210 54.22 211.19 53.62 211.11 53.38 211.64 53.11 222.54 58.67"/><polygon class="cls-20" points="211.11 53.38 211.11 53.66 211.19 53.62 211.11 53.38"/><path class="cls-13" d="M219,58.1c0,.06-.13,0-.17-.05s0-.17-.1-.19-.06.07-.06.07a.08.08,0,0,1-.14,0c0-.1.1-.19.22-.17A.36.36,0,0,1,219,58.1Z"/><path class="cls-13" d="M212.48,54.83c0,.06-.14,0-.18,0s0-.17-.1-.19-.06.08-.06.08-.12,0-.14,0,.1-.18.22-.16A.36.36,0,0,1,212.48,54.83Z"/><polygon class="cls-8" points="177.56 39.91 187.6 34.65 206.52 44.3 196.41 49.53 177.56 39.91"/><polygon class="cls-9" points="177.56 37.55 196.39 47.14 206.52 41.98 187.69 32.38 177.56 37.55"/><polygon class="cls-11" points="177.56 37.55 177.56 39.65 196.39 49.25 196.39 47.14 177.56 37.55"/><polygon class="cls-10" points="196.39 47.14 206.52 41.98 206.52 44.09 196.39 49.25 196.39 47.14"/><ellipse class="cls-14" cx="197.18" cy="47.79" rx="0.81" ry="0.53" transform="translate(61.56 198.69) rotate(-61.68)"/><ellipse class="cls-14" cx="198.62" cy="47.04" rx="0.81" ry="0.53" transform="translate(62.98 199.57) rotate(-61.68)"/><ellipse class="cls-14" cx="200.05" cy="46.32" rx="0.81" ry="0.53" transform="translate(64.36 200.45) rotate(-61.68)"/><ellipse class="cls-14" cx="201.48" cy="45.6" rx="0.81" ry="0.53" transform="translate(65.75 201.33) rotate(-61.68)"/><ellipse class="cls-14" cx="202.89" cy="44.89" rx="0.81" ry="0.53" transform="translate(67.11 202.19) rotate(-61.68)"/><ellipse class="cls-14" cx="204.3" cy="44.16" rx="0.81" ry="0.53" transform="translate(68.5 203.05) rotate(-61.68)"/><ellipse class="cls-14" cx="205.72" cy="43.42" rx="0.81" ry="0.53" transform="translate(69.89 203.92) rotate(-61.68)"/><path class="cls-13" d="M181.47,37.46c.14.18.39.06.51-.14,0,0,0-.5.31-.56.13,0,.18.22.18.22a.28.28,0,0,0,.42-.09c-.11-.27-.29-.54-.67-.48A1.08,1.08,0,0,0,181.47,37.46Z"/><path class="cls-13" d="M187,35c.14.18.39,0,.5-.14,0,0,0-.51.31-.56.13,0,.18.21.18.21a.27.27,0,0,0,.42-.08c-.11-.27-.29-.54-.66-.48A1.06,1.06,0,0,0,187,35Z"/><path class="cls-13" d="M195.27,44.76c.14.18.39.05.51-.14,0,0,0-.51.3-.56.13,0,.18.21.18.21a.27.27,0,0,0,.42-.08c-.11-.27-.29-.54-.66-.48A1.07,1.07,0,0,0,195.27,44.76Z"/><path class="cls-13" d="M201,41.76c.14.18.39.05.51-.14,0,0,0-.51.3-.56s.19.21.19.21a.27.27,0,0,0,.42-.08c-.11-.27-.29-.54-.67-.48A1.07,1.07,0,0,0,201,41.76Z"/></g></g></g></svg>