<svg xmlns="http://www.w3.org/2000/svg" viewBox="0 0 397.9 215.87"><g id="Шар_2"><g><g id="ground"><polygon class="cls-1" points="208.07 209.31 397.89 112.59 189.83 6.57 0 103.3 208.07 209.31"/><path class="cls-2" d="M208.37,204.51c60.84-31,120.4-61.35,181.25-92.35L190.08,10.49,8.83,102.84Z"/><polygon class="cls-2" points="40.92 124.15 76.56 142.31 81.43 139.83 45.79 121.67 40.92 124.15"/><polygon class="cls-3" points="208.06 215.87 208.07 209.31 0 103.3 0 109.85 208.06 215.87"/><polygon class="cls-4" points="397.9 119.14 397.89 112.59 208.07 209.31 208.06 215.87 397.9 119.14"/></g><g id="fence_back"><g id="fence_4"><polygon class="cls-5" points="190 0.35 189.94 11.19 189.3 11.52 189.3 0.71 190 0.35"/><polygon class="cls-6" points="188.61 0.35 188.61 11.17 189.3 11.52 189.3 0.71 188.61 0.35"/><path class="cls-7" d="M188.61.35l.7-.35.69.35-.7.36Z"/><polygon class="cls-6" points="189.57 1 189.57 11.39 206.79 20.16 206.79 9.77 189.57 1"/><path class="cls-5" d="M189.57,2v.8l17.22,8.77v-.8Z"/><path class="cls-5" d="M189.57,4.39v.8L206.79,14v-.8Z"/><path class="cls-5" d="M189.57,6.78v.81l17.22,8.77v-.8Z"/><path class="cls-5" d="M189.57,9.19V10l17.22,8.77V18Z"/><path class="cls-7" d="M189.57,1l17.22,8.76.42-.24L190,.76Z"/><polygon class="cls-5" points="208.18 9.61 208.13 20.45 207.49 20.78 207.49 9.96 208.18 9.61"/><polygon class="cls-6" points="206.79 9.61 206.79 20.42 207.49 20.78 207.49 9.96 206.79 9.61"/><path class="cls-7" d="M206.79,9.61l.7-.36.69.36-.69.35Z"/><polygon class="cls-6" points="207.74 10.25 207.74 20.65 224.96 29.42 224.96 19.02 207.74 10.25"/><path class="cls-5" d="M207.74,11.24V12L225,20.82V20Z"/><path class="cls-5" d="M207.74,13.64v.8L225,23.21v-.79Z"/><path class="cls-5" d="M207.74,16v.8L225,25.62v-.81Z"/><path class="cls-5" d="M207.74,18.44v.8L225,28v-.79Z"/><path class="cls-7" d="M207.74,10.25,225,19l.41-.24L208.15,10Z"/><polygon class="cls-5" points="226.34 18.86 226.29 29.7 225.65 30.03 225.65 19.22 226.34 18.86"/><polygon class="cls-6" points="224.96 18.86 224.96 29.68 225.65 30.03 225.65 19.22 224.96 18.86"/><path class="cls-7" d="M225,18.86l.69-.35.69.35-.69.36Z"/><polygon class="cls-6" points="225.9 19.51 225.9 29.9 243.12 38.67 243.12 28.27 225.9 19.51"/><path class="cls-5" d="M225.9,20.5v.8l17.22,8.77v-.8Z"/><path class="cls-5" d="M225.9,22.9v.8l17.22,8.77v-.8Z"/><path class="cls-5" d="M225.9,25.29v.81l17.22,8.77v-.8Z"/><path class="cls-5" d="M225.9,27.7v.8l17.22,8.77v-.8Z"/><path class="cls-7" d="M225.9,19.51l17.22,8.76.42-.24-17.22-8.76Z"/><polygon class="cls-5" points="244.51 28.11 244.45 38.96 243.81 39.28 243.81 28.47 244.51 28.11"/><polygon class="cls-6" points="243.12 28.12 243.12 38.93 243.81 39.28 243.81 28.47 243.12 28.12"/><path class="cls-7" d="M243.12,28.12l.7-.36.69.35-.7.36Z"/><polygon class="cls-6" points="244.06 28.76 244.06 39.16 261.28 47.93 261.28 37.53 244.06 28.76"/><path class="cls-5" d="M244.06,29.75v.8l17.22,8.78v-.8Z"/><path class="cls-5" d="M244.06,32.15V33l17.22,8.77v-.79Z"/><path class="cls-5" d="M244.06,34.55v.8l17.22,8.77v-.8Z"/><path class="cls-5" d="M244.06,37v.8l17.22,8.77v-.79Z"/><path class="cls-7" d="M244.06,28.76l17.22,8.77.42-.24-17.22-8.77Z"/><polygon class="cls-5" points="262.67 37.37 262.62 48.21 261.98 48.54 261.98 37.73 262.67 37.37"/><polygon class="cls-6" points="261.29 37.37 261.29 48.19 261.98 48.54 261.98 37.73 261.29 37.37"/><path class="cls-7" d="M261.28,37.37,262,37l.69.35-.69.36Z"/><polygon class="cls-6" points="262.23 38.02 262.23 48.41 279.45 57.18 279.45 46.78 262.23 38.02"/><path class="cls-5" d="M262.23,39v.8l17.22,8.77v-.8Z"/><path class="cls-5" d="M262.23,41.41v.8L279.45,51v-.8Z"/><path class="cls-5" d="M262.23,43.8v.81l17.22,8.77v-.8Z"/><path class="cls-5" d="M262.23,46.21V47l17.22,8.77V55Z"/><path class="cls-7" d="M262.23,38l17.22,8.76.41-.24-17.22-8.76Z"/><polygon class="cls-5" points="280.83 46.63 280.78 57.47 280.14 57.8 280.14 46.98 280.83 46.63"/><polygon class="cls-6" points="279.45 46.63 279.45 57.44 280.14 57.8 280.14 46.98 279.45 46.63"/><path class="cls-7" d="M279.45,46.63l.69-.36.69.35-.69.36Z"/><polygon class="cls-6" points="280.39 47.27 280.39 57.66 297.61 66.44 297.61 56.04 280.39 47.27"/><path class="cls-5" d="M280.39,48.26v.8l17.22,8.78V57Z"/><path class="cls-5" d="M280.39,50.66v.8l17.22,8.77v-.79Z"/><path class="cls-5" d="M280.39,53.06v.8l17.22,8.77v-.8Z"/><path class="cls-5" d="M280.39,55.46v.8L297.61,65v-.79Z"/><path class="cls-7" d="M280.39,47.27,297.61,56l.42-.24L280.81,47Z"/><polygon class="cls-5" points="299 55.88 298.95 66.72 298.31 67.05 298.31 56.24 299 55.88"/><polygon class="cls-6" points="297.61 55.88 297.61 66.7 298.31 67.05 298.31 56.24 297.61 55.88"/><path class="cls-7" d="M297.61,55.88l.7-.35.69.35-.69.36Z"/><polygon class="cls-6" points="298.56 56.53 298.56 66.92 315.77 75.69 315.78 65.29 298.56 56.53"/><path class="cls-5" d="M298.56,57.52v.8l17.22,8.77v-.8Z"/><path class="cls-5" d="M298.56,59.92v.8l17.21,8.77v-.8Z"/><path class="cls-5" d="M298.56,62.31v.81l17.21,8.77v-.8Z"/><path class="cls-5" d="M298.56,64.72v.8l17.21,8.77v-.8Z"/><path class="cls-7" d="M298.56,56.53l17.22,8.76.41-.24L299,56.29Z"/><polygon class="cls-5" points="317.16 65.14 317.11 75.98 316.47 76.31 316.47 65.49 317.16 65.14"/><polygon class="cls-6" points="315.78 65.14 315.78 75.95 316.47 76.31 316.47 65.49 315.78 65.14"/><path class="cls-7" d="M315.78,65.14l.69-.36.69.35-.69.36Z"/><polygon class="cls-6" points="316.72 65.78 316.72 76.17 333.94 84.95 333.94 74.55 316.72 65.78"/><path class="cls-5" d="M316.72,66.77v.8l17.22,8.78v-.8Z"/><path class="cls-5" d="M316.72,69.17V70l17.22,8.77V78Z"/><path class="cls-5" d="M316.72,71.57v.8l17.22,8.77v-.8Z"/><path class="cls-5" d="M316.72,74v.8l17.22,8.77v-.79Z"/><path class="cls-7" d="M316.72,65.78l17.22,8.77.42-.24-17.22-8.77Z"/><polygon class="cls-5" points="335.33 74.39 335.27 85.23 334.63 85.56 334.63 74.75 335.33 74.39"/><polygon class="cls-6" points="333.94 74.39 333.94 85.21 334.63 85.56 334.63 74.75 333.94 74.39"/><path class="cls-7" d="M333.94,74.39l.7-.35.69.35-.7.36Z"/><polygon class="cls-6" points="334.88 75.04 334.88 85.43 352.1 94.2 352.1 83.8 334.88 75.04"/><path class="cls-5" d="M334.88,76v.8L352.1,85.6v-.8Z"/><path class="cls-5" d="M334.88,78.43v.8L352.1,88v-.8Z"/><path class="cls-5" d="M334.88,80.82v.81L352.1,90.4v-.8Z"/><path class="cls-5" d="M334.88,83.23V84L352.1,92.8V92Z"/><path class="cls-7" d="M334.88,75,352.1,83.8l.42-.24L335.3,74.8Z"/><polygon class="cls-5" points="353.49 83.64 353.44 94.49 352.8 94.81 352.8 84 353.49 83.64"/><polygon class="cls-6" points="352.11 83.65 352.11 94.46 352.8 94.81 352.8 84 352.11 83.65"/><path class="cls-7" d="M352.11,83.65l.69-.36.69.35-.69.36Z"/><polygon class="cls-6" points="353.05 84.29 353.05 94.69 370.27 103.46 370.27 93.06 353.05 84.29"/><path class="cls-5" d="M353.05,85.28v.8l17.22,8.78v-.8Z"/><path class="cls-5" d="M353.05,87.68v.8l17.22,8.77v-.79Z"/><path class="cls-5" d="M353.05,90.08v.8l17.22,8.77v-.8Z"/><path class="cls-5" d="M353.05,92.48v.8l17.22,8.77v-.79Z"/><path class="cls-7" d="M353.05,84.29l17.22,8.77.41-.24-17.22-8.77Z"/><polygon class="cls-5" points="371.65 92.9 371.6 103.74 370.96 104.07 370.96 93.26 371.65 92.9"/><polygon class="cls-6" points="370.27 92.9 370.27 103.72 370.96 104.07 370.96 93.26 370.27 92.9"/><path class="cls-7" d="M370.27,92.9l.69-.35.69.35-.69.36Z"/><polygon class="cls-6" points="371.21 93.55 371.21 103.94 388.43 112.71 388.43 102.31 371.21 93.55"/><path class="cls-5" d="M371.21,94.54v.8l17.22,8.77v-.8Z"/><path class="cls-5" d="M371.21,96.94v.8l17.22,8.77v-.8Z"/><path class="cls-5" d="M371.21,99.33v.81l17.22,8.77v-.8Z"/><path class="cls-5" d="M371.21,101.74v.8l17.22,8.77v-.8Z"/><path class="cls-7" d="M371.21,93.55l17.22,8.76.42-.24-17.22-8.76Z"/></g><g id="fence_3"><polygon class="cls-5" points="189.03 0.99 189.04 11.39 171.88 20.13 171.93 9.7 189.03 0.99"/><path class="cls-6" d="M189.05,2v.8L171.93,11.5v-.8Z"/><path class="cls-6" d="M189.05,4.38v.8l-17.14,8.73v-.8Z"/><path class="cls-6" d="M189.05,6.78v.8L171.9,16.32v-.81Z"/><path class="cls-6" d="M189.05,9.18V10l-17.17,8.75,0-.81Z"/><path class="cls-7" d="M189,1,171.93,9.7l-.43-.22L188.6.77Z"/><polygon class="cls-5" points="171.93 9.54 171.88 20.39 171.24 20.71 171.24 9.9 171.93 9.54"/><polygon class="cls-6" points="170.55 9.55 170.55 20.36 171.24 20.71 171.24 9.9 170.55 9.55"/><path class="cls-7" d="M170.55,9.55l.69-.36.69.35-.69.36Z"/><polygon class="cls-5" points="170.97 10.19 170.98 20.59 153.82 29.33 153.87 18.91 170.97 10.19"/><path class="cls-6" d="M171,11.18V12l-17.11,8.73V19.9Z"/><path class="cls-6" d="M171,13.58v.8l-17.13,8.73v-.8Z"/><path class="cls-6" d="M171,16v.8l-17.14,8.74v-.81Z"/><path class="cls-6" d="M171,18.38v.8l-17.16,8.75,0-.81Z"/><path class="cls-7" d="M171,10.19l-17.1,8.72-.43-.22L170.54,10Z"/><polygon class="cls-5" points="153.87 18.75 153.82 29.59 153.18 29.92 153.18 19.1 153.87 18.75"/><polygon class="cls-6" points="152.49 18.75 152.49 29.56 153.18 29.92 153.18 19.1 152.49 18.75"/><path class="cls-7" d="M152.49,18.75l.69-.36.69.36-.69.35Z"/><polygon class="cls-5" points="152.92 19.4 152.93 29.8 135.77 38.54 135.82 28.12 152.92 19.4"/><path class="cls-6" d="M152.93,20.39v.8l-17.11,8.73v-.8Z"/><path class="cls-6" d="M152.93,22.8v.79L135.8,32.33v-.81Z"/><path class="cls-6" d="M152.93,25.19V26l-17.14,8.74v-.81Z"/><path class="cls-6" d="M152.93,27.59v.8l-17.16,8.75,0-.81Z"/><path class="cls-7" d="M152.92,19.4l-17.1,8.72-.43-.22,17.1-8.72Z"/><polygon class="cls-5" points="135.82 27.96 135.77 38.8 135.13 39.13 135.13 28.32 135.82 27.96"/><polygon class="cls-6" points="134.44 27.96 134.44 38.77 135.13 39.13 135.13 28.32 134.44 27.96"/><path class="cls-7" d="M134.44,28l.69-.35.69.35-.69.35Z"/><polygon class="cls-5" points="134.86 28.6 134.87 38.99 117.71 47.74 117.76 37.31 134.86 28.6"/><path class="cls-6" d="M134.87,29.59v.8l-17.12,8.72v-.8Z"/><path class="cls-6" d="M134.87,32v.8l-17.14,8.73v-.8Z"/><path class="cls-6" d="M134.87,34.38v.81l-17.15,8.74v-.81Z"/><path class="cls-6" d="M134.87,36.79v.8L117.7,46.33l0-.8Z"/><path class="cls-7" d="M134.86,28.6l-17.1,8.71-.43-.22,17.1-8.71Z"/><polygon class="cls-5" points="117.76 37.15 117.7 47.99 117.06 48.32 117.06 37.51 117.76 37.15"/><polygon class="cls-6" points="116.37 37.15 116.37 47.97 117.06 48.32 117.06 37.51 116.37 37.15"/><path class="cls-7" d="M116.37,37.15l.7-.35.69.35-.7.36Z"/><polygon class="cls-5" points="116.8 37.8 116.81 48.2 99.64 56.94 99.7 46.51 116.8 37.8"/><path class="cls-6" d="M116.81,38.79v.8L99.69,48.31v-.8Z"/><path class="cls-6" d="M116.81,41.19V42L99.67,50.72v-.8Z"/><path class="cls-6" d="M116.81,43.59v.8L99.66,53.13v-.81Z"/><path class="cls-6" d="M116.81,46v.8L99.64,55.54l0-.81Z"/><path class="cls-7" d="M116.8,37.8,99.7,46.51l-.43-.22,17.1-8.71Z"/><polygon class="cls-5" points="99.7 46.35 99.64 57.2 99 57.52 99 46.71 99.7 46.35"/><polygon class="cls-6" points="98.31 46.35 98.31 57.17 99 57.52 99 46.71 98.31 46.35"/><path class="cls-7" d="M98.31,46.36,99,46l.69.35-.7.36Z"/><polygon class="cls-5" points="98.75 47.01 98.76 57.41 81.59 66.15 81.65 55.72 98.75 47.01"/><path class="cls-6" d="M98.76,48v.8L81.64,57.52v-.8Z"/><path class="cls-6" d="M98.76,50.4v.8L81.62,59.93v-.8Z"/><path class="cls-6" d="M98.76,52.8v.8L81.61,62.34v-.81Z"/><path class="cls-6" d="M98.76,55.2V56L81.59,64.75l0-.81Z"/><path class="cls-7" d="M98.75,47l-17.1,8.71-.43-.22,17.1-8.71Z"/><polygon class="cls-5" points="81.65 55.56 81.59 66.41 80.95 66.73 80.95 55.92 81.65 55.56"/><polygon class="cls-6" points="80.26 55.57 80.26 66.38 80.95 66.73 80.95 55.92 80.26 55.57"/><path class="cls-7" d="M80.26,55.57l.7-.36.69.35-.7.36Z"/><polygon class="cls-5" points="80.69 56.21 80.7 66.61 63.54 75.35 63.59 64.92 80.69 56.21"/><path class="cls-6" d="M80.7,57.2V58L63.59,66.72v-.8Z"/><path class="cls-6" d="M80.7,59.6v.8L63.57,69.13v-.8Z"/><path class="cls-6" d="M80.7,62v.8L63.56,71.54v-.81Z"/><path class="cls-6" d="M80.7,64.4v.8L63.54,74l0-.81Z"/><path class="cls-7" d="M80.69,56.21l-17.1,8.71-.43-.22L80.26,56Z"/><polygon class="cls-5" points="63.59 64.77 63.54 75.61 62.9 75.94 62.9 65.12 63.59 64.77"/><polygon class="cls-6" points="62.21 64.77 62.21 75.58 62.9 75.94 62.9 65.12 62.21 64.77"/><path class="cls-7" d="M62.21,64.77l.69-.36.69.35-.69.36Z"/><polygon class="cls-5" points="62.63 65.41 62.64 75.81 45.48 84.55 45.53 74.13 62.63 65.41"/><path class="cls-6" d="M62.64,66.4v.8L45.53,75.93v-.81Z"/><path class="cls-6" d="M62.64,68.8v.8L45.51,78.33v-.8Z"/><path class="cls-6" d="M62.64,71.2V72L45.5,80.74v-.81Z"/><path class="cls-6" d="M62.64,73.6v.8L45.48,83.15l0-.81Z"/><path class="cls-7" d="M62.63,65.41l-17.1,8.72-.43-.22,17.1-8.72Z"/><polygon class="cls-5" points="45.53 73.97 45.48 84.81 44.84 85.14 44.84 74.32 45.53 73.97"/><polygon class="cls-6" points="44.15 73.97 44.15 84.78 44.84 85.14 44.84 74.32 44.15 73.97"/><path class="cls-7" d="M44.15,74l.69-.36.69.36-.69.35Z"/><polygon class="cls-5" points="44.57 74.61 44.58 85.01 27.42 93.75 27.47 83.33 44.57 74.61"/><path class="cls-6" d="M44.59,75.61v.8L27.47,85.13v-.8Z"/><path class="cls-6" d="M44.59,78v.79L27.45,87.54v-.81Z"/><path class="cls-6" d="M44.59,80.4v.81L27.44,89.94v-.81Z"/><path class="cls-6" d="M44.59,82.81v.79L27.42,92.35l0-.81Z"/><path class="cls-7" d="M44.57,74.62l-17.1,8.71L27,83.11l17.1-8.71Z"/><polygon class="cls-5" points="27.47 83.17 27.42 94.01 26.78 94.34 26.78 83.53 27.47 83.17"/><polygon class="cls-6" points="26.09 83.17 26.09 93.99 26.78 94.34 26.78 83.53 26.09 83.17"/><path class="cls-7" d="M26.09,83.17l.69-.35.69.35-.69.36Z"/><polygon class="cls-5" points="26.51 83.82 26.52 94.21 9.36 102.96 9.41 92.53 26.51 83.82"/><path class="cls-6" d="M26.52,84.81v.8L9.41,94.33v-.8Z"/><path class="cls-6" d="M26.52,87.21V88L9.39,96.74v-.8Z"/><path class="cls-6" d="M26.52,89.6v.81L9.38,99.14v-.8Z"/><path class="cls-6" d="M26.52,92v.8L9.36,101.55l0-.8Z"/><path class="cls-7" d="M26.51,83.82,9.41,92.53,9,92.31l17.1-8.71Z"/><polygon class="cls-5" points="9.41 92.37 9.36 103.21 8.72 103.54 8.72 92.73 9.41 92.37"/><polygon class="cls-6" points="8.03 92.37 8.03 103.19 8.72 103.54 8.72 92.73 8.03 92.37"/><path class="cls-7" d="M8,92.37,8.72,92l.69.35-.69.36Z"/></g></g><g id="floor_base_process"><polygon class="cls-8" points="310.67 95.08 320.71 89.81 339.63 99.46 329.52 104.69 310.67 95.08"/><polygon class="cls-9" points="310.67 92.74 329.5 102.33 339.63 97.17 320.8 87.58 310.67 92.74"/><polygon class="cls-10" points="310.67 92.74 310.67 94.84 329.5 104.44 329.5 102.33 310.67 92.74"/><polygon class="cls-11" points="329.5 102.33 339.63 97.17 339.63 99.28 329.5 104.44 329.5 102.33"/><ellipse class="cls-12" cx="330.29" cy="102.98" rx="0.81" ry="0.53" transform="translate(82.93 344.87) rotate(-61.68)"/><ellipse class="cls-12" cx="331.73" cy="102.23" rx="0.81" ry="0.53" transform="translate(84.35 345.75) rotate(-61.68)"/><ellipse class="cls-12" cx="333.16" cy="101.51" rx="0.81" ry="0.53" transform="translate(85.74 346.63) rotate(-61.68)"/><ellipse class="cls-12" cx="334.59" cy="100.79" rx="0.81" ry="0.53" transform="translate(87.12 347.51) rotate(-61.68)"/><ellipse class="cls-12" cx="336" cy="100.08" rx="0.81" ry="0.53" transform="translate(88.49 348.38) rotate(-61.68)"/><ellipse class="cls-12" cx="337.41" cy="99.35" rx="0.81" ry="0.53" transform="translate(89.88 349.23) rotate(-61.68)"/><ellipse class="cls-12" cx="338.83" cy="98.61" rx="0.81" ry="0.53" transform="translate(91.27 350.1) rotate(-61.68)"/><polygon class="cls-9" points="310.67 90.38 329.5 99.98 339.63 94.81 320.8 85.22 310.67 90.38"/><polygon class="cls-10" points="310.67 90.38 310.67 92.49 329.5 102.08 329.5 99.98 310.67 90.38"/><polygon class="cls-11" points="329.5 99.98 339.63 94.81 339.63 96.92 329.5 102.08 329.5 99.98"/><ellipse class="cls-12" cx="330.29" cy="100.63" rx="0.81" ry="0.53" transform="translate(85.01 343.63) rotate(-61.68)"/><ellipse class="cls-12" cx="331.73" cy="99.88" rx="0.81" ry="0.53" transform="translate(86.43 344.51) rotate(-61.68)"/><ellipse class="cls-12" cx="333.16" cy="99.15" rx="0.81" ry="0.53" transform="translate(87.81 345.39) rotate(-61.68)"/><ellipse class="cls-12" cx="334.59" cy="98.44" rx="0.81" ry="0.53" transform="translate(89.2 346.27) rotate(-61.68)"/><ellipse class="cls-12" cx="336" cy="97.73" rx="0.81" ry="0.53" transform="translate(90.56 347.14) rotate(-61.68)"/><ellipse class="cls-12" cx="337.41" cy="96.99" rx="0.81" ry="0.53" transform="translate(91.95 347.99) rotate(-61.68)"/><ellipse class="cls-12" cx="338.83" cy="96.26" rx="0.81" ry="0.53" transform="translate(93.34 348.86) rotate(-61.68)"/><path class="cls-13" d="M314.58,90.3c.14.18.39,0,.51-.15,0,0,0-.5.3-.55s.19.21.19.21a.28.28,0,0,0,.42-.08c-.11-.27-.29-.54-.67-.49A1.09,1.09,0,0,0,314.58,90.3Z"/><path class="cls-13" d="M320.08,87.78c.15.18.39.06.51-.14,0,0,0-.5.31-.55.13,0,.18.21.18.21a.28.28,0,0,0,.42-.08c-.11-.28-.29-.54-.67-.49A1.08,1.08,0,0,0,320.08,87.78Z"/><path class="cls-13" d="M328.38,97.59c.14.18.39.06.5-.14,0,0,0-.5.31-.55.13,0,.18.21.18.21s.36.09.42-.08c-.11-.28-.29-.54-.66-.49A1.07,1.07,0,0,0,328.38,97.59Z"/><path class="cls-13" d="M334.13,94.59c.14.18.39.06.51-.14,0,0,0-.5.3-.55s.19.21.19.21a.28.28,0,0,0,.42-.08c-.11-.28-.29-.54-.67-.49A1.08,1.08,0,0,0,334.13,94.59Z"/><g id="planks"><polygon class="cls-14" points="95.25 64.64 97.55 65.81 120.62 54.06 118.31 52.89 95.25 64.64"/><polygon class="cls-15" points="95.25 64.64 95.25 65.01 97.55 66.19 97.55 65.81 95.25 64.64"/><polygon class="cls-16" points="97.55 65.81 97.55 66.19 120.62 54.44 120.62 54.06 97.55 65.81"/><polygon class="cls-14" points="97.25 66.08 99.56 67.26 122.62 55.51 120.31 54.33 97.25 66.08"/><polygon class="cls-15" points="97.25 66.08 97.25 66.46 99.56 67.63 99.56 67.26 97.25 66.08"/><polygon class="cls-16" points="99.56 67.26 99.56 67.63 122.62 55.88 122.62 55.51 99.56 67.26"/><polygon class="cls-14" points="100.24 67 102.55 68.18 125.61 56.43 123.3 55.25 100.24 67"/><polygon class="cls-15" points="100.24 67 100.24 67.38 102.55 68.55 102.55 68.18 100.24 67"/><polygon class="cls-16" points="102.55 68.18 102.55 68.55 125.61 56.8 125.61 56.43 102.55 68.18"/><polygon class="cls-14" points="94.87 64.26 97.17 65.44 120.23 53.69 117.93 52.51 94.87 64.26"/><polygon class="cls-15" points="94.87 64.26 94.87 64.64 97.17 65.81 97.17 65.44 94.87 64.26"/><polygon class="cls-16" points="97.17 65.44 97.17 65.81 120.23 54.06 120.23 53.69 97.17 65.44"/><polygon class="cls-14" points="97.45 65.56 99.76 66.74 122.82 54.99 120.51 53.81 97.45 65.56"/><polygon class="cls-15" points="97.45 65.56 97.45 65.94 99.76 67.11 99.76 66.74 97.45 65.56"/><polygon class="cls-16" points="99.76 66.74 99.76 67.11 122.82 55.36 122.82 54.99 99.76 66.74"/><polygon class="cls-14" points="99.92 66.63 102.23 67.8 125.29 56.05 122.98 54.88 99.92 66.63"/><polygon class="cls-15" points="99.92 66.63 99.92 67 102.23 68.18 102.23 67.8 99.92 66.63"/><polygon class="cls-16" points="102.23 67.8 102.23 68.18 125.29 56.43 125.29 56.05 102.23 67.8"/><polygon class="cls-14" points="94.79 63.86 97.09 65.03 120.16 53.28 117.85 52.1 94.79 63.86"/><polygon class="cls-15" points="94.79 63.86 94.79 64.23 97.09 65.41 97.09 65.03 94.79 63.86"/><polygon class="cls-16" points="97.09 65.03 97.09 65.41 120.16 53.66 120.16 53.28 97.09 65.03"/><polygon class="cls-14" points="96.79 65.3 99.1 66.47 122.16 54.72 119.85 53.55 96.79 65.3"/><polygon class="cls-15" points="96.79 65.3 96.79 65.67 99.1 66.85 99.1 66.47 96.79 65.3"/><polygon class="cls-16" points="99.1 66.47 99.1 66.85 122.16 55.1 122.16 54.72 99.1 66.47"/><polygon class="cls-14" points="99.78 66.22 102.09 67.4 125.15 55.65 122.84 54.47 99.78 66.22"/><polygon class="cls-15" points="99.78 66.22 99.78 66.6 102.09 67.77 102.09 67.4 99.78 66.22"/><polygon class="cls-16" points="102.09 67.4 102.09 67.77 125.15 56.02 125.15 55.65 102.09 67.4"/><polygon class="cls-14" points="94.41 63.48 96.71 64.66 119.77 52.91 117.47 51.73 94.41 63.48"/><polygon class="cls-15" points="94.41 63.48 94.41 63.86 96.71 65.03 96.71 64.66 94.41 63.48"/><polygon class="cls-16" points="96.71 64.66 96.71 65.03 119.77 53.28 119.77 52.91 96.71 64.66"/><polygon class="cls-14" points="96.99 64.78 99.3 65.96 122.36 54.2 120.05 53.03 96.99 64.78"/><polygon class="cls-15" points="96.99 64.78 96.99 65.16 99.3 66.33 99.3 65.96 96.99 64.78"/><polygon class="cls-16" points="99.3 65.96 99.3 66.33 122.36 54.58 122.36 54.2 99.3 65.96"/><polygon class="cls-14" points="99.46 65.85 101.77 67.02 124.83 55.27 122.52 54.1 99.46 65.85"/><polygon class="cls-15" points="99.46 65.85 99.46 66.22 101.77 67.4 101.77 67.02 99.46 65.85"/><polygon class="cls-16" points="101.77 67.02 101.77 67.4 124.83 55.65 124.83 55.27 101.77 67.02"/><polygon class="cls-14" points="95.33 63.08 97.63 64.26 120.7 52.51 118.39 51.33 95.33 63.08"/><polygon class="cls-15" points="95.33 63.08 95.33 63.46 97.63 64.63 97.63 64.26 95.33 63.08"/><polygon class="cls-16" points="97.63 64.26 97.63 64.63 120.7 52.88 120.7 52.51 97.63 64.26"/><polygon class="cls-14" points="97.33 64.52 99.64 65.7 122.7 53.95 120.39 52.77 97.33 64.52"/><polygon class="cls-15" points="97.33 64.52 97.33 64.9 99.64 66.07 99.64 65.7 97.33 64.52"/><polygon class="cls-16" points="99.64 65.7 99.64 66.07 122.7 54.32 122.7 53.95 99.64 65.7"/><polygon class="cls-14" points="100.32 65.45 102.63 66.62 125.69 54.87 123.38 53.7 100.32 65.45"/><polygon class="cls-15" points="100.32 65.45 100.32 65.82 102.63 67 102.63 66.62 100.32 65.45"/><polygon class="cls-16" points="102.63 66.62 102.63 67 125.69 55.24 125.69 54.87 102.63 66.62"/><polygon class="cls-14" points="94.95 62.71 97.25 63.88 120.31 52.13 118.01 50.95 94.95 62.71"/><polygon class="cls-15" points="94.95 62.71 94.95 63.08 97.25 64.26 97.25 63.88 94.95 62.71"/><polygon class="cls-16" points="97.25 63.88 97.25 64.26 120.31 52.51 120.31 52.13 97.25 63.88"/><polygon class="cls-14" points="97.53 64.01 99.84 65.18 122.9 53.43 120.59 52.26 97.53 64.01"/><polygon class="cls-15" points="97.53 64.01 97.53 64.38 99.84 65.56 99.84 65.18 97.53 64.01"/><polygon class="cls-16" points="99.84 65.18 99.84 65.56 122.9 53.8 122.9 53.43 99.84 65.18"/><polygon class="cls-14" points="100 65.07 102.31 66.25 125.37 54.5 123.06 53.32 100 65.07"/><polygon class="cls-15" points="100 65.07 100 65.45 102.31 66.62 102.31 66.25 100 65.07"/><polygon class="cls-16" points="102.31 66.25 102.31 66.62 125.37 54.87 125.37 54.5 102.31 66.25"/><polygon class="cls-14" points="94.94 62.16 97.25 63.33 120.31 51.58 118.01 50.4 94.94 62.16"/><polygon class="cls-15" points="94.94 62.16 94.94 62.53 97.25 63.7 97.25 63.33 94.94 62.16"/><polygon class="cls-16" points="97.25 63.33 97.25 63.7 120.31 51.95 120.31 51.58 97.25 63.33"/><polygon class="cls-14" points="96.95 63.6 99.25 64.77 122.32 53.02 120.01 51.85 96.95 63.6"/><polygon class="cls-15" points="96.95 63.6 96.95 63.97 99.25 65.15 99.25 64.77 96.95 63.6"/><polygon class="cls-16" points="99.25 64.77 99.25 65.15 122.32 53.4 122.32 53.02 99.25 64.77"/><polygon class="cls-14" points="99.94 64.52 102.25 65.7 125.31 53.95 123 52.77 99.94 64.52"/><polygon class="cls-15" points="99.94 64.52 99.94 64.89 102.25 66.07 102.25 65.7 99.94 64.52"/><polygon class="cls-16" points="102.25 65.7 102.25 66.07 125.31 54.32 125.31 53.95 102.25 65.7"/><polygon class="cls-14" points="94.56 61.78 96.87 62.95 119.93 51.2 117.63 50.03 94.56 61.78"/><polygon class="cls-15" points="94.56 61.78 94.56 62.16 96.87 63.33 96.87 62.95 94.56 61.78"/><polygon class="cls-16" points="96.87 62.95 96.87 63.33 119.93 51.58 119.93 51.2 96.87 62.95"/><polygon class="cls-14" points="97.15 63.08 99.46 64.25 122.52 52.5 120.21 51.33 97.15 63.08"/><polygon class="cls-15" points="97.15 63.08 97.15 63.45 99.46 64.63 99.46 64.25 97.15 63.08"/><polygon class="cls-16" points="99.46 64.25 99.46 64.63 122.52 52.88 122.52 52.5 99.46 64.25"/><polygon class="cls-14" points="99.62 64.15 101.92 65.32 124.99 53.57 122.68 52.4 99.62 64.15"/><polygon class="cls-15" points="99.62 64.15 99.62 64.52 101.92 65.7 101.92 65.32 99.62 64.15"/><polygon class="cls-16" points="101.92 65.32 101.92 65.7 124.99 53.95 124.99 53.57 101.92 65.32"/><polygon class="cls-14" points="95.14 62.16 97.44 63.33 120.51 51.58 118.2 50.4 95.14 62.16"/><polygon class="cls-15" points="95.14 62.16 95.14 62.53 97.44 63.7 97.44 63.33 95.14 62.16"/><polygon class="cls-16" points="97.44 63.33 97.44 63.7 120.51 51.95 120.51 51.58 97.44 63.33"/></g><g id="planks-2" ><polygon class="cls-14" points="95.42 60.93 97.72 62.11 120.78 50.36 118.48 49.18 95.42 60.93"/><polygon class="cls-15" points="95.42 60.93 95.42 61.31 97.72 62.48 97.72 62.11 95.42 60.93"/><polygon class="cls-16" points="97.72 62.11 97.72 62.48 120.78 50.73 120.78 50.36 97.72 62.11"/><polygon class="cls-14" points="97.42 62.38 99.73 63.55 122.79 51.8 120.48 50.63 97.42 62.38"/><polygon class="cls-15" points="97.42 62.38 97.42 62.75 99.73 63.93 99.73 63.55 97.42 62.38"/><polygon class="cls-16" points="99.73 63.55 99.73 63.93 122.79 52.17 122.79 51.8 99.73 63.55"/><polygon class="cls-14" points="100.41 63.3 102.72 64.47 125.78 52.72 123.47 51.55 100.41 63.3"/><polygon class="cls-15" points="100.41 63.3 100.41 63.67 102.72 64.85 102.72 64.47 100.41 63.3"/><polygon class="cls-16" points="102.72 64.47 102.72 64.85 125.78 53.1 125.78 52.72 102.72 64.47"/><polygon class="cls-14" points="95.03 60.56 97.34 61.73 120.4 49.98 118.1 48.81 95.03 60.56"/><polygon class="cls-15" points="95.03 60.56 95.03 60.93 97.34 62.11 97.34 61.73 95.03 60.56"/><polygon class="cls-16" points="97.34 61.73 97.34 62.11 120.4 50.36 120.4 49.98 97.34 61.73"/><polygon class="cls-14" points="97.62 61.86 99.93 63.03 122.99 51.28 120.68 50.11 97.62 61.86"/><polygon class="cls-15" points="97.62 61.86 97.62 62.23 99.93 63.41 99.93 63.03 97.62 61.86"/><polygon class="cls-16" points="99.93 63.03 99.93 63.41 122.99 51.66 122.99 51.28 99.93 63.03"/><polygon class="cls-14" points="100.09 62.92 102.4 64.1 125.46 52.35 123.15 51.17 100.09 62.92"/><polygon class="cls-15" points="100.09 62.92 100.09 63.3 102.4 64.47 102.4 64.1 100.09 62.92"/><polygon class="cls-16" points="102.4 64.1 102.4 64.47 125.46 52.72 125.46 52.35 102.4 64.1"/><polygon class="cls-14" points="94.95 60.15 97.26 61.33 120.32 49.57 118.02 48.4 94.95 60.15"/><polygon class="cls-15" points="94.95 60.15 94.95 60.52 97.26 61.7 97.26 61.33 94.95 60.15"/><polygon class="cls-16" points="97.26 61.33 97.26 61.7 120.32 49.95 120.32 49.57 97.26 61.33"/><polygon class="cls-14" points="96.96 61.59 99.27 62.77 122.33 51.02 120.02 49.84 96.96 61.59"/><polygon class="cls-15" points="96.96 61.59 96.96 61.97 99.27 63.14 99.27 62.77 96.96 61.59"/><polygon class="cls-16" points="99.27 62.77 99.27 63.14 122.33 51.39 122.33 51.02 99.27 62.77"/><polygon class="cls-14" points="99.95 62.52 102.25 63.69 125.32 51.94 123.01 50.76 99.95 62.52"/><polygon class="cls-15" points="99.95 62.52 99.95 62.89 102.25 64.06 102.25 63.69 99.95 62.52"/><polygon class="cls-16" points="102.25 63.69 102.25 64.06 125.32 52.31 125.32 51.94 102.25 63.69"/><polygon class="cls-14" points="94.57 59.77 96.88 60.95 119.94 49.2 117.64 48.02 94.57 59.77"/><polygon class="cls-15" points="94.57 59.77 94.57 60.15 96.88 61.33 96.88 60.95 94.57 59.77"/><polygon class="cls-16" points="96.88 60.95 96.88 61.33 119.94 49.57 119.94 49.2 96.88 60.95"/><polygon class="cls-14" points="97.16 61.08 99.47 62.25 122.53 50.5 120.22 49.32 97.16 61.08"/><polygon class="cls-15" points="97.16 61.08 97.16 61.45 99.47 62.63 99.47 62.25 97.16 61.08"/><polygon class="cls-16" points="99.47 62.25 99.47 62.63 122.53 50.87 122.53 50.5 99.47 62.25"/><polygon class="cls-14" points="99.63 62.14 101.93 63.32 125 51.56 122.69 50.39 99.63 62.14"/><polygon class="cls-15" points="99.63 62.14 99.63 62.52 101.93 63.69 101.93 63.32 99.63 62.14"/><polygon class="cls-16" points="101.93 63.32 101.93 63.69 125 51.94 125 51.56 101.93 63.32"/><polygon class="cls-14" points="95.5 59.38 97.8 60.55 120.86 48.8 118.56 47.62 95.5 59.38"/><polygon class="cls-15" points="95.5 59.38 95.5 59.75 97.8 60.92 97.8 60.55 95.5 59.38"/><polygon class="cls-16" points="97.8 60.55 97.8 60.92 120.86 49.17 120.86 48.8 97.8 60.55"/><polygon class="cls-14" points="97.5 60.82 99.81 61.99 122.87 50.24 120.56 49.07 97.5 60.82"/><polygon class="cls-15" points="97.5 60.82 97.5 61.19 99.81 62.37 99.81 61.99 97.5 60.82"/><polygon class="cls-16" points="99.81 61.99 99.81 62.37 122.87 50.62 122.87 50.24 99.81 61.99"/><polygon class="cls-14" points="100.49 61.74 102.8 62.91 125.86 51.16 123.55 49.99 100.49 61.74"/><polygon class="cls-15" points="100.49 61.74 100.49 62.12 102.8 63.29 102.8 62.91 100.49 61.74"/><polygon class="cls-16" points="102.8 62.91 102.8 63.29 125.86 51.54 125.86 51.16 102.8 62.91"/><polygon class="cls-14" points="95.11 59 97.42 60.17 120.48 48.42 118.18 47.25 95.11 59"/><polygon class="cls-15" points="95.11 59 95.11 59.38 97.42 60.55 97.42 60.17 95.11 59"/><polygon class="cls-16" points="97.42 60.17 97.42 60.55 120.48 48.8 120.48 48.42 97.42 60.17"/><polygon class="cls-14" points="97.7 60.3 100.01 61.48 123.07 49.72 120.76 48.55 97.7 60.3"/><polygon class="cls-15" points="97.7 60.3 97.7 60.67 100.01 61.85 100.01 61.48 97.7 60.3"/><polygon class="cls-16" points="100.01 61.48 100.01 61.85 123.07 50.1 123.07 49.72 100.01 61.48"/><polygon class="cls-14" points="100.17 61.37 102.48 62.54 125.54 50.79 123.23 49.61 100.17 61.37"/><polygon class="cls-15" points="100.17 61.37 100.17 61.74 102.48 62.91 102.48 62.54 100.17 61.37"/><polygon class="cls-16" points="102.48 62.54 102.48 62.91 125.54 51.16 125.54 50.79 102.48 62.54"/><polygon class="cls-14" points="95.11 58.45 97.42 59.62 120.48 47.87 118.18 46.7 95.11 58.45"/><polygon class="cls-15" points="95.11 58.45 95.11 58.82 97.42 60 97.42 59.62 95.11 58.45"/><polygon class="cls-16" points="97.42 59.62 97.42 60 120.48 48.25 120.48 47.87 97.42 59.62"/><polygon class="cls-14" points="97.12 59.89 99.42 61.07 122.49 49.32 120.18 48.14 97.12 59.89"/><polygon class="cls-15" points="97.12 59.89 97.12 60.27 99.42 61.44 99.42 61.07 97.12 59.89"/><polygon class="cls-16" points="99.42 61.07 99.42 61.44 122.49 49.69 122.49 49.32 99.42 61.07"/><polygon class="cls-14" points="100.11 60.81 102.41 61.99 125.48 50.24 123.17 49.06 100.11 60.81"/><polygon class="cls-15" points="100.11 60.81 100.11 61.19 102.41 62.36 102.41 61.99 100.11 60.81"/><polygon class="cls-16" points="102.41 61.99 102.41 62.36 125.48 50.61 125.48 50.24 102.41 61.99"/><polygon class="cls-14" points="94.73 58.07 97.04 59.25 120.1 47.5 117.8 46.32 94.73 58.07"/><polygon class="cls-15" points="94.73 58.07 94.73 58.45 97.04 59.62 97.04 59.25 94.73 58.07"/><polygon class="cls-16" points="97.04 59.25 97.04 59.62 120.1 47.87 120.1 47.5 97.04 59.25"/><polygon class="cls-14" points="97.32 59.37 99.63 60.55 122.69 48.8 120.38 47.62 97.32 59.37"/><polygon class="cls-15" points="97.32 59.37 97.32 59.75 99.63 60.92 99.63 60.55 97.32 59.37"/><polygon class="cls-16" points="99.63 60.55 99.63 60.92 122.69 49.17 122.69 48.8 99.63 60.55"/><polygon class="cls-14" points="99.79 60.44 102.09 61.62 125.16 49.86 122.85 48.69 99.79 60.44"/><polygon class="cls-15" points="99.79 60.44 99.79 60.81 102.09 61.99 102.09 61.62 99.79 60.44"/><polygon class="cls-16" points="102.09 61.62 102.09 61.99 125.16 50.24 125.16 49.86 102.09 61.62"/><polygon class="cls-14" points="95.31 58.45 97.61 59.62 120.67 47.87 118.37 46.7 95.31 58.45"/><polygon class="cls-15" points="95.31 58.45 95.31 58.82 97.61 60 97.61 59.62 95.31 58.45"/><polygon class="cls-16" points="97.61 59.62 97.61 60 120.67 48.25 120.67 47.87 97.61 59.62"/></g><g id="square_planks"><polygon class="cls-15" points="105.84 66.94 105.84 68.08 106.83 68.59 106.83 67.44 105.84 66.94"/><polygon class="cls-16" points="106.83 67.44 106.83 68.59 131.94 55.8 131.94 54.65 106.83 67.44"/><polygon class="cls-14" points="105.84 66.94 106.83 67.44 131.94 54.65 130.94 54.15 105.84 66.94"/><polygon class="cls-15" points="107.08 67.44 107.08 68.59 108.07 69.09 108.07 67.95 107.08 67.44"/><polygon class="cls-16" points="108.07 67.95 108.07 69.09 133.18 56.3 133.18 55.16 108.07 67.95"/><polygon class="cls-14" points="107.08 67.44 108.07 67.95 133.18 55.16 132.18 54.65 107.08 67.44"/><polygon class="cls-15" points="107.83 68.13 107.83 69.27 108.82 69.78 108.82 68.63 107.83 68.13"/><polygon class="cls-16" points="108.82 68.63 108.82 69.78 133.93 56.98 133.93 55.84 108.82 68.63"/><polygon class="cls-14" points="107.83 68.13 108.82 68.63 133.93 55.84 132.94 55.33 107.83 68.13"/><polygon class="cls-15" points="109.17 68.63 109.17 69.78 110.16 70.28 110.16 69.14 109.17 68.63"/><polygon class="cls-16" points="110.16 69.14 110.16 70.28 135.27 57.49 135.27 56.34 110.16 69.14"/><polygon class="cls-14" points="109.17 68.63 110.16 69.14 135.27 56.34 134.28 55.84 109.17 68.63"/><polygon class="cls-15" points="110.41 69.14 110.41 70.28 111.4 70.78 111.4 69.64 110.41 69.14"/><polygon class="cls-16" points="111.4 69.64 111.4 70.78 136.51 57.99 136.51 56.85 111.4 69.64"/><polygon class="cls-14" points="110.41 69.14 111.4 69.64 136.51 56.85 135.52 56.34 110.41 69.14"/><polygon class="cls-15" points="105.54 65.64 105.54 66.79 106.53 67.29 106.53 66.15 105.54 65.64"/><polygon class="cls-16" points="106.53 66.15 106.53 67.29 131.64 54.5 131.64 53.36 106.53 66.15"/><polygon class="cls-14" points="105.54 65.64 106.53 66.15 131.64 53.36 130.65 52.85 105.54 65.64"/><polygon class="cls-15" points="106.78 66.15 106.78 67.29 107.78 67.8 107.78 66.66 106.78 66.15"/><polygon class="cls-16" points="107.78 66.66 107.78 67.8 132.88 55.01 132.88 53.86 107.78 66.66"/><polygon class="cls-14" points="106.78 66.15 107.78 66.66 132.88 53.86 131.89 53.36 106.78 66.15"/><polygon class="cls-15" points="107.54 66.83 107.54 67.98 108.53 68.48 108.53 67.34 107.54 66.83"/><polygon class="cls-16" points="108.53 67.34 108.53 68.48 133.64 55.69 133.64 54.55 108.53 67.34"/><polygon class="cls-14" points="107.54 66.83 108.53 67.34 133.64 54.55 132.65 54.04 107.54 66.83"/><polygon class="cls-15" points="108.88 67.34 108.88 68.48 109.87 68.99 109.87 67.84 108.88 67.34"/><polygon class="cls-16" points="109.87 67.84 109.87 68.99 134.98 56.19 134.98 55.05 109.87 67.84"/><polygon class="cls-14" points="108.88 67.34 109.87 67.84 134.98 55.05 133.99 54.55 108.88 67.34"/><polygon class="cls-15" points="110.12 67.84 110.12 68.99 111.11 69.49 111.11 68.35 110.12 67.84"/><polygon class="cls-16" points="111.11 68.35 111.11 69.49 136.22 56.7 136.22 55.55 111.11 68.35"/><polygon class="cls-14" points="110.12 67.84 111.11 68.35 136.22 55.55 135.22 55.05 110.12 67.84"/><polygon class="cls-15" points="106.04 65.03 106.04 66.18 107.03 66.68 107.03 65.54 106.04 65.03"/><polygon class="cls-16" points="107.03 65.54 107.03 66.68 132.14 53.89 132.14 52.75 107.03 65.54"/><polygon class="cls-14" points="106.04 65.03 107.03 65.54 132.14 52.75 131.15 52.24 106.04 65.03"/><polygon class="cls-15" points="107.28 65.54 107.28 66.68 108.27 67.19 108.27 66.04 107.28 65.54"/><polygon class="cls-16" points="108.27 66.04 108.27 67.19 133.38 54.4 133.38 53.25 108.27 66.04"/><polygon class="cls-14" points="107.28 65.54 108.27 66.04 133.38 53.25 132.39 52.75 107.28 65.54"/><polygon class="cls-15" points="108.03 66.22 108.03 67.36 109.03 67.87 109.03 66.73 108.03 66.22"/><polygon class="cls-16" points="109.03 66.73 109.03 67.87 134.13 55.08 134.13 53.93 109.03 66.73"/><polygon class="cls-14" points="108.03 66.22 109.03 66.73 134.13 53.93 133.14 53.43 108.03 66.22"/><polygon class="cls-15" points="109.37 66.73 109.37 67.87 110.36 68.38 110.36 67.23 109.37 66.73"/><polygon class="cls-16" points="110.36 67.23 110.36 68.38 135.47 55.58 135.47 54.44 110.36 67.23"/><polygon class="cls-14" points="109.37 66.73 110.36 67.23 135.47 54.44 134.48 53.93 109.37 66.73"/><polygon class="cls-15" points="110.61 67.23 110.61 68.38 111.61 68.88 111.61 67.74 110.61 67.23"/><polygon class="cls-16" points="111.61 67.74 111.61 68.88 136.71 56.09 136.71 54.94 111.61 67.74"/><polygon class="cls-14" points="110.61 67.23 111.61 67.74 136.71 54.94 135.72 54.44 110.61 67.23"/><polygon class="cls-15" points="105.54 63.87 105.54 65.01 106.53 65.52 106.53 64.37 105.54 63.87"/><polygon class="cls-16" points="106.53 64.37 106.53 65.52 131.64 52.72 131.64 51.58 106.53 64.37"/><polygon class="cls-14" points="105.54 63.87 106.53 64.37 131.64 51.58 130.65 51.08 105.54 63.87"/><polygon class="cls-15" points="106.78 64.37 106.78 65.52 107.78 66.02 107.78 64.88 106.78 64.37"/><polygon class="cls-16" points="107.78 64.88 107.78 66.02 132.88 53.23 132.88 52.09 107.78 64.88"/><polygon class="cls-14" points="106.78 64.37 107.78 64.88 132.88 52.09 131.89 51.58 106.78 64.37"/><polygon class="cls-15" points="107.54 65.06 107.54 66.2 108.53 66.7 108.53 65.56 107.54 65.06"/><polygon class="cls-16" points="108.53 65.56 108.53 66.7 133.64 53.91 133.64 52.77 108.53 65.56"/><polygon class="cls-14" points="107.54 65.06 108.53 65.56 133.64 52.77 132.65 52.26 107.54 65.06"/><polygon class="cls-15" points="108.88 65.56 108.88 66.7 109.87 67.21 109.87 66.07 108.88 65.56"/><polygon class="cls-16" points="109.87 66.07 109.87 67.21 134.98 54.42 134.98 53.27 109.87 66.07"/><polygon class="cls-14" points="108.88 65.56 109.87 66.07 134.98 53.27 133.99 52.77 108.88 65.56"/><polygon class="cls-15" points="110.12 66.07 110.12 67.21 111.11 67.71 111.11 66.57 110.12 66.07"/><polygon class="cls-16" points="111.11 66.57 111.11 67.71 136.22 54.92 136.22 53.78 111.11 66.57"/><polygon class="cls-14" points="110.12 66.07 111.11 66.57 136.22 53.78 135.22 53.27 110.12 66.07"/><polygon class="cls-15" points="105.84 62.58 105.84 63.72 106.83 64.22 106.83 63.08 105.84 62.58"/><polygon class="cls-16" points="106.83 63.08 106.83 64.22 131.94 51.43 131.94 50.29 106.83 63.08"/><polygon class="cls-14" points="105.84 62.58 106.83 63.08 131.94 50.29 130.94 49.78 105.84 62.58"/><polygon class="cls-15" points="107.08 63.08 107.08 64.22 108.07 64.73 108.07 63.59 107.08 63.08"/><polygon class="cls-16" points="108.07 63.59 108.07 64.73 133.18 51.94 133.18 50.79 108.07 63.59"/><polygon class="cls-14" points="107.08 63.08 108.07 63.59 133.18 50.79 132.18 50.29 107.08 63.08"/><polygon class="cls-15" points="107.83 63.76 107.83 64.91 108.82 65.41 108.82 64.27 107.83 63.76"/><polygon class="cls-16" points="108.82 64.27 108.82 65.41 133.93 52.62 133.93 51.48 108.82 64.27"/><polygon class="cls-14" points="107.83 63.76 108.82 64.27 133.93 51.48 132.94 50.97 107.83 63.76"/><polygon class="cls-15" points="109.17 64.27 109.17 65.41 110.16 65.92 110.16 64.77 109.17 64.27"/><polygon class="cls-16" points="110.16 64.77 110.16 65.92 135.27 53.12 135.27 51.98 110.16 64.77"/><polygon class="cls-14" points="109.17 64.27 110.16 64.77 135.27 51.98 134.28 51.48 109.17 64.27"/><polygon class="cls-15" points="110.41 64.77 110.41 65.92 111.4 66.42 111.4 65.28 110.41 64.77"/><polygon class="cls-16" points="111.4 65.28 111.4 66.42 136.51 53.63 136.51 52.48 111.4 65.28"/><polygon class="cls-14" points="110.41 64.77 111.4 65.28 136.51 52.48 135.52 51.98 110.41 64.77"/><polygon class="cls-15" points="106.41 61.58 106.41 62.72 107.4 63.22 107.4 62.08 106.41 61.58"/><polygon class="cls-16" points="107.4 62.08 107.4 63.22 132.51 50.43 132.51 49.29 107.4 62.08"/><polygon class="cls-14" points="106.41 61.58 107.4 62.08 132.51 49.29 131.51 48.78 106.41 61.58"/><polygon class="cls-15" points="107.16 62.26 107.16 63.4 108.15 63.91 108.15 62.76 107.16 62.26"/><polygon class="cls-16" points="108.15 62.76 108.15 63.91 133.26 51.11 133.26 49.97 108.15 62.76"/><polygon class="cls-14" points="107.16 62.26 108.15 62.76 133.26 49.97 132.27 49.47 107.16 62.26"/></g></g></g></g></svg>