<svg xmlns="http://www.w3.org/2000/svg" viewBox="0 0 397.9 215.87"><g id="Шар_2"><g><g id="ground"><polygon class="cls-1" points="208.07 209.31 397.89 112.59 189.83 6.57 0 103.3 208.07 209.31"/><path class="cls-2" d="M208.37,204.51c60.84-31,120.4-61.35,181.25-92.35L190.08,10.49,8.83,102.84Z"/><polygon class="cls-2" points="40.92 124.15 76.56 142.31 81.43 139.83 45.79 121.67 40.92 124.15"/><polygon class="cls-3" points="208.06 215.87 208.07 209.31 0 103.3 0 109.85 208.06 215.87"/><polygon class="cls-4" points="397.9 119.14 397.89 112.59 208.07 209.31 208.06 215.87 397.9 119.14"/></g><g id="fence_back"><g id="fence_4"><polygon class="cls-5" points="190 0.35 189.94 11.19 189.3 11.52 189.3 0.71 190 0.35"/><polygon class="cls-6" points="188.61 0.35 188.61 11.17 189.3 11.52 189.3 0.71 188.61 0.35"/><path class="cls-7" d="M188.61.35l.7-.35.69.35-.7.36Z"/><polygon class="cls-6" points="189.57 1 189.57 11.39 206.79 20.16 206.79 9.77 189.57 1"/><path class="cls-5" d="M189.57,2v.8l17.22,8.77v-.8Z"/><path class="cls-5" d="M189.57,4.39v.8L206.79,14v-.8Z"/><path class="cls-5" d="M189.57,6.78v.81l17.22,8.77v-.8Z"/><path class="cls-5" d="M189.57,9.19V10l17.22,8.77V18Z"/><path class="cls-7" d="M189.57,1l17.22,8.76.42-.24L190,.76Z"/><polygon class="cls-5" points="208.18 9.61 208.13 20.45 207.49 20.78 207.49 9.96 208.18 9.61"/><polygon class="cls-6" points="206.79 9.61 206.79 20.42 207.49 20.78 207.49 9.96 206.79 9.61"/><path class="cls-7" d="M206.79,9.61l.7-.36.69.36-.69.35Z"/><polygon class="cls-6" points="207.74 10.25 207.74 20.65 224.96 29.42 224.96 19.02 207.74 10.25"/><path class="cls-5" d="M207.74,11.24V12L225,20.82V20Z"/><path class="cls-5" d="M207.74,13.64v.8L225,23.21v-.79Z"/><path class="cls-5" d="M207.74,16v.8L225,25.62v-.81Z"/><path class="cls-5" d="M207.74,18.44v.8L225,28v-.79Z"/><path class="cls-7" d="M207.74,10.25,225,19l.41-.24L208.15,10Z"/><polygon class="cls-5" points="226.34 18.86 226.29 29.7 225.65 30.03 225.65 19.22 226.34 18.86"/><polygon class="cls-6" points="224.96 18.86 224.96 29.68 225.65 30.03 225.65 19.22 224.96 18.86"/><path class="cls-7" d="M225,18.86l.69-.35.69.35-.69.36Z"/><polygon class="cls-6" points="225.9 19.51 225.9 29.9 243.12 38.67 243.12 28.27 225.9 19.51"/><path class="cls-5" d="M225.9,20.5v.8l17.22,8.77v-.8Z"/><path class="cls-5" d="M225.9,22.9v.8l17.22,8.77v-.8Z"/><path class="cls-5" d="M225.9,25.29v.81l17.22,8.77v-.8Z"/><path class="cls-5" d="M225.9,27.7v.8l17.22,8.77v-.8Z"/><path class="cls-7" d="M225.9,19.51l17.22,8.76.42-.24-17.22-8.76Z"/><polygon class="cls-5" points="244.51 28.11 244.45 38.96 243.81 39.28 243.81 28.47 244.51 28.11"/><polygon class="cls-6" points="243.12 28.12 243.12 38.93 243.81 39.28 243.81 28.47 243.12 28.12"/><path class="cls-7" d="M243.12,28.12l.7-.36.69.35-.7.36Z"/><polygon class="cls-6" points="244.06 28.76 244.06 39.16 261.28 47.93 261.28 37.53 244.06 28.76"/><path class="cls-5" d="M244.06,29.75v.8l17.22,8.78v-.8Z"/><path class="cls-5" d="M244.06,32.15V33l17.22,8.77v-.79Z"/><path class="cls-5" d="M244.06,34.55v.8l17.22,8.77v-.8Z"/><path class="cls-5" d="M244.06,37v.8l17.22,8.77v-.79Z"/><path class="cls-7" d="M244.06,28.76l17.22,8.77.42-.24-17.22-8.77Z"/><polygon class="cls-5" points="262.67 37.37 262.62 48.21 261.98 48.54 261.98 37.73 262.67 37.37"/><polygon class="cls-6" points="261.29 37.37 261.29 48.19 261.98 48.54 261.98 37.73 261.29 37.37"/><path class="cls-7" d="M261.28,37.37,262,37l.69.35-.69.36Z"/><polygon class="cls-6" points="262.23 38.02 262.23 48.41 279.45 57.18 279.45 46.78 262.23 38.02"/><path class="cls-5" d="M262.23,39v.8l17.22,8.77v-.8Z"/><path class="cls-5" d="M262.23,41.41v.8L279.45,51v-.8Z"/><path class="cls-5" d="M262.23,43.8v.81l17.22,8.77v-.8Z"/><path class="cls-5" d="M262.23,46.21V47l17.22,8.77V55Z"/><path class="cls-7" d="M262.23,38l17.22,8.76.41-.24-17.22-8.76Z"/><polygon class="cls-5" points="280.83 46.63 280.78 57.47 280.14 57.8 280.14 46.98 280.83 46.63"/><polygon class="cls-6" points="279.45 46.63 279.45 57.44 280.14 57.8 280.14 46.98 279.45 46.63"/><path class="cls-7" d="M279.45,46.63l.69-.36.69.35-.69.36Z"/><polygon class="cls-6" points="280.39 47.27 280.39 57.66 297.61 66.44 297.61 56.04 280.39 47.27"/><path class="cls-5" d="M280.39,48.26v.8l17.22,8.78V57Z"/><path class="cls-5" d="M280.39,50.66v.8l17.22,8.77v-.79Z"/><path class="cls-5" d="M280.39,53.06v.8l17.22,8.77v-.8Z"/><path class="cls-5" d="M280.39,55.46v.8L297.61,65v-.79Z"/><path class="cls-7" d="M280.39,47.27,297.61,56l.42-.24L280.81,47Z"/><polygon class="cls-5" points="299 55.88 298.95 66.72 298.31 67.05 298.31 56.24 299 55.88"/><polygon class="cls-6" points="297.61 55.88 297.61 66.7 298.31 67.05 298.31 56.24 297.61 55.88"/><path class="cls-7" d="M297.61,55.88l.7-.35.69.35-.69.36Z"/><polygon class="cls-6" points="298.56 56.53 298.56 66.92 315.77 75.69 315.78 65.29 298.56 56.53"/><path class="cls-5" d="M298.56,57.52v.8l17.22,8.77v-.8Z"/><path class="cls-5" d="M298.56,59.92v.8l17.21,8.77v-.8Z"/><path class="cls-5" d="M298.56,62.31v.81l17.21,8.77v-.8Z"/><path class="cls-5" d="M298.56,64.72v.8l17.21,8.77v-.8Z"/><path class="cls-7" d="M298.56,56.53l17.22,8.76.41-.24L299,56.29Z"/><polygon class="cls-5" points="317.16 65.14 317.11 75.98 316.47 76.31 316.47 65.49 317.16 65.14"/><polygon class="cls-6" points="315.78 65.14 315.78 75.95 316.47 76.31 316.47 65.49 315.78 65.14"/><path class="cls-7" d="M315.78,65.14l.69-.36.69.35-.69.36Z"/><polygon class="cls-6" points="316.72 65.78 316.72 76.17 333.94 84.95 333.94 74.55 316.72 65.78"/><path class="cls-5" d="M316.72,66.77v.8l17.22,8.78v-.8Z"/><path class="cls-5" d="M316.72,69.17V70l17.22,8.77V78Z"/><path class="cls-5" d="M316.72,71.57v.8l17.22,8.77v-.8Z"/><path class="cls-5" d="M316.72,74v.8l17.22,8.77v-.79Z"/><path class="cls-7" d="M316.72,65.78l17.22,8.77.42-.24-17.22-8.77Z"/><polygon class="cls-5" points="335.33 74.39 335.27 85.23 334.63 85.56 334.63 74.75 335.33 74.39"/><polygon class="cls-6" points="333.94 74.39 333.94 85.21 334.63 85.56 334.63 74.75 333.94 74.39"/><path class="cls-7" d="M333.94,74.39l.7-.35.69.35-.7.36Z"/><polygon class="cls-6" points="334.88 75.04 334.88 85.43 352.1 94.2 352.1 83.8 334.88 75.04"/><path class="cls-5" d="M334.88,76v.8L352.1,85.6v-.8Z"/><path class="cls-5" d="M334.88,78.43v.8L352.1,88v-.8Z"/><path class="cls-5" d="M334.88,80.82v.81L352.1,90.4v-.8Z"/><path class="cls-5" d="M334.88,83.23V84L352.1,92.8V92Z"/><path class="cls-7" d="M334.88,75,352.1,83.8l.42-.24L335.3,74.8Z"/><polygon class="cls-5" points="353.49 83.64 353.44 94.49 352.8 94.81 352.8 84 353.49 83.64"/><polygon class="cls-6" points="352.11 83.65 352.11 94.46 352.8 94.81 352.8 84 352.11 83.65"/><path class="cls-7" d="M352.11,83.65l.69-.36.69.35-.69.36Z"/><polygon class="cls-6" points="353.05 84.29 353.05 94.69 370.27 103.46 370.27 93.06 353.05 84.29"/><path class="cls-5" d="M353.05,85.28v.8l17.22,8.78v-.8Z"/><path class="cls-5" d="M353.05,87.68v.8l17.22,8.77v-.79Z"/><path class="cls-5" d="M353.05,90.08v.8l17.22,8.77v-.8Z"/><path class="cls-5" d="M353.05,92.48v.8l17.22,8.77v-.79Z"/><path class="cls-7" d="M353.05,84.29l17.22,8.77.41-.24-17.22-8.77Z"/><polygon class="cls-5" points="371.65 92.9 371.6 103.74 370.96 104.07 370.96 93.26 371.65 92.9"/><polygon class="cls-6" points="370.27 92.9 370.27 103.72 370.96 104.07 370.96 93.26 370.27 92.9"/><path class="cls-7" d="M370.27,92.9l.69-.35.69.35-.69.36Z"/><polygon class="cls-6" points="371.21 93.55 371.21 103.94 388.43 112.71 388.43 102.31 371.21 93.55"/><path class="cls-5" d="M371.21,94.54v.8l17.22,8.77v-.8Z"/><path class="cls-5" d="M371.21,96.94v.8l17.22,8.77v-.8Z"/><path class="cls-5" d="M371.21,99.33v.81l17.22,8.77v-.8Z"/><path class="cls-5" d="M371.21,101.74v.8l17.22,8.77v-.8Z"/><path class="cls-7" d="M371.21,93.55l17.22,8.76.42-.24-17.22-8.76Z"/></g><g id="fence_3"><polygon class="cls-5" points="189.03 0.99 189.04 11.39 171.88 20.13 171.93 9.7 189.03 0.99"/><path class="cls-6" d="M189.05,2v.8L171.93,11.5v-.8Z"/><path class="cls-6" d="M189.05,4.38v.8l-17.14,8.73v-.8Z"/><path class="cls-6" d="M189.05,6.78v.8L171.9,16.32v-.81Z"/><path class="cls-6" d="M189.05,9.18V10l-17.17,8.75,0-.81Z"/><path class="cls-7" d="M189,1,171.93,9.7l-.43-.22L188.6.77Z"/><polygon class="cls-5" points="171.93 9.54 171.88 20.39 171.24 20.71 171.24 9.9 171.93 9.54"/><polygon class="cls-6" points="170.55 9.55 170.55 20.36 171.24 20.71 171.24 9.9 170.55 9.55"/><path class="cls-7" d="M170.55,9.55l.69-.36.69.35-.69.36Z"/><polygon class="cls-5" points="170.97 10.19 170.98 20.59 153.82 29.33 153.87 18.91 170.97 10.19"/><path class="cls-6" d="M171,11.18V12l-17.11,8.73V19.9Z"/><path class="cls-6" d="M171,13.58v.8l-17.13,8.73v-.8Z"/><path class="cls-6" d="M171,16v.8l-17.14,8.74v-.81Z"/><path class="cls-6" d="M171,18.38v.8l-17.16,8.75,0-.81Z"/><path class="cls-7" d="M171,10.19l-17.1,8.72-.43-.22L170.54,10Z"/><polygon class="cls-5" points="153.87 18.75 153.82 29.59 153.18 29.92 153.18 19.1 153.87 18.75"/><polygon class="cls-6" points="152.49 18.75 152.49 29.56 153.18 29.92 153.18 19.1 152.49 18.75"/><path class="cls-7" d="M152.49,18.75l.69-.36.69.36-.69.35Z"/><polygon class="cls-5" points="152.92 19.4 152.93 29.8 135.77 38.54 135.82 28.12 152.92 19.4"/><path class="cls-6" d="M152.93,20.39v.8l-17.11,8.73v-.8Z"/><path class="cls-6" d="M152.93,22.8v.79L135.8,32.33v-.81Z"/><path class="cls-6" d="M152.93,25.19V26l-17.14,8.74v-.81Z"/><path class="cls-6" d="M152.93,27.59v.8l-17.16,8.75,0-.81Z"/><path class="cls-7" d="M152.92,19.4l-17.1,8.72-.43-.22,17.1-8.72Z"/><polygon class="cls-5" points="135.82 27.96 135.77 38.8 135.13 39.13 135.13 28.32 135.82 27.96"/><polygon class="cls-6" points="134.44 27.96 134.44 38.77 135.13 39.13 135.13 28.32 134.44 27.96"/><path class="cls-7" d="M134.44,28l.69-.35.69.35-.69.35Z"/><polygon class="cls-5" points="134.86 28.6 134.87 38.99 117.71 47.74 117.76 37.31 134.86 28.6"/><path class="cls-6" d="M134.87,29.59v.8l-17.12,8.72v-.8Z"/><path class="cls-6" d="M134.87,32v.8l-17.14,8.73v-.8Z"/><path class="cls-6" d="M134.87,34.38v.81l-17.15,8.74v-.81Z"/><path class="cls-6" d="M134.87,36.79v.8L117.7,46.33l0-.8Z"/><path class="cls-7" d="M134.86,28.6l-17.1,8.71-.43-.22,17.1-8.71Z"/><polygon class="cls-5" points="117.76 37.15 117.7 47.99 117.06 48.32 117.06 37.51 117.76 37.15"/><polygon class="cls-6" points="116.37 37.15 116.37 47.97 117.06 48.32 117.06 37.51 116.37 37.15"/><path class="cls-7" d="M116.37,37.15l.7-.35.69.35-.7.36Z"/><polygon class="cls-5" points="116.8 37.8 116.81 48.2 99.64 56.94 99.7 46.51 116.8 37.8"/><path class="cls-6" d="M116.81,38.79v.8L99.69,48.31v-.8Z"/><path class="cls-6" d="M116.81,41.19V42L99.67,50.72v-.8Z"/><path class="cls-6" d="M116.81,43.59v.8L99.66,53.13v-.81Z"/><path class="cls-6" d="M116.81,46v.8L99.64,55.54l0-.81Z"/><path class="cls-7" d="M116.8,37.8,99.7,46.51l-.43-.22,17.1-8.71Z"/><polygon class="cls-5" points="99.7 46.35 99.64 57.2 99 57.52 99 46.71 99.7 46.35"/><polygon class="cls-6" points="98.31 46.35 98.31 57.17 99 57.52 99 46.71 98.31 46.35"/><path class="cls-7" d="M98.31,46.36,99,46l.69.35-.7.36Z"/><polygon class="cls-5" points="98.75 47.01 98.76 57.41 81.59 66.15 81.65 55.72 98.75 47.01"/><path class="cls-6" d="M98.76,48v.8L81.64,57.52v-.8Z"/><path class="cls-6" d="M98.76,50.4v.8L81.62,59.93v-.8Z"/><path class="cls-6" d="M98.76,52.8v.8L81.61,62.34v-.81Z"/><path class="cls-6" d="M98.76,55.2V56L81.59,64.75l0-.81Z"/><path class="cls-7" d="M98.75,47l-17.1,8.71-.43-.22,17.1-8.71Z"/><polygon class="cls-5" points="81.65 55.56 81.59 66.41 80.95 66.73 80.95 55.92 81.65 55.56"/><polygon class="cls-6" points="80.26 55.57 80.26 66.38 80.95 66.73 80.95 55.92 80.26 55.57"/><path class="cls-7" d="M80.26,55.57l.7-.36.69.35-.7.36Z"/><polygon class="cls-5" points="80.69 56.21 80.7 66.61 63.54 75.35 63.59 64.92 80.69 56.21"/><path class="cls-6" d="M80.7,57.2V58L63.59,66.72v-.8Z"/><path class="cls-6" d="M80.7,59.6v.8L63.57,69.13v-.8Z"/><path class="cls-6" d="M80.7,62v.8L63.56,71.54v-.81Z"/><path class="cls-6" d="M80.7,64.4v.8L63.54,74l0-.81Z"/><path class="cls-7" d="M80.69,56.21l-17.1,8.71-.43-.22L80.26,56Z"/><polygon class="cls-5" points="63.59 64.77 63.54 75.61 62.9 75.94 62.9 65.12 63.59 64.77"/><polygon class="cls-6" points="62.21 64.77 62.21 75.58 62.9 75.94 62.9 65.12 62.21 64.77"/><path class="cls-7" d="M62.21,64.77l.69-.36.69.35-.69.36Z"/><polygon class="cls-5" points="62.63 65.41 62.64 75.81 45.48 84.55 45.53 74.13 62.63 65.41"/><path class="cls-6" d="M62.64,66.4v.8L45.53,75.93v-.81Z"/><path class="cls-6" d="M62.64,68.8v.8L45.51,78.33v-.8Z"/><path class="cls-6" d="M62.64,71.2V72L45.5,80.74v-.81Z"/><path class="cls-6" d="M62.64,73.6v.8L45.48,83.15l0-.81Z"/><path class="cls-7" d="M62.63,65.41l-17.1,8.72-.43-.22,17.1-8.72Z"/><polygon class="cls-5" points="45.53 73.97 45.48 84.81 44.84 85.14 44.84 74.32 45.53 73.97"/><polygon class="cls-6" points="44.15 73.97 44.15 84.78 44.84 85.14 44.84 74.32 44.15 73.97"/><path class="cls-7" d="M44.15,74l.69-.36.69.36-.69.35Z"/><polygon class="cls-5" points="44.57 74.61 44.58 85.01 27.42 93.75 27.47 83.33 44.57 74.61"/><path class="cls-6" d="M44.59,75.61v.8L27.47,85.13v-.8Z"/><path class="cls-6" d="M44.59,78v.79L27.45,87.54v-.81Z"/><path class="cls-6" d="M44.59,80.4v.81L27.44,89.94v-.81Z"/><path class="cls-6" d="M44.59,82.81v.79L27.42,92.35l0-.81Z"/><path class="cls-7" d="M44.57,74.62l-17.1,8.71L27,83.11l17.1-8.71Z"/><polygon class="cls-5" points="27.47 83.17 27.42 94.01 26.78 94.34 26.78 83.53 27.47 83.17"/><polygon class="cls-6" points="26.09 83.17 26.09 93.99 26.78 94.34 26.78 83.53 26.09 83.17"/><path class="cls-7" d="M26.09,83.17l.69-.35.69.35-.69.36Z"/><polygon class="cls-5" points="26.51 83.82 26.52 94.21 9.36 102.96 9.41 92.53 26.51 83.82"/><path class="cls-6" d="M26.52,84.81v.8L9.41,94.33v-.8Z"/><path class="cls-6" d="M26.52,87.21V88L9.39,96.74v-.8Z"/><path class="cls-6" d="M26.52,89.6v.81L9.38,99.14v-.8Z"/><path class="cls-6" d="M26.52,92v.8L9.36,101.55l0-.8Z"/><path class="cls-7" d="M26.51,83.82,9.41,92.53,9,92.31l17.1-8.71Z"/><polygon class="cls-5" points="9.41 92.37 9.36 103.21 8.72 103.54 8.72 92.73 9.41 92.37"/><polygon class="cls-6" points="8.03 92.37 8.03 103.19 8.72 103.54 8.72 92.73 8.03 92.37"/><path class="cls-7" d="M8,92.37,8.72,92l.69.35-.69.36Z"/></g></g><g id="insolution_painting"><g id="planks"><polygon class="cls-8" points="95.25 63.94 97.55 65.11 120.62 53.36 118.31 52.19 95.25 63.94"/><polygon class="cls-9" points="95.25 63.94 95.25 64.31 97.55 65.49 97.55 65.11 95.25 63.94"/><polygon class="cls-10" points="97.55 65.11 97.55 65.49 120.62 53.74 120.62 53.36 97.55 65.11"/><polygon class="cls-8" points="97.25 65.38 99.56 66.56 122.62 54.81 120.31 53.63 97.25 65.38"/><polygon class="cls-9" points="97.25 65.38 97.25 65.76 99.56 66.93 99.56 66.56 97.25 65.38"/><polygon class="cls-10" points="99.56 66.56 99.56 66.93 122.62 55.18 122.62 54.81 99.56 66.56"/><polygon class="cls-8" points="100.24 66.3 102.55 67.48 125.61 55.73 123.3 54.55 100.24 66.3"/><polygon class="cls-9" points="100.24 66.3 100.24 66.68 102.55 67.85 102.55 67.48 100.24 66.3"/><polygon class="cls-10" points="102.55 67.48 102.55 67.85 125.61 56.1 125.61 55.73 102.55 67.48"/><polygon class="cls-8" points="94.87 63.56 97.17 64.74 120.23 52.99 117.93 51.81 94.87 63.56"/><polygon class="cls-9" points="94.87 63.56 94.87 63.94 97.17 65.11 97.17 64.74 94.87 63.56"/><polygon class="cls-10" points="97.17 64.74 97.17 65.11 120.23 53.36 120.23 52.99 97.17 64.74"/><polygon class="cls-8" points="97.45 64.86 99.76 66.04 122.82 54.29 120.51 53.11 97.45 64.86"/><polygon class="cls-9" points="97.45 64.86 97.45 65.24 99.76 66.41 99.76 66.04 97.45 64.86"/><polygon class="cls-10" points="99.76 66.04 99.76 66.41 122.82 54.66 122.82 54.29 99.76 66.04"/><polygon class="cls-8" points="99.92 65.93 102.23 67.1 125.29 55.35 122.98 54.18 99.92 65.93"/><polygon class="cls-9" points="99.92 65.93 99.92 66.3 102.23 67.48 102.23 67.1 99.92 65.93"/><polygon class="cls-10" points="102.23 67.1 102.23 67.48 125.29 55.73 125.29 55.35 102.23 67.1"/><polygon class="cls-8" points="94.79 63.16 97.09 64.33 120.16 52.58 117.85 51.41 94.79 63.16"/><polygon class="cls-9" points="94.79 63.16 94.79 63.53 97.09 64.71 97.09 64.33 94.79 63.16"/><polygon class="cls-10" points="97.09 64.33 97.09 64.71 120.16 52.95 120.16 52.58 97.09 64.33"/><polygon class="cls-8" points="96.79 64.6 99.1 65.78 122.16 54.02 119.85 52.85 96.79 64.6"/><polygon class="cls-9" points="96.79 64.6 96.79 64.97 99.1 66.15 99.1 65.78 96.79 64.6"/><polygon class="cls-10" points="99.1 65.78 99.1 66.15 122.16 54.4 122.16 54.02 99.1 65.78"/><polygon class="cls-8" points="99.78 65.52 102.09 66.7 125.15 54.95 122.84 53.77 99.78 65.52"/><polygon class="cls-9" points="99.78 65.52 99.78 65.9 102.09 67.07 102.09 66.7 99.78 65.52"/><polygon class="cls-10" points="102.09 66.7 102.09 67.07 125.15 55.32 125.15 54.95 102.09 66.7"/><polygon class="cls-8" points="94.41 62.78 96.71 63.96 119.77 52.2 117.47 51.03 94.41 62.78"/><polygon class="cls-9" points="94.41 62.78 94.41 63.16 96.71 64.33 96.71 63.96 94.41 62.78"/><polygon class="cls-10" points="96.71 63.96 96.71 64.33 119.77 52.58 119.77 52.2 96.71 63.96"/><polygon class="cls-8" points="96.99 64.08 99.3 65.26 122.36 53.51 120.05 52.33 96.99 64.08"/><polygon class="cls-9" points="96.99 64.08 96.99 64.46 99.3 65.63 99.3 65.26 96.99 64.08"/><polygon class="cls-10" points="99.3 65.26 99.3 65.63 122.36 53.88 122.36 53.51 99.3 65.26"/><polygon class="cls-8" points="99.46 65.15 101.77 66.32 124.83 54.57 122.52 53.4 99.46 65.15"/><polygon class="cls-9" points="99.46 65.15 99.46 65.52 101.77 66.7 101.77 66.32 99.46 65.15"/><polygon class="cls-10" points="101.77 66.32 101.77 66.7 124.83 54.95 124.83 54.57 101.77 66.32"/><polygon class="cls-8" points="95.33 62.38 97.63 63.56 120.7 51.8 118.39 50.63 95.33 62.38"/><polygon class="cls-9" points="95.33 62.38 95.33 62.76 97.63 63.93 97.63 63.56 95.33 62.38"/><polygon class="cls-10" points="97.63 63.56 97.63 63.93 120.7 52.18 120.7 51.8 97.63 63.56"/><polygon class="cls-8" points="97.33 63.82 99.64 65 122.7 53.25 120.39 52.07 97.33 63.82"/><polygon class="cls-9" points="97.33 63.82 97.33 64.2 99.64 65.37 99.64 65 97.33 63.82"/><polygon class="cls-10" points="99.64 65 99.64 65.37 122.7 53.62 122.7 53.25 99.64 65"/><polygon class="cls-8" points="100.32 64.75 102.63 65.92 125.69 54.17 123.38 52.99 100.32 64.75"/><polygon class="cls-9" points="100.32 64.75 100.32 65.12 102.63 66.3 102.63 65.92 100.32 64.75"/><polygon class="cls-10" points="102.63 65.92 102.63 66.3 125.69 54.55 125.69 54.17 102.63 65.92"/><polygon class="cls-8" points="94.95 62.01 97.25 63.18 120.31 51.43 118.01 50.26 94.95 62.01"/><polygon class="cls-9" points="94.95 62.01 94.95 62.38 97.25 63.56 97.25 63.18 94.95 62.01"/><polygon class="cls-10" points="97.25 63.18 97.25 63.56 120.31 51.8 120.31 51.43 97.25 63.18"/><polygon class="cls-8" points="97.53 63.31 99.84 64.48 122.9 52.73 120.59 51.55 97.53 63.31"/><polygon class="cls-9" points="97.53 63.31 97.53 63.68 99.84 64.86 99.84 64.48 97.53 63.31"/><polygon class="cls-10" points="99.84 64.48 99.84 64.86 122.9 53.1 122.9 52.73 99.84 64.48"/><polygon class="cls-8" points="100 64.37 102.31 65.55 125.37 53.8 123.06 52.62 100 64.37"/><polygon class="cls-9" points="100 64.37 100 64.75 102.31 65.92 102.31 65.55 100 64.37"/><polygon class="cls-10" points="102.31 65.55 102.31 65.92 125.37 54.17 125.37 53.8 102.31 65.55"/><polygon class="cls-8" points="94.94 61.45 97.25 62.63 120.31 50.88 118.01 49.7 94.94 61.45"/><polygon class="cls-9" points="94.94 61.45 94.94 61.83 97.25 63.01 97.25 62.63 94.94 61.45"/><polygon class="cls-10" points="97.25 62.63 97.25 63.01 120.31 51.25 120.31 50.88 97.25 62.63"/><polygon class="cls-8" points="96.95 62.9 99.25 64.07 122.32 52.32 120.01 51.15 96.95 62.9"/><polygon class="cls-9" points="96.95 62.9 96.95 63.27 99.25 64.45 99.25 64.07 96.95 62.9"/><polygon class="cls-10" points="99.25 64.07 99.25 64.45 122.32 52.7 122.32 52.32 99.25 64.07"/><polygon class="cls-8" points="99.94 63.82 102.25 65 125.31 53.24 123 52.07 99.94 63.82"/><polygon class="cls-9" points="99.94 63.82 99.94 64.19 102.25 65.37 102.25 65 99.94 63.82"/><polygon class="cls-10" points="102.25 65 102.25 65.37 125.31 53.62 125.31 53.24 102.25 65"/><polygon class="cls-8" points="94.56 61.08 96.87 62.26 119.93 50.51 117.63 49.33 94.56 61.08"/><polygon class="cls-9" points="94.56 61.08 94.56 61.45 96.87 62.63 96.87 62.26 94.56 61.08"/><polygon class="cls-10" points="96.87 62.26 96.87 62.63 119.93 50.88 119.93 50.51 96.87 62.26"/><polygon class="cls-8" points="97.15 62.38 99.46 63.55 122.52 51.8 120.21 50.63 97.15 62.38"/><polygon class="cls-9" points="97.15 62.38 97.15 62.76 99.46 63.93 99.46 63.55 97.15 62.38"/><polygon class="cls-10" points="99.46 63.55 99.46 63.93 122.52 52.18 122.52 51.8 99.46 63.55"/><polygon class="cls-8" points="99.62 63.45 101.92 64.62 124.99 52.87 122.68 51.7 99.62 63.45"/><polygon class="cls-9" points="99.62 63.45 99.62 63.82 101.92 65 101.92 64.62 99.62 63.45"/><polygon class="cls-10" points="101.92 64.62 101.92 65 124.99 53.24 124.99 52.87 101.92 64.62"/><polygon class="cls-8" points="95.14 61.45 97.44 62.63 120.51 50.88 118.2 49.7 95.14 61.45"/><polygon class="cls-9" points="95.14 61.45 95.14 61.83 97.44 63.01 97.44 62.63 95.14 61.45"/><polygon class="cls-10" points="97.44 62.63 97.44 63.01 120.51 51.25 120.51 50.88 97.44 62.63"/></g><g id="planks-2" ><polygon class="cls-8" points="95.42 60.23 97.72 61.41 120.78 49.66 118.48 48.48 95.42 60.23"/><polygon class="cls-9" points="95.42 60.23 95.42 60.61 97.72 61.78 97.72 61.41 95.42 60.23"/><polygon class="cls-10" points="97.72 61.41 97.72 61.78 120.78 50.03 120.78 49.66 97.72 61.41"/><polygon class="cls-8" points="97.42 61.68 99.73 62.85 122.79 51.1 120.48 49.92 97.42 61.68"/><polygon class="cls-9" points="97.42 61.68 97.42 62.05 99.73 63.23 99.73 62.85 97.42 61.68"/><polygon class="cls-10" points="99.73 62.85 99.73 63.23 122.79 51.48 122.79 51.1 99.73 62.85"/><polygon class="cls-8" points="100.41 62.6 102.72 63.77 125.78 52.02 123.47 50.85 100.41 62.6"/><polygon class="cls-9" points="100.41 62.6 100.41 62.97 102.72 64.15 102.72 63.77 100.41 62.6"/><polygon class="cls-10" points="102.72 63.77 102.72 64.15 125.78 52.4 125.78 52.02 102.72 63.77"/><polygon class="cls-8" points="95.03 59.86 97.34 61.03 120.4 49.28 118.1 48.11 95.03 59.86"/><polygon class="cls-9" points="95.03 59.86 95.03 60.23 97.34 61.41 97.34 61.03 95.03 59.86"/><polygon class="cls-10" points="97.34 61.03 97.34 61.41 120.4 49.66 120.4 49.28 97.34 61.03"/><polygon class="cls-8" points="97.62 61.16 99.93 62.33 122.99 50.58 120.68 49.41 97.62 61.16"/><polygon class="cls-9" points="97.62 61.16 97.62 61.53 99.93 62.71 99.93 62.33 97.62 61.16"/><polygon class="cls-10" points="99.93 62.33 99.93 62.71 122.99 50.96 122.99 50.58 99.93 62.33"/><polygon class="cls-8" points="100.09 62.22 102.4 63.4 125.46 51.65 123.15 50.47 100.09 62.22"/><polygon class="cls-9" points="100.09 62.22 100.09 62.6 102.4 63.77 102.4 63.4 100.09 62.22"/><polygon class="cls-10" points="102.4 63.4 102.4 63.77 125.46 52.02 125.46 51.65 102.4 63.4"/><polygon class="cls-8" points="94.95 59.45 97.26 60.63 120.32 48.87 118.02 47.7 94.95 59.45"/><polygon class="cls-9" points="94.95 59.45 94.95 59.83 97.26 61 97.26 60.63 94.95 59.45"/><polygon class="cls-10" points="97.26 60.63 97.26 61 120.32 49.25 120.32 48.87 97.26 60.63"/><polygon class="cls-8" points="96.96 60.89 99.27 62.07 122.33 50.32 120.02 49.14 96.96 60.89"/><polygon class="cls-9" points="96.96 60.89 96.96 61.27 99.27 62.44 99.27 62.07 96.96 60.89"/><polygon class="cls-10" points="99.27 62.07 99.27 62.44 122.33 50.69 122.33 50.32 99.27 62.07"/><polygon class="cls-8" points="99.95 61.81 102.25 62.99 125.32 51.24 123.01 50.06 99.95 61.81"/><polygon class="cls-9" points="99.95 61.81 99.95 62.19 102.25 63.37 102.25 62.99 99.95 61.81"/><polygon class="cls-10" points="102.25 62.99 102.25 63.37 125.32 51.61 125.32 51.24 102.25 62.99"/><polygon class="cls-8" points="94.57 59.08 96.88 60.25 119.94 48.5 117.64 47.32 94.57 59.08"/><polygon class="cls-9" points="94.57 59.08 94.57 59.45 96.88 60.63 96.88 60.25 94.57 59.08"/><polygon class="cls-10" points="96.88 60.25 96.88 60.63 119.94 48.87 119.94 48.5 96.88 60.25"/><polygon class="cls-8" points="97.16 60.38 99.47 61.55 122.53 49.8 120.22 48.62 97.16 60.38"/><polygon class="cls-9" points="97.16 60.38 97.16 60.75 99.47 61.92 99.47 61.55 97.16 60.38"/><polygon class="cls-10" points="99.47 61.55 99.47 61.92 122.53 50.17 122.53 49.8 99.47 61.55"/><polygon class="cls-8" points="99.63 61.44 101.93 62.62 125 50.87 122.69 49.69 99.63 61.44"/><polygon class="cls-9" points="99.63 61.44 99.63 61.81 101.93 62.99 101.93 62.62 99.63 61.44"/><polygon class="cls-10" points="101.93 62.62 101.93 62.99 125 51.24 125 50.87 101.93 62.62"/><polygon class="cls-8" points="95.5 58.67 97.8 59.85 120.86 48.1 118.56 46.92 95.5 58.67"/><polygon class="cls-9" points="95.5 58.67 95.5 59.05 97.8 60.23 97.8 59.85 95.5 58.67"/><polygon class="cls-10" points="97.8 59.85 97.8 60.23 120.86 48.47 120.86 48.1 97.8 59.85"/><polygon class="cls-8" points="97.5 60.12 99.81 61.29 122.87 49.54 120.56 48.37 97.5 60.12"/><polygon class="cls-9" points="97.5 60.12 97.5 60.49 99.81 61.67 99.81 61.29 97.5 60.12"/><polygon class="cls-10" points="99.81 61.29 99.81 61.67 122.87 49.92 122.87 49.54 99.81 61.29"/><polygon class="cls-8" points="100.49 61.04 102.8 62.22 125.86 50.47 123.55 49.29 100.49 61.04"/><polygon class="cls-9" points="100.49 61.04 100.49 61.41 102.8 62.59 102.8 62.22 100.49 61.04"/><polygon class="cls-10" points="102.8 62.22 102.8 62.59 125.86 50.84 125.86 50.47 102.8 62.22"/><polygon class="cls-8" points="95.11 58.3 97.42 59.48 120.48 47.72 118.18 46.55 95.11 58.3"/><polygon class="cls-9" points="95.11 58.3 95.11 58.67 97.42 59.85 97.42 59.48 95.11 58.3"/><polygon class="cls-10" points="97.42 59.48 97.42 59.85 120.48 48.1 120.48 47.72 97.42 59.48"/><polygon class="cls-8" points="97.7 59.6 100.01 60.77 123.07 49.02 120.76 47.85 97.7 59.6"/><polygon class="cls-9" points="97.7 59.6 97.7 59.98 100.01 61.15 100.01 60.77 97.7 59.6"/><polygon class="cls-10" points="100.01 60.77 100.01 61.15 123.07 49.4 123.07 49.02 100.01 60.77"/><polygon class="cls-8" points="100.17 60.66 102.48 61.84 125.54 50.09 123.23 48.91 100.17 60.66"/><polygon class="cls-9" points="100.17 60.66 100.17 61.04 102.48 62.22 102.48 61.84 100.17 60.66"/><polygon class="cls-10" points="102.48 61.84 102.48 62.22 125.54 50.47 125.54 50.09 102.48 61.84"/><polygon class="cls-8" points="95.11 57.75 97.42 58.92 120.48 47.17 118.18 46 95.11 57.75"/><polygon class="cls-9" points="95.11 57.75 95.11 58.12 97.42 59.3 97.42 58.92 95.11 57.75"/><polygon class="cls-10" points="97.42 58.92 97.42 59.3 120.48 47.55 120.48 47.17 97.42 58.92"/><polygon class="cls-8" points="97.12 59.19 99.42 60.37 122.49 48.62 120.18 47.44 97.12 59.19"/><polygon class="cls-9" points="97.12 59.19 97.12 59.57 99.42 60.74 99.42 60.37 97.12 59.19"/><polygon class="cls-10" points="99.42 60.37 99.42 60.74 122.49 48.99 122.49 48.62 99.42 60.37"/><polygon class="cls-8" points="100.11 60.11 102.41 61.29 125.48 49.54 123.17 48.36 100.11 60.11"/><polygon class="cls-9" points="100.11 60.11 100.11 60.49 102.41 61.66 102.41 61.29 100.11 60.11"/><polygon class="cls-10" points="102.41 61.29 102.41 61.66 125.48 49.91 125.48 49.54 102.41 61.29"/><polygon class="cls-8" points="94.73 57.37 97.04 58.55 120.1 46.8 117.8 45.62 94.73 57.37"/><polygon class="cls-9" points="94.73 57.37 94.73 57.75 97.04 58.92 97.04 58.55 94.73 57.37"/><polygon class="cls-10" points="97.04 58.55 97.04 58.92 120.1 47.17 120.1 46.8 97.04 58.55"/><polygon class="cls-8" points="97.32 58.67 99.63 59.85 122.69 48.1 120.38 46.92 97.32 58.67"/><polygon class="cls-9" points="97.32 58.67 97.32 59.05 99.63 60.22 99.63 59.85 97.32 58.67"/><polygon class="cls-10" points="99.63 59.85 99.63 60.22 122.69 48.47 122.69 48.1 99.63 59.85"/><polygon class="cls-8" points="99.79 59.74 102.09 60.91 125.16 49.16 122.85 47.99 99.79 59.74"/><polygon class="cls-9" points="99.79 59.74 99.79 60.11 102.09 61.29 102.09 60.91 99.79 59.74"/><polygon class="cls-10" points="102.09 60.91 102.09 61.29 125.16 49.54 125.16 49.16 102.09 60.91"/><polygon class="cls-8" points="95.31 57.75 97.61 58.92 120.67 47.17 118.37 46 95.31 57.75"/><polygon class="cls-9" points="95.31 57.75 95.31 58.12 97.61 59.3 97.61 58.92 95.31 57.75"/><polygon class="cls-10" points="97.61 58.92 97.61 59.3 120.67 47.55 120.67 47.17 97.61 58.92"/></g><g id="square_planks"><polygon class="cls-9" points="105.84 66.24 105.84 67.38 106.83 67.89 106.83 66.74 105.84 66.24"/><polygon class="cls-10" points="106.83 66.74 106.83 67.89 131.94 55.09 131.94 53.95 106.83 66.74"/><polygon class="cls-8" points="105.84 66.24 106.83 66.74 131.94 53.95 130.94 53.45 105.84 66.24"/><polygon class="cls-9" points="107.08 66.74 107.08 67.89 108.07 68.39 108.07 67.25 107.08 66.74"/><polygon class="cls-10" points="108.07 67.25 108.07 68.39 133.18 55.6 133.18 54.46 108.07 67.25"/><polygon class="cls-8" points="107.08 66.74 108.07 67.25 133.18 54.46 132.18 53.95 107.08 66.74"/><polygon class="cls-9" points="107.83 67.43 107.83 68.57 108.82 69.08 108.82 67.93 107.83 67.43"/><polygon class="cls-10" points="108.82 67.93 108.82 69.08 133.93 56.28 133.93 55.14 108.82 67.93"/><polygon class="cls-8" points="107.83 67.43 108.82 67.93 133.93 55.14 132.94 54.63 107.83 67.43"/><polygon class="cls-9" points="109.17 67.93 109.17 69.08 110.16 69.58 110.16 68.44 109.17 67.93"/><polygon class="cls-10" points="110.16 68.44 110.16 69.58 135.27 56.79 135.27 55.64 110.16 68.44"/><polygon class="cls-8" points="109.17 67.93 110.16 68.44 135.27 55.64 134.28 55.14 109.17 67.93"/><polygon class="cls-9" points="110.41 68.44 110.41 69.58 111.4 70.08 111.4 68.94 110.41 68.44"/><polygon class="cls-10" points="111.4 68.94 111.4 70.08 136.51 57.29 136.51 56.15 111.4 68.94"/><polygon class="cls-8" points="110.41 68.44 111.4 68.94 136.51 56.15 135.52 55.64 110.41 68.44"/><polygon class="cls-9" points="105.54 64.94 105.54 66.09 106.53 66.59 106.53 65.45 105.54 64.94"/><polygon class="cls-10" points="106.53 65.45 106.53 66.59 131.64 53.8 131.64 52.66 106.53 65.45"/><polygon class="cls-8" points="105.54 64.94 106.53 65.45 131.64 52.66 130.65 52.15 105.54 64.94"/><polygon class="cls-9" points="106.78 65.45 106.78 66.59 107.78 67.1 107.78 65.95 106.78 65.45"/><polygon class="cls-10" points="107.78 65.95 107.78 67.1 132.88 54.31 132.88 53.16 107.78 65.95"/><polygon class="cls-8" points="106.78 65.45 107.78 65.95 132.88 53.16 131.89 52.66 106.78 65.45"/><polygon class="cls-9" points="107.54 66.13 107.54 67.28 108.53 67.78 108.53 66.64 107.54 66.13"/><polygon class="cls-10" points="108.53 66.64 108.53 67.78 133.64 54.99 133.64 53.84 108.53 66.64"/><polygon class="cls-8" points="107.54 66.13 108.53 66.64 133.64 53.84 132.65 53.34 107.54 66.13"/><polygon class="cls-9" points="108.88 66.64 108.88 67.78 109.87 68.29 109.87 67.14 108.88 66.64"/><polygon class="cls-10" points="109.87 67.14 109.87 68.29 134.98 55.49 134.98 54.35 109.87 67.14"/><polygon class="cls-8" points="108.88 66.64 109.87 67.14 134.98 54.35 133.99 53.84 108.88 66.64"/><polygon class="cls-9" points="110.12 67.14 110.12 68.29 111.11 68.79 111.11 67.65 110.12 67.14"/><polygon class="cls-10" points="111.11 67.65 111.11 68.79 136.22 56 136.22 54.85 111.11 67.65"/><polygon class="cls-8" points="110.12 67.14 111.11 67.65 136.22 54.85 135.22 54.35 110.12 67.14"/><polygon class="cls-9" points="106.04 64.33 106.04 65.48 107.03 65.98 107.03 64.84 106.04 64.33"/><polygon class="cls-10" points="107.03 64.84 107.03 65.98 132.14 53.19 132.14 52.05 107.03 64.84"/><polygon class="cls-8" points="106.04 64.33 107.03 64.84 132.14 52.05 131.15 51.54 106.04 64.33"/><polygon class="cls-9" points="107.28 64.84 107.28 65.98 108.27 66.49 108.27 65.34 107.28 64.84"/><polygon class="cls-10" points="108.27 65.34 108.27 66.49 133.38 53.7 133.38 52.55 108.27 65.34"/><polygon class="cls-8" points="107.28 64.84 108.27 65.34 133.38 52.55 132.39 52.05 107.28 64.84"/><polygon class="cls-9" points="108.03 65.52 108.03 66.67 109.03 67.17 109.03 66.03 108.03 65.52"/><polygon class="cls-10" points="109.03 66.03 109.03 67.17 134.13 54.38 134.13 53.23 109.03 66.03"/><polygon class="cls-8" points="108.03 65.52 109.03 66.03 134.13 53.23 133.14 52.73 108.03 65.52"/><polygon class="cls-9" points="109.37 66.03 109.37 67.17 110.36 67.67 110.36 66.53 109.37 66.03"/><polygon class="cls-10" points="110.36 66.53 110.36 67.67 135.47 54.88 135.47 53.74 110.36 66.53"/><polygon class="cls-8" points="109.37 66.03 110.36 66.53 135.47 53.74 134.48 53.23 109.37 66.03"/><polygon class="cls-9" points="110.61 66.53 110.61 67.67 111.61 68.18 111.61 67.04 110.61 66.53"/><polygon class="cls-10" points="111.61 67.04 111.61 68.18 136.71 55.39 136.71 54.24 111.61 67.04"/><polygon class="cls-8" points="110.61 66.53 111.61 67.04 136.71 54.24 135.72 53.74 110.61 66.53"/><polygon class="cls-9" points="105.54 63.17 105.54 64.31 106.53 64.82 106.53 63.67 105.54 63.17"/><polygon class="cls-10" points="106.53 63.67 106.53 64.82 131.64 52.02 131.64 50.88 106.53 63.67"/><polygon class="cls-8" points="105.54 63.17 106.53 63.67 131.64 50.88 130.65 50.38 105.54 63.17"/><polygon class="cls-9" points="106.78 63.67 106.78 64.82 107.78 65.32 107.78 64.18 106.78 63.67"/><polygon class="cls-10" points="107.78 64.18 107.78 65.32 132.88 52.53 132.88 51.39 107.78 64.18"/><polygon class="cls-8" points="106.78 63.67 107.78 64.18 132.88 51.39 131.89 50.88 106.78 63.67"/><polygon class="cls-9" points="107.54 64.36 107.54 65.5 108.53 66 108.53 64.86 107.54 64.36"/><polygon class="cls-10" points="108.53 64.86 108.53 66 133.64 53.21 133.64 52.07 108.53 64.86"/><polygon class="cls-8" points="107.54 64.36 108.53 64.86 133.64 52.07 132.65 51.56 107.54 64.36"/><polygon class="cls-9" points="108.88 64.86 108.88 66 109.87 66.51 109.87 65.37 108.88 64.86"/><polygon class="cls-10" points="109.87 65.37 109.87 66.51 134.98 53.72 134.98 52.57 109.87 65.37"/><polygon class="cls-8" points="108.88 64.86 109.87 65.37 134.98 52.57 133.99 52.07 108.88 64.86"/><polygon class="cls-9" points="110.12 65.37 110.12 66.51 111.11 67.01 111.11 65.87 110.12 65.37"/><polygon class="cls-10" points="111.11 65.87 111.11 67.01 136.22 54.22 136.22 53.08 111.11 65.87"/><polygon class="cls-8" points="110.12 65.37 111.11 65.87 136.22 53.08 135.22 52.57 110.12 65.37"/><polygon class="cls-9" points="105.84 61.88 105.84 63.02 106.83 63.52 106.83 62.38 105.84 61.88"/><polygon class="cls-10" points="106.83 62.38 106.83 63.52 131.94 50.73 131.94 49.59 106.83 62.38"/><polygon class="cls-8" points="105.84 61.88 106.83 62.38 131.94 49.59 130.94 49.08 105.84 61.88"/><polygon class="cls-9" points="107.08 62.38 107.08 63.52 108.07 64.03 108.07 62.88 107.08 62.38"/><polygon class="cls-10" points="108.07 62.88 108.07 64.03 133.18 51.24 133.18 50.09 108.07 62.88"/><polygon class="cls-8" points="107.08 62.38 108.07 62.88 133.18 50.09 132.18 49.59 107.08 62.38"/><polygon class="cls-9" points="107.83 63.06 107.83 64.2 108.82 64.71 108.82 63.57 107.83 63.06"/><polygon class="cls-10" points="108.82 63.57 108.82 64.71 133.93 51.92 133.93 50.77 108.82 63.57"/><polygon class="cls-8" points="107.83 63.06 108.82 63.57 133.93 50.77 132.94 50.27 107.83 63.06"/><polygon class="cls-9" points="109.17 63.57 109.17 64.71 110.16 65.22 110.16 64.07 109.17 63.57"/><polygon class="cls-10" points="110.16 64.07 110.16 65.22 135.27 52.42 135.27 51.28 110.16 64.07"/><polygon class="cls-8" points="109.17 63.57 110.16 64.07 135.27 51.28 134.28 50.77 109.17 63.57"/><polygon class="cls-9" points="110.41 64.07 110.41 65.22 111.4 65.72 111.4 64.58 110.41 64.07"/><polygon class="cls-10" points="111.4 64.58 111.4 65.72 136.51 52.93 136.51 51.78 111.4 64.58"/><polygon class="cls-8" points="110.41 64.07 111.4 64.58 136.51 51.78 135.52 51.28 110.41 64.07"/><polygon class="cls-9" points="106.41 60.88 106.41 62.02 107.4 62.52 107.4 61.38 106.41 60.88"/><polygon class="cls-10" points="107.4 61.38 107.4 62.52 132.51 49.73 132.51 48.59 107.4 61.38"/><polygon class="cls-8" points="106.41 60.88 107.4 61.38 132.51 48.59 131.51 48.08 106.41 60.88"/><polygon class="cls-9" points="107.16 61.56 107.16 62.7 108.15 63.21 108.15 62.06 107.16 61.56"/><polygon class="cls-10" points="108.15 62.06 108.15 63.21 133.26 50.41 133.26 49.27 108.15 62.06"/><polygon class="cls-8" points="107.16 61.56 108.15 62.06 133.26 49.27 132.27 48.77 107.16 61.56"/></g></g></g></g></svg>