<svg xmlns="http://www.w3.org/2000/svg" viewBox="0 0 397.9 215.87"><g id="Шар_2"><g><g id="ground"><polygon class="cls-1" points="208.07 209.31 397.89 112.59 189.83 6.57 0 103.3 208.07 209.31"/><path class="cls-2" d="M208.37,204.51q91.26-46.51,182.54-93L191.37,9.83l-182.54,93Z"/><polygon class="cls-2" points="40.92 124.15 76.56 142.31 81.43 139.83 45.79 121.67 40.92 124.15"/><polygon id="grass_s1" class="cls-1" points="281.36 169.74 394.69 112 189.22 7.3 91.04 57.33 207.75 116.76 202.99 117.38 193.73 122.02 192.38 124.41 281.36 169.74"/><polygon class="cls-3" points="208.06 215.87 208.07 209.31 0 103.3 0 109.85 208.06 215.87"/><polygon class="cls-4" points="397.9 119.14 397.89 112.59 208.07 209.31 208.06 215.87 397.9 119.14"/></g><g id="fence_back"><g id="fence_4"><polygon class="cls-5" points="190 0.35 189.94 11.19 189.3 11.52 189.3 0.71 190 0.35"/><polygon class="cls-6" points="188.61 0.35 188.61 11.17 189.3 11.52 189.3 0.71 188.61 0.35"/><path class="cls-7" d="M188.61.35l.7-.35.69.35-.7.36Z"/><polygon class="cls-6" points="189.57 1 189.57 11.39 206.79 20.16 206.79 9.77 189.57 1"/><path class="cls-5" d="M189.57,2v.8l17.22,8.77v-.8Z"/><path class="cls-5" d="M189.57,4.39v.8L206.79,14v-.8Z"/><path class="cls-5" d="M189.57,6.78v.81l17.22,8.77v-.8Z"/><path class="cls-5" d="M189.57,9.19V10l17.22,8.77V18Z"/><path class="cls-7" d="M189.57,1l17.22,8.76.42-.24L190,.76Z"/><polygon class="cls-5" points="208.18 9.61 208.13 20.45 207.49 20.78 207.49 9.96 208.18 9.61"/><polygon class="cls-6" points="206.79 9.61 206.79 20.42 207.49 20.78 207.49 9.96 206.79 9.61"/><path class="cls-7" d="M206.79,9.61l.7-.36.69.36-.69.35Z"/><polygon class="cls-6" points="207.74 10.25 207.74 20.65 224.96 29.42 224.96 19.02 207.74 10.25"/><path class="cls-5" d="M207.74,11.24V12L225,20.82V20Z"/><path class="cls-5" d="M207.74,13.64v.8L225,23.21v-.79Z"/><path class="cls-5" d="M207.74,16v.8L225,25.62v-.81Z"/><path class="cls-5" d="M207.74,18.44v.8L225,28v-.79Z"/><path class="cls-7" d="M207.74,10.25,225,19l.41-.24L208.15,10Z"/><polygon class="cls-5" points="226.34 18.86 226.29 29.7 225.65 30.03 225.65 19.22 226.34 18.86"/><polygon class="cls-6" points="224.96 18.86 224.96 29.68 225.65 30.03 225.65 19.22 224.96 18.86"/><path class="cls-7" d="M225,18.86l.69-.35.69.35-.69.36Z"/><polygon class="cls-6" points="225.9 19.51 225.9 29.9 243.12 38.67 243.12 28.27 225.9 19.51"/><path class="cls-5" d="M225.9,20.5v.8l17.22,8.77v-.8Z"/><path class="cls-5" d="M225.9,22.9v.8l17.22,8.77v-.8Z"/><path class="cls-5" d="M225.9,25.29v.81l17.22,8.77v-.8Z"/><path class="cls-5" d="M225.9,27.7v.8l17.22,8.77v-.8Z"/><path class="cls-7" d="M225.9,19.51l17.22,8.76.42-.24-17.22-8.76Z"/><polygon class="cls-5" points="244.51 28.11 244.45 38.96 243.81 39.28 243.81 28.47 244.51 28.11"/><polygon class="cls-6" points="243.12 28.12 243.12 38.93 243.81 39.28 243.81 28.47 243.12 28.12"/><path class="cls-7" d="M243.12,28.12l.7-.36.69.35-.7.36Z"/><polygon class="cls-6" points="244.06 28.76 244.06 39.16 261.28 47.93 261.28 37.53 244.06 28.76"/><path class="cls-5" d="M244.06,29.75v.8l17.22,8.78v-.8Z"/><path class="cls-5" d="M244.06,32.15V33l17.22,8.77v-.79Z"/><path class="cls-5" d="M244.06,34.55v.8l17.22,8.77v-.8Z"/><path class="cls-5" d="M244.06,37v.8l17.22,8.77v-.79Z"/><path class="cls-7" d="M244.06,28.76l17.22,8.77.42-.24-17.22-8.77Z"/><polygon class="cls-5" points="262.67 37.37 262.62 48.21 261.98 48.54 261.98 37.73 262.67 37.37"/><polygon class="cls-6" points="261.29 37.37 261.29 48.19 261.98 48.54 261.98 37.73 261.29 37.37"/><path class="cls-7" d="M261.28,37.37,262,37l.69.35-.69.36Z"/><polygon class="cls-6" points="262.23 38.02 262.23 48.41 279.45 57.18 279.45 46.78 262.23 38.02"/><path class="cls-5" d="M262.23,39v.8l17.22,8.77v-.8Z"/><path class="cls-5" d="M262.23,41.41v.8L279.45,51v-.8Z"/><path class="cls-5" d="M262.23,43.8v.81l17.22,8.77v-.8Z"/><path class="cls-5" d="M262.23,46.21V47l17.22,8.77V55Z"/><path class="cls-7" d="M262.23,38l17.22,8.76.41-.24-17.22-8.76Z"/><polygon class="cls-5" points="280.83 46.63 280.78 57.47 280.14 57.8 280.14 46.98 280.83 46.63"/><polygon class="cls-6" points="279.45 46.63 279.45 57.44 280.14 57.8 280.14 46.98 279.45 46.63"/><path class="cls-7" d="M279.45,46.63l.69-.36.69.35-.69.36Z"/><polygon class="cls-6" points="280.39 47.27 280.39 57.66 297.61 66.44 297.61 56.04 280.39 47.27"/><path class="cls-5" d="M280.39,48.26v.8l17.22,8.78V57Z"/><path class="cls-5" d="M280.39,50.66v.8l17.22,8.77v-.79Z"/><path class="cls-5" d="M280.39,53.06v.8l17.22,8.77v-.8Z"/><path class="cls-5" d="M280.39,55.46v.8L297.61,65v-.79Z"/><path class="cls-7" d="M280.39,47.27,297.61,56l.42-.24L280.81,47Z"/><polygon class="cls-5" points="299 55.88 298.95 66.72 298.31 67.05 298.31 56.24 299 55.88"/><polygon class="cls-6" points="297.61 55.88 297.61 66.7 298.31 67.05 298.31 56.24 297.61 55.88"/><path class="cls-7" d="M297.61,55.88l.7-.35.69.35-.69.36Z"/><polygon class="cls-6" points="298.56 56.53 298.56 66.92 315.77 75.69 315.78 65.29 298.56 56.53"/><path class="cls-5" d="M298.56,57.52v.8l17.22,8.77v-.8Z"/><path class="cls-5" d="M298.56,59.92v.8l17.21,8.77v-.8Z"/><path class="cls-5" d="M298.56,62.31v.81l17.21,8.77v-.8Z"/><path class="cls-5" d="M298.56,64.72v.8l17.21,8.77v-.8Z"/><path class="cls-7" d="M298.56,56.53l17.22,8.76.41-.24L299,56.29Z"/><polygon class="cls-5" points="317.16 65.14 317.11 75.98 316.47 76.31 316.47 65.49 317.16 65.14"/><polygon class="cls-6" points="315.78 65.14 315.78 75.95 316.47 76.31 316.47 65.49 315.78 65.14"/><path class="cls-7" d="M315.78,65.14l.69-.36.69.35-.69.36Z"/><polygon class="cls-6" points="316.72 65.78 316.72 76.17 333.94 84.95 333.94 74.55 316.72 65.78"/><path class="cls-5" d="M316.72,66.77v.8l17.22,8.78v-.8Z"/><path class="cls-5" d="M316.72,69.17V70l17.22,8.77V78Z"/><path class="cls-5" d="M316.72,71.57v.8l17.22,8.77v-.8Z"/><path class="cls-5" d="M316.72,74v.8l17.22,8.77v-.79Z"/><path class="cls-7" d="M316.72,65.78l17.22,8.77.42-.24-17.22-8.77Z"/><polygon class="cls-5" points="335.33 74.39 335.27 85.23 334.63 85.56 334.63 74.75 335.33 74.39"/><polygon class="cls-6" points="333.94 74.39 333.94 85.21 334.63 85.56 334.63 74.75 333.94 74.39"/><path class="cls-7" d="M333.94,74.39l.7-.35.69.35-.7.36Z"/><polygon class="cls-6" points="334.88 75.04 334.88 85.43 352.1 94.2 352.1 83.8 334.88 75.04"/><path class="cls-5" d="M334.88,76v.8L352.1,85.6v-.8Z"/><path class="cls-5" d="M334.88,78.43v.8L352.1,88v-.8Z"/><path class="cls-5" d="M334.88,80.82v.81L352.1,90.4v-.8Z"/><path class="cls-5" d="M334.88,83.23V84L352.1,92.8V92Z"/><path class="cls-7" d="M334.88,75,352.1,83.8l.42-.24L335.3,74.8Z"/><polygon class="cls-5" points="353.49 83.64 353.44 94.49 352.8 94.81 352.8 84 353.49 83.64"/><polygon class="cls-6" points="352.11 83.65 352.11 94.46 352.8 94.81 352.8 84 352.11 83.65"/><path class="cls-7" d="M352.11,83.65l.69-.36.69.35-.69.36Z"/><polygon class="cls-6" points="353.05 84.29 353.05 94.69 370.27 103.46 370.27 93.06 353.05 84.29"/><path class="cls-5" d="M353.05,85.28v.8l17.22,8.78v-.8Z"/><path class="cls-5" d="M353.05,87.68v.8l17.22,8.77v-.79Z"/><path class="cls-5" d="M353.05,90.08v.8l17.22,8.77v-.8Z"/><path class="cls-5" d="M353.05,92.48v.8l17.22,8.77v-.79Z"/><path class="cls-7" d="M353.05,84.29l17.22,8.77.41-.24-17.22-8.77Z"/><polygon class="cls-5" points="371.65 92.9 371.6 103.74 370.96 104.07 370.96 93.26 371.65 92.9"/><polygon class="cls-6" points="370.27 92.9 370.27 103.72 370.96 104.07 370.96 93.26 370.27 92.9"/><path class="cls-7" d="M370.27,92.9l.69-.35.69.35-.69.36Z"/><polygon class="cls-6" points="371.21 93.55 371.21 103.94 388.43 112.71 388.43 102.31 371.21 93.55"/><path class="cls-5" d="M371.21,94.54v.8l17.22,8.77v-.8Z"/><path class="cls-5" d="M371.21,96.94v.8l17.22,8.77v-.8Z"/><path class="cls-5" d="M371.21,99.33v.81l17.22,8.77v-.8Z"/><path class="cls-5" d="M371.21,101.74v.8l17.22,8.77v-.8Z"/><path class="cls-7" d="M371.21,93.55l17.22,8.76.42-.24-17.22-8.76Z"/></g><g id="fence_3"><polygon class="cls-5" points="189.03 0.99 189.04 11.39 171.88 20.13 171.93 9.7 189.03 0.99"/><path class="cls-6" d="M189.05,2v.8L171.93,11.5v-.8Z"/><path class="cls-6" d="M189.05,4.38v.8l-17.14,8.73v-.8Z"/><path class="cls-6" d="M189.05,6.78v.8L171.9,16.32v-.81Z"/><path class="cls-6" d="M189.05,9.18V10l-17.17,8.75,0-.81Z"/><path class="cls-7" d="M189,1,171.93,9.7l-.43-.22L188.6.77Z"/><polygon class="cls-5" points="171.93 9.54 171.88 20.39 171.24 20.71 171.24 9.9 171.93 9.54"/><polygon class="cls-6" points="170.55 9.55 170.55 20.36 171.24 20.71 171.24 9.9 170.55 9.55"/><path class="cls-7" d="M170.55,9.55l.69-.36.69.35-.69.36Z"/><polygon class="cls-5" points="170.97 10.19 170.98 20.59 153.82 29.33 153.87 18.91 170.97 10.19"/><path class="cls-6" d="M171,11.18V12l-17.11,8.73V19.9Z"/><path class="cls-6" d="M171,13.58v.8l-17.13,8.73v-.8Z"/><path class="cls-6" d="M171,16v.8l-17.14,8.74v-.81Z"/><path class="cls-6" d="M171,18.38v.8l-17.16,8.75,0-.81Z"/><path class="cls-7" d="M171,10.19l-17.1,8.72-.43-.22L170.54,10Z"/><polygon class="cls-5" points="153.87 18.75 153.82 29.59 153.18 29.92 153.18 19.1 153.87 18.75"/><polygon class="cls-6" points="152.49 18.75 152.49 29.56 153.18 29.92 153.18 19.1 152.49 18.75"/><path class="cls-7" d="M152.49,18.75l.69-.36.69.36-.69.35Z"/><polygon class="cls-5" points="152.92 19.4 152.93 29.8 135.77 38.54 135.82 28.12 152.92 19.4"/><path class="cls-6" d="M152.93,20.39v.8l-17.11,8.73v-.8Z"/><path class="cls-6" d="M152.93,22.8v.79L135.8,32.33v-.81Z"/><path class="cls-6" d="M152.93,25.19V26l-17.14,8.74v-.81Z"/><path class="cls-6" d="M152.93,27.59v.8l-17.16,8.75,0-.81Z"/><path class="cls-7" d="M152.92,19.4l-17.1,8.72-.43-.22,17.1-8.72Z"/><polygon class="cls-5" points="135.82 27.96 135.77 38.8 135.13 39.13 135.13 28.32 135.82 27.96"/><polygon class="cls-6" points="134.44 27.96 134.44 38.77 135.13 39.13 135.13 28.32 134.44 27.96"/><path class="cls-7" d="M134.44,28l.69-.35.69.35-.69.35Z"/><polygon class="cls-5" points="134.86 28.6 134.87 38.99 117.71 47.74 117.76 37.31 134.86 28.6"/><path class="cls-6" d="M134.87,29.59v.8l-17.12,8.72v-.8Z"/><path class="cls-6" d="M134.87,32v.8l-17.14,8.73v-.8Z"/><path class="cls-6" d="M134.87,34.38v.81l-17.15,8.74v-.81Z"/><path class="cls-6" d="M134.87,36.79v.8L117.7,46.33l0-.8Z"/><path class="cls-7" d="M134.86,28.6l-17.1,8.71-.43-.22,17.1-8.71Z"/><polygon class="cls-5" points="117.76 37.15 117.7 47.99 117.06 48.32 117.06 37.51 117.76 37.15"/><polygon class="cls-6" points="116.37 37.15 116.37 47.97 117.06 48.32 117.06 37.51 116.37 37.15"/><path class="cls-7" d="M116.37,37.15l.7-.35.69.35-.7.36Z"/><polygon class="cls-5" points="116.8 37.8 116.81 48.2 99.64 56.94 99.7 46.51 116.8 37.8"/><path class="cls-6" d="M116.81,38.79v.8L99.69,48.31v-.8Z"/><path class="cls-6" d="M116.81,41.19V42L99.67,50.72v-.8Z"/><path class="cls-6" d="M116.81,43.59v.8L99.66,53.13v-.81Z"/><path class="cls-6" d="M116.81,46v.8L99.64,55.54l0-.81Z"/><path class="cls-7" d="M116.8,37.8,99.7,46.51l-.43-.22,17.1-8.71Z"/><polygon class="cls-5" points="99.7 46.35 99.64 57.2 99 57.52 99 46.71 99.7 46.35"/><polygon class="cls-6" points="98.31 46.35 98.31 57.17 99 57.52 99 46.71 98.31 46.35"/><path class="cls-7" d="M98.31,46.36,99,46l.69.35-.7.36Z"/><polygon class="cls-5" points="98.75 47.01 98.76 57.41 81.59 66.15 81.65 55.72 98.75 47.01"/><path class="cls-6" d="M98.76,48v.8L81.64,57.52v-.8Z"/><path class="cls-6" d="M98.76,50.4v.8L81.62,59.93v-.8Z"/><path class="cls-6" d="M98.76,52.8v.8L81.61,62.34v-.81Z"/><path class="cls-6" d="M98.76,55.2V56L81.59,64.75l0-.81Z"/><path class="cls-7" d="M98.75,47l-17.1,8.71-.43-.22,17.1-8.71Z"/><polygon class="cls-5" points="81.65 55.56 81.59 66.41 80.95 66.73 80.95 55.92 81.65 55.56"/><polygon class="cls-6" points="80.26 55.57 80.26 66.38 80.95 66.73 80.95 55.92 80.26 55.57"/><path class="cls-7" d="M80.26,55.57l.7-.36.69.35-.7.36Z"/><polygon class="cls-5" points="80.69 56.21 80.7 66.61 63.54 75.35 63.59 64.92 80.69 56.21"/><path class="cls-6" d="M80.7,57.2V58L63.59,66.72v-.8Z"/><path class="cls-6" d="M80.7,59.6v.8L63.57,69.13v-.8Z"/><path class="cls-6" d="M80.7,62v.8L63.56,71.54v-.81Z"/><path class="cls-6" d="M80.7,64.4v.8L63.54,74l0-.81Z"/><path class="cls-7" d="M80.69,56.21l-17.1,8.71-.43-.22L80.26,56Z"/><polygon class="cls-5" points="63.59 64.77 63.54 75.61 62.9 75.94 62.9 65.12 63.59 64.77"/><polygon class="cls-6" points="62.21 64.77 62.21 75.58 62.9 75.94 62.9 65.12 62.21 64.77"/><path class="cls-7" d="M62.21,64.77l.69-.36.69.35-.69.36Z"/><polygon class="cls-5" points="62.63 65.41 62.64 75.81 45.48 84.55 45.53 74.13 62.63 65.41"/><path class="cls-6" d="M62.64,66.4v.8L45.53,75.93v-.81Z"/><path class="cls-6" d="M62.64,68.8v.8L45.51,78.33v-.8Z"/><path class="cls-6" d="M62.64,71.2V72L45.5,80.74v-.81Z"/><path class="cls-6" d="M62.64,73.6v.8L45.48,83.15l0-.81Z"/><path class="cls-7" d="M62.63,65.41l-17.1,8.72-.43-.22,17.1-8.72Z"/><polygon class="cls-5" points="45.53 73.97 45.48 84.81 44.84 85.14 44.84 74.32 45.53 73.97"/><polygon class="cls-6" points="44.15 73.97 44.15 84.78 44.84 85.14 44.84 74.32 44.15 73.97"/><path class="cls-7" d="M44.15,74l.69-.36.69.36-.69.35Z"/><polygon class="cls-5" points="44.57 74.61 44.58 85.01 27.42 93.75 27.47 83.33 44.57 74.61"/><path class="cls-6" d="M44.59,75.61v.8L27.47,85.13v-.8Z"/><path class="cls-6" d="M44.59,78v.79L27.45,87.54v-.81Z"/><path class="cls-6" d="M44.59,80.4v.81L27.44,89.94v-.81Z"/><path class="cls-6" d="M44.59,82.81v.79L27.42,92.35l0-.81Z"/><path class="cls-7" d="M44.57,74.62l-17.1,8.71L27,83.11l17.1-8.71Z"/><polygon class="cls-5" points="27.47 83.17 27.42 94.01 26.78 94.34 26.78 83.53 27.47 83.17"/><polygon class="cls-6" points="26.09 83.17 26.09 93.99 26.78 94.34 26.78 83.53 26.09 83.17"/><path class="cls-7" d="M26.09,83.17l.69-.35.69.35-.69.36Z"/><polygon class="cls-5" points="26.51 83.82 26.52 94.21 9.36 102.96 9.41 92.53 26.51 83.82"/><path class="cls-6" d="M26.52,84.81v.8L9.41,94.33v-.8Z"/><path class="cls-6" d="M26.52,87.21V88L9.39,96.74v-.8Z"/><path class="cls-6" d="M26.52,89.6v.81L9.38,99.14v-.8Z"/><path class="cls-6" d="M26.52,92v.8L9.36,101.55l0-.8Z"/><path class="cls-7" d="M26.51,83.82,9.41,92.53,9,92.31l17.1-8.71Z"/><polygon class="cls-5" points="9.41 92.37 9.36 103.21 8.72 103.54 8.72 92.73 9.41 92.37"/><polygon class="cls-6" points="8.03 92.37 8.03 103.19 8.72 103.54 8.72 92.73 8.03 92.37"/><path class="cls-7" d="M8,92.37,8.72,92l.69.35-.69.36Z"/></g></g><g id="s1"><g id="dirt_3_s1"><path class="cls-8" d="M194.88,190.78l7.17-.18s2.15,0,2.95-.79,1.71-.31,2.46-.66,3.25-2.11,3.25-2.11a1.67,1.67,0,0,1,1.45-.62c1,.05,1.43-.1,1.46-1.18,0-2.11-2.86-4.45-2.86-4.45l-11.57-10.42s-2.38-2.46-5.37-1.63-2.86,2.6-3,3-.7,3.47-3,4.22-4.44,1.14-6,3.12-1.1,2-2.07,2.69-1,1.23-.83,1.58,1.58,2.07,4.92,2.77l1,1.85a5,5,0,0,0,4.18,2.77C192,190.91,194.88,190.78,194.88,190.78Z"/><path class="cls-9" d="M209.48,184.58a7.46,7.46,0,0,1-2.86-4.76s-1.45-2.54-2.81-2.1-.84,2.55-.84,2.55a7.26,7.26,0,0,0-3.08-1.23l1.67-.09a1.35,1.35,0,0,1,.84-1l-3.25-4.89s-2.78-3.6-5.11-3.38-2.42.52-2.42.52l-.49.46a5.13,5.13,0,0,0-.3,1.13c-.13.44-.7,3.47-3,4.22a18.89,18.89,0,0,0-4.43,1.71l-1.11,1a10.94,10.94,0,0,0-1,3.34c.09,1-2.28.53-2.28.53a1.66,1.66,0,0,0,.1,1.09,6.18,6.18,0,0,0,1.84,1.43l.08,0a20.6,20.6,0,0,0,2.81.83s.27-1.53.75-.43,1.38,2.6,1.29,3.89a4.67,4.67,0,0,0,3.11,1.34c1,0,2,.06,2.82.06a12.39,12.39,0,0,1,3.69-.85c1.76-.05,5.45-3.08,5.45-3.08s2.11-1-.31-2.62-5-3.72-8-3.63a7.12,7.12,0,0,0-4.57,1.5,9.49,9.49,0,0,1-1.94.75,29.36,29.36,0,0,1,5.06-2.69,10.43,10.43,0,0,1,4.75,0l7.26,2.73s3.69,1.19,4.44,3c0,0,1.41.62,2.07,0S209.79,184.8,209.48,184.58Z"/><path class="cls-9" d="M209.53,181s-.88-1.22-.84-.63.1,2.21,1.35,2.21,1,.09.76-.3A8.37,8.37,0,0,0,209.53,181Z"/><path class="cls-2" d="M193.17,175.85c-1.35-.35-.75-1.84-.46-2.34s.61.26.38-.65-2.26-.5-2.42-.47c-.3,1.05-1,3-2.83,3.61a26.49,26.49,0,0,0-3.77,1.34l-1.27.95a3.53,3.53,0,0,0,2.17,0c1.41-.35,3.34-1.61,6.36-1.12s2.87,0,2.87,0S194.53,176.21,193.17,175.85Z"/><path class="cls-2" d="M185.53,180.25a3.13,3.13,0,0,0-3,1.79s-.32.53.47,0a5.93,5.93,0,0,1,2.53-.53S187,180.93,185.53,180.25Z"/><path class="cls-2" d="M187.7,184.29a1,1,0,0,0-.36,1.62,8.71,8.71,0,0,1,1.06,1.56s.5,1.2.91,0,.53-2,1.64-2.41,0-.77,0-.77A4.49,4.49,0,0,0,187.7,184.29Z"/><path class="cls-2" d="M197.61,179.34a5.92,5.92,0,0,1,3.1.3c1,.61-.44.79-.44.79s-1.58.22-1.87-.18a1.34,1.34,0,0,0-.94-.43S196.67,179.58,197.61,179.34Z"/></g><g id="dirt_2_s1"><path class="cls-8" d="M79.51,94.6l7.17-.18s2.16,0,2.95-.79,1.71-.31,2.46-.66,3.26-2.11,3.26-2.11a1.65,1.65,0,0,1,1.45-.62c1,.05,1.42-.09,1.45-1.18,0-2.11-2.86-4.44-2.86-4.44L83.82,74.19s-2.37-2.46-5.36-1.63-2.86,2.6-3,3-.7,3.47-3,4.22S68,81,66.49,82.94s-1.1,2-2.06,2.69-1,1.23-.84,1.58,1.58,2.07,4.93,2.77l1,1.85a5,5,0,0,0,4.18,2.77C76.65,94.73,79.51,94.6,79.51,94.6Z"/><path class="cls-9" d="M94.11,88.4a7.5,7.5,0,0,1-2.86-4.76s-1.45-2.54-2.81-2.1-.84,2.55-.84,2.55a7.26,7.26,0,0,0-3.07-1.23l1.67-.09a1.32,1.32,0,0,1,.83-1l-3.25-4.89s-2.77-3.6-5.1-3.38-2.42.53-2.42.53l-.5.45a5.13,5.13,0,0,0-.3,1.13c-.13.44-.7,3.47-3,4.22a18.64,18.64,0,0,0-4.42,1.71l-1.12,1a11.23,11.23,0,0,0-1,3.34c.09,1-2.28.53-2.28.53a1.66,1.66,0,0,0,.1,1.09,6.32,6.32,0,0,0,1.84,1.43l.08,0a20,20,0,0,0,2.82.84s.26-1.54.74-.44,1.38,2.6,1.29,3.89a4.69,4.69,0,0,0,3.11,1.34c1,0,2,.06,2.83.06a12.31,12.31,0,0,1,3.68-.85c1.76,0,5.45-3.08,5.45-3.08s2.12-1-.3-2.62-5-3.71-8-3.63A7.12,7.12,0,0,0,72.74,86a9.26,9.26,0,0,1-1.94.75A29.36,29.36,0,0,1,75.86,84a10.43,10.43,0,0,1,4.75,0l7.26,2.73s3.69,1.19,4.44,3c0,0,1.41.62,2.07,0S94.42,88.62,94.11,88.4Z"/><path class="cls-9" d="M94.16,84.79s-.88-1.22-.84-.63.1,2.21,1.35,2.21,1,.09.76-.3A8.37,8.37,0,0,0,94.16,84.79Z"/><path class="cls-2" d="M77.8,79.67c-1.35-.35-.75-1.84-.46-2.34s.62.26.38-.65-2.25-.5-2.42-.47c-.3,1.05-1,3-2.83,3.61a26.49,26.49,0,0,0-3.77,1.34l-1.27,1a3.53,3.53,0,0,0,2.17,0C71,81.76,72.94,80.5,76,81s2.88,0,2.88,0S79.16,80,77.8,79.67Z"/><path class="cls-2" d="M70.16,84.07a3.12,3.12,0,0,0-3,1.79s-.33.53.47,0a5.87,5.87,0,0,1,2.52-.53S71.62,84.75,70.16,84.07Z"/><path class="cls-2" d="M72.33,88.11A1,1,0,0,0,72,89.73a8.17,8.17,0,0,1,1,1.56s.5,1.2.91,0,.53-2,1.64-2.41,0-.77,0-.77A4.49,4.49,0,0,0,72.33,88.11Z"/><path class="cls-2" d="M82.24,83.16a6,6,0,0,1,3.11.3c1,.61-.44.79-.44.79s-1.59.23-1.88-.18a1.33,1.33,0,0,0-.94-.43S81.3,83.4,82.24,83.16Z"/></g><g id="dirt_1_s1"><path class="cls-8" d="M48,104.46l7.17-.17s2.16-.05,3-.8,1.71-.3,2.46-.66,3.26-2.11,3.26-2.11a1.65,1.65,0,0,1,1.45-.61c1,0,1.42-.1,1.45-1.19.06-2.11-2.86-4.44-2.86-4.44L52.3,84.05s-2.37-2.46-5.36-1.62-2.86,2.59-3,3-.71,3.48-3,4.22-4.45,1.15-6,3.13-1.1,2-2.06,2.68-1,1.23-.84,1.58,1.58,2.07,4.93,2.77l1,1.85a5,5,0,0,0,4.18,2.77C45.13,104.59,48,104.46,48,104.46Z"/><path class="cls-9" d="M62.6,98.26a7.45,7.45,0,0,1-2.86-4.75S58.29,91,56.92,91.4,56.09,94,56.09,94A7.34,7.34,0,0,0,53,92.72l1.67-.09a1.36,1.36,0,0,1,.83-1l-3.25-4.88s-2.77-3.61-5.1-3.39-2.42.53-2.42.53l-.49.45a4.18,4.18,0,0,0-.3,1.13c-.14.44-.71,3.48-3,4.22a19.44,19.44,0,0,0-4.43,1.71l-1.12,1a11.09,11.09,0,0,0-1,3.34c.08,1-2.29.53-2.29.53a1.74,1.74,0,0,0,.1,1.09A6.32,6.32,0,0,0,34.1,98.8l.08,0a20,20,0,0,0,2.82.84s.26-1.54.75-.44,1.38,2.61,1.28,3.9a4.74,4.74,0,0,0,3.11,1.33c1,.05,2,.06,2.83.06a12.63,12.63,0,0,1,3.68-.85c1.76,0,5.46-3.08,5.46-3.08s2.11-1-.31-2.61-5-3.72-8-3.63a7.07,7.07,0,0,0-4.57,1.49,9.26,9.26,0,0,1-1.94.75,29.58,29.58,0,0,1,5.06-2.68,10.43,10.43,0,0,1,4.75,0l7.26,2.72s3.69,1.19,4.44,3c0,0,1.41.62,2.07,0S62.9,98.48,62.6,98.26Z"/><path class="cls-9" d="M62.64,94.65s-.88-1.22-.84-.63.11,2.22,1.35,2.22,1,.09.76-.31A8.37,8.37,0,0,0,62.64,94.65Z"/><path class="cls-2" d="M46.29,89.54c-1.36-.35-.76-1.85-.47-2.35s.62.27.38-.64S44,86,43.78,86.07c-.3,1.05-1,3-2.82,3.61A27.45,27.45,0,0,0,37.18,91l-1.27,1a3.53,3.53,0,0,0,2.17,0c1.41-.35,3.34-1.61,6.37-1.11s2.87,0,2.87,0S47.64,89.89,46.29,89.54Z"/><path class="cls-2" d="M38.64,93.94a3.1,3.1,0,0,0-3,1.78s-.32.53.47,0a6,6,0,0,1,2.52-.52S40.11,94.61,38.64,93.94Z"/><path class="cls-2" d="M40.81,98a1,1,0,0,0-.35,1.61,8.17,8.17,0,0,1,1,1.56s.5,1.2.91,0,.53-2,1.64-2.41,0-.76,0-.76A4.49,4.49,0,0,0,40.81,98Z"/><path class="cls-2" d="M50.72,93a5.92,5.92,0,0,1,3.11.29c1,.62-.44.79-.44.79s-1.59.23-1.88-.18a1.3,1.3,0,0,0-.94-.42S49.78,93.26,50.72,93Z"/></g><g id="bulldozer_s1"><polygon class="opacity-30" points="166.98 111.69 177.96 106.07 204.25 115.77 189.49 122.95 166.98 111.69"/><path class="cls-11" d="M194.43,107.71l-5.07-2.54,0,5.92,5.41,2.71c1.38.73,2.6.15,2.78-.41C198.07,111.65,196.8,108.84,194.43,107.71Z"/><polygon class="cls-12" points="192.12 110.93 193.08 111.41 193.91 110.99 193.01 110.42 192.12 110.93"/><path class="cls-13" d="M193.08,111.41v.72l.76-.41c.24-.16.07-.73.07-.73Z"/><ellipse class="cls-14" cx="192.59" cy="111.54" rx="0.48" ry="0.77" transform="translate(-26.64 149.92) rotate(-40.01)"/><polygon class="cls-14" points="190.98 107.79 190.98 110.11 194.03 111.62 194.03 109.32 190.98 107.79"/><polygon class="cls-15" points="194.03 109.32 194.03 111.62 195.76 110.52 195.73 108.37 194.03 109.32"/><polygon class="cls-16" points="190.98 107.79 192.65 106.81 195.73 108.37 194.03 109.32 190.98 107.79"/><polygon class="cls-12" points="194.6 109.36 197.27 110.7 199.56 109.52 197.08 107.93 194.6 109.36"/><path class="cls-13" d="M197.27,110.7v2l2.12-1.13c.67-.46.17-2,.17-2Z"/><ellipse class="cls-14" cx="195.89" cy="111.06" rx="1.34" ry="2.13" transform="translate(-25.55 151.93) rotate(-40.01)"/><polygon class="cls-12" points="192.12 107.09 193.08 107.58 193.91 107.15 193.01 106.58 192.12 107.09"/><path class="cls-13" d="M193.08,107.58v.71l.76-.41c.24-.16.07-.73.07-.73Z"/><ellipse class="cls-14" cx="192.59" cy="107.7" rx="0.48" ry="0.77" transform="translate(-24.17 149.02) rotate(-40.01)"/><path class="cls-17" d="M198.29,105.64,193,103l-3.63,1.65v.41l5.11,2.56c2.25,1.24,3.57,3.64,3.11,5.77a1.4,1.4,0,0,1-.38.49l3-1.56a2.5,2.5,0,0,0,1.32-1.38C202.05,109.4,200.59,106.82,198.29,105.64Z"/><path class="cls-18" d="M194.47,107.63l-5.11-2.56v.1l5.07,2.54c2.37,1.13,3.64,3.94,3.08,5.68-.18.56-1.4,1.14-2.78.41l-5.41-2.71v.08l5.37,2.7c.8.5,2.58.49,2.89-.47C198.22,111.4,196.74,108.71,194.47,107.63Z"/><path class="cls-19" d="M201.55,111a2.52,2.52,0,0,0,.09-.56l-4,1.94a4.79,4.79,0,0,1-.1,1.07,1.4,1.4,0,0,1-.38.49l3-1.56A2.5,2.5,0,0,0,201.55,111Z"/><polygon class="cls-18" points="189.78 105.17 193.37 103.38 193.53 103.45 189.95 105.24 189.78 105.17"/><polygon class="cls-18" points="192.51 106.55 196.09 104.76 196.26 104.83 192.68 106.62 192.51 106.55"/><polygon class="cls-18" points="191.61 106.1 195.19 104.31 195.35 104.38 191.78 106.17 191.61 106.1"/><polygon class="cls-18" points="190.69 105.64 194.27 103.85 194.44 103.92 190.86 105.71 190.69 105.64"/><polygon class="cls-18" points="193.45 106.99 197.03 105.2 197.2 105.27 193.62 107.06 193.45 106.99"/><polygon class="cls-18" points="194.35 107.48 197.93 105.69 198.1 105.76 194.52 107.55 194.35 107.48"/><polygon class="cls-18" points="195.2 107.96 198.78 106.17 198.95 106.24 195.37 108.04 195.2 107.96"/><polygon class="cls-18" points="195.98 108.51 199.53 106.74 199.65 106.83 196.12 108.6 195.98 108.51"/><polygon class="cls-18" points="196.55 109.14 200.12 107.36 200.22 107.46 196.65 109.25 196.55 109.14"/><polygon class="cls-18" points="197.03 109.78 200.62 108 200.69 108.11 197.18 109.93 197.03 109.78"/><polygon class="cls-18" points="197.41 110.48 200.92 108.74 200.99 108.85 197.49 110.66 197.41 110.48"/><polygon class="cls-18" points="197.68 111.33 201.26 109.55 201.29 109.72 197.75 111.48 197.68 111.33"/><polygon class="cls-18" points="197.89 112.1 201.47 110.31 201.48 110.46 197.89 112.26 197.89 112.1"/><polygon class="cls-18" points="197.89 113.03 201.27 111.35 201.07 111.64 197.83 113.26 197.89 113.03"/><polygon class="cls-15" points="180.41 100.07 180.41 108.55 187.6 110.83 187.6 96.69 180.41 100.07"/><ellipse class="cls-20" cx="192.16" cy="104.55" rx="0.55" ry="0.33" transform="translate(21.79 241.77) rotate(-67.4)"/><polygon class="cls-20" points="191.95 105.06 192.37 104.04 195.93 105.55 195.5 106.57 191.95 105.06"/><polygon class="cls-14" points="181.4 102.22 189.62 106.26 189.62 113.13 181.41 108.64 181.4 102.22"/><polygon class="cls-15" points="189.62 106.26 194.63 103.78 194.63 110.41 189.62 113.13 189.62 106.26"/><polygon class="cls-14" points="173.18 96.53 180.41 100.07 180.41 108.55 173.18 104.72 173.18 96.53"/><polygon class="cls-14" points="173.03 95.24 173.03 96.46 180.55 100.16 180.55 98.98 173.03 95.24"/><polygon class="cls-15" points="187.74 95.39 187.74 96.62 180.55 100.16 180.55 98.98 187.74 95.39"/><polygon class="cls-11" points="190.05 106.54 194.22 104.45 194.22 110.29 190.05 112.36 190.05 106.54"/><polygon class="cls-21" points="190.05 107.73 194.22 105.61 194.22 105.84 190.05 107.96 190.05 107.73"/><polygon class="cls-21" points="190.05 108.19 194.22 106.07 194.22 106.3 190.05 108.42 190.05 108.19"/><polygon class="cls-21" points="190.05 108.66 194.22 106.54 194.22 106.77 190.05 108.89 190.05 108.66"/><polygon class="cls-21" points="190.05 109.12 194.22 107 194.22 107.23 190.05 109.35 190.05 109.12"/><polygon class="cls-21" points="190.05 109.59 194.22 107.47 194.22 107.71 190.05 109.82 190.05 109.59"/><polygon class="cls-21" points="190.05 110.05 194.22 107.93 194.22 108.17 190.05 110.28 190.05 110.05"/><polygon class="cls-21" points="190.05 110.53 194.22 108.4 194.22 108.64 190.05 110.75 190.05 110.53"/><polygon class="cls-21" points="190.05 110.98 194.22 108.86 194.22 109.1 190.05 111.21 190.05 110.98"/><polygon class="cls-21" points="190.05 111.46 194.22 109.33 194.22 109.57 190.05 111.69 190.05 111.46"/><polygon class="cls-21" points="190.05 111.92 194.22 109.79 194.22 110.03 190.05 112.14 190.05 111.92"/><ellipse class="cls-22" cx="190.48" cy="106.88" rx="0.39" ry="0.25" transform="translate(-19.78 165.99) rotate(-45)"/><ellipse class="cls-23" cx="190.58" cy="106.78" rx="0.16" ry="0.11" transform="translate(-19.69 166.04) rotate(-45)"/><ellipse class="cls-22" cx="193.76" cy="105.22" rx="0.39" ry="0.25" transform="translate(-17.65 167.83) rotate(-45)"/><ellipse class="cls-23" cx="193.86" cy="105.12" rx="0.16" ry="0.11" transform="translate(-17.55 167.87) rotate(-45)"/><polygon class="cls-24" points="180.41 100.07 180.41 100.23 187.6 96.83 187.6 96.69 180.41 100.07"/><polygon class="cls-25" points="187.26 96.99 187.26 100.54 181.08 100.47 181.09 99.91 187.26 96.99"/><polygon class="cls-26" points="181.08 100.47 187.26 100.54 181.09 102.38 181.08 100.47"/><polygon class="cls-16" points="181.4 102.22 186.5 99.65 194.63 103.78 189.62 106.26 181.4 102.22"/><polygon class="cls-15" points="173.18 96.53 173.18 96.69 180.41 100.23 180.41 100.07 173.18 96.53"/><path class="cls-11" d="M167.21,107.94c.09-1.35,1-1.8,2.91-1.08l13,6.5c2.38,1.13,3.64,3.94,3.09,5.69-.18.56-1.41,1.14-2.79.41l-13.34-6.69A5.36,5.36,0,0,1,167.21,107.94Z"/><polygon class="cls-12" points="168.07 107.86 170.73 109.19 173.03 108.01 170.55 106.42 168.07 107.86"/><path class="cls-13" d="M170.73,109.19v2l2.12-1.13c.68-.46.18-2,.18-2Z"/><ellipse class="cls-14" cx="169.36" cy="109.55" rx="1.34" ry="2.13" transform="translate(-30.79 134.52) rotate(-40.01)"/><polygon class="cls-12" points="180.79 116.59 181.75 117.07 182.58 116.64 181.69 116.07 180.79 116.59"/><path class="cls-13" d="M181.76,117.07v.72l.76-.41c.24-.17.06-.74.06-.74Z"/><ellipse class="cls-14" cx="181.26" cy="117.2" rx="0.48" ry="0.77" transform="translate(-32.92 143.96) rotate(-40.01)"/><polygon class="cls-12" points="177.9 115.15 178.85 115.63 179.68 115.2 178.79 114.63 177.9 115.15"/><path class="cls-13" d="M178.85,115.63v.72l.77-.41c.24-.17.06-.74.06-.74Z"/><ellipse class="cls-14" cx="178.36" cy="115.76" rx="0.48" ry="0.77" transform="translate(-32.68 141.76) rotate(-40.01)"/><polygon class="cls-12" points="174.94 113.75 175.9 114.23 176.72 113.8 175.83 113.23 174.94 113.75"/><path class="cls-13" d="M175.9,114.23v.71l.76-.4c.24-.17.06-.74.06-.74Z"/><ellipse class="cls-14" cx="175.4" cy="114.36" rx="0.48" ry="0.77" transform="translate(-32.47 139.53) rotate(-40.01)"/><polygon class="cls-12" points="172.14 112.26 173.1 112.75 173.93 112.32 173.03 111.75 172.14 112.26"/><path class="cls-13" d="M173.1,112.74v.72l.76-.41c.25-.16.07-.73.07-.73Z"/><ellipse class="cls-14" cx="172.61" cy="112.87" rx="0.48" ry="0.77" transform="translate(-32.17 137.38) rotate(-40.01)"/><polygon class="cls-14" points="171.22 109.22 171.22 111.53 182.71 117.27 182.71 114.97 171.22 109.22"/><polygon class="cls-15" points="182.71 114.97 182.71 117.27 184.43 116.18 184.41 114.03 182.71 114.97"/><polygon class="cls-16" points="171.22 109.22 172.88 108.23 184.41 114.03 182.71 114.97 171.22 109.22"/><polygon class="cls-12" points="183.28 115.02 185.94 116.36 188.24 115.17 185.76 113.58 183.28 115.02"/><path class="cls-13" d="M185.94,116.36v2l2.12-1.13c.68-.46.18-2,.18-2Z"/><ellipse class="cls-14" cx="184.57" cy="116.71" rx="1.34" ry="2.13" transform="translate(-31.84 145.97) rotate(-40.01)"/><polygon class="cls-12" points="172.1 108.43 173.06 108.91 173.88 108.48 172.99 107.91 172.1 108.43"/><path class="cls-13" d="M173.06,108.91v.71l.76-.4c.24-.17.06-.74.06-.74Z"/><ellipse class="cls-14" cx="172.56" cy="109.03" rx="0.48" ry="0.77" transform="matrix(0.77, -0.64, 0.64, 0.77, -29.71, 136.46)"/><polygon class="cls-12" points="175 109.84 175.96 110.32 176.79 109.89 175.9 109.32 175 109.84"/><path class="cls-13" d="M176,110.32V111l.77-.41c.24-.16.06-.73.06-.73Z"/><ellipse class="cls-14" cx="175.47" cy="110.45" rx="0.48" ry="0.77" transform="translate(-29.94 138.66) rotate(-40.01)"/><polygon class="cls-12" points="177.96 111.33 178.92 111.81 179.75 111.38 178.85 110.81 177.96 111.33"/><path class="cls-13" d="M178.92,111.81v.71l.76-.41c.24-.16.07-.73.07-.73Z"/><ellipse class="cls-14" cx="178.42" cy="111.93" rx="0.48" ry="0.77" transform="translate(-30.2 140.9) rotate(-40.01)"/><polygon class="cls-12" points="180.79 112.75 181.75 113.23 182.58 112.81 181.69 112.23 180.79 112.75"/><path class="cls-13" d="M181.76,113.23V114l.76-.41c.24-.16.06-.74.06-.74Z"/><ellipse class="cls-14" cx="181.26" cy="113.36" rx="0.48" ry="0.77" transform="translate(-30.45 143.06) rotate(-40.01)"/><path class="cls-17" d="M167.9,106.56l3.84-1.77a2.42,2.42,0,0,1,2.1,0l13.12,6.5c2.3,1.19,3.76,3.77,3.26,5.32A2.43,2.43,0,0,1,188.9,118l-3,1.56a1.44,1.44,0,0,0,.37-.49c.46-2.14-.86-4.54-3.1-5.78l-13-6.49A3.87,3.87,0,0,0,167.9,106.56Z"/><path class="cls-19" d="M190.22,116.61a2.61,2.61,0,0,0,.1-.57l-4,1.95a4.31,4.31,0,0,1-.1,1.07,1.44,1.44,0,0,1-.37.49l3-1.56A2.43,2.43,0,0,0,190.22,116.61Z"/><path class="cls-18" d="M183.15,113.28l-13-6.49s-2.94-1.36-3.05,1.17a5.51,5.51,0,0,0,2.9,4.87l13.33,6.7c.81.5,2.58.49,2.89-.47C186.9,117.06,185.42,114.37,183.15,113.28Zm3,5.77c-.18.56-1.41,1.14-2.79.41l-13.34-6.69a5.36,5.36,0,0,1-2.85-4.83c.09-1.35,1-1.8,2.91-1.08l13,6.5C185.48,114.49,186.74,117.3,186.19,119.05Z"/><polygon class="cls-18" points="171.09 107.13 174.67 105.35 174.84 105.42 171.26 107.21 171.09 107.13"/><polygon class="cls-18" points="170.18 106.66 173.76 104.87 173.92 104.94 170.34 106.73 170.18 106.66"/><polygon class="cls-18" points="168.91 106.38 172.3 104.69 172.62 104.66 169.14 106.4 168.91 106.38"/><polygon class="cls-18" points="171.99 107.59 175.57 105.8 175.73 105.87 172.16 107.66 171.99 107.59"/><polygon class="cls-18" points="173.86 108.52 177.44 106.73 177.61 106.8 174.03 108.59 173.86 108.52"/><polygon class="cls-18" points="174.76 108.99 178.34 107.21 178.5 107.28 174.93 109.07 174.76 108.99"/><polygon class="cls-18" points="172.94 108.06 176.53 106.28 176.69 106.35 173.11 108.14 172.94 108.06"/><polygon class="cls-18" points="178.46 110.82 182.04 109.04 182.21 109.11 178.63 110.9 178.46 110.82"/><polygon class="cls-18" points="177.5 110.36 181.08 108.58 181.24 108.64 177.66 110.44 177.5 110.36"/><polygon class="cls-18" points="175.69 109.45 179.27 107.66 179.43 107.73 175.86 109.52 175.69 109.45"/><polygon class="cls-18" points="176.59 109.89 180.17 108.11 180.33 108.18 176.75 109.97 176.59 109.89"/><polygon class="cls-18" points="181.19 112.2 184.77 110.42 184.93 110.49 181.35 112.28 181.19 112.2"/><polygon class="cls-18" points="180.28 111.75 183.87 109.97 184.03 110.04 180.45 111.83 180.28 111.75"/><polygon class="cls-18" points="179.37 111.29 182.95 109.51 183.12 109.58 179.54 111.37 179.37 111.29"/><polygon class="cls-18" points="182.13 112.64 185.71 110.86 185.87 110.93 182.3 112.72 182.13 112.64"/><polygon class="cls-18" points="183.03 113.13 186.61 111.35 186.77 111.42 183.2 113.21 183.03 113.13"/><polygon class="cls-18" points="183.88 113.61 187.46 111.83 187.62 111.9 184.05 113.69 183.88 113.61"/><polygon class="cls-18" points="184.65 114.17 188.21 112.39 188.33 112.49 184.8 114.25 184.65 114.17"/><polygon class="cls-18" points="185.22 114.8 188.8 113.02 188.9 113.12 185.33 114.91 185.22 114.8"/><polygon class="cls-18" points="185.71 115.44 189.29 113.65 189.36 113.77 185.85 115.58 185.71 115.44"/><polygon class="cls-18" points="186.08 116.14 189.59 114.39 189.67 114.51 186.16 116.32 186.08 116.14"/><polygon class="cls-18" points="186.35 116.99 189.93 115.2 189.97 115.38 186.42 117.14 186.35 116.99"/><polygon class="cls-18" points="186.57 117.75 190.15 115.97 190.16 116.12 186.57 117.92 186.57 117.75"/><polygon class="cls-18" points="186.57 118.69 189.94 117 189.75 117.29 186.5 118.92 186.57 118.69"/><ellipse class="cls-20" cx="186.58" cy="107.1" rx="0.55" ry="0.33" transform="translate(-21.08 163.3) rotate(-45)"/><polygon class="cls-20" points="186.19 107.49 186.97 106.71 189.68 109.47 188.9 110.24 186.19 107.49"/><ellipse class="cls-27" cx="189.29" cy="109.85" rx="0.55" ry="0.33" transform="translate(-22.24 166.02) rotate(-45)"/><ellipse class="cls-28" cx="189.31" cy="109.88" rx="0.33" ry="0.21" transform="translate(-22.24 166.05) rotate(-45)"/><polygon class="cls-28" points="189.55 109.64 191.61 111.75 191.15 112.19 189.08 110.11 189.55 109.64"/><polygon class="cls-14" points="189.69 119.26 189.69 120.62 175.51 113.69 175.51 112.22 189.69 119.26"/><polygon class="cls-16" points="189.69 118.78 189.69 119.26 175.51 112.22 175.93 111.96 189.69 118.78"/><polygon class="cls-14" points="183.23 115.56 184.09 115.02 184.09 116.18 183.23 115.75 183.23 115.56"/><polygon class="cls-15" points="184.09 115.02 184.24 114.96 184.24 116.08 184.09 116.18 184.09 115.02"/><polygon class="cls-14" points="183.82 115.25 189.62 114.62 189.62 115.57 183.82 116.2 183.82 115.25"/><polygon class="cls-14" points="182.94 115.71 183.79 115.17 183.79 116.33 182.94 115.91 182.94 115.71"/><polygon class="cls-15" points="183.79 115.17 183.95 115.11 183.95 116.23 183.79 116.33 183.79 115.17"/><polygon class="cls-14" points="189.49 113.68 191.44 114.71 191.44 122.85 189.49 121.87 189.49 113.68"/><polygon class="cls-29" points="189.49 121.87 189.49 122.95 192.38 124.41 191.44 122.85 189.49 121.87"/><polygon class="cls-30" points="191.44 114.71 192.8 112.36 192.8 120.5 191.44 122.85 191.44 114.71"/><polygon class="cls-31" points="192.8 112.36 202.03 107.76 202.03 115.86 192.8 120.5 192.8 112.36"/><polygon class="cls-30" points="202.03 107.76 206.76 107.08 206.76 115.2 202.03 115.86 202.03 107.76"/><polygon class="cls-32" points="192.8 120.5 193.73 122.02 192.38 124.41 191.44 122.85 192.8 120.5"/><polygon class="cls-33" points="192.8 120.5 193.73 122.02 202.99 117.38 202.03 115.86 192.8 120.5"/><polygon class="cls-32" points="202.03 115.86 206.76 115.2 207.75 116.76 202.99 117.38 202.03 115.86"/><polygon class="cls-16" points="189.49 113.68 191.44 114.71 192.8 112.36 202.03 107.76 206.76 107.08 204.76 106.07 200.56 107.21 191.62 111.64 189.49 113.68"/><path class="cls-24" d="M174.32,97.34l1.87.94a.38.38,0,0,1,.2.33v3a.32.32,0,0,1-.45.28l-1.78-1a.36.36,0,0,1-.22-.35v-3A.28.28,0,0,1,174.32,97.34Z"/><path class="cls-25" d="M174.33,97.5l1.79.92a.24.24,0,0,1,.14.23v2.85a.22.22,0,0,1-.33.2l-1.73-.91a.29.29,0,0,1-.14-.24V97.66A.18.18,0,0,1,174.33,97.5Z"/><path class="cls-34" d="M176.12,98.42h0l-1.79-.92a.18.18,0,0,0-.27.16v2.89a.43.43,0,0,0,0,0Z"/><path class="cls-24" d="M177.66,99l1.87,1a.41.41,0,0,1,.2.33v5.44a.32.32,0,0,1-.45.28l-1.78-1a.36.36,0,0,1-.22-.35V99.26A.29.29,0,0,1,177.66,99Z"/><path class="cls-26" d="M177.67,99.16l1.78.92a.25.25,0,0,1,.15.23v5.29a.23.23,0,0,1-.34.2l-1.72-.91a.27.27,0,0,1-.14-.24V99.33A.19.19,0,0,1,177.67,99.16Z"/><path class="cls-25" d="M177.54,104.89h0l2-.72v-3.86a.25.25,0,0,0-.15-.23l-1.78-.92a.19.19,0,0,0-.27.17v5.32A.27.27,0,0,0,177.54,104.89Z"/><polygon class="cls-35" points="186.68 96.18 187.6 95.68 187.6 96.3 186.68 96.79 186.68 96.18"/><polygon class="cls-35" points="181.65 98.7 181.65 99.27 180.71 99.73 180.71 99.14 181.65 98.7"/><polygon class="cls-36" points="173.03 95.24 180.26 91.65 187.74 95.39 180.55 98.98 173.03 95.24"/><path class="cls-37" d="M180.86,106.45h.47v.71c0,.18.15.37.22.37a.66.66,0,0,0,.29,0c.09,0,.15,0,.21,0a.29.29,0,0,1,.07.35.54.54,0,0,1-.19.1.87.87,0,0,1-.58,0,.88.88,0,0,1-.49-.72Z"/><rect class="cls-38" x="180.43" y="100.17" width="1.3" height="6.13"/><ellipse class="cls-37" cx="181.08" cy="100.17" rx="0.65" ry="0.23"/><ellipse class="cls-39" cx="181.08" cy="100.17" rx="0.44" ry="0.18"/><rect class="cls-37" x="180.85" y="96.4" width="0.48" height="3.96"/><ellipse class="cls-37" cx="181.09" cy="96.4" rx="0.24" ry="0.11"/><ellipse class="cls-38" cx="181.08" cy="106.3" rx="0.65" ry="0.23"/></g><g id="dirt_4_s1"><path class="cls-8" d="M199.5,123.67l3.8-1.31s1.14-.39,1.44-.93.86-.45,1.2-.77,1.38-1.68,1.38-1.68a.93.93,0,0,1,.67-.58c.55-.15.74-.3.57-.88-.33-1.14-2.28-1.89-2.28-1.89l-1.73-.63a4.38,4.38,0,0,0-3.33.39,7.73,7.73,0,0,0-2.55,2.35c0,.26-1.67.27-2.76,1.06s-2.18,1.37-2.66,2.69-.25,1.25-.65,1.79-.31.82-.18,1,0,.48,1.86.28l.45.16s0,.4,1.65,0S199.5,123.67,199.5,123.67Z"/><path class="cls-9" d="M206.35,119.22a2.34,2.34,0,0,1-1.62-.36,2.31,2.31,0,0,0-1.42.12c-.58.32-.19.61-.19.61a6.75,6.75,0,0,0-1.47.33l.75-.32a6.61,6.61,0,0,1,1-1.07l-1.65-.31s-1.51-1-2.53-.49a3,3,0,0,1-1.11.56,2.25,2.25,0,0,0-.5.07,2.57,2.57,0,0,0-.68.3c-.3.17-.45.25-.67.39-.85.54-1.19.91-1.59,1.13-.68.38-.5,1.28-1,1.66l-.42.39s-.31.62-.2.78-.43,1.27-.43,1.27,0,.12.12.18a4.12,4.12,0,0,0,.93-.07h0c.82-.2,1.21-.13,1.32-.35s0-.18.11-.22a.25.25,0,0,1,.19,0,8.62,8.62,0,0,1,.86.48c.13.06.31.11,1.49-.31.33-.11.76-.28,1.27-.49a13,13,0,0,1,1.59-.81,12.89,12.89,0,0,0,2.22-1.54s.88-.56-.32-.42a14.06,14.06,0,0,0-3.85.77,7.08,7.08,0,0,0-1.95,1.09c-.41.27-.81.48-.81.48s1.24-.92,2.07-1.39a12.67,12.67,0,0,1,2.13-.85l3.45-.8a6.53,6.53,0,0,1,2.21-.24,2.75,2.75,0,0,0,.93-.36C206.83,119.2,206.51,119.2,206.35,119.22Z"/><path class="cls-9" d="M207.38,117.25a16.43,16.43,0,0,0-2.25.73,4.17,4.17,0,0,0,2.42.12c.08,0,.43-.14.42-.18s-.05,0-.1,0,0-.52-.12-.66S207.6,117.17,207.38,117.25Z"/><path class="cls-9" d="M203.54,116.23c-.78.33-1.69.71-1.64,1s1.36.54,2.42.12a6.17,6.17,0,0,0,1.77-1.38h0A4.7,4.7,0,0,0,203.54,116.23Z"/><path class="cls-2" d="M198.41,120.54c-.63.18-.47-.2-.38-.35s.19-.09.19-.11-.05-.07-.06-.07-.54-.07-1.12.34-.61.74-1,1.16a3.33,3.33,0,0,1-1.59.92c-.25.16-.53.36-.5.4s.24,0,1-.39a24.3,24.3,0,0,1,2.77-1.33c1.39-.45,1.29-.52,1.29-.52S199,120.36,198.41,120.54Z"/><path class="cls-2" d="M195.3,122.7s-1,.34-1.21.86c0,0-.11.15.21-.09a7.27,7.27,0,0,1,1.09-.54S196,122.56,195.3,122.7Z"/><path class="cls-2" d="M196.57,123.05s-.49.32,0,.36a2.86,2.86,0,0,1,.59.09s.31.13.41-.16a.93.93,0,0,1,.56-.73c.47-.28-.06-.14-.06-.14A5.07,5.07,0,0,0,196.57,123.05Z"/><path class="cls-2" d="M200.65,120.38a6.94,6.94,0,0,1,1.41-.5c.51-.07-.14.22-.14.22a3.67,3.67,0,0,1-.85.31,1.1,1.1,0,0,0-.45.09S200.25,120.59,200.65,120.38Z"/></g><path class="cls-40" d="M173.68,25.81s.54-4.58,4.91-2.56a1.87,1.87,0,0,1,2.43,1s3,1.06,1.72,4.64c0,0,2.15,2.74-.92,4.15,0,0-1.47,2.37-4.67.78a3.11,3.11,0,0,1-4.45-.76,3.6,3.6,0,0,1-.69-3.82S171,26.5,173.68,25.81Z"/><path class="cls-41" d="M181.91,32.93A4.27,4.27,0,0,1,176,31.69a2.49,2.49,0,0,0,.41,1.66c-3.6.91-4.58-2.94-4.58-2.94l-.06,0a3.73,3.73,0,0,0,.95,2.65,3.11,3.11,0,0,0,4.45.76c3.2,1.59,4.67-.78,4.67-.78l.12-.05Z"/><path class="cls-41" d="M182.54,31.66a1.32,1.32,0,0,0,.91-.74,2.6,2.6,0,0,1-1.1,1.83S182.85,32.12,182.54,31.66Z"/><path class="cls-41" d="M182.11,28.7s.82-.35.89-.72a8.69,8.69,0,0,1-.45,1.52A1.36,1.36,0,0,0,182.11,28.7Z"/><path class="cls-42" d="M172.55,27.68s2.22-.89,3.06.89c0,0,.33.19.76-.2C176.37,28.37,175.18,24.66,172.55,27.68Z"/><path class="cls-42" d="M177,24.29s1.81.32,1.68,1.63a2.29,2.29,0,0,1,2.69,1.45s.5-2.93-2.28-2.06C179.09,25.31,179.17,23.38,177,24.29Z"/><path class="cls-42" d="M178.94,30.13s1.19-1.54,3.41-.35a2.47,2.47,0,0,0-3.78-.69,2,2,0,0,0-2.85,1.41S177.57,29.07,178.94,30.13Z"/><path class="cls-40" d="M176.23,64.86s.63-5.4,5.77-3a2.21,2.21,0,0,1,2.86,1.21s3.5,1.24,2,5.46c0,0,2.53,3.22-1.07,4.88,0,0-1.74,2.78-5.5.92,0,0-2.68,2.13-5.23-.89a4.25,4.25,0,0,1-.82-4.5S173.06,65.67,176.23,64.86Z"/><path class="cls-41" d="M185.91,73.24c-4.6,2.45-7-1.46-7-1.46a2.92,2.92,0,0,0,.49,1.94c-4.24,1.08-5.39-3.45-5.39-3.45l-.08,0a4.45,4.45,0,0,0,1.13,3.13c2.55,3,5.23.89,5.23.89,3.76,1.86,5.5-.92,5.5-.92l.13-.06Z"/><path class="cls-41" d="M186.65,71.74a1.56,1.56,0,0,0,1.07-.87,3,3,0,0,1-1.3,2.15S187,72.28,186.65,71.74Z"/><path class="cls-41" d="M186.14,68.25s1-.4,1.05-.84a11.14,11.14,0,0,1-.53,1.79A1.64,1.64,0,0,0,186.14,68.25Z"/><path class="cls-42" d="M174.9,67.05s2.6-1,3.6,1c0,0,.38.23.89-.23C179.39,67.87,178,63.5,174.9,67.05Z"/><path class="cls-42" d="M180.13,63.07s2.13.38,2,1.91a2.71,2.71,0,0,1,3.17,1.72s.59-3.45-2.68-2.43C182.59,64.27,182.69,62,180.13,63.07Z"/><path class="cls-42" d="M182.41,69.94s1.4-1.81,4-.41a2.92,2.92,0,0,0-4.45-.82s-2.3-1.09-3.34,1.66C178.63,70.37,180.8,68.69,182.41,69.94Z"/><path class="cls-40" d="M270,58.68s.55-4.59,4.91-2.57a1.89,1.89,0,0,1,2.44,1s3,1.06,1.71,4.64c0,0,2.15,2.74-.91,4.15,0,0-1.48,2.37-4.67.78A3.12,3.12,0,0,1,269,66a3.62,3.62,0,0,1-.7-3.82S267.31,59.37,270,58.68Z"/><path class="cls-41" d="M278.24,65.8a4.27,4.27,0,0,1-5.93-1.24,2.48,2.48,0,0,0,.41,1.65c-3.61.91-4.58-2.93-4.58-2.93h-.07A3.75,3.75,0,0,0,269,66a3.12,3.12,0,0,0,4.45.76c3.19,1.59,4.67-.78,4.67-.78l.11-.05Z"/><path class="cls-41" d="M278.87,64.53a1.32,1.32,0,0,0,.91-.74,2.56,2.56,0,0,1-1.11,1.82S279.17,65,278.87,64.53Z"/><path class="cls-41" d="M278.43,61.56s.83-.34.89-.71a9.45,9.45,0,0,1-.44,1.52A1.45,1.45,0,0,0,278.43,61.56Z"/><path class="cls-42" d="M268.88,60.54s2.21-.89,3.06.89c0,0,.32.2.76-.19C272.7,61.24,271.5,57.53,268.88,60.54Z"/><path class="cls-42" d="M273.33,57.16s1.8.32,1.67,1.62a2.3,2.3,0,0,1,2.69,1.46s.5-2.93-2.28-2.06C275.41,58.18,275.5,56.24,273.33,57.16Z"/><path class="cls-42" d="M275.26,63a2.59,2.59,0,0,1,3.41-.35,2.47,2.47,0,0,0-3.78-.69,2,2,0,0,0-2.84,1.41S273.89,61.93,275.26,63Z"/><path class="cls-40" d="M247.16,126.25s.71-6,6.45-3.37c0,0,2.35-.85,3.2,1.34,0,0,3.92,1.4,2.26,6.11,0,0,2.83,3.6-1.2,5.46,0,0-1.94,3.11-6.14,1,0,0-3,2.38-5.86-1a4.76,4.76,0,0,1-.91-5S243.61,127.16,247.16,126.25Z"/><path class="cls-41" d="M258,135.62c-5.14,2.74-7.79-1.63-7.79-1.63a3.2,3.2,0,0,0,.54,2.17c-4.74,1.2-6-3.86-6-3.86l-.09,0a5,5,0,0,0,1.26,3.5c2.85,3.38,5.86,1,5.86,1,4.2,2.08,6.14-1,6.14-1l.15-.07Z"/><path class="cls-41" d="M258.81,133.94a1.73,1.73,0,0,0,1.2-1,3.38,3.38,0,0,1-1.45,2.4S259.21,134.54,258.81,133.94Z"/><path class="cls-41" d="M258.24,130.05s1.09-.46,1.17-1a12.35,12.35,0,0,1-.58,2A1.8,1.8,0,0,0,258.24,130.05Z"/><path class="cls-42" d="M245.67,128.7s2.92-1.17,4,1.18c0,0,.43.25,1-.26C250.7,129.62,249.13,124.73,245.67,128.7Z"/><path class="cls-42" d="M251.53,124.25s2.37.43,2.2,2.14c0,0,2.71-.6,3.54,1.91,0,0,.66-3.85-3-2.71C254.27,125.59,254.38,123.05,251.53,124.25Z"/><path class="cls-42" d="M254.07,131.93s1.57-2,4.49-.45a3.26,3.26,0,0,0-5-.92s-2.57-1.23-3.74,1.86C249.84,132.42,252.27,130.53,254.07,131.93Z"/><path class="cls-40" d="M274.51,122.13s.54-4.58,4.9-2.56a1.88,1.88,0,0,1,2.44,1s3,1.06,1.71,4.65c0,0,2.15,2.73-.91,4.15,0,0-1.48,2.36-4.67.78a3.12,3.12,0,0,1-4.45-.76,3.63,3.63,0,0,1-.7-3.83S271.81,122.83,274.51,122.13Z"/><path class="cls-41" d="M282.74,129.25a4.27,4.27,0,0,1-5.93-1.23,2.48,2.48,0,0,0,.41,1.65c-3.6.91-4.58-2.93-4.58-2.93h-.07a3.83,3.83,0,0,0,1,2.66,3.12,3.12,0,0,0,4.45.76c3.19,1.58,4.67-.78,4.67-.78l.11-.06Z"/><path class="cls-41" d="M283.37,128a1.32,1.32,0,0,0,.91-.74,2.59,2.59,0,0,1-1.11,1.83S283.67,128.44,283.37,128Z"/><path class="cls-41" d="M282.93,125s.83-.35.89-.72a9.45,9.45,0,0,1-.44,1.52A1.44,1.44,0,0,0,282.93,125Z"/><path class="cls-42" d="M273.38,124s2.21-.89,3.06.89c0,0,.32.19.76-.2C277.2,124.69,276,121,273.38,124Z"/><path class="cls-42" d="M277.83,120.61s1.8.33,1.67,1.63a2.29,2.29,0,0,1,2.69,1.45s.5-2.93-2.28-2.06C279.91,121.63,280,119.7,277.83,120.61Z"/><path class="cls-42" d="M279.76,126.45a2.58,2.58,0,0,1,3.41-.34,2.47,2.47,0,0,0-3.78-.7,2,2,0,0,0-2.84,1.41S278.39,125.39,279.76,126.45Z"/></g><g id="fence_front"><g id="barier_left"><polygon class="cls-5" points="45.74 110.88 45.69 121.72 45.05 122.05 45.05 111.24 45.74 110.88"/><polygon class="cls-6" points="44.36 110.88 44.36 121.7 45.05 122.05 45.05 111.24 44.36 110.88"/><path class="cls-7" d="M44.36,110.88l.69-.35.69.35-.69.36Z"/><polygon class="cls-43" points="45 118.11 45.82 118.53 45.82 122.52 45 122.1 45 118.11"/><polygon class="cls-44" points="45 118.11 45.82 117.7 46.63 118.11 45.82 118.53 45 118.11"/><polygon class="cls-45" points="45.82 118.53 46.63 118.11 46.63 122.1 45.82 122.52 45.82 118.53"/><g id="closed"><polygon class="cls-44" points="45.82 119.72 46.63 119.31 63.33 127.82 62.52 128.23 45.82 119.72"/><polygon class="cls-43" points="45.82 119.72 45.82 120.52 62.52 129.03 62.52 128.23 45.82 119.72"/><polygon class="opacity-30" points="45.82 122.52 46.63 122.1 63.34 130.61 62.52 131.03 45.82 122.52"/><polygon class="cls-46" points="48.9 120.46 49.71 120.87 48.5 121.09 47.66 120.66 48.9 120.46"/><polygon class="cls-47" points="46.88 121.07 47.66 120.66 48.5 121.09 47.71 121.49 46.88 121.07"/><polygon class="cls-46" points="51.39 121.73 52.2 122.14 50.98 122.35 50.15 121.93 51.39 121.73"/><polygon class="cls-47" points="49.37 122.33 50.15 121.93 50.98 122.35 50.2 122.76 49.37 122.33"/><polygon class="cls-46" points="53.95 123.03 54.75 123.44 53.54 123.66 52.71 123.23 53.95 123.03"/><polygon class="cls-47" points="51.93 123.64 52.71 123.23 53.54 123.66 52.76 124.06 51.93 123.64"/><polygon class="cls-46" points="56.59 124.38 57.4 124.79 56.19 125 55.35 124.58 56.59 124.38"/><polygon class="cls-47" points="54.57 124.98 55.35 124.58 56.19 125 55.4 125.41 54.57 124.98"/><polygon class="cls-46" points="59.18 125.7 59.99 126.11 58.78 126.33 57.94 125.9 59.18 125.7"/><polygon class="cls-47" points="57.16 126.3 57.94 125.9 58.78 126.33 57.99 126.73 57.16 126.3"/><polygon class="cls-46" points="61.93 127.1 62.73 127.51 61.52 127.72 60.69 127.3 61.93 127.1"/><polygon class="cls-47" points="59.91 127.7 60.69 127.3 61.52 127.72 60.74 128.12 59.91 127.7"/><polygon class="cls-45" points="62.52 128.23 63.33 127.82 63.33 128.62 62.52 129.03 62.52 128.23"/></g></g><g id="barier_right"><g id="close"><polygon class="cls-44" points="63.1 128.53 63.91 128.11 80.61 136.62 79.8 137.04 63.1 128.53"/><polygon class="cls-43" points="63.1 128.53 63.1 129.33 79.8 137.84 79.8 137.04 63.1 128.53"/><polygon class="cls-46" points="79.4 136 80.21 136.41 79 136.63 78.16 136.2 79.4 136"/><polygon class="cls-47" points="77.38 136.61 78.16 136.2 79 136.63 78.21 137.03 77.38 136.61"/><polygon class="cls-46" points="76.56 134.55 77.36 134.96 76.15 135.18 75.32 134.75 76.56 134.55"/><polygon class="cls-47" points="74.54 135.16 75.32 134.75 76.15 135.18 75.37 135.58 74.54 135.16"/><polygon class="cls-46" points="73.74 133.12 74.55 133.53 73.33 133.74 72.5 133.32 73.74 133.12"/><polygon class="cls-47" points="71.72 133.72 72.5 133.32 73.33 133.74 72.55 134.14 71.72 133.72"/><polygon class="cls-46" points="70.89 131.67 71.7 132.08 70.49 132.29 69.65 131.87 70.89 131.67"/><polygon class="cls-47" points="68.87 132.27 69.65 131.87 70.49 132.29 69.7 132.69 68.87 132.27"/><polygon class="cls-46" points="68.12 130.26 68.93 130.67 67.72 130.88 66.88 130.46 68.12 130.26"/><polygon class="cls-47" points="66.1 130.86 66.88 130.46 67.72 130.88 66.93 131.28 66.1 130.86"/><polygon class="cls-46" points="65.3 128.82 66.1 129.23 64.89 129.44 64.06 129.01 65.3 128.82"/><polygon class="cls-47" points="63.28 129.42 64.06 129.01 64.89 129.44 64.11 129.84 63.28 129.42"/><polygon class="opacity-30" points="63.1 131.32 63.92 130.91 80.62 139.42 79.8 139.83 63.1 131.32"/></g><polygon class="cls-43" points="79.8 135.84 80.62 136.26 80.62 140.25 79.8 139.83 79.8 135.84"/><polygon class="cls-44" points="79.8 135.84 80.62 135.43 81.43 135.84 80.62 136.26 79.8 135.84"/><polygon class="cls-45" points="80.62 136.26 81.43 135.84 81.43 139.83 80.62 140.25 80.62 136.26"/></g><g id="fence_1"><polygon class="cls-6" points="8.97 93.02 8.97 103.41 26.19 112.19 26.19 101.79 8.97 93.02"/><path class="cls-5" d="M9,94v.8l17.22,8.77v-.8Z"/><path class="cls-5" d="M9,96.41v.8L26.19,106v-.8Z"/><path class="cls-5" d="M9,98.8v.81l17.22,8.77v-.8Z"/><path class="cls-5" d="M9,101.21v.8l17.22,8.77V110Z"/><path class="cls-7" d="M9,93l17.22,8.77.42-.24L9.39,92.78Z"/><polygon class="cls-5" points="27.58 101.63 27.53 112.47 26.89 112.8 26.89 101.98 27.58 101.63"/><polygon class="cls-6" points="26.19 101.63 26.19 112.44 26.89 112.8 26.89 101.98 26.19 101.63"/><path class="cls-7" d="M26.19,101.63l.7-.36.69.36-.7.35Z"/><polygon class="cls-6" points="27.14 102.27 27.14 112.67 44.35 121.44 44.35 111.04 27.14 102.27"/><path class="cls-5" d="M27.14,103.26v.8l17.21,8.78V112Z"/><path class="cls-5" d="M27.14,105.66v.8l17.21,8.78v-.8Z"/><path class="cls-5" d="M27.14,108.06v.8l17.21,8.78v-.81Z"/><path class="cls-5" d="M27.14,110.46v.8L44.35,120v-.8Z"/><path class="cls-7" d="M27.14,102.27,44.36,111l.41-.24L27.55,102Z"/><polygon class="cls-5" points="82.07 129.39 82.02 140.23 81.38 140.56 81.38 129.75 82.07 129.39"/><polygon class="cls-6" points="80.68 129.39 80.68 140.21 81.38 140.56 81.38 129.75 80.68 129.39"/><path class="cls-7" d="M80.68,129.39l.7-.35.69.35-.69.36Z"/><polygon class="cls-6" points="81.63 130.04 81.63 140.43 98.84 149.21 98.85 138.81 81.63 130.04"/><path class="cls-5" d="M81.63,131v.8l17.22,8.77v-.8Z"/><path class="cls-5" d="M81.63,133.43v.8L98.84,143v-.8Z"/><path class="cls-5" d="M81.63,135.82v.81l17.21,8.77v-.8Z"/><path class="cls-5" d="M81.63,138.23v.8l17.21,8.77V147Z"/><path class="cls-7" d="M81.63,130l17.22,8.77.41-.24L82,129.8Z"/><polygon class="cls-5" points="100.23 138.65 100.18 149.49 99.54 149.82 99.54 139 100.23 138.65"/><polygon class="cls-6" points="98.85 138.65 98.85 149.46 99.54 149.82 99.54 139 98.85 138.65"/><path class="cls-7" d="M98.85,138.65l.69-.36.69.36-.69.35Z"/><polygon class="cls-6" points="99.79 139.29 99.79 149.69 117.01 158.46 117.01 148.06 99.79 139.29"/><path class="cls-5" d="M99.79,140.28v.8L117,149.86v-.8Z"/><path class="cls-5" d="M99.79,142.68v.8L117,152.26v-.8Z"/><path class="cls-5" d="M99.79,145.08v.8L117,154.66v-.81Z"/><path class="cls-5" d="M99.79,147.48v.8L117,157.05v-.79Z"/><path class="cls-7" d="M99.79,139.29,117,148.06l.42-.24-17.22-8.77Z"/><polygon class="cls-5" points="118.4 147.9 118.34 158.74 117.7 159.07 117.7 148.26 118.4 147.9"/><polygon class="cls-6" points="117.01 147.9 117.01 158.72 117.7 159.07 117.7 148.26 117.01 147.9"/><path class="cls-7" d="M117,147.9l.7-.35.69.35-.7.36Z"/><polygon class="cls-6" points="117.95 148.55 117.95 158.94 135.17 167.72 135.18 157.32 117.95 148.55"/><path class="cls-5" d="M118,149.54v.8l17.22,8.77v-.8Z"/><path class="cls-5" d="M118,151.94v.8l17.22,8.77v-.8Z"/><path class="cls-5" d="M118,154.33v.81l17.22,8.77v-.8Z"/><path class="cls-5" d="M118,156.74v.8l17.22,8.77v-.8Z"/><path class="cls-7" d="M118,148.55l17.22,8.77.42-.24-17.22-8.77Z"/><polygon class="cls-5" points="136.56 157.16 136.51 168 135.87 168.33 135.87 157.51 136.56 157.16"/><polygon class="cls-6" points="135.18 157.16 135.18 167.97 135.87 168.33 135.87 157.51 135.18 157.16"/><path class="cls-7" d="M135.18,157.16l.69-.36.69.36-.69.35Z"/><polygon class="cls-6" points="136.12 157.8 136.12 168.2 153.34 176.97 153.34 166.57 136.12 157.8"/><path class="cls-5" d="M136.12,158.79v.8l17.22,8.78v-.8Z"/><path class="cls-5" d="M136.12,161.19v.8l17.22,8.78V170Z"/><path class="cls-5" d="M136.12,163.59v.8l17.22,8.78v-.81Z"/><path class="cls-5" d="M136.12,166v.8l17.22,8.77v-.79Z"/><path class="cls-7" d="M136.12,157.8l17.22,8.77.41-.24-17.22-8.77Z"/><polygon class="cls-5" points="154.72 166.41 154.67 177.25 154.03 177.58 154.03 166.77 154.72 166.41"/><polygon class="cls-6" points="153.34 166.41 153.34 177.23 154.03 177.58 154.03 166.77 153.34 166.41"/><path class="cls-7" d="M153.34,166.41l.69-.35.69.35-.69.36Z"/><polygon class="cls-6" points="154.28 167.06 154.28 177.45 171.5 186.22 171.5 175.83 154.28 167.06"/><path class="cls-5" d="M154.28,168.05v.8l17.22,8.77v-.8Z"/><path class="cls-5" d="M154.28,170.45v.8L171.5,180v-.8Z"/><path class="cls-5" d="M154.28,172.84v.81l17.22,8.77v-.8Z"/><path class="cls-5" d="M154.28,175.25v.8l17.22,8.77V184Z"/><path class="cls-7" d="M154.28,167.06l17.22,8.77.42-.24-17.22-8.77Z"/><polygon class="cls-5" points="172.89 175.67 172.84 186.51 172.2 186.84 172.2 176.02 172.89 175.67"/><polygon class="cls-6" points="171.5 175.67 171.5 186.48 172.2 186.84 172.2 176.02 171.5 175.67"/><path class="cls-7" d="M171.5,175.67l.7-.36.69.36-.69.35Z"/><polygon class="cls-6" points="172.45 176.31 172.45 186.71 189.66 195.48 189.67 185.08 172.45 176.31"/><path class="cls-5" d="M172.45,177.3v.8l17.22,8.78v-.8Z"/><path class="cls-5" d="M172.45,179.7v.8l17.21,8.78v-.8Z"/><path class="cls-5" d="M172.45,182.1v.8l17.21,8.78v-.81Z"/><path class="cls-5" d="M172.45,184.5v.8l17.21,8.77v-.79Z"/><path class="cls-7" d="M172.45,176.31l17.22,8.77.41-.24-17.22-8.77Z"/><polygon class="cls-5" points="191.05 184.92 191 195.76 190.36 196.09 190.36 185.28 191.05 184.92"/><polygon class="cls-6" points="189.67 184.92 189.67 195.74 190.36 196.09 190.36 185.28 189.67 184.92"/><path class="cls-7" d="M189.67,184.92l.69-.35.69.35-.69.36Z"/><polygon class="cls-6" points="190.61 185.57 190.61 195.96 207.83 204.74 207.83 194.34 190.61 185.57"/><path class="cls-5" d="M190.61,186.56v.8l17.22,8.77v-.8Z"/><path class="cls-5" d="M190.61,189v.8l17.22,8.77v-.8Z"/><path class="cls-5" d="M190.61,191.35v.81l17.22,8.77v-.8Z"/><path class="cls-5" d="M190.61,193.76v.8l17.22,8.77v-.8Z"/><path class="cls-7" d="M190.61,185.57l17.22,8.77.42-.24L191,185.33Z"/></g><g id="fence_2"><polygon class="cls-5" points="389.8 102.16 389.75 113 389.11 113.33 389.11 102.52 389.8 102.16"/><polygon class="cls-6" points="388.42 102.16 388.42 112.97 389.11 113.33 389.11 102.52 388.42 102.16"/><path class="cls-7" d="M388.42,102.16l.69-.35.69.35-.69.35Z"/><polygon class="cls-5" points="388.84 102.8 388.85 113.19 371.69 121.94 371.74 111.51 388.84 102.8"/><path class="cls-6" d="M388.85,103.79v.8l-17.12,8.72v-.8Z"/><path class="cls-6" d="M388.85,106.19v.8l-17.14,8.73v-.81Z"/><path class="cls-6" d="M388.85,108.58v.81l-17.15,8.73v-.8Z"/><path class="cls-6" d="M388.85,111v.8l-17.17,8.74,0-.81Z"/><path class="cls-7" d="M388.84,102.8l-17.1,8.71-.43-.22,17.1-8.71Z"/><polygon class="cls-5" points="371.74 111.35 371.69 122.19 371.04 122.52 371.04 111.71 371.74 111.35"/><polygon class="cls-6" points="370.35 111.35 370.35 122.17 371.04 122.52 371.04 111.71 370.35 111.35"/><path class="cls-7" d="M370.35,111.35l.7-.35.69.35-.7.36Z"/><polygon class="cls-5" points="370.78 112 370.79 122.39 353.63 131.14 353.68 120.71 370.78 112"/><path class="cls-6" d="M370.79,113v.8l-17.12,8.72v-.8Z"/><path class="cls-6" d="M370.79,115.39v.8l-17.14,8.73v-.8Z"/><path class="cls-6" d="M370.79,117.78v.81l-17.15,8.74v-.81Z"/><path class="cls-6" d="M370.79,120.19v.8l-17.17,8.74,0-.8Z"/><path class="cls-7" d="M370.78,112l-17.1,8.71-.43-.22,17.1-8.71Z"/><polygon class="cls-5" points="353.68 120.55 353.63 131.39 352.98 131.72 352.98 120.91 353.68 120.55"/><polygon class="cls-6" points="352.29 120.55 352.29 131.37 352.98 131.72 352.98 120.91 352.29 120.55"/><path class="cls-7" d="M352.29,120.55l.7-.35.69.35-.7.36Z"/><polygon class="cls-5" points="352.73 121.21 352.74 131.61 335.57 140.35 335.63 129.92 352.73 121.21"/><path class="cls-6" d="M352.74,122.2v.8l-17.12,8.72v-.8Z"/><path class="cls-6" d="M352.74,124.6v.8l-17.14,8.73v-.8Z"/><path class="cls-6" d="M352.74,127v.8l-17.15,8.74v-.81Z"/><path class="cls-6" d="M352.74,129.4v.8L335.57,139l0-.81Z"/><path class="cls-7" d="M352.73,121.21l-17.1,8.71-.43-.22L352.3,121Z"/><polygon class="cls-5" points="335.63 129.76 335.57 140.61 334.93 140.93 334.93 130.12 335.63 129.76"/><polygon class="cls-6" points="334.24 129.76 334.24 140.58 334.93 140.93 334.93 130.12 334.24 129.76"/><path class="cls-7" d="M334.24,129.77l.7-.36.69.35-.7.36Z"/><polygon class="cls-5" points="334.66 130.4 334.67 140.8 317.51 149.54 317.56 139.12 334.66 130.4"/><path class="cls-6" d="M334.68,131.39v.8l-17.12,8.73v-.8Z"/><path class="cls-6" d="M334.68,133.79v.8l-17.14,8.74v-.81Z"/><path class="cls-6" d="M334.68,136.19v.8l-17.15,8.74v-.81Z"/><path class="cls-6" d="M334.68,138.59v.8l-17.17,8.75,0-.81Z"/><path class="cls-7" d="M334.66,130.4l-17.1,8.72-.43-.22,17.1-8.72Z"/><polygon class="cls-5" points="317.56 138.96 317.51 149.8 316.87 150.13 316.87 139.31 317.56 138.96"/><polygon class="cls-6" points="316.18 138.96 316.18 149.78 316.87 150.13 316.87 139.31 316.18 138.96"/><path class="cls-7" d="M316.18,139l.69-.35.69.35-.69.35Z"/><polygon class="cls-5" points="316.6 139.61 316.61 150 299.45 158.75 299.5 148.32 316.6 139.61"/><path class="cls-6" d="M316.62,140.6v.8l-17.12,8.72v-.8Z"/><path class="cls-6" d="M316.62,143v.8l-17.14,8.73v-.81Z"/><path class="cls-6" d="M316.62,145.39v.81l-17.15,8.73v-.8Z"/><path class="cls-6" d="M316.62,147.8v.8l-17.17,8.74,0-.81Z"/><path class="cls-7" d="M316.6,139.61l-17.1,8.71-.43-.22,17.1-8.71Z"/><polygon class="cls-5" points="299.5 148.16 299.45 159 298.81 159.33 298.81 148.52 299.5 148.16"/><polygon class="cls-6" points="298.12 148.16 298.12 158.98 298.81 159.33 298.81 148.52 298.12 148.16"/><path class="cls-7" d="M298.12,148.16l.69-.35.69.35-.69.36Z"/><polygon class="cls-5" points="298.55 148.82 298.56 159.21 281.4 167.96 281.45 157.53 298.55 148.82"/><path class="cls-6" d="M298.57,149.81v.8l-17.12,8.72v-.8Z"/><path class="cls-6" d="M298.57,152.21v.8l-17.14,8.73v-.8Z"/><path class="cls-6" d="M298.57,154.6v.81l-17.15,8.73v-.8Z"/><path class="cls-6" d="M298.57,157v.8l-17.17,8.74,0-.8Z"/><path class="cls-7" d="M298.55,148.82l-17.1,8.71-.43-.22,17.1-8.71Z"/><polygon class="cls-5" points="281.45 157.37 281.4 168.21 280.76 168.54 280.76 157.73 281.45 157.37"/><polygon class="cls-6" points="280.07 157.37 280.07 168.19 280.76 168.54 280.76 157.73 280.07 157.37"/><path class="cls-7" d="M280.07,157.37l.69-.35.69.35-.69.36Z"/><polygon class="cls-5" points="280.5 158.02 280.51 168.41 263.35 177.16 263.4 166.73 280.5 158.02"/><path class="cls-6" d="M280.51,159v.8l-17.12,8.72v-.8Z"/><path class="cls-6" d="M280.51,161.41v.8l-17.14,8.73v-.8Z"/><path class="cls-6" d="M280.51,163.8v.81l-17.15,8.73v-.8Z"/><path class="cls-6" d="M280.51,166.21v.8l-17.17,8.74,0-.81Z"/><path class="cls-7" d="M280.5,158l-17.1,8.71-.43-.22,17.1-8.71Z"/><polygon class="cls-5" points="263.4 166.57 263.34 177.41 262.7 177.74 262.7 166.93 263.4 166.57"/><polygon class="cls-6" points="262.01 166.57 262.01 177.39 262.7 177.74 262.7 166.93 262.01 166.57"/><path class="cls-7" d="M262,166.57l.7-.35.69.35-.7.36Z"/><polygon class="cls-5" points="262.44 167.22 262.45 177.62 245.28 186.36 245.34 175.93 262.44 167.22"/><path class="cls-6" d="M262.45,168.21v.8l-17.12,8.72v-.8Z"/><path class="cls-6" d="M262.45,170.61v.8l-17.14,8.73v-.8Z"/><path class="cls-6" d="M262.45,173v.81l-17.15,8.74v-.81Z"/><path class="cls-6" d="M262.45,175.41v.8L245.28,185l0-.81Z"/><path class="cls-7" d="M262.44,167.22l-17.1,8.71-.43-.22L262,167Z"/><polygon class="cls-5" points="245.34 175.77 245.28 186.62 244.64 186.94 244.64 176.13 245.34 175.77"/><polygon class="cls-6" points="243.95 175.77 243.95 186.59 244.64 186.94 244.64 176.13 243.95 175.77"/><path class="cls-7" d="M244,175.77l.7-.35.69.35-.7.36Z"/><polygon class="cls-5" points="244.38 176.42 244.39 186.82 227.22 195.56 227.28 185.13 244.38 176.42"/><path class="cls-6" d="M244.39,177.41v.8l-17.12,8.72v-.8Z"/><path class="cls-6" d="M244.39,179.81v.8l-17.14,8.73v-.8Z"/><path class="cls-6" d="M244.39,182.21v.8l-17.15,8.74v-.81Z"/><path class="cls-6" d="M244.39,184.61v.8l-17.17,8.75,0-.81Z"/><path class="cls-7" d="M244.38,176.42l-17.1,8.71-.43-.22L244,176.2Z"/><polygon class="cls-5" points="227.28 184.97 227.22 195.82 226.58 196.15 226.58 185.33 227.28 184.97"/><polygon class="cls-6" points="225.89 184.98 225.89 195.79 226.58 196.15 226.58 185.33 225.89 184.98"/><path class="cls-7" d="M225.89,185l.7-.36.69.35-.7.36Z"/><polygon class="cls-5" points="226.32 185.62 226.33 196.02 209.16 204.76 209.22 194.34 226.32 185.62"/><path class="cls-6" d="M226.33,186.61v.8l-17.12,8.73v-.81Z"/><path class="cls-6" d="M226.33,189v.8l-17.14,8.73v-.8Z"/><path class="cls-6" d="M226.33,191.41v.8L209.18,201v-.81Z"/><path class="cls-6" d="M226.33,193.81v.8l-17.17,8.75,0-.81Z"/><path class="cls-7" d="M226.32,185.62l-17.1,8.72-.43-.22,17.1-8.72Z"/><polygon class="cls-5" points="209.22 194.18 209.16 205.02 208.52 205.35 208.52 194.53 209.22 194.18"/><polygon class="cls-6" points="207.83 194.18 207.83 204.99 208.52 205.35 208.52 194.53 207.83 194.18"/><path class="cls-7" d="M207.83,194.18l.7-.36.69.36-.7.35Z"/></g></g></g></g></svg>