<svg xmlns="http://www.w3.org/2000/svg" viewBox="0 0 380.83 140.3"><g id="Шар_2"><g><g id="insolution_painting"><ellipse class="cls-1" cx="323.03" cy="58.97" rx="1.86" ry="1.07"/><rect class="cls-1" x="321.17" y="57.59" width="3.72" height="1.38"/><path class="cls-2" d="M323,59c-1,0-1.86-.48-1.86-1.07v.81c0,.59.83,1.07,1.86,1.07a3.4,3.4,0,0,0,.45,0v-.81A3.4,3.4,0,0,1,323,59Z"/><path class="cls-3" d="M324.33,58.19l0,.38s0,.16.16,0c.47-.29.49-.4.49-.59v-.47Z"/><path class="cls-4" d="M324.63,58.14s.59,0,.56-.21a.31.31,0,0,0-.19-.25l.07-.14s.3.21.27.42c0,.39-.71.34-.71.34Z"/><ellipse class="cls-4" cx="324.63" cy="58.22" rx="0.06" ry="0.08"/><ellipse class="cls-3" cx="323.03" cy="57.39" rx="2.07" ry="1.18"/><rect class="cls-3" x="320.96" y="57.15" width="4.13" height="0.24"/><path class="cls-5" d="M325.1,57.15c0,.65-.93,1.17-2.07,1.17S321,57.8,321,57.15,321.89,56,323,56a2.14,2.14,0,0,1,2,.92A.75.75,0,0,1,325.1,57.15Z"/><polygon class="cls-5" points="324.92 56.59 325.05 56.89 321.03 56.85 321.14 56.61 324.92 56.59"/><ellipse class="cls-6" cx="323.03" cy="56.96" rx="1.99" ry="1.17"/><ellipse class="cls-7" cx="323.03" cy="56.96" rx="1.94" ry="1.12"/><path class="cls-8" d="M323,56.05c-1,0-1.82.5-1.82,1.12a.7.7,0,0,0,0,.25,2.69,2.69,0,0,0,3.54,0,.67.67,0,0,0,0-.24C324.85,56.55,324,56.05,323,56.05Z"/><ellipse class="cls-2" cx="323.03" cy="57.08" rx="1.55" ry="0.87"/><ellipse class="cls-1" cx="319.67" cy="60.81" rx="1.86" ry="1.07"/><rect class="cls-1" x="317.81" y="59.43" width="3.72" height="1.38"/><path class="cls-2" d="M319.67,60.79c-1,0-1.86-.48-1.86-1.07v.81c0,.59.83,1.07,1.86,1.07a3.29,3.29,0,0,0,.45,0v-.81A3.29,3.29,0,0,1,319.67,60.79Z"/><path class="cls-3" d="M321,60v.37s0,.16.17.06c.46-.29.48-.41.48-.6V59.4Z"/><path class="cls-4" d="M321.27,60s.59.05.57-.21a.33.33,0,0,0-.2-.25l.08-.14s.29.21.26.42c0,.39-.71.34-.71.34Z"/><ellipse class="cls-4" cx="321.27" cy="60.06" rx="0.06" ry="0.08"/><ellipse class="cls-3" cx="319.67" cy="59.23" rx="2.07" ry="1.18"/><rect class="cls-3" x="317.61" y="58.99" width="4.13" height="0.24"/><path class="cls-5" d="M321.74,59c0,.65-.93,1.17-2.07,1.17s-2.06-.52-2.06-1.17.92-1.18,2.06-1.18a2.14,2.14,0,0,1,2,.92A.75.75,0,0,1,321.74,59Z"/><polygon class="cls-5" points="321.56 58.43 321.69 58.73 317.67 58.7 317.78 58.45 321.56 58.43"/><ellipse class="cls-6" cx="319.67" cy="58.81" rx="1.99" ry="1.17"/><ellipse class="cls-7" cx="319.67" cy="58.8" rx="1.94" ry="1.12"/><path class="cls-8" d="M319.68,57.89c-1,0-1.82.51-1.82,1.12a.7.7,0,0,0,.05.25,2.69,2.69,0,0,0,3.54,0,.67.67,0,0,0,0-.24C321.49,58.4,320.68,57.89,319.68,57.89Z"/><ellipse class="cls-2" cx="319.67" cy="58.92" rx="1.55" ry="0.87"/><ellipse class="cls-1" cx="325.84" cy="60.93" rx="1.86" ry="1.07"/><rect class="cls-1" x="323.98" y="59.56" width="3.72" height="1.38"/><path class="cls-2" d="M325.84,60.91c-1,0-1.86-.48-1.86-1.07v.81c0,.59.83,1.07,1.86,1.07a3.19,3.19,0,0,0,.45,0v-.81A3.19,3.19,0,0,1,325.84,60.91Z"/><path class="cls-3" d="M327.15,60.16l0,.37s0,.17.16.06c.46-.29.49-.41.49-.59v-.48Z"/><path class="cls-4" d="M327.45,60.1s.59,0,.56-.2a.35.35,0,0,0-.19-.26l.07-.13s.29.2.27.41c0,.39-.71.34-.71.34Z"/><ellipse class="cls-4" cx="327.45" cy="60.18" rx="0.06" ry="0.08"/><ellipse class="cls-3" cx="325.85" cy="59.36" rx="2.07" ry="1.18"/><rect class="cls-3" x="323.78" y="59.11" width="4.13" height="0.24"/><path class="cls-5" d="M327.91,59.11c0,.65-.92,1.18-2.06,1.18s-2.07-.53-2.07-1.18.92-1.17,2.07-1.17a2.15,2.15,0,0,1,2,.91A.6.6,0,0,1,327.91,59.11Z"/><polygon class="cls-5" points="327.73 58.55 327.86 58.85 323.84 58.82 323.95 58.58 327.73 58.55"/><ellipse class="cls-6" cx="325.85" cy="58.93" rx="1.99" ry="1.17"/><ellipse class="cls-7" cx="325.85" cy="58.92" rx="1.94" ry="1.12"/><path class="cls-8" d="M325.85,58c-1,0-1.81.5-1.81,1.12a.73.73,0,0,0,0,.25,2.69,2.69,0,0,0,3.55,0,.85.85,0,0,0,0-.23C327.67,58.52,326.85,58,325.85,58Z"/><ellipse class="cls-2" cx="325.84" cy="59.04" rx="1.55" ry="0.87"/><ellipse class="cls-1" cx="322.56" cy="62.65" rx="1.86" ry="1.07"/><rect class="cls-1" x="320.7" y="61.27" width="3.72" height="1.38"/><path class="cls-2" d="M322.56,62.63c-1,0-1.86-.48-1.86-1.07v.81c0,.59.83,1.07,1.86,1.07a3.4,3.4,0,0,0,.45,0V62.6Z"/><path class="cls-3" d="M323.86,61.88l0,.37s0,.16.16.06c.47-.29.49-.41.49-.6v-.47Z"/><path class="cls-4" d="M324.16,61.82s.59,0,.56-.2a.31.31,0,0,0-.19-.26l.07-.14s.3.21.27.42c0,.39-.71.34-.71.34Z"/><ellipse class="cls-4" cx="324.16" cy="61.9" rx="0.06" ry="0.08"/><ellipse class="cls-3" cx="322.56" cy="61.07" rx="2.07" ry="1.18"/><rect class="cls-3" x="320.49" y="60.83" width="4.13" height="0.24"/><path class="cls-5" d="M324.63,60.83c0,.65-.93,1.18-2.07,1.18s-2.07-.53-2.07-1.18.93-1.18,2.07-1.18a2.16,2.16,0,0,1,2,.92A.75.75,0,0,1,324.63,60.83Z"/><polygon class="cls-5" points="324.45 60.27 324.58 60.57 320.56 60.54 320.67 60.3 324.45 60.27"/><ellipse class="cls-6" cx="322.56" cy="60.65" rx="1.99" ry="1.17"/><ellipse class="cls-7" cx="322.56" cy="60.64" rx="1.94" ry="1.12"/><path class="cls-8" d="M322.57,59.74c-1,0-1.82.5-1.82,1.11a.7.7,0,0,0,.05.25,2.66,2.66,0,0,0,3.54,0,.64.64,0,0,0,0-.24C324.38,60.24,323.57,59.74,322.57,59.74Z"/><ellipse class="cls-2" cx="322.56" cy="60.76" rx="1.55" ry="0.87"/><ellipse class="cls-1" cx="322.56" cy="59.19" rx="1.86" ry="1.07"/><rect class="cls-1" x="320.7" y="57.81" width="3.72" height="1.38"/><path class="cls-2" d="M322.56,59.17c-1,0-1.86-.48-1.86-1.07v.81c0,.59.83,1.07,1.86,1.07l.45,0v-.81Z"/><path class="cls-3" d="M323.86,58.42l0,.37s0,.16.16.06c.47-.3.49-.41.49-.6v-.47Z"/><path class="cls-4" d="M324.16,58.36s.59,0,.56-.21a.31.31,0,0,0-.19-.25l.07-.14s.3.21.27.42c0,.39-.71.34-.71.34Z"/><ellipse class="cls-4" cx="324.16" cy="58.44" rx="0.06" ry="0.08"/><ellipse class="cls-3" cx="322.56" cy="57.61" rx="2.07" ry="1.18"/><rect class="cls-3" x="320.49" y="57.37" width="4.13" height="0.24"/><path class="cls-5" d="M324.63,57.37c0,.65-.93,1.17-2.07,1.17s-2.07-.52-2.07-1.17.93-1.18,2.07-1.18a2.14,2.14,0,0,1,2,.92A.75.75,0,0,1,324.63,57.37Z"/><polygon class="cls-5" points="324.45 56.81 324.58 57.11 320.56 57.08 320.67 56.83 324.45 56.81"/><ellipse class="cls-6" cx="322.56" cy="57.19" rx="1.99" ry="1.17"/><ellipse class="cls-7" cx="322.56" cy="57.18" rx="1.94" ry="1.12"/><path class="cls-8" d="M322.57,56.27c-1,0-1.82.51-1.82,1.12a.7.7,0,0,0,.05.25,2.69,2.69,0,0,0,3.54,0,.67.67,0,0,0,0-.24C324.38,56.78,323.57,56.27,322.57,56.27Z"/><ellipse class="cls-2" cx="322.56" cy="57.3" rx="1.55" ry="0.87"/><polygon class="cls-9" points="142.17 84.21 142.79 84.52 152.36 79.65 151.74 79.33 142.17 84.21"/><polygon class="cls-10" points="142.17 84.21 142.17 93.12 142.79 93.43 142.79 84.52 142.17 84.21"/><polygon class="cls-11" points="142.79 84.52 142.79 93.43 152.36 88.56 152.36 79.65 142.79 84.52"/><polygon class="cls-9" points="142.87 84.26 143.5 84.58 153.06 79.7 152.44 79.39 142.87 84.26"/><polygon class="cls-10" points="142.87 84.26 142.87 93.17 143.5 93.49 143.5 84.58 142.87 84.26"/><polygon class="cls-11" points="143.5 84.58 143.5 93.49 153.06 88.61 153.06 79.7 143.5 84.58"/><polygon class="cls-9" points="143.42 84.96 144.04 85.28 153.61 80.4 152.99 80.08 143.42 84.96"/><polygon class="cls-10" points="143.42 84.96 143.42 93.87 144.04 94.19 144.04 85.28 143.42 84.96"/><polygon class="cls-11" points="144.04 85.28 144.04 94.19 153.61 89.31 153.61 80.4 144.04 85.28"/><polygon class="cls-9" points="144.12 85.43 144.74 85.74 154.31 80.87 153.69 80.55 144.12 85.43"/><polygon class="cls-10" points="144.12 85.43 144.12 94.34 144.74 94.65 144.74 85.74 144.12 85.43"/><polygon class="cls-11" points="144.74 85.74 144.74 94.65 154.31 89.78 154.31 80.87 144.74 85.74"/><polygon class="cls-9" points="144.82 85.48 145.45 85.8 155.01 80.92 154.39 80.61 144.82 85.48"/><polygon class="cls-10" points="144.82 85.48 144.82 94.39 145.45 94.71 145.45 85.8 144.82 85.48"/><polygon class="cls-11" points="145.45 85.8 145.45 94.71 155.01 89.83 155.01 80.92 145.45 85.8"/><polygon class="cls-9" points="145.37 86.18 145.99 86.5 155.56 81.62 154.94 81.31 145.37 86.18"/><polygon class="cls-10" points="145.37 86.18 145.37 95.09 145.99 95.41 145.99 86.5 145.37 86.18"/><polygon class="cls-11" points="145.99 86.5 145.99 95.41 155.56 90.53 155.56 81.62 145.99 86.5"/><polygon class="cls-9" points="146.37 86.33 146.99 86.64 156.56 81.77 155.94 81.45 146.37 86.33"/><polygon class="cls-10" points="146.37 86.33 146.37 95.23 146.99 95.55 146.99 86.64 146.37 86.33"/><polygon class="cls-11" points="146.99 86.64 146.99 95.55 156.56 90.68 156.56 81.77 146.99 86.64"/><polygon class="cls-9" points="147.07 86.38 147.7 86.7 157.27 81.82 156.64 81.51 147.07 86.38"/><polygon class="cls-10" points="147.07 86.38 147.07 95.29 147.7 95.61 147.7 86.7 147.07 86.38"/><polygon class="cls-11" points="147.7 86.7 147.7 95.61 157.27 90.73 157.27 81.82 147.7 86.7"/><polygon class="cls-9" points="147.62 87.08 148.24 87.4 157.81 82.52 157.19 82.2 147.62 87.08"/><polygon class="cls-10" points="147.62 87.08 147.62 95.99 148.24 96.31 148.24 87.4 147.62 87.08"/><polygon class="cls-11" points="148.24 87.4 148.24 96.31 157.81 91.43 157.81 82.52 148.24 87.4"/><polygon class="cls-9" points="148.32 87.55 148.94 87.86 158.51 82.99 157.89 82.67 148.32 87.55"/><polygon class="cls-10" points="148.32 87.55 148.32 96.45 148.94 96.77 148.94 87.86 148.32 87.55"/><polygon class="cls-11" points="148.94 87.86 148.94 96.77 158.51 91.9 158.51 82.99 148.94 87.86"/><polygon class="cls-9" points="149.03 87.6 149.65 87.92 159.22 83.04 158.59 82.73 149.03 87.6"/><polygon class="cls-10" points="149.03 87.6 149.03 96.51 149.65 96.83 149.65 87.92 149.03 87.6"/><polygon class="cls-11" points="149.65 87.92 149.65 96.83 159.22 91.95 159.22 83.04 149.65 87.92"/><polygon class="cls-9" points="149.57 88.3 150.19 88.62 159.76 83.74 159.14 83.42 149.57 88.3"/><polygon class="cls-10" points="149.57 88.3 149.57 97.21 150.19 97.53 150.19 88.62 149.57 88.3"/><polygon class="cls-11" points="150.19 88.62 150.19 97.53 159.76 92.65 159.76 83.74 150.19 88.62"/><polygon class="cls-12" points="159.76 84.21 159.76 92.08 150.19 96.96 150.19 89.12 159.76 84.21"/><polygon class="cls-13" points="142.17 85.03 150.19 89.12 150.19 96.96 142.17 92.87 142.17 85.03"/><polygon class="cls-10" points="129.53 97.25 129.53 97.93 137.1 101.79 137.1 101.11 129.53 97.25"/><polygon class="cls-11" points="137.1 101.11 137.1 101.79 145.98 97.27 145.98 96.58 137.1 101.11"/><polygon class="cls-9" points="145.98 96.58 137.1 101.11 129.53 97.25 138.41 92.73 145.98 96.58"/><polygon class="cls-10" points="129.91 96.63 129.91 97.31 137.48 101.17 137.48 100.49 129.91 96.63"/><polygon class="cls-11" points="137.48 100.49 137.48 101.17 146.36 96.64 146.36 95.96 137.48 100.49"/><polygon class="cls-9" points="146.36 95.96 137.48 100.49 129.91 96.63 138.79 92.11 146.36 95.96"/><polygon class="cls-10" points="129.55 95.82 129.55 96.5 137.12 100.36 137.12 99.68 129.55 95.82"/><polygon class="cls-11" points="137.12 99.68 137.12 100.36 146 95.83 146 95.15 137.12 99.68"/><polygon class="cls-9" points="146 95.15 137.12 99.68 129.55 95.82 138.43 91.3 146 95.15"/><polygon class="cls-10" points="129.52 95.04 129.52 95.72 137.09 99.58 137.09 98.9 129.52 95.04"/><polygon class="cls-11" points="137.09 98.9 137.09 99.58 145.97 95.06 145.97 94.37 137.09 98.9"/><polygon class="cls-9" points="145.97 94.37 137.09 98.9 129.52 95.04 138.4 90.52 145.97 94.37"/><polygon class="cls-10" points="129.9 94.42 129.9 95.11 137.47 98.96 137.47 98.28 129.9 94.42"/><polygon class="cls-11" points="137.47 98.28 137.47 98.96 146.35 94.44 146.35 93.75 137.47 98.28"/><polygon class="cls-9" points="146.35 93.75 137.47 98.28 129.9 94.42 138.78 89.9 146.35 93.75"/><polygon class="cls-10" points="129.54 93.61 129.54 94.3 137.11 98.15 137.11 97.47 129.54 93.61"/><polygon class="cls-11" points="137.11 97.47 137.11 98.15 145.99 93.63 145.99 92.94 137.11 97.47"/><polygon class="cls-9" points="145.99 92.94 137.11 97.47 129.54 93.61 138.42 89.09 145.99 92.94"/><polygon class="cls-10" points="129.57 92.82 129.57 93.5 137.14 97.35 137.14 96.67 129.57 92.82"/><polygon class="cls-11" points="137.14 96.67 137.14 97.35 146.02 92.83 146.02 92.15 137.14 96.67"/><polygon class="cls-9" points="146.02 92.15 137.14 96.67 129.57 92.82 138.45 88.29 146.02 92.15"/><polygon class="cls-10" points="129.95 92.2 129.95 92.88 137.52 96.73 137.52 96.05 129.95 92.2"/><polygon class="cls-11" points="137.52 96.05 137.52 96.73 146.4 92.21 146.4 91.53 137.52 96.05"/><polygon class="cls-9" points="146.4 91.53 137.52 96.05 129.95 92.2 138.84 87.67 146.4 91.53"/><polygon class="cls-10" points="129.59 91.39 129.59 92.07 137.16 95.92 137.16 95.24 129.59 91.39"/><polygon class="cls-11" points="137.16 95.24 137.16 95.92 146.04 91.4 146.04 90.72 137.16 95.24"/><polygon class="cls-9" points="146.04 90.72 137.16 95.24 129.59 91.39 138.47 86.86 146.04 90.72"/><polygon class="cls-10" points="129.57 90.72 129.57 91.4 137.14 95.25 137.14 94.57 129.57 90.72"/><polygon class="cls-11" points="137.14 94.57 137.14 95.25 146.02 90.73 146.02 90.05 137.14 94.57"/><polygon class="cls-9" points="146.02 90.05 137.14 94.57 129.57 90.72 138.45 86.19 146.02 90.05"/><polygon class="cls-10" points="129.95 90.1 129.95 90.78 137.52 94.64 137.52 93.95 129.95 90.1"/><polygon class="cls-11" points="137.52 93.95 137.52 94.64 146.4 90.11 146.4 89.43 137.52 93.95"/><polygon class="cls-9" points="146.4 89.43 137.52 93.95 129.95 90.1 138.84 85.57 146.4 89.43"/><polygon class="cls-10" points="129.59 89.29 129.59 89.97 137.16 93.82 137.16 93.14 129.59 89.29"/><polygon class="cls-11" points="137.16 93.14 137.16 93.82 146.04 89.3 146.04 88.62 137.16 93.14"/><polygon class="cls-9" points="146.04 88.62 137.16 93.14 129.59 89.29 138.47 84.76 146.04 88.62"/><polygon class="cls-14" points="130.09 89.54 138.94 85 145.65 88.42 136.76 92.94 130.09 89.54"/><polygon class="cls-13" points="130.09 98.22 130.09 89.54 136.76 92.94 136.77 101.62 130.09 98.22"/><polygon class="cls-9" points="150.97 91.01 151.59 91.33 161.16 86.45 160.53 86.14 150.97 91.01"/><polygon class="cls-10" points="150.97 91.01 150.97 99.92 151.59 100.24 151.59 91.33 150.97 91.01"/><polygon class="cls-11" points="151.59 91.33 151.59 100.24 161.16 95.36 161.16 86.45 151.59 91.33"/><polygon class="cls-9" points="151.67 91.07 152.29 91.39 161.86 86.51 161.24 86.19 151.67 91.07"/><polygon class="cls-10" points="151.67 91.07 151.67 99.98 152.29 100.3 152.29 91.39 151.67 91.07"/><polygon class="cls-11" points="152.29 91.39 152.29 100.3 161.86 95.42 161.86 86.51 152.29 91.39"/><polygon class="cls-9" points="152.21 91.77 152.83 92.08 162.4 87.21 161.78 86.89 152.21 91.77"/><polygon class="cls-10" points="152.21 91.77 152.21 100.68 152.83 100.99 152.83 92.08 152.21 91.77"/><polygon class="cls-11" points="152.83 92.08 152.83 100.99 162.4 96.12 162.4 87.21 152.83 92.08"/><polygon class="cls-9" points="152.91 92.23 153.54 92.55 163.11 87.67 162.48 87.36 152.91 92.23"/><polygon class="cls-10" points="152.91 92.23 152.91 101.14 153.54 101.46 153.54 92.55 152.91 92.23"/><polygon class="cls-11" points="153.54 92.55 153.54 101.46 163.11 96.58 163.11 87.67 153.54 92.55"/><polygon class="cls-9" points="153.62 92.29 154.24 92.61 163.81 87.73 163.19 87.42 153.62 92.29"/><polygon class="cls-10" points="153.62 92.29 153.62 101.2 154.24 101.52 154.24 92.61 153.62 92.29"/><polygon class="cls-11" points="154.24 92.61 154.24 101.52 163.81 96.64 163.81 87.73 154.24 92.61"/><polygon class="cls-9" points="154.16 92.99 154.78 93.3 164.35 88.43 163.73 88.11 154.16 92.99"/><polygon class="cls-10" points="154.16 92.99 154.16 101.9 154.78 102.21 154.78 93.3 154.16 92.99"/><polygon class="cls-11" points="154.78 93.3 154.78 102.21 164.35 97.34 164.35 88.43 154.78 93.3"/><polygon class="cls-9" points="155.16 93.13 155.79 93.45 165.36 88.57 164.74 88.26 155.16 93.13"/><polygon class="cls-10" points="155.16 93.13 155.16 102.04 155.79 102.36 155.79 93.45 155.16 93.13"/><polygon class="cls-11" points="155.79 93.45 155.79 102.36 165.36 97.48 165.36 88.57 155.79 93.45"/><polygon class="cls-9" points="155.87 93.19 156.49 93.51 166.06 88.63 165.44 88.31 155.87 93.19"/><polygon class="cls-10" points="155.87 93.19 155.87 102.1 156.49 102.42 156.49 93.51 155.87 93.19"/><polygon class="cls-11" points="156.49 93.51 156.49 102.42 166.06 97.54 166.06 88.63 156.49 93.51"/><polygon class="cls-9" points="156.41 93.89 157.03 94.2 166.6 89.33 165.98 89.01 156.41 93.89"/><polygon class="cls-10" points="156.41 93.89 156.41 102.8 157.03 103.11 157.03 94.2 156.41 93.89"/><polygon class="cls-11" points="157.03 94.2 157.03 103.11 166.6 98.24 166.6 89.33 157.03 94.2"/><polygon class="cls-9" points="157.12 94.35 157.74 94.67 167.31 89.79 166.69 89.48 157.12 94.35"/><polygon class="cls-10" points="157.12 94.35 157.12 103.26 157.74 103.58 157.74 94.67 157.12 94.35"/><polygon class="cls-11" points="157.74 94.67 157.74 103.58 167.31 98.7 167.31 89.79 157.74 94.67"/><polygon class="cls-9" points="157.82 94.41 158.44 94.73 168.01 89.85 167.39 89.53 157.82 94.41"/><polygon class="cls-10" points="157.82 94.41 157.82 103.32 158.44 103.64 158.44 94.73 157.82 94.41"/><polygon class="cls-11" points="158.44 94.73 158.44 103.64 168.01 98.76 168.01 89.85 158.44 94.73"/><polygon class="cls-9" points="158.36 95.11 158.98 95.42 168.55 90.55 167.93 90.23 158.36 95.11"/><polygon class="cls-10" points="158.36 95.11 158.36 104.02 158.98 104.33 158.98 95.42 158.36 95.11"/><polygon class="cls-11" points="158.98 95.42 158.98 104.33 168.55 99.46 168.55 90.55 158.98 95.42"/><polygon class="cls-12" points="168.55 91.01 168.55 98.89 158.98 103.77 158.98 95.92 168.55 91.01"/><polygon class="cls-13" points="150.97 91.84 158.98 95.92 158.98 103.77 150.97 99.68 150.97 91.84"/><polygon class="cls-9" points="140.36 96.72 140.98 97.03 150.55 92.16 149.93 91.84 140.36 96.72"/><polygon class="cls-10" points="140.36 96.72 140.36 105.63 140.98 105.94 140.98 97.03 140.36 96.72"/><polygon class="cls-11" points="140.98 97.03 140.98 105.94 150.55 101.07 150.55 92.16 140.98 97.03"/><polygon class="cls-9" points="141.06 96.77 141.69 97.09 151.25 92.21 150.63 91.9 141.06 96.77"/><polygon class="cls-10" points="141.06 96.77 141.06 105.68 141.69 106 141.69 97.09 141.06 96.77"/><polygon class="cls-11" points="141.69 97.09 141.69 106 151.25 101.12 151.25 92.21 141.69 97.09"/><polygon class="cls-9" points="141.61 97.47 142.23 97.79 151.8 92.91 151.18 92.59 141.61 97.47"/><polygon class="cls-10" points="141.61 97.47 141.61 106.38 142.23 106.7 142.23 97.79 141.61 97.47"/><polygon class="cls-11" points="142.23 97.79 142.23 106.7 151.8 101.82 151.8 92.91 142.23 97.79"/><polygon class="cls-9" points="142.31 97.94 142.93 98.25 152.5 93.38 151.88 93.06 142.31 97.94"/><polygon class="cls-10" points="142.31 97.94 142.31 106.84 142.93 107.16 142.93 98.25 142.31 97.94"/><polygon class="cls-11" points="142.93 98.25 142.93 107.16 152.5 102.29 152.5 93.38 142.93 98.25"/><polygon class="cls-9" points="143.01 97.99 143.63 98.31 153.21 93.43 152.58 93.12 143.01 97.99"/><polygon class="cls-10" points="143.01 97.99 143.01 106.9 143.63 107.22 143.63 98.31 143.01 97.99"/><polygon class="cls-11" points="143.63 98.31 143.63 107.22 153.21 102.34 153.21 93.43 143.63 98.31"/><polygon class="cls-9" points="143.56 98.69 144.18 99.01 153.75 94.13 153.13 93.81 143.56 98.69"/><polygon class="cls-10" points="143.56 98.69 143.56 107.6 144.18 107.92 144.18 99.01 143.56 98.69"/><polygon class="cls-11" points="144.18 99.01 144.18 107.92 153.75 103.04 153.75 94.13 144.18 99.01"/><polygon class="cls-9" points="144.56 98.83 145.18 99.15 154.75 94.27 154.13 93.96 144.56 98.83"/><polygon class="cls-10" points="144.56 98.83 144.56 107.74 145.18 108.06 145.18 99.15 144.56 98.83"/><polygon class="cls-11" points="145.18 99.15 145.18 108.06 154.75 103.18 154.75 94.27 145.18 99.15"/><polygon class="cls-9" points="145.26 98.89 145.89 99.21 155.46 94.33 154.83 94.02 145.26 98.89"/><polygon class="cls-10" points="145.26 98.89 145.26 107.8 145.89 108.12 145.89 99.21 145.26 98.89"/><polygon class="cls-11" points="145.89 99.21 145.89 108.12 155.46 103.24 155.46 94.33 145.89 99.21"/><polygon class="cls-9" points="145.81 99.59 146.43 99.9 156 95.03 155.38 94.71 145.81 99.59"/><polygon class="cls-10" points="145.81 99.59 145.81 108.5 146.43 108.81 146.43 99.9 145.81 99.59"/><polygon class="cls-11" points="146.43 99.9 146.43 108.81 156 103.94 156 95.03 146.43 99.9"/><polygon class="cls-9" points="146.51 100.05 147.13 100.37 156.7 95.49 156.08 95.18 146.51 100.05"/><polygon class="cls-10" points="146.51 100.05 146.51 108.96 147.13 109.28 147.13 100.37 146.51 100.05"/><polygon class="cls-11" points="147.13 100.37 147.13 109.28 156.7 104.4 156.7 95.49 147.13 100.37"/><polygon class="cls-9" points="147.21 100.11 147.84 100.43 157.41 95.55 156.78 95.23 147.21 100.11"/><polygon class="cls-10" points="147.21 100.11 147.21 109.02 147.84 109.34 147.84 100.43 147.21 100.11"/><polygon class="cls-11" points="147.84 100.43 147.84 109.34 157.41 104.46 157.41 95.55 147.84 100.43"/><polygon class="cls-9" points="147.76 100.81 148.38 101.12 157.95 96.25 157.33 95.93 147.76 100.81"/><polygon class="cls-10" points="147.76 100.81 147.76 109.72 148.38 110.03 148.38 101.12 147.76 100.81"/><polygon class="cls-11" points="148.38 101.12 148.38 110.03 157.95 105.16 157.95 96.25 148.38 101.12"/><polygon class="cls-12" points="157.95 96.72 157.95 104.59 148.38 109.47 148.38 101.63 157.95 96.72"/><polygon class="cls-13" points="140.36 97.54 148.38 101.63 148.38 109.47 140.36 105.38 140.36 97.54"/><ellipse class="cls-1" cx="171.59" cy="104.22" rx="1.86" ry="1.07"/><rect class="cls-1" x="169.72" y="102.85" width="3.72" height="1.38"/><path class="cls-2" d="M171.59,104.2c-1,0-1.87-.48-1.87-1.07v.81c0,.59.84,1.07,1.87,1.07a3.4,3.4,0,0,0,.45,0v-.81A3.4,3.4,0,0,1,171.59,104.2Z"/><path class="cls-3" d="M172.89,103.45l0,.37s0,.17.16.06c.46-.29.49-.41.49-.59v-.48Z"/><path class="cls-4" d="M173.19,103.39s.59,0,.56-.2a.33.33,0,0,0-.19-.26l.07-.14s.29.21.27.42c0,.39-.71.34-.71.34Z"/><ellipse class="cls-4" cx="173.19" cy="103.47" rx="0.06" ry="0.08"/><ellipse class="cls-3" cx="171.59" cy="102.64" rx="2.07" ry="1.18"/><rect class="cls-3" x="169.52" y="102.4" width="4.13" height="0.24"/><path class="cls-5" d="M173.66,102.4c0,.65-.93,1.18-2.07,1.18s-2.07-.53-2.07-1.18.93-1.17,2.07-1.17a2.17,2.17,0,0,1,2,.91A.75.75,0,0,1,173.66,102.4Z"/><polygon class="cls-5" points="173.48 101.84 173.61 102.14 169.59 102.11 169.69 101.87 173.48 101.84"/><ellipse class="cls-6" cx="171.59" cy="102.22" rx="1.99" ry="1.17"/><ellipse class="cls-7" cx="171.59" cy="102.21" rx="1.94" ry="1.12"/><path class="cls-8" d="M171.59,101.31c-1,0-1.81.5-1.81,1.12a.67.67,0,0,0,0,.24,2.32,2.32,0,0,0,1.77.67,2.26,2.26,0,0,0,1.78-.68.62.62,0,0,0,0-.23C173.41,101.81,172.6,101.31,171.59,101.31Z"/><ellipse class="cls-2" cx="171.59" cy="102.33" rx="1.55" ry="0.87"/><ellipse class="cls-1" cx="168.54" cy="106.06" rx="1.86" ry="1.07"/><rect class="cls-1" x="166.68" y="104.69" width="3.72" height="1.38"/><path class="cls-2" d="M168.54,106c-1,0-1.86-.48-1.86-1.07v.81c0,.59.83,1.07,1.86,1.07a3.19,3.19,0,0,0,.45,0V106A3.19,3.19,0,0,1,168.54,106Z"/><path class="cls-3" d="M169.85,105.29v.37s0,.17.17.06c.46-.29.48-.41.48-.59v-.48Z"/><path class="cls-4" d="M170.14,105.23s.59,0,.57-.2a.36.36,0,0,0-.2-.26l.08-.13s.29.2.27.41c-.05.39-.72.34-.72.34Z"/><ellipse class="cls-4" cx="170.14" cy="105.31" rx="0.06" ry="0.08"/><ellipse class="cls-3" cx="168.54" cy="104.49" rx="2.07" ry="1.18"/><rect class="cls-3" x="166.48" y="104.24" width="4.13" height="0.24"/><path class="cls-5" d="M170.61,104.24c0,.65-.93,1.18-2.07,1.18s-2.06-.53-2.06-1.18.92-1.17,2.06-1.17a2.16,2.16,0,0,1,2,.91A.8.8,0,0,1,170.61,104.24Z"/><polygon class="cls-5" points="170.43 103.69 170.56 103.98 166.54 103.95 166.65 103.71 170.43 103.69"/><ellipse class="cls-6" cx="168.55" cy="104.06" rx="1.99" ry="1.17"/><ellipse class="cls-7" cx="168.55" cy="104.05" rx="1.94" ry="1.12"/><path class="cls-8" d="M168.55,103.15c-1,0-1.82.5-1.82,1.12a.74.74,0,0,0,.05.25,2.28,2.28,0,0,0,1.77.66,2.24,2.24,0,0,0,1.77-.68.59.59,0,0,0,0-.23C170.36,103.65,169.55,103.15,168.55,103.15Z"/><ellipse class="cls-2" cx="168.54" cy="104.17" rx="1.55" ry="0.87"/><ellipse class="cls-1" cx="168.41" cy="102.55" rx="1.86" ry="1.07"/><rect class="cls-1" x="166.55" y="101.17" width="3.72" height="1.38"/><path class="cls-2" d="M168.41,102.53c-1,0-1.86-.48-1.86-1.08v.81c0,.6.84,1.08,1.86,1.08a2.15,2.15,0,0,0,.45,0v-.81A2.15,2.15,0,0,1,168.41,102.53Z"/><path class="cls-3" d="M169.72,101.77l0,.37s0,.17.16.06c.46-.29.49-.4.49-.59v-.47Z"/><path class="cls-4" d="M170,101.72s.59,0,.56-.21a.35.35,0,0,0-.19-.26l.07-.13s.29.21.27.41c0,.4-.71.35-.71.35Z"/><ellipse class="cls-4" cx="170.02" cy="101.8" rx="0.06" ry="0.08"/><ellipse class="cls-3" cx="168.42" cy="100.97" rx="2.07" ry="1.18"/><rect class="cls-3" x="166.35" y="100.73" width="4.13" height="0.24"/><path class="cls-5" d="M170.48,100.73c0,.64-.92,1.17-2.06,1.17s-2.07-.53-2.07-1.17.93-1.18,2.07-1.18a2.13,2.13,0,0,1,2,.92A.58.58,0,0,1,170.48,100.73Z"/><polygon class="cls-5" points="170.3 100.17 170.43 100.47 166.41 100.43 166.52 100.19 170.3 100.17"/><ellipse class="cls-6" cx="168.42" cy="100.54" rx="1.99" ry="1.17"/><ellipse class="cls-7" cx="168.42" cy="100.54" rx="1.94" ry="1.12"/><path class="cls-8" d="M168.42,99.63c-1,0-1.81.5-1.81,1.12a.69.69,0,0,0,0,.25,2.7,2.7,0,0,0,3.55,0,1,1,0,0,0,0-.24C170.24,100.13,169.43,99.63,168.42,99.63Z"/><ellipse class="cls-2" cx="168.41" cy="100.65" rx="1.55" ry="0.87"/><ellipse class="cls-1" cx="162.09" cy="106.35" rx="1.86" ry="1.07"/><rect class="cls-1" x="160.22" y="104.97" width="3.72" height="1.38"/><path class="cls-2" d="M162.09,106.33c-1,0-1.87-.48-1.87-1.08v.81c0,.6.84,1.08,1.87,1.08a3.42,3.42,0,0,0,.45,0v-.81A3.42,3.42,0,0,1,162.09,106.33Z"/><path class="cls-3" d="M163.39,105.57l0,.37s0,.17.16.06c.46-.29.49-.4.49-.59v-.47Z"/><path class="cls-4" d="M163.69,105.52s.59,0,.56-.21a.35.35,0,0,0-.19-.26l.07-.13s.29.21.27.41c0,.4-.71.34-.71.34Z"/><ellipse class="cls-4" cx="163.69" cy="105.6" rx="0.06" ry="0.08"/><ellipse class="cls-3" cx="162.09" cy="104.77" rx="2.07" ry="1.18"/><rect class="cls-3" x="160.02" y="104.52" width="4.13" height="0.24"/><path class="cls-5" d="M164.16,104.52c0,.65-.93,1.18-2.07,1.18s-2.07-.53-2.07-1.18.93-1.17,2.07-1.17a2.14,2.14,0,0,1,2,.91A.65.65,0,0,1,164.16,104.52Z"/><polygon class="cls-5" points="163.97 103.97 164.1 104.27 160.09 104.23 160.19 103.99 163.97 103.97"/><ellipse class="cls-6" cx="162.09" cy="104.34" rx="1.99" ry="1.17"/><ellipse class="cls-7" cx="162.09" cy="104.34" rx="1.94" ry="1.12"/><path class="cls-8" d="M162.09,103.43c-1,0-1.81.5-1.81,1.12a.69.69,0,0,0,0,.25,2.3,2.3,0,0,0,1.77.66,2.26,2.26,0,0,0,1.78-.68.59.59,0,0,0,0-.23C163.91,103.93,163.1,103.43,162.09,103.43Z"/><ellipse class="cls-2" cx="162.09" cy="104.45" rx="1.55" ry="0.87"/><ellipse class="cls-1" cx="165.45" cy="108.1" rx="1.86" ry="1.07"/><rect class="cls-1" x="163.59" y="106.72" width="3.72" height="1.38"/><path class="cls-2" d="M165.45,108.07c-1,0-1.86-.48-1.86-1.07v.81c0,.59.83,1.07,1.86,1.07a3.19,3.19,0,0,0,.45,0V108A3.19,3.19,0,0,1,165.45,108.07Z"/><path class="cls-3" d="M166.76,107.32v.37s0,.17.17.06c.46-.29.48-.41.48-.59v-.47Z"/><path class="cls-4" d="M167.05,107.27s.59,0,.57-.21a.36.36,0,0,0-.2-.26l.08-.13s.29.21.27.41c-.05.4-.72.34-.72.34Z"/><ellipse class="cls-4" cx="167.05" cy="107.35" rx="0.06" ry="0.08"/><ellipse class="cls-3" cx="165.45" cy="106.52" rx="2.07" ry="1.18"/><rect class="cls-3" x="163.39" y="106.27" width="4.13" height="0.24"/><path class="cls-5" d="M167.52,106.27c0,.65-.93,1.18-2.07,1.18s-2.06-.53-2.06-1.18.92-1.17,2.06-1.17a2.16,2.16,0,0,1,2,.91A.8.8,0,0,1,167.52,106.27Z"/><polygon class="cls-5" points="167.34 105.72 167.47 106.01 163.45 105.98 163.56 105.74 167.34 105.72"/><ellipse class="cls-6" cx="165.46" cy="106.09" rx="1.99" ry="1.17"/><ellipse class="cls-7" cx="165.46" cy="106.09" rx="1.94" ry="1.12"/><path class="cls-8" d="M165.46,105.18c-1,0-1.82.5-1.82,1.12a.74.74,0,0,0,.05.25,2.28,2.28,0,0,0,1.77.66,2.24,2.24,0,0,0,1.77-.68.59.59,0,0,0,0-.23C167.27,105.68,166.46,105.18,165.46,105.18Z"/><ellipse class="cls-2" cx="165.45" cy="106.2" rx="1.55" ry="0.87"/><ellipse class="cls-1" cx="165.32" cy="104.48" rx="1.86" ry="1.07"/><rect class="cls-1" x="163.46" y="103.11" width="3.72" height="1.38"/><path class="cls-2" d="M165.32,104.46c-1,0-1.86-.48-1.86-1.07v.81c0,.59.84,1.07,1.86,1.07a3.19,3.19,0,0,0,.45,0v-.81A3.19,3.19,0,0,1,165.32,104.46Z"/><path class="cls-3" d="M166.63,103.71l0,.37s0,.17.16.06c.46-.29.49-.41.49-.59v-.48Z"/><path class="cls-4" d="M166.93,103.66s.59,0,.56-.21a.35.35,0,0,0-.19-.26l.07-.13s.29.21.27.41c0,.39-.71.34-.71.34Z"/><ellipse class="cls-4" cx="166.93" cy="103.73" rx="0.06" ry="0.08"/><ellipse class="cls-3" cx="165.33" cy="102.91" rx="2.07" ry="1.18"/><rect class="cls-3" x="163.26" y="102.66" width="4.13" height="0.24"/><path class="cls-5" d="M167.39,102.66c0,.65-.92,1.18-2.06,1.18s-2.07-.53-2.07-1.18.93-1.17,2.07-1.17a2.15,2.15,0,0,1,2,.91A.6.6,0,0,1,167.39,102.66Z"/><polygon class="cls-5" points="167.21 102.11 167.34 102.4 163.32 102.37 163.43 102.13 167.21 102.11"/><ellipse class="cls-6" cx="165.33" cy="102.48" rx="1.99" ry="1.17"/><ellipse class="cls-7" cx="165.33" cy="102.47" rx="1.94" ry="1.12"/><path class="cls-8" d="M165.33,101.57c-1,0-1.81.5-1.81,1.12a.73.73,0,0,0,0,.25,2.3,2.3,0,0,0,1.77.66,2.26,2.26,0,0,0,1.78-.68.85.85,0,0,0,0-.23C167.15,102.07,166.34,101.57,165.33,101.57Z"/><ellipse class="cls-2" cx="165.32" cy="102.59" rx="1.55" ry="0.87"/><polygon class="cls-10" points="192.04 90.49 192.04 91.17 199.61 95.03 199.61 94.34 192.04 90.49"/><polygon class="cls-11" points="199.61 94.34 199.61 95.03 208.49 90.5 208.49 89.82 199.61 94.34"/><polygon class="cls-9" points="208.49 89.82 199.61 94.34 192.04 90.49 200.93 85.96 208.49 89.82"/><polygon class="cls-10" points="192.43 89.87 192.43 90.55 200 94.41 200 93.73 192.43 89.87"/><polygon class="cls-11" points="200 93.73 200 94.41 208.88 89.88 208.88 89.2 200 93.73"/><polygon class="cls-9" points="208.88 89.2 200 93.73 192.43 89.87 201.31 85.34 208.88 89.2"/><polygon class="cls-10" points="192.06 89.06 192.06 89.74 199.63 93.6 199.63 92.92 192.06 89.06"/><polygon class="cls-11" points="199.63 92.92 199.63 93.6 208.52 89.07 208.52 88.39 199.63 92.92"/><polygon class="cls-9" points="208.52 88.39 199.63 92.92 192.06 89.06 200.95 84.53 208.52 88.39"/><polygon class="cls-10" points="192.03 88.28 192.03 88.96 199.6 92.82 199.6 92.14 192.03 88.28"/><polygon class="cls-11" points="199.6 92.14 199.6 92.82 208.48 88.29 208.48 87.61 199.6 92.14"/><polygon class="cls-9" points="208.48 87.61 199.6 92.14 192.03 88.28 200.91 83.75 208.48 87.61"/><polygon class="cls-10" points="192.42 87.66 192.42 88.34 199.99 92.2 199.99 91.52 192.42 87.66"/><polygon class="cls-11" points="199.99 91.52 199.99 92.2 208.87 87.67 208.87 86.99 199.99 91.52"/><polygon class="cls-9" points="208.87 86.99 199.99 91.52 192.42 87.66 201.3 83.14 208.87 86.99"/><polygon class="cls-10" points="192.05 86.85 192.05 87.53 199.62 91.39 199.62 90.71 192.05 86.85"/><polygon class="cls-11" points="199.62 90.71 199.62 91.39 208.5 86.86 208.5 86.18 199.62 90.71"/><polygon class="cls-9" points="208.5 86.18 199.62 90.71 192.05 86.85 200.94 82.32 208.5 86.18"/><polygon class="cls-10" points="192.09 86.05 192.09 86.73 199.65 90.59 199.65 89.91 192.09 86.05"/><polygon class="cls-11" points="199.65 89.91 199.65 90.59 208.54 86.06 208.54 85.38 199.65 89.91"/><polygon class="cls-9" points="208.54 85.38 199.65 89.91 192.09 86.05 200.97 81.53 208.54 85.38"/><polygon class="cls-10" points="192.47 85.43 192.47 86.11 200.04 89.97 200.04 89.29 192.47 85.43"/><polygon class="cls-11" points="200.04 89.29 200.04 89.97 208.92 85.45 208.92 84.76 200.04 89.29"/><polygon class="cls-9" points="208.92 84.76 200.04 89.29 192.47 85.43 201.35 80.91 208.92 84.76"/><polygon class="cls-10" points="192.11 84.62 192.11 85.3 199.68 89.16 199.68 88.48 192.11 84.62"/><polygon class="cls-11" points="199.68 88.48 199.68 89.16 208.56 84.64 208.56 83.95 199.68 88.48"/><polygon class="cls-9" points="208.56 83.95 199.68 88.48 192.11 84.62 200.99 80.1 208.56 83.95"/><polygon class="cls-10" points="192.09 83.95 192.09 84.63 199.65 88.49 199.65 87.81 192.09 83.95"/><polygon class="cls-11" points="199.65 87.81 199.65 88.49 208.54 83.97 208.54 83.28 199.65 87.81"/><polygon class="cls-9" points="208.54 83.28 199.65 87.81 192.09 83.95 200.97 79.43 208.54 83.28"/><polygon class="cls-10" points="192.47 83.33 192.47 84.02 200.04 87.87 200.04 87.19 192.47 83.33"/><polygon class="cls-11" points="200.04 87.19 200.04 87.87 208.92 83.35 208.92 82.66 200.04 87.19"/><polygon class="cls-9" points="208.92 82.66 200.04 87.19 192.47 83.33 201.35 78.81 208.92 82.66"/><polygon class="cls-10" points="192.11 82.52 192.11 83.2 199.68 87.06 199.68 86.38 192.11 82.52"/><polygon class="cls-11" points="199.68 86.38 199.68 87.06 208.56 82.53 208.56 81.85 199.68 86.38"/><polygon class="cls-9" points="208.56 81.85 199.68 86.38 192.11 82.52 200.99 78 208.56 81.85"/><polygon class="cls-14" points="192.6 82.78 201.45 78.23 208.16 81.65 199.28 86.18 192.6 82.78"/><polygon class="cls-13" points="192.6 91.45 192.6 82.78 199.28 86.18 199.28 94.86 192.6 91.45"/><polygon class="cls-9" points="193 91.3 193.62 91.62 203.19 86.74 202.57 86.43 193 91.3"/><polygon class="cls-10" points="193 91.3 193 100.21 193.62 100.53 193.62 91.62 193 91.3"/><polygon class="cls-11" points="193.62 91.62 193.62 100.53 203.19 95.65 203.19 86.74 193.62 91.62"/><polygon class="cls-9" points="193.7 91.36 194.32 91.68 203.9 86.8 203.27 86.48 193.7 91.36"/><polygon class="cls-10" points="193.7 91.36 193.7 100.27 194.32 100.59 194.32 91.68 193.7 91.36"/><polygon class="cls-11" points="194.32 91.68 194.32 100.59 203.9 95.71 203.9 86.8 194.32 91.68"/><polygon class="cls-9" points="194.25 92.06 194.87 92.37 204.44 87.5 203.82 87.18 194.25 92.06"/><polygon class="cls-10" points="194.25 92.06 194.25 100.97 194.87 101.28 194.87 92.37 194.25 92.06"/><polygon class="cls-11" points="194.87 92.37 194.87 101.28 204.44 96.41 204.44 87.5 194.87 92.37"/><polygon class="cls-9" points="194.95 92.52 195.57 92.84 205.14 87.96 204.52 87.65 194.95 92.52"/><polygon class="cls-10" points="194.95 92.52 194.95 101.43 195.57 101.75 195.57 92.84 194.95 92.52"/><polygon class="cls-11" points="195.57 92.84 195.57 101.75 205.14 96.87 205.14 87.96 195.57 92.84"/><polygon class="cls-9" points="195.65 92.58 196.28 92.9 205.84 88.02 205.22 87.7 195.65 92.58"/><polygon class="cls-10" points="195.65 92.58 195.65 101.49 196.28 101.81 196.28 92.9 195.65 92.58"/><polygon class="cls-11" points="196.28 92.9 196.28 101.81 205.84 96.93 205.84 88.02 196.28 92.9"/><polygon class="cls-9" points="196.2 93.28 196.82 93.59 206.39 88.72 205.77 88.4 196.2 93.28"/><polygon class="cls-10" points="196.2 93.28 196.2 102.19 196.82 102.5 196.82 93.59 196.2 93.28"/><polygon class="cls-11" points="196.82 93.59 196.82 102.5 206.39 97.63 206.39 88.72 196.82 93.59"/><polygon class="cls-9" points="197.2 93.42 197.82 93.74 207.39 88.86 206.77 88.54 197.2 93.42"/><polygon class="cls-10" points="197.2 93.42 197.2 102.33 197.82 102.65 197.82 93.74 197.2 93.42"/><polygon class="cls-11" points="197.82 93.74 197.82 102.65 207.39 97.77 207.39 88.86 197.82 93.74"/><polygon class="cls-9" points="197.91 93.48 198.53 93.79 208.1 88.92 207.47 88.6 197.91 93.48"/><polygon class="cls-10" points="197.91 93.48 197.91 102.39 198.53 102.7 198.53 93.79 197.91 93.48"/><polygon class="cls-11" points="198.53 93.79 198.53 102.7 208.1 97.83 208.1 88.92 198.53 93.79"/><polygon class="cls-9" points="198.45 94.17 199.07 94.49 208.64 89.61 208.02 89.3 198.45 94.17"/><polygon class="cls-10" points="198.45 94.17 198.45 103.08 199.07 103.4 199.07 94.49 198.45 94.17"/><polygon class="cls-11" points="199.07 94.49 199.07 103.4 208.64 98.53 208.64 89.61 199.07 94.49"/><polygon class="cls-9" points="199.15 94.64 199.77 94.96 209.34 90.08 208.72 89.76 199.15 94.64"/><polygon class="cls-10" points="199.15 94.64 199.15 103.55 199.77 103.87 199.77 94.96 199.15 94.64"/><polygon class="cls-11" points="199.77 94.96 199.77 103.87 209.34 98.99 209.34 90.08 199.77 94.96"/><polygon class="cls-9" points="199.85 94.7 200.48 95.01 210.05 90.14 209.43 89.82 199.85 94.7"/><polygon class="cls-10" points="199.85 94.7 199.85 103.61 200.48 103.92 200.48 95.01 199.85 94.7"/><polygon class="cls-11" points="200.48 95.01 200.48 103.92 210.05 99.05 210.05 90.14 200.48 95.01"/><polygon class="cls-9" points="200.4 95.39 201.02 95.71 210.59 90.83 209.97 90.52 200.4 95.39"/><polygon class="cls-10" points="200.4 95.39 200.4 104.3 201.02 104.62 201.02 95.71 200.4 95.39"/><polygon class="cls-11" points="201.02 95.71 201.02 104.62 210.59 99.75 210.59 90.83 201.02 95.71"/><polygon class="cls-12" points="210.59 91.3 210.59 99.18 201.02 104.06 201.02 96.21 210.59 91.3"/><polygon class="cls-13" points="193 92.13 201.02 96.21 201.02 104.06 193 99.97 193 92.13"/><polygon class="cls-9" points="312.86 18.47 313.48 18.79 323.05 13.91 322.43 13.6 312.86 18.47"/><polygon class="cls-10" points="312.86 18.47 312.86 27.38 313.48 27.7 313.48 18.79 312.86 18.47"/><polygon class="cls-11" points="313.48 18.79 313.48 27.7 323.05 22.82 323.05 13.91 313.48 18.79"/><polygon class="cls-9" points="313.56 18.53 314.18 18.85 323.75 13.97 323.13 13.65 313.56 18.53"/><polygon class="cls-10" points="313.56 18.53 313.56 27.44 314.18 27.76 314.18 18.85 313.56 18.53"/><polygon class="cls-11" points="314.18 18.85 314.18 27.76 323.75 22.88 323.75 13.97 314.18 18.85"/><polygon class="cls-9" points="314.11 19.23 314.73 19.54 324.3 14.67 323.68 14.35 314.11 19.23"/><polygon class="cls-10" points="314.11 19.23 314.11 28.14 314.73 28.45 314.73 19.54 314.11 19.23"/><polygon class="cls-11" points="314.73 19.54 314.73 28.45 324.3 23.58 324.3 14.67 314.73 19.54"/><polygon class="cls-9" points="314.81 19.69 315.43 20.01 325 15.13 324.38 14.82 314.81 19.69"/><polygon class="cls-10" points="314.81 19.69 314.81 28.6 315.43 28.92 315.43 20.01 314.81 19.69"/><polygon class="cls-11" points="315.43 20.01 315.43 28.92 325 24.04 325 15.13 315.43 20.01"/><polygon class="cls-9" points="315.51 19.75 316.13 20.07 325.7 15.19 325.08 14.87 315.51 19.75"/><polygon class="cls-10" points="315.51 19.75 315.51 28.66 316.13 28.98 316.13 20.07 315.51 19.75"/><polygon class="cls-11" points="316.13 20.07 316.13 28.98 325.7 24.1 325.7 15.19 316.13 20.07"/><polygon class="cls-9" points="316.06 20.45 316.68 20.76 326.25 15.89 325.63 15.57 316.06 20.45"/><polygon class="cls-10" points="316.06 20.45 316.06 29.36 316.68 29.67 316.68 20.76 316.06 20.45"/><polygon class="cls-11" points="316.68 20.76 316.68 29.67 326.25 24.8 326.25 15.89 316.68 20.76"/><polygon class="cls-9" points="317.06 20.59 317.68 20.91 327.25 16.03 326.63 15.71 317.06 20.59"/><polygon class="cls-10" points="317.06 20.59 317.06 29.5 317.68 29.82 317.68 20.91 317.06 20.59"/><polygon class="cls-11" points="317.68 20.91 317.68 29.82 327.25 24.94 327.25 16.03 317.68 20.91"/><polygon class="cls-9" points="317.76 20.65 318.38 20.96 327.95 16.09 327.33 15.77 317.76 20.65"/><polygon class="cls-10" points="317.76 20.65 317.76 29.56 318.38 29.87 318.38 20.96 317.76 20.65"/><polygon class="cls-11" points="318.38 20.96 318.38 29.87 327.95 25 327.95 16.09 318.38 20.96"/><polygon class="cls-9" points="318.31 21.34 318.93 21.66 328.5 16.78 327.88 16.47 318.31 21.34"/><polygon class="cls-10" points="318.31 21.34 318.31 30.25 318.93 30.57 318.93 21.66 318.31 21.34"/><polygon class="cls-11" points="318.93 21.66 318.93 30.57 328.5 25.69 328.5 16.78 318.93 21.66"/><polygon class="cls-9" points="319.01 21.81 319.63 22.13 329.2 17.25 328.58 16.93 319.01 21.81"/><polygon class="cls-10" points="319.01 21.81 319.01 30.72 319.63 31.04 319.63 22.13 319.01 21.81"/><polygon class="cls-11" points="319.63 22.13 319.63 31.04 329.2 26.16 329.2 17.25 319.63 22.13"/><polygon class="cls-9" points="319.71 21.87 320.33 22.18 329.9 17.31 329.28 16.99 319.71 21.87"/><polygon class="cls-10" points="319.71 21.87 319.71 30.78 320.33 31.09 320.33 22.18 319.71 21.87"/><polygon class="cls-11" points="320.33 22.18 320.33 31.09 329.9 26.22 329.9 17.31 320.33 22.18"/><polygon class="cls-9" points="320.26 22.56 320.88 22.88 330.45 18 329.83 17.69 320.26 22.56"/><polygon class="cls-10" points="320.26 22.56 320.26 31.47 320.88 31.79 320.88 22.88 320.26 22.56"/><polygon class="cls-11" points="320.88 22.88 320.88 31.79 330.45 26.91 330.45 18 320.88 22.88"/><polygon class="cls-12" points="330.45 18.47 330.45 26.35 320.88 31.22 320.88 23.38 330.45 18.47"/><polygon class="cls-13" points="312.86 19.3 320.88 23.38 320.88 31.22 312.86 27.14 312.86 19.3"/><polygon class="cls-9" points="324.1 23.53 324.72 23.84 334.29 18.97 333.67 18.65 324.1 23.53"/><polygon class="cls-10" points="324.1 23.53 324.1 32.44 324.72 32.75 324.72 23.84 324.1 23.53"/><polygon class="cls-11" points="324.72 23.84 324.72 32.75 334.29 27.88 334.29 18.97 324.72 23.84"/><polygon class="cls-9" points="324.81 23.59 325.43 23.9 335 19.03 334.38 18.71 324.81 23.59"/><polygon class="cls-10" points="324.81 23.59 324.81 32.49 325.43 32.81 325.43 23.9 324.81 23.59"/><polygon class="cls-11" points="325.43 23.9 325.43 32.81 335 27.93 335 19.03 325.43 23.9"/><polygon class="cls-9" points="325.35 24.28 325.97 24.6 335.54 19.72 334.92 19.41 325.35 24.28"/><polygon class="cls-10" points="325.35 24.28 325.35 33.19 325.97 33.51 325.97 24.6 325.35 24.28"/><polygon class="cls-11" points="325.97 24.6 325.97 33.51 335.54 28.63 335.54 19.72 325.97 24.6"/><polygon class="cls-9" points="326.05 24.75 326.67 25.06 336.24 20.19 335.62 19.87 326.05 24.75"/><polygon class="cls-10" points="326.05 24.75 326.05 33.66 326.67 33.97 326.67 25.06 326.05 24.75"/><polygon class="cls-11" points="326.67 25.06 326.67 33.97 336.24 29.1 336.24 20.19 326.67 25.06"/><polygon class="cls-9" points="326.76 24.8 327.38 25.12 336.95 20.25 336.32 19.93 326.76 24.8"/><polygon class="cls-10" points="326.76 24.8 326.76 33.72 327.38 34.03 327.38 25.12 326.76 24.8"/><polygon class="cls-11" points="327.38 25.12 327.38 34.03 336.95 29.16 336.95 20.25 327.38 25.12"/><polygon class="cls-9" points="327.3 25.5 327.92 25.82 337.49 20.94 336.87 20.63 327.3 25.5"/><polygon class="cls-10" points="327.3 25.5 327.3 34.41 327.92 34.73 327.92 25.82 327.3 25.5"/><polygon class="cls-11" points="327.92 25.82 327.92 34.73 337.49 29.85 337.49 20.94 327.92 25.82"/><polygon class="cls-9" points="328.3 25.65 328.92 25.96 338.49 21.09 337.87 20.77 328.3 25.65"/><polygon class="cls-10" points="328.3 25.65 328.3 34.56 328.92 34.87 328.92 25.96 328.3 25.65"/><polygon class="cls-11" points="328.92 25.96 328.92 34.87 338.49 30 338.49 21.09 328.92 25.96"/><polygon class="cls-9" points="329.01 25.7 329.63 26.02 339.2 21.14 338.57 20.83 329.01 25.7"/><polygon class="cls-10" points="329.01 25.7 329.01 34.61 329.63 34.93 329.63 26.02 329.01 25.7"/><polygon class="cls-11" points="329.63 26.02 329.63 34.93 339.2 30.05 339.2 21.14 329.63 26.02"/><polygon class="cls-9" points="329.55 26.4 330.17 26.72 339.74 21.84 339.12 21.52 329.55 26.4"/><polygon class="cls-10" points="329.55 26.4 329.55 35.31 330.17 35.63 330.17 26.72 329.55 26.4"/><polygon class="cls-11" points="330.17 26.72 330.17 35.63 339.74 30.75 339.74 21.84 330.17 26.72"/><polygon class="cls-9" points="330.25 26.87 330.87 27.18 340.44 22.31 339.82 21.99 330.25 26.87"/><polygon class="cls-10" points="330.25 26.87 330.25 35.78 330.87 36.09 330.87 27.18 330.25 26.87"/><polygon class="cls-11" points="330.87 27.18 330.87 36.09 340.44 31.22 340.44 22.31 330.87 27.18"/><polygon class="cls-9" points="330.96 26.92 331.58 27.24 341.15 22.36 340.53 22.05 330.96 26.92"/><polygon class="cls-10" points="330.96 26.92 330.96 35.83 331.58 36.15 331.58 27.24 330.96 26.92"/><polygon class="cls-11" points="331.58 27.24 331.58 36.15 341.15 31.27 341.15 22.36 331.58 27.24"/><polygon class="cls-9" points="331.5 27.62 332.12 27.94 341.69 23.06 341.07 22.74 331.5 27.62"/><polygon class="cls-10" points="331.5 27.62 331.5 36.53 332.12 36.85 332.12 27.94 331.5 27.62"/><polygon class="cls-11" points="332.12 27.94 332.12 36.85 341.69 31.97 341.69 23.06 332.12 27.94"/><polygon class="cls-12" points="341.69 23.53 341.69 31.4 332.12 36.28 332.12 28.44 341.69 23.53"/><polygon class="cls-13" points="324.1 24.35 332.12 28.44 332.12 36.28 324.1 32.2 324.1 24.35"/><polygon class="cls-9" points="328.11 33.66 328.73 33.97 338.3 29.1 337.68 28.78 328.11 33.66"/><polygon class="cls-10" points="328.11 33.66 328.11 42.57 328.73 42.88 328.73 33.97 328.11 33.66"/><polygon class="cls-11" points="328.73 33.97 328.73 42.88 338.3 38.01 338.3 29.1 328.73 33.97"/><polygon class="cls-9" points="328.81 33.71 329.44 34.03 339 29.15 338.38 28.84 328.81 33.71"/><polygon class="cls-10" points="328.81 33.71 328.81 42.62 329.44 42.94 329.44 34.03 328.81 33.71"/><polygon class="cls-11" points="329.44 34.03 329.44 42.94 339 38.06 339 29.15 329.44 34.03"/><polygon class="cls-9" points="329.36 34.41 329.98 34.73 339.55 29.85 338.93 29.53 329.36 34.41"/><polygon class="cls-10" points="329.36 34.41 329.36 43.32 329.98 43.64 329.98 34.73 329.36 34.41"/><polygon class="cls-11" points="329.98 34.73 329.98 43.64 339.55 38.76 339.55 29.85 329.98 34.73"/><polygon class="cls-9" points="330.06 34.88 330.68 35.19 340.25 30.32 339.63 30 330.06 34.88"/><polygon class="cls-10" points="330.06 34.88 330.06 43.79 330.68 44.1 330.68 35.19 330.06 34.88"/><polygon class="cls-11" points="330.68 35.19 330.68 44.1 340.25 39.23 340.25 30.32 330.68 35.19"/><polygon class="cls-9" points="330.76 34.93 331.39 35.25 340.96 30.37 340.33 30.06 330.76 34.93"/><polygon class="cls-10" points="330.76 34.93 330.76 43.84 331.39 44.16 331.39 35.25 330.76 34.93"/><polygon class="cls-11" points="331.39 35.25 331.39 44.16 340.96 39.28 340.96 30.37 331.39 35.25"/><polygon class="cls-9" points="331.31 35.63 331.93 35.95 341.5 31.07 340.88 30.75 331.31 35.63"/><polygon class="cls-10" points="331.31 35.63 331.31 44.54 331.93 44.86 331.93 35.95 331.31 35.63"/><polygon class="cls-11" points="331.93 35.95 331.93 44.86 341.5 39.98 341.5 31.07 331.93 35.95"/><polygon class="cls-9" points="332.31 35.77 332.93 36.09 342.5 31.21 341.88 30.9 332.31 35.77"/><polygon class="cls-10" points="332.31 35.77 332.31 44.68 332.93 45 332.93 36.09 332.31 35.77"/><polygon class="cls-11" points="332.93 36.09 332.93 45 342.5 40.13 342.5 31.21 332.93 36.09"/><polygon class="cls-9" points="333.01 35.83 333.64 36.15 343.21 31.27 342.58 30.96 333.01 35.83"/><polygon class="cls-10" points="333.01 35.83 333.01 44.74 333.64 45.06 333.64 36.15 333.01 35.83"/><polygon class="cls-11" points="333.64 36.15 333.64 45.06 343.21 40.18 343.21 31.27 333.64 36.15"/><polygon class="cls-9" points="333.56 36.53 334.18 36.84 343.75 31.97 343.13 31.65 333.56 36.53"/><polygon class="cls-10" points="333.56 36.53 333.56 45.44 334.18 45.76 334.18 36.84 333.56 36.53"/><polygon class="cls-11" points="334.18 36.84 334.18 45.76 343.75 40.88 343.75 31.97 334.18 36.84"/><polygon class="cls-9" points="334.26 36.99 334.88 37.31 344.45 32.44 343.83 32.12 334.26 36.99"/><polygon class="cls-10" points="334.26 36.99 334.26 45.9 334.88 46.22 334.88 37.31 334.26 36.99"/><polygon class="cls-11" points="334.88 37.31 334.88 46.22 344.45 41.34 344.45 32.44 334.88 37.31"/><polygon class="cls-9" points="334.97 37.05 335.59 37.37 345.16 32.49 344.54 32.18 334.97 37.05"/><polygon class="cls-10" points="334.97 37.05 334.97 45.96 335.59 46.28 335.59 37.37 334.97 37.05"/><polygon class="cls-11" points="335.59 37.37 335.59 46.28 345.16 41.4 345.16 32.49 335.59 37.37"/><polygon class="cls-9" points="335.51 37.75 336.13 38.06 345.7 33.19 345.08 32.87 335.51 37.75"/><polygon class="cls-10" points="335.51 37.75 335.51 46.66 336.13 46.98 336.13 38.06 335.51 37.75"/><polygon class="cls-11" points="336.13 38.06 336.13 46.98 345.7 42.1 345.7 33.19 336.13 38.06"/><polygon class="cls-12" points="345.7 33.66 345.7 41.53 336.13 46.41 336.13 38.57 345.7 33.66"/><polygon class="cls-13" points="328.11 34.48 336.13 38.57 336.13 46.41 328.11 42.32 328.11 34.48"/><polygon class="cls-10" points="314.03 46.35 314.03 47.03 321.6 50.88 321.6 50.2 314.03 46.35"/><polygon class="cls-11" points="321.6 50.2 321.6 50.88 330.48 46.36 330.48 45.68 321.6 50.2"/><polygon class="cls-9" points="330.48 45.68 321.6 50.2 314.03 46.35 322.92 41.82 330.48 45.68"/><polygon class="cls-10" points="314.42 45.73 314.42 46.41 321.99 50.27 321.99 49.58 314.42 45.73"/><polygon class="cls-11" points="321.99 49.58 321.99 50.27 330.87 45.74 330.87 45.06 321.99 49.58"/><polygon class="cls-9" points="330.87 45.06 321.99 49.58 314.42 45.73 323.3 41.2 330.87 45.06"/><polygon class="cls-10" points="314.05 44.92 314.05 45.6 321.62 49.45 321.62 48.77 314.05 44.92"/><polygon class="cls-11" points="321.62 48.77 321.62 49.45 330.5 44.93 330.5 44.25 321.62 48.77"/><polygon class="cls-9" points="330.5 44.25 321.62 48.77 314.05 44.92 322.94 40.39 330.5 44.25"/><polygon class="cls-10" points="314.02 44.14 314.02 44.82 321.59 48.67 321.59 47.99 314.02 44.14"/><polygon class="cls-11" points="321.59 47.99 321.59 48.67 330.47 44.15 330.47 43.47 321.59 47.99"/><polygon class="cls-9" points="330.47 43.47 321.59 47.99 314.02 44.14 322.9 39.61 330.47 43.47"/><polygon class="cls-10" points="314.41 43.52 314.41 44.2 321.98 48.06 321.98 47.37 314.41 43.52"/><polygon class="cls-11" points="321.98 47.37 321.98 48.06 330.86 43.53 330.86 42.85 321.98 47.37"/><polygon class="cls-9" points="330.86 42.85 321.98 47.37 314.41 43.52 323.29 38.99 330.86 42.85"/><polygon class="cls-10" points="314.04 42.71 314.04 43.39 321.61 47.24 321.61 46.56 314.04 42.71"/><polygon class="cls-11" points="321.61 46.56 321.61 47.24 330.49 42.72 330.49 42.04 321.61 46.56"/><polygon class="cls-9" points="330.49 42.04 321.61 46.56 314.04 42.71 322.93 38.18 330.49 42.04"/><polygon class="cls-10" points="314.07 41.91 314.07 42.59 321.64 46.45 321.64 45.77 314.07 41.91"/><polygon class="cls-11" points="321.64 45.77 321.64 46.45 330.52 41.92 330.52 41.24 321.64 45.77"/><polygon class="cls-9" points="330.52 41.24 321.64 45.77 314.07 41.91 322.96 37.38 330.52 41.24"/><polygon class="cls-10" points="314.46 41.29 314.46 41.97 322.03 45.83 322.03 45.15 314.46 41.29"/><polygon class="cls-11" points="322.03 45.15 322.03 45.83 330.91 41.3 330.91 40.62 322.03 45.15"/><polygon class="cls-9" points="330.91 40.62 322.03 45.15 314.46 41.29 323.34 36.77 330.91 40.62"/><polygon class="cls-10" points="314.1 40.48 314.1 41.16 321.67 45.02 321.67 44.34 314.1 40.48"/><polygon class="cls-11" points="321.67 44.34 321.67 45.02 330.55 40.49 330.55 39.81 321.67 44.34"/><polygon class="cls-9" points="330.55 39.81 321.67 44.34 314.1 40.48 322.98 35.95 330.55 39.81"/><polygon class="cls-10" points="314.07 39.81 314.07 40.49 321.64 44.35 321.64 43.67 314.07 39.81"/><polygon class="cls-11" points="321.64 43.67 321.64 44.35 330.52 39.82 330.52 39.14 321.64 43.67"/><polygon class="cls-9" points="330.52 39.14 321.64 43.67 314.07 39.81 322.96 35.28 330.52 39.14"/><polygon class="cls-10" points="314.46 39.19 314.46 39.87 322.03 43.73 322.03 43.05 314.46 39.19"/><polygon class="cls-11" points="322.03 43.05 322.03 43.73 330.91 39.2 330.91 38.52 322.03 43.05"/><polygon class="cls-9" points="330.91 38.52 322.03 43.05 314.46 39.19 323.34 34.67 330.91 38.52"/><polygon class="cls-10" points="314.1 38.38 314.1 39.06 321.67 42.92 321.67 42.24 314.1 38.38"/><polygon class="cls-11" points="321.67 42.24 321.67 42.92 330.55 38.39 330.55 37.71 321.67 42.24"/><polygon class="cls-9" points="330.55 37.71 321.67 42.24 314.1 38.38 322.98 33.85 330.55 37.71"/><polygon class="cls-14" points="314.59 38.63 323.44 34.09 330.15 37.51 321.27 42.04 314.59 38.63"/><polygon class="cls-13" points="314.59 47.31 314.59 38.63 321.27 42.04 321.27 50.72 314.59 47.31"/><polygon class="cls-15" points="53.76 13.65 53.76 14.05 80.13 0.62 80.12 0.21 53.76 13.65"/><polygon class="cls-16" points="53.34 13.44 57.07 15.34 57.07 15.74 53.34 13.84 53.34 13.44"/><polygon class="cls-16" points="54.99 13.01 58.31 14.7 58.31 15.11 54.99 13.42 54.99 13.01"/><polygon class="cls-16" points="56.26 12.37 59.57 14.06 59.57 14.47 56.26 12.78 56.26 12.37"/><polygon class="cls-16" points="57.48 11.75 60.8 13.44 60.8 13.84 57.48 12.15 57.48 11.75"/><polygon class="cls-16" points="58.66 11.14 61.98 12.83 61.98 13.24 58.66 11.55 58.66 11.14"/><polygon class="cls-16" points="59.89 10.52 63.21 12.21 63.21 12.62 59.89 10.93 59.89 10.52"/><polygon class="cls-16" points="61.14 9.88 64.46 11.57 64.46 11.98 61.14 10.29 61.14 9.88"/><polygon class="cls-16" points="62.37 9.26 65.69 10.95 65.69 11.35 62.37 9.66 62.37 9.26"/><polygon class="cls-16" points="63.66 8.6 66.98 10.29 66.98 10.7 63.66 9.01 63.66 8.6"/><polygon class="cls-16" points="64.9 7.96 68.22 9.65 68.22 10.06 64.9 8.37 64.9 7.96"/><polygon class="cls-16" points="66.13 7.34 69.45 9.03 69.45 9.44 66.13 7.75 66.13 7.34"/><polygon class="cls-16" points="67.38 6.7 70.69 8.39 70.69 8.8 67.38 7.11 67.38 6.7"/><polygon class="cls-16" points="68.61 6.08 71.92 7.77 71.92 8.17 68.61 6.48 68.61 6.08"/><polygon class="cls-16" points="69.86 5.44 73.17 7.13 73.17 7.54 69.86 5.85 69.86 5.44"/><polygon class="cls-16" points="71.11 4.8 74.43 6.49 74.43 6.9 71.11 5.21 71.11 4.8"/><polygon class="cls-16" points="72.34 4.18 75.65 5.87 75.65 6.27 72.34 4.58 72.34 4.18"/><polygon class="cls-16" points="73.57 3.55 76.89 5.24 76.88 5.65 73.57 3.96 73.57 3.55"/><polygon class="cls-16" points="74.77 2.94 78.08 4.63 78.08 5.04 74.77 3.35 74.77 2.94"/><polygon class="cls-16" points="76.03 2.29 79.35 3.98 79.35 4.39 76.03 2.7 76.03 2.29"/><polygon class="cls-16" points="77.25 1.67 80.57 3.36 80.57 3.77 77.25 2.08 77.25 1.67"/><polygon class="cls-16" points="78.53 1.02 81.84 2.71 81.84 3.12 78.53 1.43 78.53 1.02"/><polygon class="cls-16" points="79.71 0.42 83.03 2.11 83.03 2.52 79.71 0.83 79.71 0.42"/><polygon class="cls-17" points="53.76 13.22 53.34 13.44 57.07 15.34 57.48 15.13 53.76 13.22"/><polygon class="cls-17" points="54.99 12.59 54.58 12.8 58.31 14.7 58.72 14.49 54.99 12.59"/><polygon class="cls-17" points="56.26 11.95 55.84 12.16 59.57 14.06 59.99 13.85 56.26 11.95"/><polygon class="cls-17" points="57.48 11.33 57.07 11.54 60.8 13.44 61.21 13.23 57.48 11.33"/><polygon class="cls-17" points="58.66 10.72 58.25 10.93 61.98 12.83 62.39 12.62 58.66 10.72"/><polygon class="cls-17" points="59.89 10.1 59.48 10.31 63.21 12.21 63.62 12 59.89 10.1"/><polygon class="cls-17" points="61.15 9.46 60.73 9.67 64.46 11.57 64.87 11.36 61.15 9.46"/><polygon class="cls-17" points="62.37 8.83 61.96 9.04 65.69 10.95 66.1 10.73 62.37 8.83"/><polygon class="cls-17" points="63.66 8.18 63.25 8.39 66.98 10.29 67.39 10.08 63.66 8.18"/><polygon class="cls-17" points="64.9 7.54 64.49 7.75 68.22 9.65 68.63 9.44 64.9 7.54"/><polygon class="cls-17" points="66.13 6.92 65.72 7.13 69.45 9.03 69.86 8.82 66.13 6.92"/><polygon class="cls-17" points="67.38 6.28 66.97 6.49 70.69 8.39 71.11 8.18 67.38 6.28"/><polygon class="cls-17" points="68.61 5.66 68.19 5.87 71.92 7.77 72.34 7.56 68.61 5.66"/><polygon class="cls-17" points="69.86 5.02 69.45 5.23 73.17 7.13 73.59 6.92 69.86 5.02"/><polygon class="cls-17" points="71.11 4.38 70.7 4.59 74.43 6.49 74.84 6.28 71.11 4.38"/><polygon class="cls-17" points="72.34 3.76 71.92 3.97 75.65 5.87 76.07 5.66 72.34 3.76"/><polygon class="cls-17" points="73.57 3.13 73.16 3.34 76.89 5.24 77.3 5.03 73.57 3.13"/><polygon class="cls-17" points="74.77 2.52 74.35 2.73 78.08 4.63 78.5 4.42 74.77 2.52"/><polygon class="cls-17" points="76.03 1.87 75.62 2.08 79.35 3.98 79.76 3.77 76.03 1.87"/><polygon class="cls-17" points="77.25 1.25 76.84 1.46 80.57 3.36 80.98 3.15 77.25 1.25"/><polygon class="cls-17" points="78.53 0.6 78.11 0.81 81.84 2.71 82.25 2.5 78.53 0.6"/><polygon class="cls-17" points="79.71 0 79.3 0.21 83.03 2.11 83.44 1.9 79.71 0"/><polygon class="cls-17" points="53.76 13.22 53.76 13.65 80.12 0.21 79.71 0 53.76 13.22"/><polygon class="cls-15" points="57.07 15.34 57.07 15.74 83.44 2.31 83.44 1.9 57.07 15.34"/><polygon class="cls-17" points="57.07 14.91 57.07 15.34 83.44 1.9 83.02 1.69 57.07 14.91"/><g id="vagon_s3"><polygon class="cls-18" points="66.57 6.44 57.61 1.87 39.74 10.97 48.7 15.54 66.57 6.44"/><polygon class="cls-19" points="66.57 6.44 66.57 7.03 48.7 16.13 48.7 15.54 66.57 6.44"/><polygon class="cls-20" points="48.7 15.54 48.7 16.13 39.74 11.56 39.74 10.97 48.7 15.54"/><polygon class="cls-20" points="48.7 28.36 48.7 28.95 39.74 24.38 39.74 23.79 48.7 28.36"/><polygon class="cls-21" points="48.7 16.13 39.74 11.56 39.74 23.79 48.7 28.36 48.7 16.13"/><polygon class="cls-19" points="66.57 19.25 66.57 19.84 48.7 28.95 48.7 28.36 66.57 19.25"/><polygon class="cls-22" points="66.57 7.03 48.7 16.13 48.7 28.36 66.57 19.25 66.57 7.03"/><polygon class="cls-23" points="63.17 9.61 58.16 12.16 58.16 23.54 63.17 20.99 63.17 9.61"/><polygon class="cls-23" points="49.77 16.43 49.22 16.71 49.22 27.3 49.77 27.02 49.77 16.43"/><polygon class="cls-23" points="50.9 15.86 50.34 16.14 50.34 26.73 50.9 26.45 50.9 15.86"/><polygon class="cls-23" points="52.03 15.28 51.48 15.56 51.48 26.15 52.03 25.87 52.03 15.28"/><polygon class="cls-23" points="53.1 14.73 52.55 15.02 52.55 25.61 53.1 25.32 53.1 14.73"/><polygon class="cls-23" points="54.24 14.15 53.68 14.44 53.68 25.03 54.24 24.75 54.24 14.15"/><polygon class="cls-23" points="55.37 13.58 54.82 13.86 54.82 24.45 55.37 24.17 55.37 13.58"/><polygon class="cls-23" points="56.44 13.04 55.88 13.32 55.88 23.91 56.44 23.63 56.44 13.04"/><polygon class="cls-23" points="57.57 12.46 57.02 12.74 57.02 23.33 57.57 23.05 57.57 12.46"/><polygon class="cls-23" points="64.27 9.04 63.72 9.33 63.72 19.92 64.27 19.63 64.27 9.04"/><polygon class="cls-23" points="65.41 8.46 64.85 8.75 64.85 19.34 65.41 19.06 65.41 8.46"/><polygon class="cls-19" points="56.44 13.04 52.55 15.02 52.55 19.49 56.44 17.51 56.44 13.04"/><polygon class="cls-24" points="55.91 13.87 53.12 15.29 53.12 18.64 55.91 17.22 55.91 13.87"/><polygon class="cls-25" points="48.1 16.67 47.54 16.38 47.54 26.97 48.1 27.26 48.1 16.67"/><polygon class="cls-25" points="46.97 16.09 46.41 15.8 46.41 26.39 46.97 26.68 46.97 16.09"/><polygon class="cls-25" points="45.86 15.53 45.3 15.24 45.3 25.83 45.86 26.12 45.86 15.53"/><polygon class="cls-25" points="44.79 14.98 44.23 14.69 44.23 25.28 44.79 25.57 44.79 14.98"/><polygon class="cls-25" points="43.63 14.39 43.07 14.1 43.07 24.7 43.63 24.98 43.63 14.39"/><polygon class="cls-25" points="42.46 13.79 41.9 13.51 41.9 24.1 42.46 24.39 42.46 13.79"/><polygon class="cls-25" points="41.41 13.26 40.85 12.97 40.85 23.56 41.41 23.85 41.41 13.26"/><polygon class="cls-19" points="63.44 10.25 62.89 10.53 62.89 11.12 63.44 10.83 63.44 10.25"/><polygon class="cls-21" points="62.59 10.5 58.68 12.49 58.68 22.66 62.59 20.67 62.59 10.5"/><polygon class="cls-19" points="59.29 16.36 59.29 16.96 58.16 17.54 58.16 16.94 59.29 16.36"/><polygon class="cls-19" points="63.44 19.35 63.44 19.99 62.89 20.28 62.89 19.63 63.44 19.35"/><polygon class="cls-22" points="62.59 11.07 59.29 12.76 59.29 22.35 62.59 20.67 62.59 11.07"/></g><g id="vagon_s3-2" ><polygon class="cls-18" points="48.7 15.54 39.74 10.97 21.87 20.08 30.84 24.65 48.7 15.54"/><polygon class="cls-19" points="48.7 15.54 48.7 16.13 30.84 25.23 30.84 24.65 48.7 15.54"/><polygon class="cls-20" points="30.84 24.65 30.84 25.23 21.87 20.67 21.87 20.08 30.84 24.65"/><polygon class="cls-20" points="30.84 37.46 30.84 38.05 21.87 33.49 21.87 32.89 30.84 37.46"/><polygon class="cls-21" points="30.84 25.23 21.87 20.67 21.87 32.89 30.84 37.46 30.84 25.23"/><polygon class="cls-19" points="48.7 28.36 48.7 28.95 30.84 38.05 30.84 37.46 48.7 28.36"/><polygon class="cls-22" points="48.7 16.13 30.84 25.23 30.84 37.46 48.7 28.36 48.7 16.13"/><polygon class="cls-23" points="45.3 18.71 40.29 21.26 40.29 32.65 45.3 30.09 45.3 18.71"/><polygon class="cls-23" points="31.91 25.53 31.35 25.82 31.35 36.41 31.91 36.13 31.91 25.53"/><polygon class="cls-23" points="33.03 24.96 32.48 25.24 32.48 35.83 33.03 35.55 33.03 24.96"/><polygon class="cls-23" points="34.16 24.38 33.61 24.67 33.61 35.26 34.16 34.98 34.16 24.38"/><polygon class="cls-23" points="35.23 23.84 34.68 24.12 34.68 34.71 35.23 34.43 35.23 23.84"/><polygon class="cls-23" points="36.37 23.26 35.81 23.54 35.81 34.13 36.37 33.85 36.37 23.26"/><polygon class="cls-23" points="37.5 22.68 36.95 22.96 36.95 33.55 37.5 33.27 37.5 22.68"/><polygon class="cls-23" points="38.57 22.14 38.01 22.42 38.01 33.01 38.57 32.73 38.57 22.14"/><polygon class="cls-23" points="39.7 21.56 39.15 21.84 39.15 32.43 39.7 32.15 39.7 21.56"/><polygon class="cls-23" points="46.4 18.15 45.85 18.43 45.85 29.02 46.4 28.74 46.4 18.15"/><polygon class="cls-23" points="47.54 17.57 46.98 17.85 46.98 28.44 47.54 28.16 47.54 17.57"/><polygon class="cls-19" points="38.57 22.14 34.68 24.12 34.68 28.59 38.57 26.61 38.57 22.14"/><polygon class="cls-24" points="38.05 22.97 35.25 24.39 35.25 27.75 38.05 26.32 38.05 22.97"/><polygon class="cls-25" points="30.23 25.77 29.67 25.49 29.67 36.08 30.23 36.36 30.23 25.77"/><polygon class="cls-25" points="29.1 25.19 28.54 24.91 28.54 35.5 29.1 35.78 29.1 25.19"/><polygon class="cls-25" points="28 24.63 27.43 24.35 27.43 34.94 28 35.22 28 24.63"/><polygon class="cls-25" points="26.92 24.08 26.36 23.8 26.36 34.39 26.92 34.67 26.92 24.08"/><polygon class="cls-25" points="25.76 23.49 25.2 23.21 25.2 33.8 25.76 34.09 25.76 23.49"/><polygon class="cls-25" points="24.59 22.9 24.04 22.61 24.04 33.2 24.59 33.49 24.59 22.9"/><polygon class="cls-25" points="23.54 22.36 22.98 22.08 22.98 32.67 23.54 32.95 23.54 22.36"/><polygon class="cls-19" points="45.58 19.36 45.02 19.64 45.02 20.22 45.58 19.94 45.58 19.36"/><polygon class="cls-21" points="44.72 19.6 40.81 21.59 40.81 31.76 44.72 29.77 44.72 19.6"/><polygon class="cls-19" points="41.42 25.47 41.42 26.07 40.29 26.64 40.29 26.04 41.42 25.47"/><polygon class="cls-19" points="45.58 28.45 45.58 29.1 45.02 29.38 45.02 28.74 45.58 28.45"/><polygon class="cls-22" points="44.72 20.18 41.42 21.86 41.42 31.45 44.72 29.77 44.72 20.18"/></g><ellipse class="cls-1" cx="36.82" cy="38.52" rx="1.86" ry="1.07"/><rect class="cls-1" x="34.96" y="37.14" width="3.72" height="1.38"/><path class="cls-2" d="M36.82,38.49c-1,0-1.86-.48-1.86-1.07v.81c0,.59.84,1.07,1.86,1.07a3.19,3.19,0,0,0,.45,0v-.81A3.19,3.19,0,0,1,36.82,38.49Z"/><path class="cls-3" d="M38.13,37.74l0,.37s0,.17.16.06c.46-.29.49-.41.49-.59v-.47Z"/><path class="cls-4" d="M38.43,37.69s.59.05.56-.21a.35.35,0,0,0-.19-.26l.07-.13s.29.21.27.41c0,.4-.71.34-.71.34Z"/><ellipse class="cls-4" cx="38.43" cy="37.77" rx="0.06" ry="0.08"/><ellipse class="cls-3" cx="36.83" cy="36.94" rx="2.07" ry="1.18"/><rect class="cls-3" x="34.76" y="36.69" width="4.13" height="0.24"/><path class="cls-5" d="M38.89,36.69c0,.65-.92,1.18-2.06,1.18s-2.07-.53-2.07-1.18.92-1.17,2.07-1.17a2.15,2.15,0,0,1,2,.91A.6.6,0,0,1,38.89,36.69Z"/><polygon class="cls-5" points="38.71 36.14 38.84 36.43 34.82 36.4 34.93 36.16 38.71 36.14"/><ellipse class="cls-6" cx="36.83" cy="36.51" rx="1.99" ry="1.17"/><ellipse class="cls-7" cx="36.83" cy="36.51" rx="1.94" ry="1.12"/><path class="cls-8" d="M36.83,35.6c-1,0-1.81.5-1.81,1.12a.73.73,0,0,0,0,.25,2.69,2.69,0,0,0,3.55,0,.85.85,0,0,0,0-.23C38.65,36.1,37.83,35.6,36.83,35.6Z"/><ellipse class="cls-2" cx="36.82" cy="36.62" rx="1.55" ry="0.87"/><ellipse class="cls-1" cx="36.82" cy="36.49" rx="1.86" ry="1.07"/><rect class="cls-1" x="34.96" y="35.11" width="3.72" height="1.38"/><path class="cls-2" d="M36.82,36.47c-1,0-1.86-.48-1.86-1.07v.81c0,.59.84,1.07,1.86,1.07a3.19,3.19,0,0,0,.45,0v-.81A3.19,3.19,0,0,1,36.82,36.47Z"/><path class="cls-3" d="M38.13,35.72l0,.37s0,.16.16.06c.46-.29.49-.41.49-.6v-.47Z"/><path class="cls-4" d="M38.43,35.66s.59.05.56-.21a.33.33,0,0,0-.19-.25l.07-.14s.29.21.27.42c0,.39-.71.34-.71.34Z"/><ellipse class="cls-4" cx="38.43" cy="35.74" rx="0.06" ry="0.08"/><ellipse class="cls-3" cx="36.83" cy="34.91" rx="2.07" ry="1.18"/><rect class="cls-3" x="34.76" y="34.67" width="4.13" height="0.24"/><path class="cls-5" d="M38.89,34.67c0,.65-.92,1.17-2.06,1.17s-2.07-.52-2.07-1.17.92-1.18,2.07-1.18a2.13,2.13,0,0,1,2,.92A.58.58,0,0,1,38.89,34.67Z"/><polygon class="cls-5" points="38.71 34.11 38.84 34.41 34.82 34.38 34.93 34.13 38.71 34.11"/><ellipse class="cls-6" cx="36.83" cy="34.49" rx="1.99" ry="1.17"/><ellipse class="cls-7" cx="36.83" cy="34.48" rx="1.94" ry="1.12"/><path class="cls-8" d="M36.83,33.58c-1,0-1.81.5-1.81,1.11a.69.69,0,0,0,0,.25,2.28,2.28,0,0,0,1.77.66,2.26,2.26,0,0,0,1.78-.67,1,1,0,0,0,0-.24C38.65,34.08,37.83,33.58,36.83,33.58Z"/><ellipse class="cls-2" cx="36.82" cy="34.6" rx="1.55" ry="0.87"/><ellipse class="cls-1" cx="36.82" cy="34.41" rx="1.86" ry="1.07"/><rect class="cls-1" x="34.96" y="33.03" width="3.72" height="1.38"/><path class="cls-2" d="M36.82,34.39c-1,0-1.86-.48-1.86-1.07v.81c0,.59.84,1.07,1.86,1.07a3.19,3.19,0,0,0,.45,0v-.81A3.19,3.19,0,0,1,36.82,34.39Z"/><path class="cls-3" d="M38.13,33.64l0,.37s0,.16.16.06c.46-.3.49-.41.49-.6V33Z"/><path class="cls-4" d="M38.43,33.58s.59.05.56-.21a.33.33,0,0,0-.19-.25l.07-.14s.29.21.27.42c0,.39-.71.34-.71.34Z"/><ellipse class="cls-4" cx="38.43" cy="33.66" rx="0.06" ry="0.08"/><ellipse class="cls-3" cx="36.83" cy="32.83" rx="2.07" ry="1.18"/><rect class="cls-3" x="34.76" y="32.59" width="4.13" height="0.24"/><path class="cls-5" d="M38.89,32.59c0,.65-.92,1.17-2.06,1.17s-2.07-.52-2.07-1.17.92-1.18,2.07-1.18a2.13,2.13,0,0,1,2,.92A.58.58,0,0,1,38.89,32.59Z"/><polygon class="cls-5" points="38.71 32.03 38.84 32.33 34.82 32.3 34.93 32.05 38.71 32.03"/><ellipse class="cls-6" cx="36.83" cy="32.41" rx="1.99" ry="1.17"/><ellipse class="cls-7" cx="36.83" cy="32.4" rx="1.94" ry="1.12"/><path class="cls-8" d="M36.83,31.49c-1,0-1.81.51-1.81,1.12a.69.69,0,0,0,0,.25,2.28,2.28,0,0,0,1.77.66,2.26,2.26,0,0,0,1.78-.67,1,1,0,0,0,0-.24C38.65,32,37.83,31.49,36.83,31.49Z"/><ellipse class="cls-2" cx="36.82" cy="32.52" rx="1.55" ry="0.87"/><g id="biotoilet_s3"><polygon class="cls-26" points="25.8 28.3 20.11 31.2 14.42 28.3 20.11 25.4 25.8 28.3"/><polygon class="cls-27" points="25.8 28.3 25.8 28.77 20.11 31.67 20.11 31.2 25.8 28.3"/><polygon class="cls-28" points="20.11 31.2 14.42 28.3 14.42 28.77 20.11 31.67 20.11 31.2"/><polygon class="cls-29" points="25.8 28.77 20.11 31.67 20.11 43.52 25.8 40.61 25.8 28.77"/><polygon class="cls-30" points="24.85 29.98 21.06 31.91 21.06 42.32 24.85 40.39 24.85 29.98"/><polygon class="cls-31" points="20.11 31.67 14.42 28.77 14.42 40.61 20.11 43.52 20.11 31.67"/><polygon class="cls-32" points="19.19 31.93 15.39 29.99 15.39 40.4 19.19 42.34 19.19 31.93"/><polygon class="cls-31" points="18.7 40.64 15.85 39.19 15.85 40.19 18.7 41.63 18.7 40.64"/><polygon class="cls-31" points="18.7 36.38 15.85 34.93 15.85 35.93 18.7 37.38 18.7 36.38"/><polygon class="cls-31" points="18.7 32.1 15.85 30.65 15.85 31.65 18.7 33.1 18.7 32.1"/><polygon class="cls-31" points="18.7 37.81 15.85 36.36 15.85 38.73 18.7 40.18 18.7 37.81"/><polygon class="cls-31" points="18.7 33.58 15.85 32.13 15.85 34.5 18.7 35.95 18.7 33.58"/><polygon class="cls-33" points="24.63 34.72 23.67 35.21 23.67 36.42 24.63 35.93 24.63 34.72"/><polygon class="cls-31" points="23.67 35.3 21.53 36.39 21.53 37.36 23.67 36.28 23.67 35.3"/><polygon class="cls-29" points="24.39 36.37 21.53 37.82 21.53 41.64 24.39 40.19 24.39 36.37"/><polygon class="cls-29" points="24.39 30.67 21.53 32.13 21.53 35.95 24.39 34.49 24.39 30.67"/><polygon class="cls-31" points="23.92 31.78 22 32.76 22 34.99 23.92 34.01 23.92 31.78"/><polygon class="cls-31" points="23.92 37.31 22 38.29 22 40.52 23.92 39.55 23.92 37.31"/><polygon class="cls-33" points="21.79 40.63 20.83 41.12 20.83 41.62 21.79 41.13 21.79 40.63"/><polygon class="cls-33" points="21.79 32.35 20.83 32.84 20.83 33.34 21.79 32.85 21.79 32.35"/></g><polygon class="cls-9" points="295.35 45.45 295.89 45.73 304.29 41.45 303.74 41.17 295.35 45.45"/><polygon class="cls-10" points="295.35 45.45 295.35 53.27 295.89 53.55 295.89 45.73 295.35 45.45"/><polygon class="cls-11" points="295.89 45.73 295.89 53.55 304.29 49.27 304.29 41.45 295.89 45.73"/><polygon class="cls-9" points="295.97 45.5 296.51 45.78 304.91 41.5 304.36 41.23 295.97 45.5"/><polygon class="cls-10" points="295.97 45.5 295.97 53.32 296.51 53.6 296.51 45.78 295.97 45.5"/><polygon class="cls-11" points="296.51 45.78 296.51 53.6 304.91 49.32 304.91 41.5 296.51 45.78"/><polygon class="cls-9" points="296.44 46.11 296.99 46.39 305.38 42.11 304.84 41.84 296.44 46.11"/><polygon class="cls-10" points="296.44 46.11 296.44 53.93 296.99 54.21 296.99 46.39 296.44 46.11"/><polygon class="cls-11" points="296.99 46.39 296.99 54.21 305.38 49.93 305.38 42.11 296.99 46.39"/><polygon class="cls-9" points="297.06 46.52 297.61 46.8 306 42.52 305.45 42.24 297.06 46.52"/><polygon class="cls-10" points="297.06 46.52 297.06 54.34 297.61 54.62 297.61 46.8 297.06 46.52"/><polygon class="cls-11" points="297.61 46.8 297.61 54.62 306 50.34 306 42.52 297.61 46.8"/><polygon class="cls-9" points="297.68 46.57 298.22 46.85 306.62 42.57 306.07 42.3 297.68 46.57"/><polygon class="cls-10" points="297.68 46.57 297.68 54.39 298.22 54.67 298.22 46.85 297.68 46.57"/><polygon class="cls-11" points="298.22 46.85 298.22 54.67 306.62 50.39 306.62 42.57 298.22 46.85"/><polygon class="cls-9" points="298.15 47.18 298.7 47.46 307.09 43.18 306.55 42.91 298.15 47.18"/><polygon class="cls-10" points="298.15 47.18 298.15 55 298.7 55.28 298.7 47.46 298.15 47.18"/><polygon class="cls-11" points="298.7 47.46 298.7 55.28 307.09 51 307.09 43.18 298.7 47.46"/><ellipse class="cls-1" cx="304.61" cy="54.1" rx="1.86" ry="1.07"/><rect class="cls-1" x="302.75" y="52.72" width="3.72" height="1.38"/><path class="cls-2" d="M304.61,54.08c-1,0-1.86-.48-1.86-1.07v.81c0,.59.84,1.07,1.86,1.07a3.19,3.19,0,0,0,.45,0v-.81A3.19,3.19,0,0,1,304.61,54.08Z"/><path class="cls-3" d="M305.92,53.33l0,.37s0,.16.16.06c.46-.29.49-.41.49-.6v-.47Z"/><path class="cls-4" d="M306.22,53.27s.59,0,.56-.21a.33.33,0,0,0-.19-.25l.07-.14s.29.21.27.42c0,.39-.71.34-.71.34Z"/><ellipse class="cls-4" cx="306.22" cy="53.35" rx="0.06" ry="0.08"/><ellipse class="cls-3" cx="304.62" cy="52.52" rx="2.07" ry="1.18"/><rect class="cls-3" x="302.55" y="52.28" width="4.13" height="0.24"/><path class="cls-5" d="M306.68,52.28c0,.65-.92,1.17-2.06,1.17s-2.07-.52-2.07-1.17.93-1.18,2.07-1.18a2.12,2.12,0,0,1,2,.92A.58.58,0,0,1,306.68,52.28Z"/><polygon class="cls-5" points="306.5 51.72 306.63 52.02 302.61 51.99 302.72 51.74 306.5 51.72"/><ellipse class="cls-6" cx="304.62" cy="52.1" rx="1.99" ry="1.17"/><ellipse class="cls-7" cx="304.62" cy="52.09" rx="1.94" ry="1.12"/><path class="cls-8" d="M304.62,51.19c-1,0-1.81.5-1.81,1.11a.69.69,0,0,0,0,.25,2.3,2.3,0,0,0,1.77.66,2.26,2.26,0,0,0,1.78-.67,1,1,0,0,0,0-.24C306.44,51.69,305.63,51.19,304.62,51.19Z"/><ellipse class="cls-2" cx="304.61" cy="52.21" rx="1.55" ry="0.87"/><ellipse class="cls-1" cx="304.61" cy="52.02" rx="1.86" ry="1.07"/><rect class="cls-1" x="302.75" y="50.64" width="3.72" height="1.38"/><path class="cls-2" d="M304.61,52c-1,0-1.86-.48-1.86-1.07v.81c0,.59.84,1.07,1.86,1.07a3.19,3.19,0,0,0,.45,0V52A3.19,3.19,0,0,1,304.61,52Z"/><path class="cls-3" d="M305.92,51.25l0,.37s0,.16.16.05c.46-.29.49-.4.49-.59v-.47Z"/><path class="cls-4" d="M306.22,51.19s.59.05.56-.21a.33.33,0,0,0-.19-.25l.07-.14s.29.21.27.42c0,.39-.71.34-.71.34Z"/><ellipse class="cls-4" cx="306.22" cy="51.27" rx="0.06" ry="0.08"/><ellipse class="cls-3" cx="304.62" cy="50.44" rx="2.07" ry="1.18"/><rect class="cls-3" x="302.55" y="50.2" width="4.13" height="0.24"/><path class="cls-5" d="M306.68,50.2c0,.65-.92,1.17-2.06,1.17s-2.07-.52-2.07-1.17.93-1.18,2.07-1.18a2.12,2.12,0,0,1,2,.92A.58.58,0,0,1,306.68,50.2Z"/><polygon class="cls-5" points="306.5 49.64 306.63 49.94 302.61 49.91 302.72 49.66 306.5 49.64"/><ellipse class="cls-6" cx="304.62" cy="50.02" rx="1.99" ry="1.17"/><ellipse class="cls-7" cx="304.62" cy="50.01" rx="1.94" ry="1.12"/><path class="cls-8" d="M304.62,49.1c-1,0-1.81.5-1.81,1.12a.69.69,0,0,0,0,.25,2.3,2.3,0,0,0,1.77.66,2.26,2.26,0,0,0,1.78-.67,1,1,0,0,0,0-.24C306.44,49.6,305.63,49.1,304.62,49.1Z"/><ellipse class="cls-2" cx="304.61" cy="50.13" rx="1.55" ry="0.87"/></g><g id="fence_front"><g id="barier_left"><polygon class="cls-34" points="36.77 45.84 36.72 56.68 36.08 57.01 36.08 46.2 36.77 45.84"/><polygon class="cls-35" points="35.38 45.84 35.38 56.66 36.08 57.01 36.08 46.2 35.38 45.84"/><path class="cls-36" d="M35.38,45.84l.7-.35.69.35-.69.36Z"/><polygon class="cls-37" points="36.03 53.07 36.85 53.48 36.85 57.47 36.03 57.06 36.03 53.07"/><polygon class="cls-38" points="36.03 53.07 36.85 52.65 37.66 53.07 36.85 53.48 36.03 53.07"/><polygon class="cls-39" points="36.85 53.48 37.66 53.07 37.66 57.06 36.85 57.47 36.85 53.48"/><g id="closed"><polygon class="cls-38" points="36.85 54.68 37.66 54.26 54.36 62.77 53.55 63.19 36.85 54.68"/><polygon class="cls-37" points="36.85 54.68 36.85 55.48 53.55 63.99 53.55 63.19 36.85 54.68"/><polygon class="cls-40" points="36.85 57.47 37.66 57.06 54.36 65.57 53.55 65.98 36.85 57.47"/><polygon class="cls-41" points="39.93 55.42 40.73 55.83 39.52 56.04 38.69 55.62 39.93 55.42"/><polygon class="cls-42" points="37.91 56.02 38.69 55.62 39.52 56.04 38.74 56.45 37.91 56.02"/><polygon class="cls-41" points="42.42 56.69 43.22 57.1 42.01 57.31 41.18 56.88 42.42 56.69"/><polygon class="cls-42" points="40.4 57.29 41.18 56.88 42.01 57.31 41.23 57.71 40.4 57.29"/><polygon class="cls-41" points="44.98 57.99 45.78 58.4 44.57 58.62 43.74 58.19 44.98 57.99"/><polygon class="cls-42" points="42.96 58.59 43.74 58.19 44.57 58.62 43.79 59.02 42.96 58.59"/><polygon class="cls-41" points="47.62 59.34 48.43 59.75 47.22 59.96 46.38 59.54 47.62 59.34"/><polygon class="cls-42" points="45.6 59.94 46.38 59.54 47.22 59.96 46.43 60.36 45.6 59.94"/><polygon class="cls-41" points="50.21 60.66 51.02 61.07 49.81 61.28 48.97 60.85 50.21 60.66"/><polygon class="cls-42" points="48.19 61.26 48.97 60.85 49.81 61.28 49.02 61.68 48.19 61.26"/><polygon class="cls-41" points="52.95 62.05 53.76 62.47 52.55 62.68 51.71 62.25 52.95 62.05"/><polygon class="cls-42" points="50.93 62.66 51.71 62.25 52.55 62.68 51.77 63.08 50.93 62.66"/><polygon class="cls-39" points="53.55 63.19 54.36 62.77 54.36 63.57 53.55 63.99 53.55 63.19"/></g></g><g id="barier_right"><g id="close"><polygon class="cls-38" points="54.13 63.48 54.94 63.07 71.64 71.58 70.83 71.99 54.13 63.48"/><polygon class="cls-37" points="54.13 63.48 54.13 64.28 70.83 72.79 70.83 71.99 54.13 63.48"/><polygon class="cls-41" points="70.43 70.96 71.24 71.37 70.03 71.58 69.19 71.16 70.43 70.96"/><polygon class="cls-42" points="68.41 71.56 69.19 71.16 70.03 71.58 69.24 71.99 68.41 71.56"/><polygon class="cls-41" points="67.59 69.51 68.39 69.92 67.18 70.13 66.34 69.71 67.59 69.51"/><polygon class="cls-42" points="65.57 70.11 66.34 69.71 67.18 70.13 66.4 70.54 65.57 70.11"/><polygon class="cls-41" points="64.77 68.08 65.57 68.48 64.36 68.7 63.53 68.27 64.77 68.08"/><polygon class="cls-42" points="62.75 68.68 63.53 68.27 64.36 68.7 63.58 69.1 62.75 68.68"/><polygon class="cls-41" points="61.92 66.63 62.73 67.03 61.52 67.25 60.68 66.82 61.92 66.63"/><polygon class="cls-42" points="59.9 67.23 60.68 66.82 61.52 67.25 60.73 67.65 59.9 67.23"/><polygon class="cls-41" points="59.15 65.21 59.96 65.62 58.75 65.84 57.91 65.41 59.15 65.21"/><polygon class="cls-42" points="57.13 65.82 57.91 65.41 58.75 65.84 57.96 66.24 57.13 65.82"/><polygon class="cls-41" points="56.33 63.77 57.13 64.18 55.92 64.4 55.08 63.97 56.33 63.77"/><polygon class="cls-42" points="54.31 64.38 55.08 63.97 55.92 64.4 55.14 64.8 54.31 64.38"/><polygon class="cls-40" points="54.13 66.28 54.95 65.86 71.65 74.37 70.83 74.79 54.13 66.28"/></g><polygon class="cls-37" points="70.83 70.8 71.65 71.22 71.65 75.2 70.83 74.79 70.83 70.8"/><polygon class="cls-38" points="70.83 70.8 71.65 70.38 72.46 70.8 71.65 71.22 70.83 70.8"/><polygon class="cls-39" points="71.65 71.22 72.46 70.8 72.46 74.79 71.65 75.2 71.65 71.22"/></g><g id="fence_1"><polygon class="cls-35" points="0 27.98 0 38.37 17.22 47.14 17.22 36.74 0 27.98"/><path class="cls-34" d="M0,29v.8l17.22,8.77v-.8Z"/><path class="cls-34" d="M0,31.37v.79l17.22,8.78v-.8Z"/><path class="cls-34" d="M0,33.76v.81l17.22,8.77v-.81Z"/><path class="cls-34" d="M0,36.17V37l17.22,8.78v-.8Z"/><path class="cls-36" d="M0,28l17.22,8.77.42-.24L.42,27.74Z"/><polygon class="cls-34" points="18.61 36.58 18.55 47.42 17.91 47.75 17.91 36.94 18.61 36.58"/><polygon class="cls-35" points="17.22 36.59 17.22 47.4 17.91 47.75 17.91 36.94 17.22 36.59"/><path class="cls-36" d="M17.22,36.59l.7-.36.69.35-.7.36Z"/><polygon class="cls-35" points="18.16 37.23 18.16 47.62 35.38 56.4 35.38 46 18.16 37.23"/><path class="cls-34" d="M18.16,38.22V39l17.22,8.77V47Z"/><path class="cls-34" d="M18.16,40.62v.8l17.22,8.77v-.8Z"/><path class="cls-34" d="M18.16,43v.8l17.22,8.77v-.8Z"/><path class="cls-34" d="M18.16,45.42v.8L35.38,55v-.8Z"/><path class="cls-36" d="M18.16,37.23,35.38,46l.42-.24L18.58,37Z"/><polygon class="cls-34" points="73.1 64.35 73.05 75.19 72.4 75.52 72.4 64.7 73.1 64.35"/><polygon class="cls-35" points="71.71 64.35 71.71 75.17 72.4 75.52 72.4 64.7 71.71 64.35"/><path class="cls-36" d="M71.71,64.35l.7-.35.69.35-.7.35Z"/><polygon class="cls-35" points="72.66 64.99 72.66 75.39 89.87 84.16 89.88 73.76 72.66 64.99"/><path class="cls-34" d="M72.65,66v.79l17.22,8.78v-.8Z"/><path class="cls-34" d="M72.65,68.39v.79L89.87,78v-.8Z"/><path class="cls-34" d="M72.65,70.78v.81l17.22,8.77v-.81Z"/><path class="cls-34" d="M72.65,73.19V74l17.22,8.78V82Z"/><path class="cls-36" d="M72.65,65l17.22,8.77.42-.24L73.07,64.75Z"/><polygon class="cls-34" points="91.26 73.6 91.21 84.44 90.57 84.77 90.57 73.96 91.26 73.6"/><polygon class="cls-35" points="89.88 73.61 89.88 84.42 90.57 84.77 90.57 73.96 89.88 73.61"/><path class="cls-36" d="M89.88,73.6l.69-.35.69.35-.69.36Z"/><polygon class="cls-35" points="90.82 74.25 90.82 84.64 108.04 93.42 108.04 83.02 90.82 74.25"/><path class="cls-34" d="M90.82,75.24V76L108,84.81V84Z"/><path class="cls-34" d="M90.82,77.64v.8L108,87.21v-.8Z"/><path class="cls-34" d="M90.82,80v.81L108,89.61v-.8Z"/><path class="cls-34" d="M90.82,82.44v.8L108,92v-.8Z"/><path class="cls-36" d="M90.82,74.25,108,83l.41-.24L91.23,74Z"/><polygon class="cls-34" points="109.42 82.86 109.37 93.7 108.73 94.03 108.73 83.22 109.42 82.86"/><polygon class="cls-35" points="108.04 82.86 108.04 93.67 108.73 94.03 108.73 83.22 108.04 82.86"/><path class="cls-36" d="M108,82.86l.69-.35.69.35-.69.35Z"/><polygon class="cls-35" points="108.98 83.5 108.98 93.9 126.2 102.67 126.2 92.27 108.98 83.5"/><path class="cls-34" d="M109,84.5v.79l17.22,8.78v-.8Z"/><path class="cls-34" d="M109,86.9v.79l17.22,8.78v-.8Z"/><path class="cls-34" d="M109,89.29v.81l17.22,8.77v-.81Z"/><path class="cls-34" d="M109,91.7v.79l17.22,8.78v-.8Z"/><path class="cls-36" d="M109,83.5l17.22,8.77.42-.24L109.4,83.26Z"/><polygon class="cls-34" points="127.59 92.11 127.54 102.95 126.9 103.28 126.9 92.47 127.59 92.11"/><polygon class="cls-35" points="126.2 92.11 126.2 102.93 126.9 103.28 126.9 92.47 126.2 92.11"/><path class="cls-36" d="M126.2,92.11l.7-.35.69.35-.69.36Z"/><polygon class="cls-35" points="127.15 92.76 127.15 103.15 144.37 111.93 144.37 101.53 127.15 92.76"/><path class="cls-34" d="M127.15,93.75v.8l17.22,8.77v-.8Z"/><path class="cls-34" d="M127.15,96.15V97l17.21,8.77v-.8Z"/><path class="cls-34" d="M127.15,98.54v.81l17.21,8.77v-.8Z"/><path class="cls-34" d="M127.15,101v.8l17.21,8.77v-.8Z"/><path class="cls-36" d="M127.15,92.76l17.22,8.77.41-.24-17.22-8.77Z"/><polygon class="cls-34" points="145.75 101.37 145.7 112.21 145.06 112.54 145.06 101.72 145.75 101.37"/><polygon class="cls-35" points="144.37 101.37 144.37 112.19 145.06 112.54 145.06 101.72 144.37 101.37"/><path class="cls-36" d="M144.37,101.37l.69-.35.69.35-.69.35Z"/><polygon class="cls-35" points="145.31 102.01 145.31 112.41 162.53 121.18 162.53 110.78 145.31 102.01"/><path class="cls-34" d="M145.31,103v.79l17.22,8.78v-.8Z"/><path class="cls-34" d="M145.31,105.41v.79L162.53,115v-.8Z"/><path class="cls-34" d="M145.31,107.8v.81l17.22,8.77v-.81Z"/><path class="cls-34" d="M145.31,110.21V111l17.22,8.78V119Z"/><path class="cls-36" d="M145.31,102l17.22,8.77.42-.24-17.22-8.77Z"/><polygon class="cls-34" points="163.92 110.62 163.87 121.47 163.22 121.79 163.22 110.98 163.92 110.62"/><polygon class="cls-35" points="162.53 110.63 162.53 121.44 163.22 121.79 163.22 110.98 162.53 110.63"/><path class="cls-36" d="M162.53,110.62l.7-.35.69.35-.7.36Z"/><polygon class="cls-35" points="163.47 111.27 163.47 121.66 180.69 130.44 180.69 120.04 163.47 111.27"/><path class="cls-34" d="M163.47,112.26v.8l17.22,8.77V121Z"/><path class="cls-34" d="M163.47,114.66v.8l17.22,8.77v-.8Z"/><path class="cls-34" d="M163.47,117.05v.81l17.22,8.77v-.8Z"/><path class="cls-34" d="M163.47,119.46v.8L180.69,129v-.8Z"/><path class="cls-36" d="M163.47,111.27,180.69,120l.42-.24L163.89,111Z"/><polygon class="cls-34" points="182.08 119.88 182.03 130.72 181.39 131.05 181.39 120.23 182.08 119.88"/><polygon class="cls-35" points="180.69 119.88 180.69 130.69 181.39 131.05 181.39 120.23 180.69 119.88"/><path class="cls-36" d="M180.7,119.88l.69-.35.69.35-.69.35Z"/><polygon class="cls-35" points="181.64 120.52 181.64 130.92 198.86 139.69 198.86 129.29 181.64 120.52"/><path class="cls-34" d="M181.64,121.52v.79l17.22,8.78v-.8Z"/><path class="cls-34" d="M181.64,123.92v.79l17.22,8.78v-.8Z"/><path class="cls-34" d="M181.64,126.31v.81l17.22,8.77v-.81Z"/><path class="cls-34" d="M181.64,128.72v.79l17.22,8.78v-.8Z"/><path class="cls-36" d="M181.64,120.52l17.22,8.77.41-.24-17.22-8.77Z"/></g><g id="fence_2"><polygon class="cls-34" points="380.83 37.11 380.78 47.96 380.14 48.28 380.14 37.47 380.83 37.11"/><polygon class="cls-35" points="379.44 37.12 379.44 47.93 380.14 48.28 380.14 37.47 379.44 37.12"/><path class="cls-36" d="M379.45,37.12l.69-.36.69.35-.69.36Z"/><polygon class="cls-34" points="379.87 37.75 379.88 48.15 362.71 56.89 362.77 46.47 379.87 37.75"/><path class="cls-35" d="M379.88,38.74v.8l-17.12,8.73v-.81Z"/><path class="cls-35" d="M379.88,41.14v.8l-17.14,8.73v-.8Z"/><path class="cls-35" d="M379.88,43.54v.8l-17.15,8.74v-.81Z"/><path class="cls-35" d="M379.88,45.94v.8l-17.17,8.75,0-.81Z"/><path class="cls-36" d="M379.87,37.75l-17.1,8.72-.43-.22,17.09-8.72Z"/><polygon class="cls-34" points="362.76 46.31 362.71 57.15 362.07 57.48 362.07 46.66 362.76 46.31"/><polygon class="cls-35" points="361.38 46.31 361.38 57.12 362.07 57.48 362.07 46.66 361.38 46.31"/><path class="cls-36" d="M361.38,46.31l.69-.36.7.36-.7.35Z"/><polygon class="cls-34" points="361.81 46.95 361.81 57.35 344.65 66.09 344.71 55.67 361.81 46.95"/><path class="cls-35" d="M361.82,48v.8L344.7,57.47v-.8Z"/><path class="cls-35" d="M361.82,50.35v.8l-17.14,8.73v-.81Z"/><path class="cls-35" d="M361.82,52.74v.81l-17.15,8.73v-.8Z"/><path class="cls-35" d="M361.82,55.15v.79l-17.17,8.75,0-.81Z"/><path class="cls-36" d="M361.81,47l-17.1,8.71-.43-.22,17.09-8.71Z"/><polygon class="cls-34" points="344.7 55.51 344.65 66.35 344.01 66.68 344.01 55.87 344.7 55.51"/><polygon class="cls-35" points="343.32 55.51 343.32 66.33 344.01 66.68 344.01 55.87 343.32 55.51"/><path class="cls-36" d="M343.32,55.51l.69-.35.69.35-.69.36Z"/><polygon class="cls-34" points="343.76 56.17 343.76 66.56 326.6 75.31 326.66 64.88 343.76 56.17"/><path class="cls-35" d="M343.77,57.16V58l-17.12,8.72v-.8Z"/><path class="cls-35" d="M343.77,59.56v.8l-17.14,8.73v-.81Z"/><path class="cls-35" d="M343.77,62v.81l-17.15,8.73v-.8Z"/><path class="cls-35" d="M343.77,64.36v.8L326.6,73.9l0-.81Z"/><path class="cls-36" d="M343.76,56.17l-17.1,8.71-.43-.22L343.32,56Z"/><polygon class="cls-34" points="326.65 64.72 326.6 75.56 325.96 75.89 325.96 65.08 326.65 64.72"/><polygon class="cls-35" points="325.27 64.72 325.27 75.54 325.96 75.89 325.96 65.08 325.27 64.72"/><path class="cls-36" d="M325.27,64.72l.69-.35.69.35-.69.36Z"/><polygon class="cls-34" points="325.69 65.36 325.7 75.76 308.54 84.5 308.59 74.07 325.69 65.36"/><path class="cls-35" d="M325.7,66.35v.8l-17.11,8.72v-.8Z"/><path class="cls-35" d="M325.7,68.75v.8l-17.13,8.73v-.8Z"/><path class="cls-35" d="M325.7,71.15V72l-17.14,8.74v-.81Z"/><path class="cls-35" d="M325.7,73.55v.8L308.54,83.1l0-.81Z"/><path class="cls-36" d="M325.69,65.36l-17.1,8.71-.43-.22,17.1-8.71Z"/><polygon class="cls-34" points="308.59 73.91 308.54 84.76 307.9 85.08 307.9 74.27 308.59 73.91"/><polygon class="cls-35" points="307.21 73.92 307.21 84.73 307.9 85.08 307.9 74.27 307.21 73.92"/><path class="cls-36" d="M307.21,73.92l.69-.36.69.35-.69.36Z"/><polygon class="cls-34" points="307.63 74.56 307.64 84.96 290.48 93.7 290.53 83.28 307.63 74.56"/><path class="cls-35" d="M307.64,75.55v.8l-17.11,8.73v-.81Z"/><path class="cls-35" d="M307.64,78v.8l-17.13,8.73v-.8Z"/><path class="cls-35" d="M307.64,80.35v.8L290.5,89.89v-.81Z"/><path class="cls-35" d="M307.64,82.75v.8L290.48,92.3l0-.81Z"/><path class="cls-36" d="M307.63,74.56l-17.1,8.71-.43-.22,17.1-8.71Z"/><polygon class="cls-34" points="290.53 83.12 290.48 93.96 289.84 94.29 289.84 83.47 290.53 83.12"/><polygon class="cls-35" points="289.14 83.12 289.14 93.93 289.84 94.29 289.84 83.47 289.14 83.12"/><path class="cls-36" d="M289.15,83.12l.69-.36.69.36-.69.35Z"/><polygon class="cls-34" points="289.58 83.77 289.59 94.17 272.43 102.91 272.48 92.49 289.58 83.77"/><path class="cls-35" d="M289.59,84.76v.8l-17.11,8.73v-.8Z"/><path class="cls-35" d="M289.59,87.16V88L272.46,96.7v-.81Z"/><path class="cls-35" d="M289.59,89.56v.8L272.45,99.1v-.81Z"/><path class="cls-35" d="M289.59,92v.8l-17.16,8.75,0-.81Z"/><path class="cls-36" d="M289.58,83.77l-17.1,8.72-.43-.22,17.1-8.72Z"/><polygon class="cls-34" points="272.48 92.33 272.43 103.17 271.79 103.5 271.79 92.68 272.48 92.33"/><polygon class="cls-35" points="271.1 92.33 271.1 103.14 271.79 103.5 271.79 92.68 271.1 92.33"/><path class="cls-36" d="M271.1,92.33l.69-.35.69.35-.69.35Z"/><polygon class="cls-34" points="271.52 92.97 271.54 103.37 254.37 112.11 254.43 101.69 271.52 92.97"/><path class="cls-35" d="M271.54,94v.8l-17.12,8.73v-.81Z"/><path class="cls-35" d="M271.54,96.36v.8L254.4,105.9v-.81Z"/><path class="cls-35" d="M271.54,98.76v.8l-17.15,8.74v-.81Z"/><path class="cls-35" d="M271.54,101.16v.8l-17.17,8.75,0-.81Z"/><path class="cls-36" d="M271.53,93l-17.1,8.72-.43-.22,17.09-8.72Z"/><polygon class="cls-34" points="254.43 101.53 254.37 112.37 253.73 112.7 253.73 101.88 254.43 101.53"/><polygon class="cls-35" points="253.04 101.53 253.04 112.34 253.73 112.7 253.73 101.88 253.04 101.53"/><path class="cls-36" d="M253,101.53l.69-.36.69.36-.69.35Z"/><polygon class="cls-34" points="253.47 102.18 253.47 112.57 236.31 121.32 236.37 110.89 253.47 102.18"/><path class="cls-35" d="M253.48,103.17v.8l-17.12,8.72v-.8Z"/><path class="cls-35" d="M253.48,105.57v.8l-17.14,8.73v-.81Z"/><path class="cls-35" d="M253.48,108v.81l-17.15,8.73v-.8Z"/><path class="cls-35" d="M253.48,110.37v.79l-17.17,8.75,0-.81Z"/><path class="cls-36" d="M253.47,102.18l-17.1,8.71-.44-.22L253,102Z"/><polygon class="cls-34" points="236.36 110.73 236.31 121.57 235.67 121.9 235.67 111.09 236.36 110.73"/><polygon class="cls-35" points="234.98 110.73 234.98 121.55 235.67 121.9 235.67 111.09 234.98 110.73"/><path class="cls-36" d="M235,110.73l.69-.35.69.35-.69.36Z"/><polygon class="cls-34" points="235.41 111.38 235.41 121.77 218.25 130.52 218.31 120.09 235.41 111.38"/><path class="cls-35" d="M235.42,112.37v.8l-17.12,8.72v-.8Z"/><path class="cls-35" d="M235.42,114.77v.8l-17.14,8.73v-.8Z"/><path class="cls-35" d="M235.42,117.16V118l-17.15,8.73v-.8Z"/><path class="cls-35" d="M235.42,119.57v.8l-17.17,8.74,0-.8Z"/><path class="cls-36" d="M235.41,111.38l-17.1,8.71-.43-.22L235,111.16Z"/><polygon class="cls-34" points="218.31 119.93 218.25 130.77 217.61 131.1 217.61 120.29 218.31 119.93"/><polygon class="cls-35" points="216.92 119.93 216.92 130.75 217.61 131.1 217.61 120.29 216.92 119.93"/><path class="cls-36" d="M216.92,119.93l.69-.35.69.35-.69.36Z"/><polygon class="cls-34" points="217.35 120.58 217.35 130.97 200.19 139.72 200.25 129.29 217.35 120.58"/><path class="cls-35" d="M217.36,121.57v.8l-17.12,8.72v-.8Z"/><path class="cls-35" d="M217.36,124v.8l-17.14,8.73v-.8Z"/><path class="cls-35" d="M217.36,126.36v.81l-17.15,8.74v-.81Z"/><path class="cls-35" d="M217.36,128.77v.8l-17.17,8.75,0-.81Z"/><path class="cls-36" d="M217.35,120.58l-17.1,8.71-.43-.22,17.09-8.71Z"/><polygon class="cls-34" points="200.25 129.13 200.19 139.97 199.55 140.3 199.55 129.49 200.25 129.13"/><polygon class="cls-35" points="198.86 129.13 198.86 139.95 199.55 140.3 199.55 129.49 198.86 129.13"/><path class="cls-36" d="M198.86,129.13l.69-.35.69.35-.69.36Z"/></g></g></g></g></svg>