<svg xmlns="http://www.w3.org/2000/svg" viewBox="0 0 380.83 285.52"><g id="Шар_2"><g><g id="s10"><g id="rolls"><polygon class="cls-1" points="130.79 7.4 127.82 5.68 122.46 8.11 125.35 9.8 130.79 7.4"/><polygon class="cls-2" points="130.79 7.4 133.74 9.08 129.01 11.89 125.54 9.89 130.79 7.4"/><path class="cls-3" d="M128.14,4.58l-4.38,2.54-.43,1,4.42-2.47C128.19,5.39,128.14,4.58,128.14,4.58Z"/><path class="cls-4" d="M128.14,4.58a3.18,3.18,0,0,0-1.5-2.41,1.48,1.48,0,0,0-1-.16l-4.41,2.57,2.48,2.54Z"/><ellipse class="cls-2" cx="122.31" cy="6.35" rx="1.2" ry="2.05" transform="translate(13.21 62) rotate(-30)"/><path class="cls-3" d="M131.18,6.34,126.8,8.88l-.43,1,4.42-2.47C131.23,7.15,131.18,6.34,131.18,6.34Z"/><path class="cls-4" d="M131.18,6.34a3.18,3.18,0,0,0-1.5-2.41,1.45,1.45,0,0,0-1-.15l-4.41,2.56,2.48,2.54Z"/><ellipse class="cls-2" cx="125.35" cy="8.11" rx="1.2" ry="2.05" transform="translate(12.74 63.76) rotate(-30)"/><path class="cls-3" d="M129.8,2.59l-4.38,2.54-.43,1,4.43-2.46C129.85,3.39,129.8,2.59,129.8,2.59Z"/><path class="cls-4" d="M129.8,2.59A3.19,3.19,0,0,0,128.3.17a1.52,1.52,0,0,0-1-.15l-4.41,2.56,2.48,2.55Z"/><ellipse class="cls-2" cx="123.97" cy="4.36" rx="1.2" ry="2.05" transform="translate(14.43 62.57) rotate(-30)"/></g><g id="rolls-2" ><polygon class="cls-1" points="162.72 39.19 159.75 37.48 154.39 39.91 157.28 41.6 162.72 39.19"/><polygon class="cls-2" points="162.72 39.19 165.67 40.88 160.94 43.69 157.47 41.69 162.72 39.19"/><path class="cls-3" d="M160.07,36.38l-4.38,2.54-.43,1,4.42-2.46C160.12,37.19,160.07,36.38,160.07,36.38Z"/><path class="cls-4" d="M160.07,36.38a3.21,3.21,0,0,0-1.5-2.42,1.53,1.53,0,0,0-.95-.15l-4.41,2.56,2.48,2.55Z"/><ellipse class="cls-2" cx="154.23" cy="38.15" rx="1.2" ry="2.05" transform="translate(1.59 82.23) rotate(-30)"/><path class="cls-3" d="M163.11,38.14l-4.38,2.54-.43,1,4.42-2.46C163.16,39,163.11,38.14,163.11,38.14Z"/><path class="cls-4" d="M163.11,38.14a3.2,3.2,0,0,0-1.51-2.42,1.49,1.49,0,0,0-.94-.15l-4.41,2.56,2.48,2.55Z"/><ellipse class="cls-2" cx="157.27" cy="39.91" rx="1.2" ry="2.05" transform="translate(1.12 83.98) rotate(-30)"/><path class="cls-3" d="M161.73,34.39l-4.38,2.53-.43,1,4.42-2.47C161.78,35.19,161.73,34.39,161.73,34.39Z"/><path class="cls-4" d="M161.73,34.39a3.19,3.19,0,0,0-1.5-2.42,1.52,1.52,0,0,0-.95-.15l-4.41,2.56,2.48,2.54Z"/><ellipse class="cls-2" cx="155.9" cy="36.15" rx="1.2" ry="2.05" transform="translate(2.81 82.79) rotate(-30)"/></g><g id="rolls-3" ><polygon class="cls-1" points="241.9 24.02 244.88 22.31 250.24 24.74 247.35 26.43 241.9 24.02"/><polygon class="cls-2" points="241.9 24.02 238.95 25.71 243.69 28.52 247.16 26.52 241.9 24.02"/><path class="cls-3" d="M244.56,21.21l4.37,2.54.43,1-4.42-2.46C244.5,22,244.56,21.21,244.56,21.21Z"/><path class="cls-2" d="M244.56,21.21a3.21,3.21,0,0,1,1.5-2.42,1.52,1.52,0,0,1,.95-.15l4.4,2.56-2.48,2.55Z"/><ellipse class="cls-4" cx="250.39" cy="22.98" rx="2.05" ry="1.2" transform="translate(105.29 228.33) rotate(-60)"/><path class="cls-3" d="M241.52,23l4.37,2.54.43,1-4.42-2.47C241.46,23.78,241.52,23,241.52,23Z"/><path class="cls-2" d="M241.52,23a3.21,3.21,0,0,1,1.5-2.42,1.52,1.52,0,0,1,.95-.15l4.4,2.56-2.48,2.55Z"/><ellipse class="cls-4" cx="247.35" cy="24.74" rx="2.05" ry="1.2" transform="translate(102.25 226.58) rotate(-60)"/><path class="cls-3" d="M242.9,19.22l4.37,2.53.43,1-4.42-2.47C242.84,20,242.9,19.22,242.9,19.22Z"/><path class="cls-2" d="M242.9,19.22a3.19,3.19,0,0,1,1.5-2.42,1.52,1.52,0,0,1,.95-.15l4.4,2.56-2.48,2.54Z"/><ellipse class="cls-4" cx="248.73" cy="20.98" rx="2.05" ry="1.2" transform="translate(106.19 225.9) rotate(-60)"/></g><g id="rolls-4" ><polygon class="cls-1" points="247.24 224.72 250.21 223 255.57 225.43 252.69 227.12 247.24 224.72"/><path class="cls-3" d="M249.9,221.9l4.37,2.54.43,1L250.28,223C249.84,222.71,249.9,221.9,249.9,221.9Z"/><path class="cls-2" d="M249.9,221.9a3.15,3.15,0,0,1,1.5-2.41,1.46,1.46,0,0,1,.94-.16l4.41,2.57-2.48,2.54Z"/><ellipse class="cls-4" cx="255.73" cy="223.67" rx="2.05" ry="1.2" transform="translate(-65.84 333.3) rotate(-60)"/><path class="cls-3" d="M246.86,223.66l4.37,2.54.43,1-4.42-2.47C246.8,224.47,246.86,223.66,246.86,223.66Z"/><path class="cls-2" d="M246.86,223.66a3.15,3.15,0,0,1,1.5-2.41,1.46,1.46,0,0,1,.94-.16l4.41,2.57-2.48,2.54Z"/><ellipse class="cls-4" cx="252.69" cy="225.43" rx="2.05" ry="1.2" transform="translate(-68.89 331.55) rotate(-60)"/><path class="cls-3" d="M248.23,219.91l4.38,2.54.43,1L248.62,221C248.18,220.71,248.23,219.91,248.23,219.91Z"/><path class="cls-2" d="M248.23,219.91a3.19,3.19,0,0,1,1.51-2.42,1.49,1.49,0,0,1,.94-.15l4.41,2.56-2.48,2.55Z"/><ellipse class="cls-4" cx="254.07" cy="221.68" rx="2.05" ry="1.2" transform="translate(-64.94 330.87) rotate(-60)"/><path class="cls-3" d="M245.17,221.62l4.37,2.54.43,1-4.42-2.46C245.11,222.42,245.17,221.62,245.17,221.62Z"/><path class="cls-2" d="M245.17,221.62a3.16,3.16,0,0,1,1.5-2.42,1.49,1.49,0,0,1,.94-.15l4.41,2.56-2.48,2.55Z"/><ellipse class="cls-4" cx="251" cy="223.39" rx="2.05" ry="1.2" transform="translate(-67.96 329.06) rotate(-60)"/><path class="cls-3" d="M243.82,225.66l4.38,2.54.43,1-4.42-2.46C243.77,226.46,243.82,225.66,243.82,225.66Z"/><path class="cls-2" d="M243.82,225.66a3.19,3.19,0,0,1,1.5-2.42,1.52,1.52,0,0,1,1-.15l4.41,2.56-2.48,2.55Z"/><ellipse class="cls-4" cx="249.65" cy="227.43" rx="2.05" ry="1.2" transform="translate(-72.13 329.92) rotate(-60)"/><path class="cls-3" d="M240.78,227.42l4.38,2.54.43,1-4.42-2.46C240.73,228.22,240.78,227.42,240.78,227.42Z"/><path class="cls-2" d="M240.78,227.42a3.19,3.19,0,0,1,1.5-2.42,1.52,1.52,0,0,1,.95-.15l4.41,2.56L245.16,230Z"/><ellipse class="cls-4" cx="246.61" cy="229.19" rx="2.05" ry="1.2" transform="translate(-75.17 328.17) rotate(-60)"/><path class="cls-3" d="M242.16,223.66l4.38,2.54.43,1-4.43-2.47C242.11,224.47,242.16,223.66,242.16,223.66Z"/><path class="cls-2" d="M242.16,223.66a3.18,3.18,0,0,1,1.5-2.41,1.48,1.48,0,0,1,1-.16l4.41,2.57-2.48,2.54Z"/><ellipse class="cls-4" cx="247.99" cy="225.43" rx="2.05" ry="1.2" transform="translate(-71.23 327.48) rotate(-60)"/></g><g id="rolls-5" ><polygon class="cls-1" points="252.73 227.27 255.7 225.56 261.06 227.99 258.18 229.68 252.73 227.27"/><path class="cls-3" d="M255.39,224.46l4.37,2.54.43,1-4.42-2.46C255.33,225.26,255.39,224.46,255.39,224.46Z"/><path class="cls-2" d="M255.39,224.46a3.17,3.17,0,0,1,1.5-2.42,1.49,1.49,0,0,1,.94-.15l4.41,2.56L259.76,227Z"/><ellipse class="cls-4" cx="261.22" cy="226.23" rx="2.05" ry="1.2" transform="translate(-65.31 339.34) rotate(-60)"/><path class="cls-3" d="M252.35,226.22l4.37,2.54.43,1-4.42-2.46C252.29,227,252.35,226.22,252.35,226.22Z"/><path class="cls-2" d="M252.35,226.22a3.17,3.17,0,0,1,1.5-2.42,1.49,1.49,0,0,1,.94-.15l4.41,2.56-2.48,2.55Z"/><ellipse class="cls-4" cx="258.18" cy="227.99" rx="2.05" ry="1.2" transform="translate(-68.35 337.58) rotate(-60)"/><path class="cls-3" d="M253.73,222.46,258.1,225l.43,1-4.42-2.47C253.67,223.27,253.73,222.46,253.73,222.46Z"/><path class="cls-2" d="M253.73,222.46a3.15,3.15,0,0,1,1.5-2.41,1.42,1.42,0,0,1,.94-.15l4.41,2.56L258.1,225Z"/><ellipse class="cls-4" cx="259.56" cy="224.23" rx="2.05" ry="1.2" transform="translate(-64.41 336.9) rotate(-60)"/><path class="cls-3" d="M250.66,224.17l4.37,2.54.43,1L251,225.25C250.6,225,250.66,224.17,250.66,224.17Z"/><path class="cls-2" d="M250.66,224.17a3.18,3.18,0,0,1,1.5-2.41,1.52,1.52,0,0,1,1-.15l4.4,2.56L255,226.71Z"/><ellipse class="cls-4" cx="256.49" cy="225.94" rx="2.05" ry="1.2" transform="translate(-67.43 335.1) rotate(-60)"/><path class="cls-3" d="M249.31,228.21l4.38,2.54.43,1-4.42-2.47C249.26,229,249.31,228.21,249.31,228.21Z"/><path class="cls-2" d="M249.31,228.21a3.18,3.18,0,0,1,1.5-2.41,1.53,1.53,0,0,1,.95-.15l4.41,2.56-2.48,2.54Z"/><ellipse class="cls-4" cx="255.15" cy="229.98" rx="2.05" ry="1.2" transform="translate(-71.6 335.95) rotate(-60)"/><path class="cls-3" d="M246.27,230l4.38,2.54.43,1-4.42-2.47C246.22,230.78,246.27,230,246.27,230Z"/><path class="cls-2" d="M246.27,230a3.18,3.18,0,0,1,1.5-2.41,1.53,1.53,0,0,1,.95-.15l4.41,2.56-2.48,2.54Z"/><ellipse class="cls-4" cx="252.11" cy="231.74" rx="2.05" ry="1.2" transform="translate(-74.64 334.2) rotate(-60)"/><path class="cls-3" d="M247.65,226.22l4.38,2.54.43,1L248,227.3C247.6,227,247.65,226.22,247.65,226.22Z"/><path class="cls-2" d="M247.65,226.22a3.21,3.21,0,0,1,1.5-2.42,1.52,1.52,0,0,1,.95-.15l4.41,2.56L252,228.76Z"/><ellipse class="cls-4" cx="253.48" cy="227.99" rx="2.05" ry="1.2" transform="translate(-70.7 333.52) rotate(-60)"/></g><polygon class="cls-5" points="53.76 158.87 53.76 159.27 80.13 145.84 80.12 145.43 53.76 158.87"/><polygon class="cls-6" points="53.34 158.65 57.07 160.55 57.07 160.96 53.34 159.06 53.34 158.65"/><polygon class="cls-6" points="54.99 158.23 58.31 159.92 58.31 160.33 54.99 158.64 54.99 158.23"/><polygon class="cls-6" points="56.26 157.59 59.57 159.28 59.57 159.69 56.26 158 56.26 157.59"/><polygon class="cls-6" points="57.48 156.97 60.8 158.66 60.8 159.06 57.48 157.37 57.48 156.97"/><polygon class="cls-6" points="58.66 156.36 61.98 158.05 61.98 158.46 58.66 156.77 58.66 156.36"/><polygon class="cls-6" points="59.89 155.74 63.21 157.43 63.21 157.83 59.89 156.14 59.89 155.74"/><polygon class="cls-6" points="61.14 155.1 64.46 156.79 64.46 157.2 61.14 155.51 61.14 155.1"/><polygon class="cls-6" points="62.37 154.47 65.69 156.16 65.69 156.57 62.37 154.88 62.37 154.47"/><polygon class="cls-6" points="63.66 153.82 66.98 155.51 66.98 155.91 63.66 154.22 63.66 153.82"/><polygon class="cls-6" points="64.9 153.18 68.22 154.87 68.22 155.28 64.9 153.59 64.9 153.18"/><polygon class="cls-6" points="66.13 152.56 69.45 154.25 69.45 154.65 66.13 152.97 66.13 152.56"/><polygon class="cls-6" points="67.38 151.92 70.69 153.61 70.69 154.02 67.38 152.33 67.38 151.92"/><polygon class="cls-6" points="68.61 151.3 71.92 152.99 71.92 153.39 68.61 151.7 68.61 151.3"/><polygon class="cls-6" points="69.86 150.66 73.17 152.35 73.17 152.75 69.86 151.07 69.86 150.66"/><polygon class="cls-6" points="71.11 150.02 74.43 151.71 74.43 152.12 71.11 150.43 71.11 150.02"/><polygon class="cls-6" points="72.34 149.4 75.65 151.09 75.65 151.49 72.34 149.8 72.34 149.4"/><polygon class="cls-6" points="73.57 148.77 76.89 150.46 76.88 150.87 73.57 149.18 73.57 148.77"/><polygon class="cls-6" points="74.77 148.16 78.08 149.85 78.08 150.26 74.77 148.57 74.77 148.16"/><polygon class="cls-6" points="76.03 147.51 79.35 149.2 79.35 149.61 76.03 147.92 76.03 147.51"/><polygon class="cls-6" points="77.25 146.89 80.57 148.58 80.57 148.99 77.25 147.3 77.25 146.89"/><polygon class="cls-6" points="78.53 146.24 81.84 147.93 81.84 148.34 78.53 146.65 78.53 146.24"/><polygon class="cls-6" points="79.71 145.64 83.03 147.33 83.03 147.74 79.71 146.05 79.71 145.64"/><polygon class="cls-7" points="53.76 158.44 53.34 158.65 57.07 160.55 57.48 160.34 53.76 158.44"/><polygon class="cls-7" points="54.99 157.81 54.58 158.02 58.31 159.92 58.72 159.71 54.99 157.81"/><polygon class="cls-7" points="56.26 157.17 55.84 157.38 59.57 159.28 59.99 159.07 56.26 157.17"/><polygon class="cls-7" points="57.48 156.54 57.07 156.76 60.8 158.66 61.21 158.44 57.48 156.54"/><polygon class="cls-7" points="58.66 155.94 58.25 156.15 61.98 158.05 62.39 157.84 58.66 155.94"/><polygon class="cls-7" points="59.89 155.32 59.48 155.53 63.21 157.43 63.62 157.22 59.89 155.32"/><polygon class="cls-7" points="61.15 154.68 60.73 154.89 64.46 156.79 64.87 156.58 61.15 154.68"/><polygon class="cls-7" points="62.37 154.05 61.96 154.26 65.69 156.16 66.1 155.95 62.37 154.05"/><polygon class="cls-7" points="63.66 153.4 63.25 153.61 66.98 155.51 67.39 155.3 63.66 153.4"/><polygon class="cls-7" points="64.9 152.76 64.49 152.97 68.22 154.87 68.63 154.66 64.9 152.76"/><polygon class="cls-7" points="66.13 152.14 65.72 152.35 69.45 154.25 69.86 154.04 66.13 152.14"/><polygon class="cls-7" points="67.38 151.5 66.97 151.71 70.69 153.61 71.11 153.4 67.38 151.5"/><polygon class="cls-7" points="68.61 150.88 68.19 151.09 71.92 152.99 72.34 152.78 68.61 150.88"/><polygon class="cls-7" points="69.86 150.24 69.45 150.45 73.17 152.35 73.59 152.14 69.86 150.24"/><polygon class="cls-7" points="71.11 149.6 70.7 149.81 74.43 151.71 74.84 151.5 71.11 149.6"/><polygon class="cls-7" points="72.34 148.97 71.92 149.19 75.65 151.09 76.07 150.88 72.34 148.97"/><polygon class="cls-7" points="73.57 148.35 73.16 148.56 76.89 150.46 77.3 150.25 73.57 148.35"/><polygon class="cls-7" points="74.77 147.74 74.35 147.95 78.08 149.85 78.5 149.64 74.77 147.74"/><polygon class="cls-7" points="76.03 147.09 75.62 147.3 79.35 149.2 79.76 148.99 76.03 147.09"/><polygon class="cls-7" points="77.25 146.47 76.84 146.68 80.57 148.58 80.98 148.37 77.25 146.47"/><polygon class="cls-7" points="78.53 145.82 78.11 146.03 81.84 147.93 82.25 147.72 78.53 145.82"/><polygon class="cls-7" points="79.71 145.22 79.3 145.43 83.03 147.33 83.44 147.12 79.71 145.22"/><polygon class="cls-7" points="53.76 158.44 53.76 158.87 80.12 145.43 79.71 145.22 53.76 158.44"/><polygon class="cls-5" points="57.07 160.55 57.07 160.96 83.44 147.53 83.44 147.12 57.07 160.55"/><polygon class="cls-7" points="57.07 160.13 57.07 160.55 83.44 147.12 83.02 146.91 57.07 160.13"/><g id="vagon_s3"><polygon class="cls-8" points="66.57 151.66 57.61 147.09 39.74 156.19 48.7 160.76 66.57 151.66"/><polygon class="cls-9" points="66.57 151.66 66.57 152.25 48.7 161.35 48.7 160.76 66.57 151.66"/><polygon class="cls-10" points="48.7 160.76 48.7 161.35 39.74 156.78 39.74 156.19 48.7 160.76"/><polygon class="cls-10" points="48.7 173.58 48.7 174.17 39.74 169.6 39.74 169.01 48.7 173.58"/><polygon class="cls-11" points="48.7 161.35 39.74 156.78 39.74 169.01 48.7 173.58 48.7 161.35"/><polygon class="cls-9" points="66.57 164.47 66.57 165.06 48.7 174.17 48.7 173.58 66.57 164.47"/><polygon class="cls-12" points="66.57 152.25 48.7 161.35 48.7 173.58 66.57 164.47 66.57 152.25"/><polygon class="cls-13" points="63.17 154.82 58.16 157.38 58.16 168.76 63.17 166.21 63.17 154.82"/><polygon class="cls-13" points="49.77 161.65 49.22 161.93 49.22 172.52 49.77 172.24 49.77 161.65"/><polygon class="cls-13" points="50.9 161.07 50.34 161.36 50.34 171.95 50.9 171.67 50.9 161.07"/><polygon class="cls-13" points="52.03 160.5 51.48 160.78 51.48 171.37 52.03 171.09 52.03 160.5"/><polygon class="cls-13" points="53.1 159.95 52.55 160.23 52.55 170.82 53.1 170.54 53.1 159.95"/><polygon class="cls-13" points="54.24 159.37 53.68 159.66 53.68 170.25 54.24 169.97 54.24 159.37"/><polygon class="cls-13" points="55.37 158.8 54.82 159.08 54.82 169.67 55.37 169.39 55.37 158.8"/><polygon class="cls-13" points="56.44 158.25 55.88 158.54 55.88 169.13 56.44 168.84 56.44 158.25"/><polygon class="cls-13" points="57.57 157.67 57.02 157.96 57.02 168.55 57.57 168.26 57.57 157.67"/><polygon class="cls-13" points="64.27 154.26 63.72 154.54 63.72 165.14 64.27 164.85 64.27 154.26"/><polygon class="cls-13" points="65.41 153.68 64.85 153.97 64.85 164.56 65.41 164.28 65.41 153.68"/><polygon class="cls-9" points="56.44 158.25 52.55 160.23 52.55 164.71 56.44 162.73 56.44 158.25"/><polygon class="cls-14" points="55.91 159.08 53.12 160.51 53.12 163.86 55.91 162.44 55.91 159.08"/><polygon class="cls-15" points="48.1 161.89 47.54 161.6 47.54 172.19 48.1 172.48 48.1 161.89"/><polygon class="cls-15" points="46.97 161.31 46.41 161.02 46.41 171.61 46.97 171.9 46.97 161.31"/><polygon class="cls-15" points="45.86 160.75 45.3 160.46 45.3 171.05 45.86 171.34 45.86 160.75"/><polygon class="cls-15" points="44.79 160.2 44.23 159.91 44.23 170.5 44.79 170.79 44.79 160.2"/><polygon class="cls-15" points="43.63 159.61 43.07 159.32 43.07 169.91 43.63 170.2 43.63 159.61"/><polygon class="cls-15" points="42.46 159.01 41.9 158.73 41.9 169.32 42.46 169.6 42.46 159.01"/><polygon class="cls-15" points="41.41 158.48 40.85 158.19 40.85 168.78 41.41 169.07 41.41 158.48"/><polygon class="cls-9" points="63.44 155.47 62.89 155.75 62.89 156.34 63.44 156.05 63.44 155.47"/><polygon class="cls-11" points="62.59 155.72 58.68 157.71 58.68 167.88 62.59 165.88 62.59 155.72"/><polygon class="cls-9" points="59.29 161.58 59.29 162.18 58.16 162.75 58.16 162.16 59.29 161.58"/><polygon class="cls-9" points="63.44 164.57 63.44 165.21 62.89 165.5 62.89 164.85 63.44 164.57"/><polygon class="cls-12" points="62.59 156.29 59.29 157.98 59.29 167.57 62.59 165.88 62.59 156.29"/></g><g id="vagon_s3-2" ><polygon class="cls-8" points="48.7 160.76 39.74 156.19 21.87 165.3 30.84 169.87 48.7 160.76"/><polygon class="cls-9" points="48.7 160.76 48.7 161.35 30.84 170.45 30.84 169.87 48.7 160.76"/><polygon class="cls-10" points="30.84 169.87 30.84 170.45 21.87 165.88 21.87 165.3 30.84 169.87"/><polygon class="cls-10" points="30.84 182.68 30.84 183.27 21.87 178.71 21.87 178.11 30.84 182.68"/><polygon class="cls-11" points="30.84 170.45 21.87 165.88 21.87 178.11 30.84 182.68 30.84 170.45"/><polygon class="cls-9" points="48.7 173.58 48.7 174.17 30.84 183.27 30.84 182.68 48.7 173.58"/><polygon class="cls-12" points="48.7 161.35 30.84 170.45 30.84 182.68 48.7 173.58 48.7 161.35"/><polygon class="cls-13" points="45.3 163.93 40.29 166.48 40.29 177.86 45.3 175.31 45.3 163.93"/><polygon class="cls-13" points="31.91 170.75 31.35 171.03 31.35 181.63 31.91 181.34 31.91 170.75"/><polygon class="cls-13" points="33.03 170.18 32.48 170.46 32.48 181.05 33.03 180.77 33.03 170.18"/><polygon class="cls-13" points="34.16 169.6 33.61 169.88 33.61 180.48 34.16 180.19 34.16 169.6"/><polygon class="cls-13" points="35.23 169.06 34.68 169.34 34.68 179.93 35.23 179.65 35.23 169.06"/><polygon class="cls-13" points="36.37 168.48 35.81 168.76 35.81 179.35 36.37 179.07 36.37 168.48"/><polygon class="cls-13" points="37.5 167.9 36.95 168.18 36.95 178.77 37.5 178.49 37.5 167.9"/><polygon class="cls-13" points="38.57 167.36 38.01 167.64 38.01 178.23 38.57 177.95 38.57 167.36"/><polygon class="cls-13" points="39.7 166.78 39.15 167.06 39.15 177.65 39.7 177.37 39.7 166.78"/><polygon class="cls-13" points="46.4 163.37 45.85 163.65 45.85 174.24 46.4 173.96 46.4 163.37"/><polygon class="cls-13" points="47.54 162.79 46.98 163.07 46.98 173.66 47.54 173.38 47.54 162.79"/><polygon class="cls-9" points="38.57 167.36 34.68 169.34 34.68 173.81 38.57 171.83 38.57 167.36"/><polygon class="cls-14" points="38.05 168.19 35.25 169.61 35.25 172.97 38.05 171.54 38.05 168.19"/><polygon class="cls-15" points="30.23 170.99 29.67 170.71 29.67 181.3 30.23 181.58 30.23 170.99"/><polygon class="cls-15" points="29.1 170.41 28.54 170.13 28.54 180.72 29.1 181 29.1 170.41"/><polygon class="cls-15" points="28 169.85 27.43 169.56 27.43 180.16 28 180.44 28 169.85"/><polygon class="cls-15" points="26.92 169.3 26.36 169.02 26.36 179.61 26.92 179.89 26.92 169.3"/><polygon class="cls-15" points="25.76 168.71 25.2 168.43 25.2 179.02 25.76 179.3 25.76 168.71"/><polygon class="cls-15" points="24.59 168.12 24.04 167.83 24.04 178.42 24.59 178.71 24.59 168.12"/><polygon class="cls-15" points="23.54 167.58 22.98 167.29 22.98 177.89 23.54 178.17 23.54 167.58"/><polygon class="cls-9" points="45.58 164.57 45.02 164.86 45.02 165.44 45.58 165.16 45.58 164.57"/><polygon class="cls-11" points="44.72 164.82 40.81 166.81 40.81 176.98 44.72 174.99 44.72 164.82"/><polygon class="cls-9" points="41.42 170.69 41.42 171.29 40.29 171.86 40.29 171.26 41.42 170.69"/><polygon class="cls-9" points="45.58 173.67 45.58 174.32 45.02 174.6 45.02 173.96 45.58 173.67"/><polygon class="cls-12" points="44.72 165.4 41.42 167.08 41.42 176.67 44.72 174.99 44.72 165.4"/></g><g id="biotoilet_s3"><polygon class="cls-16" points="25.8 173.52 20.11 176.42 14.42 173.52 20.11 170.62 25.8 173.52"/><polygon class="cls-17" points="25.8 173.52 25.8 173.98 20.11 176.88 20.11 176.42 25.8 173.52"/><polygon class="cls-18" points="20.11 176.42 14.42 173.52 14.42 173.98 20.11 176.88 20.11 176.42"/><polygon class="cls-19" points="25.8 173.98 20.11 176.88 20.11 188.73 25.8 185.83 25.8 173.98"/><polygon class="cls-20" points="24.85 175.2 21.06 177.13 21.06 187.54 24.85 185.61 24.85 175.2"/><polygon class="cls-21" points="20.11 176.88 14.42 173.98 14.42 185.83 20.11 188.73 20.11 176.88"/><polygon class="cls-22" points="19.19 177.15 15.39 175.21 15.39 185.62 19.19 187.56 19.19 177.15"/><polygon class="cls-21" points="18.7 185.86 15.85 184.41 15.85 185.4 18.7 186.85 18.7 185.86"/><polygon class="cls-21" points="18.7 181.6 15.85 180.15 15.85 181.15 18.7 182.6 18.7 181.6"/><polygon class="cls-21" points="18.7 177.32 15.85 175.87 15.85 176.87 18.7 178.32 18.7 177.32"/><polygon class="cls-21" points="18.7 183.03 15.85 181.58 15.85 183.95 18.7 185.4 18.7 183.03"/><polygon class="cls-21" points="18.7 178.8 15.85 177.35 15.85 179.72 18.7 181.17 18.7 178.8"/><polygon class="cls-23" points="24.63 179.94 23.67 180.43 23.67 181.64 24.63 181.15 24.63 179.94"/><polygon class="cls-21" points="23.67 180.52 21.53 181.61 21.53 182.58 23.67 181.5 23.67 180.52"/><polygon class="cls-19" points="24.39 181.58 21.53 183.04 21.53 186.86 24.39 185.4 24.39 181.58"/><polygon class="cls-19" points="24.39 175.89 21.53 177.34 21.53 181.16 24.39 179.71 24.39 175.89"/><polygon class="cls-21" points="23.92 177 22 177.98 22 180.21 23.92 179.23 23.92 177"/><polygon class="cls-21" points="23.92 182.53 22 183.51 22 185.74 23.92 184.76 23.92 182.53"/><polygon class="cls-23" points="21.79 185.85 20.83 186.34 20.83 186.84 21.79 186.35 21.79 185.85"/><polygon class="cls-23" points="21.79 177.57 20.83 178.06 20.83 178.56 21.79 178.07 21.79 177.57"/></g></g><g id="fence_front"><g id="barier_left"><polygon class="cls-24" points="36.77 191.06 36.72 201.9 36.08 202.23 36.08 191.41 36.77 191.06"/><polygon class="cls-25" points="35.38 191.06 35.38 201.88 36.08 202.23 36.08 191.41 35.38 191.06"/><path class="cls-26" d="M35.38,191.06l.7-.35.69.35-.69.35Z"/><polygon class="cls-27" points="36.03 198.29 36.85 198.7 36.85 202.69 36.03 202.28 36.03 198.29"/><polygon class="cls-28" points="36.03 198.29 36.85 197.87 37.66 198.29 36.85 198.7 36.03 198.29"/><polygon class="cls-29" points="36.85 198.7 37.66 198.29 37.66 202.28 36.85 202.69 36.85 198.7"/><g id="closed"><polygon class="cls-28" points="36.85 199.9 37.66 199.48 54.36 207.99 53.55 208.41 36.85 199.9"/><polygon class="cls-27" points="36.85 199.9 36.85 200.7 53.55 209.21 53.55 208.41 36.85 199.9"/><polygon class="cls-1" points="36.85 202.69 37.66 202.28 54.36 210.79 53.55 211.2 36.85 202.69"/><polygon class="cls-30" points="39.93 200.64 40.73 201.05 39.52 201.26 38.69 200.84 39.93 200.64"/><polygon class="cls-31" points="37.91 201.24 38.69 200.84 39.52 201.26 38.74 201.66 37.91 201.24"/><polygon class="cls-30" points="42.42 201.91 43.22 202.32 42.01 202.53 41.18 202.1 42.42 201.91"/><polygon class="cls-31" points="40.4 202.51 41.18 202.1 42.01 202.53 41.23 202.93 40.4 202.51"/><polygon class="cls-30" points="44.98 203.21 45.78 203.62 44.57 203.83 43.74 203.41 44.98 203.21"/><polygon class="cls-31" points="42.96 203.81 43.74 203.41 44.57 203.83 43.79 204.24 42.96 203.81"/><polygon class="cls-30" points="47.62 204.56 48.43 204.97 47.22 205.18 46.38 204.75 47.62 204.56"/><polygon class="cls-31" points="45.6 205.16 46.38 204.75 47.22 205.18 46.43 205.58 45.6 205.16"/><polygon class="cls-30" points="50.21 205.88 51.02 206.29 49.81 206.5 48.97 206.07 50.21 205.88"/><polygon class="cls-31" points="48.19 206.48 48.97 206.07 49.81 206.5 49.02 206.9 48.19 206.48"/><polygon class="cls-30" points="52.95 207.27 53.76 207.68 52.55 207.9 51.71 207.47 52.95 207.27"/><polygon class="cls-31" points="50.93 207.88 51.71 207.47 52.55 207.9 51.77 208.3 50.93 207.88"/><polygon class="cls-29" points="53.55 208.41 54.36 207.99 54.36 208.79 53.55 209.21 53.55 208.41"/></g></g><g id="barier_right"><g id="close"><polygon class="cls-28" points="54.13 208.7 54.94 208.29 71.64 216.8 70.83 217.21 54.13 208.7"/><polygon class="cls-27" points="54.13 208.7 54.13 209.5 70.83 218.01 70.83 217.21 54.13 208.7"/><polygon class="cls-30" points="70.43 216.18 71.24 216.59 70.03 216.8 69.19 216.38 70.43 216.18"/><polygon class="cls-31" points="68.41 216.78 69.19 216.38 70.03 216.8 69.24 217.21 68.41 216.78"/><polygon class="cls-30" points="67.59 214.73 68.39 215.14 67.18 215.35 66.34 214.93 67.59 214.73"/><polygon class="cls-31" points="65.57 215.33 66.34 214.93 67.18 215.35 66.4 215.75 65.57 215.33"/><polygon class="cls-30" points="64.77 213.29 65.57 213.7 64.36 213.92 63.53 213.49 64.77 213.29"/><polygon class="cls-31" points="62.75 213.9 63.53 213.49 64.36 213.92 63.58 214.32 62.75 213.9"/><polygon class="cls-30" points="61.92 211.84 62.73 212.25 61.52 212.47 60.68 212.04 61.92 211.84"/><polygon class="cls-31" points="59.9 212.45 60.68 212.04 61.52 212.47 60.73 212.87 59.9 212.45"/><polygon class="cls-30" points="59.15 210.43 59.96 210.84 58.75 211.06 57.91 210.63 59.15 210.43"/><polygon class="cls-31" points="57.13 211.03 57.91 210.63 58.75 211.06 57.96 211.46 57.13 211.03"/><polygon class="cls-30" points="56.33 208.99 57.13 209.4 55.92 209.62 55.08 209.19 56.33 208.99"/><polygon class="cls-31" points="54.31 209.59 55.08 209.19 55.92 209.62 55.14 210.02 54.31 209.59"/><polygon class="cls-1" points="54.13 211.5 54.95 211.08 71.65 219.59 70.83 220.01 54.13 211.5"/></g><polygon class="cls-27" points="70.83 216.02 71.65 216.43 71.65 220.42 70.83 220.01 70.83 216.02"/><polygon class="cls-28" points="70.83 216.02 71.65 215.6 72.46 216.02 71.65 216.43 70.83 216.02"/><polygon class="cls-29" points="71.65 216.43 72.46 216.02 72.46 220.01 71.65 220.42 71.65 216.43"/></g><g id="fence_1"><polygon class="cls-25" points="0 173.19 0 183.59 17.22 192.36 17.22 181.96 0 173.19"/><path class="cls-24" d="M0,174.19V175l17.22,8.78V183Z"/><path class="cls-24" d="M0,176.59v.79l17.22,8.78v-.8Z"/><path class="cls-24" d="M0,179v.8l17.22,8.78v-.81Z"/><path class="cls-24" d="M0,181.38v.8L17.22,191v-.8Z"/><path class="cls-26" d="M0,173.19,17.22,182l.42-.24L.42,173Z"/><polygon class="cls-24" points="18.61 181.8 18.55 192.64 17.91 192.97 17.91 182.16 18.61 181.8"/><polygon class="cls-25" points="17.22 181.8 17.22 192.62 17.91 192.97 17.91 182.16 17.22 181.8"/><path class="cls-26" d="M17.22,181.8l.7-.35.69.35-.7.36Z"/><polygon class="cls-25" points="18.16 182.45 18.16 192.84 35.38 201.62 35.38 191.22 18.16 182.45"/><path class="cls-24" d="M18.16,183.44v.8L35.38,193v-.8Z"/><path class="cls-24" d="M18.16,185.84v.8l17.22,8.77v-.8Z"/><path class="cls-24" d="M18.16,188.23V189l17.22,8.77V197Z"/><path class="cls-24" d="M18.16,190.64v.8l17.22,8.77v-.8Z"/><path class="cls-26" d="M18.16,182.45l17.22,8.77.42-.24-17.22-8.77Z"/><polygon class="cls-24" points="73.1 209.57 73.05 220.41 72.4 220.74 72.4 209.92 73.1 209.57"/><polygon class="cls-25" points="71.71 209.57 71.71 220.38 72.4 220.74 72.4 209.92 71.71 209.57"/><path class="cls-26" d="M71.71,209.57l.7-.36.69.36-.7.35Z"/><polygon class="cls-25" points="72.66 210.21 72.66 220.61 89.87 229.38 89.88 218.98 72.66 210.21"/><path class="cls-24" d="M72.65,211.2v.8l17.22,8.78V220Z"/><path class="cls-24" d="M72.65,213.6v.8l17.22,8.78v-.8Z"/><path class="cls-24" d="M72.65,216v.8l17.22,8.78v-.81Z"/><path class="cls-24" d="M72.65,218.4v.8L89.87,228v-.8Z"/><path class="cls-26" d="M72.65,210.21,89.87,219l.42-.24L73.07,210Z"/><polygon class="cls-24" points="91.26 218.82 91.21 229.66 90.57 229.99 90.57 219.18 91.26 218.82"/><polygon class="cls-25" points="89.88 218.82 89.88 229.64 90.57 229.99 90.57 219.18 89.88 218.82"/><path class="cls-26" d="M89.88,218.82l.69-.35.69.35-.69.36Z"/><polygon class="cls-25" points="90.82 219.47 90.82 229.86 108.04 238.64 108.04 228.24 90.82 219.47"/><path class="cls-24" d="M90.82,220.46v.8L108,230v-.8Z"/><path class="cls-24" d="M90.82,222.86v.8L108,232.43v-.8Z"/><path class="cls-24" d="M90.82,225.25v.81L108,234.83V234Z"/><path class="cls-24" d="M90.82,227.66v.8L108,237.23v-.8Z"/><path class="cls-26" d="M90.82,219.47,108,228.24l.41-.24-17.22-8.77Z"/><polygon class="cls-24" points="109.42 228.08 109.37 238.92 108.73 239.25 108.73 228.43 109.42 228.08"/><polygon class="cls-25" points="108.04 228.08 108.04 238.89 108.73 239.25 108.73 228.43 108.04 228.08"/><path class="cls-26" d="M108,228.08l.69-.36.69.36-.69.35Z"/><polygon class="cls-25" points="108.98 228.72 108.98 239.12 126.2 247.89 126.2 237.49 108.98 228.72"/><path class="cls-24" d="M109,229.71v.8l17.22,8.78v-.8Z"/><path class="cls-24" d="M109,232.11v.8l17.22,8.78v-.8Z"/><path class="cls-24" d="M109,234.51v.8l17.22,8.78v-.81Z"/><path class="cls-24" d="M109,236.91v.8l17.22,8.78v-.8Z"/><path class="cls-26" d="M109,228.72l17.22,8.77.42-.24-17.22-8.77Z"/><polygon class="cls-24" points="127.59 237.33 127.54 248.17 126.9 248.5 126.9 237.69 127.59 237.33"/><polygon class="cls-25" points="126.2 237.33 126.2 248.15 126.9 248.5 126.9 237.69 126.2 237.33"/><path class="cls-26" d="M126.2,237.33l.7-.35.69.35-.69.36Z"/><polygon class="cls-25" points="127.15 237.98 127.15 248.37 144.37 257.15 144.37 246.75 127.15 237.98"/><path class="cls-24" d="M127.15,239v.8l17.22,8.77v-.8Z"/><path class="cls-24" d="M127.15,241.37v.8l17.21,8.77v-.8Z"/><path class="cls-24" d="M127.15,243.76v.81l17.21,8.77v-.8Z"/><path class="cls-24" d="M127.15,246.17v.8l17.21,8.77v-.8Z"/><path class="cls-26" d="M127.15,238l17.22,8.77.41-.24-17.22-8.77Z"/><polygon class="cls-24" points="145.75 246.59 145.7 257.43 145.06 257.76 145.06 246.94 145.75 246.59"/><polygon class="cls-25" points="144.37 246.59 144.37 257.4 145.06 257.76 145.06 246.94 144.37 246.59"/><path class="cls-26" d="M144.37,246.59l.69-.36.69.36-.69.35Z"/><polygon class="cls-25" points="145.31 247.23 145.31 257.63 162.53 266.4 162.53 256 145.31 247.23"/><path class="cls-24" d="M145.31,248.22v.8l17.22,8.78V257Z"/><path class="cls-24" d="M145.31,250.62v.8l17.22,8.78v-.8Z"/><path class="cls-24" d="M145.31,253v.8l17.22,8.78v-.81Z"/><path class="cls-24" d="M145.31,255.42v.8L162.53,265v-.8Z"/><path class="cls-26" d="M145.31,247.23,162.53,256l.42-.24L145.73,247Z"/><polygon class="cls-24" points="163.92 255.84 163.87 266.68 163.22 267.01 163.22 256.2 163.92 255.84"/><polygon class="cls-25" points="162.53 255.84 162.53 266.66 163.22 267.01 163.22 256.2 162.53 255.84"/><path class="cls-26" d="M162.53,255.84l.7-.35.69.35-.7.36Z"/><polygon class="cls-25" points="163.47 256.49 163.47 266.88 180.69 275.66 180.69 265.26 163.47 256.49"/><path class="cls-24" d="M163.47,257.48v.8l17.22,8.77v-.8Z"/><path class="cls-24" d="M163.47,259.88v.8l17.22,8.77v-.8Z"/><path class="cls-24" d="M163.47,262.27v.81l17.22,8.77v-.8Z"/><path class="cls-24" d="M163.47,264.68v.8l17.22,8.77v-.8Z"/><path class="cls-26" d="M163.47,256.49l17.22,8.77.42-.24-17.22-8.77Z"/><polygon class="cls-24" points="182.08 265.1 182.03 275.94 181.39 276.27 181.39 265.45 182.08 265.1"/><polygon class="cls-25" points="180.69 265.1 180.69 275.91 181.39 276.27 181.39 265.45 180.69 265.1"/><path class="cls-26" d="M180.7,265.1l.69-.36.69.36-.69.35Z"/><polygon class="cls-25" points="181.64 265.74 181.64 276.14 198.86 284.91 198.86 274.51 181.64 265.74"/><path class="cls-24" d="M181.64,266.73v.8l17.22,8.78v-.8Z"/><path class="cls-24" d="M181.64,269.13v.8l17.22,8.78v-.8Z"/><path class="cls-24" d="M181.64,271.53v.8l17.22,8.78v-.81Z"/><path class="cls-24" d="M181.64,273.93v.8l17.22,8.78v-.8Z"/><path class="cls-26" d="M181.64,265.74l17.22,8.77.41-.24-17.22-8.77Z"/></g><g id="fence_2"><polygon class="cls-24" points="380.83 182.33 380.78 193.18 380.14 193.5 380.14 182.69 380.83 182.33"/><polygon class="cls-25" points="379.44 182.34 379.44 193.15 380.14 193.5 380.14 182.69 379.44 182.34"/><path class="cls-26" d="M379.45,182.34l.69-.36.69.35-.69.36Z"/><polygon class="cls-24" points="379.87 182.97 379.88 193.37 362.71 202.11 362.77 191.68 379.87 182.97"/><path class="cls-25" d="M379.88,184v.8l-17.12,8.72v-.8Z"/><path class="cls-25" d="M379.88,186.36v.8l-17.14,8.73v-.8Z"/><path class="cls-25" d="M379.88,188.76v.8l-17.15,8.74v-.81Z"/><path class="cls-25" d="M379.88,191.16v.8l-17.17,8.75,0-.81Z"/><path class="cls-26" d="M379.87,183l-17.1,8.71-.43-.22,17.09-8.71Z"/><polygon class="cls-24" points="362.76 191.53 362.71 202.37 362.07 202.7 362.07 191.88 362.76 191.53"/><polygon class="cls-25" points="361.38 191.53 361.38 202.34 362.07 202.7 362.07 191.88 361.38 191.53"/><path class="cls-26" d="M361.38,191.53l.69-.36.7.36-.7.35Z"/><polygon class="cls-24" points="361.81 192.17 361.81 202.57 344.65 211.31 344.71 200.89 361.81 192.17"/><path class="cls-25" d="M361.82,193.16v.8l-17.12,8.73v-.8Z"/><path class="cls-25" d="M361.82,195.57v.79l-17.14,8.74v-.81Z"/><path class="cls-25" d="M361.82,198v.8l-17.15,8.74v-.81Z"/><path class="cls-25" d="M361.82,200.36v.8l-17.17,8.75,0-.81Z"/><path class="cls-26" d="M361.81,192.17l-17.1,8.72-.43-.22L361.37,192Z"/><polygon class="cls-24" points="344.7 200.73 344.65 211.57 344.01 211.9 344.01 201.09 344.7 200.73"/><polygon class="cls-25" points="343.32 200.73 343.32 211.54 344.01 211.9 344.01 201.09 343.32 200.73"/><path class="cls-26" d="M343.32,200.73l.69-.35.69.35-.69.35Z"/><polygon class="cls-24" points="343.76 201.39 343.76 211.78 326.6 220.53 326.66 210.1 343.76 201.39"/><path class="cls-25" d="M343.77,202.38v.8l-17.12,8.72v-.8Z"/><path class="cls-25" d="M343.77,204.78v.8l-17.14,8.73v-.81Z"/><path class="cls-25" d="M343.77,207.17V208l-17.15,8.73v-.8Z"/><path class="cls-25" d="M343.77,209.58v.79l-17.17,8.75,0-.81Z"/><path class="cls-26" d="M343.76,201.39l-17.1,8.71-.43-.22,17.09-8.71Z"/><polygon class="cls-24" points="326.65 209.94 326.6 220.78 325.96 221.11 325.96 210.3 326.65 209.94"/><polygon class="cls-25" points="325.27 209.94 325.27 220.76 325.96 221.11 325.96 210.3 325.27 209.94"/><path class="cls-26" d="M325.27,209.94l.69-.35.69.35-.69.36Z"/><polygon class="cls-24" points="325.69 210.58 325.7 220.97 308.54 229.72 308.59 219.29 325.69 210.58"/><path class="cls-25" d="M325.7,211.57v.8l-17.11,8.72v-.8Z"/><path class="cls-25" d="M325.7,214v.8l-17.13,8.73v-.8Z"/><path class="cls-25" d="M325.7,216.36v.81l-17.14,8.74v-.81Z"/><path class="cls-25" d="M325.7,218.77v.8l-17.16,8.75,0-.81Z"/><path class="cls-26" d="M325.69,210.58l-17.1,8.71-.43-.22,17.1-8.71Z"/><polygon class="cls-24" points="308.59 219.13 308.54 229.97 307.9 230.3 307.9 219.49 308.59 219.13"/><polygon class="cls-25" points="307.21 219.13 307.21 229.95 307.9 230.3 307.9 219.49 307.21 219.13"/><path class="cls-26" d="M307.21,219.13l.69-.35.69.35-.69.36Z"/><polygon class="cls-24" points="307.63 219.78 307.64 230.18 290.48 238.92 290.53 228.49 307.63 219.78"/><path class="cls-25" d="M307.64,220.77v.8l-17.11,8.72v-.8Z"/><path class="cls-25" d="M307.64,223.17v.8l-17.13,8.73v-.8Z"/><path class="cls-25" d="M307.64,225.57v.8l-17.14,8.74v-.81Z"/><path class="cls-25" d="M307.64,228v.8l-17.16,8.75,0-.81Z"/><path class="cls-26" d="M307.63,219.78l-17.1,8.71-.43-.22,17.1-8.71Z"/><polygon class="cls-24" points="290.53 228.34 290.48 239.18 289.84 239.5 289.84 228.69 290.53 228.34"/><polygon class="cls-25" points="289.14 228.34 289.14 239.15 289.84 239.5 289.84 228.69 289.14 228.34"/><path class="cls-26" d="M289.15,228.34l.69-.36.69.35-.69.36Z"/><polygon class="cls-24" points="289.58 228.99 289.59 239.39 272.43 248.13 272.48 237.71 289.58 228.99"/><path class="cls-25" d="M289.59,230v.8l-17.11,8.73v-.81Z"/><path class="cls-25" d="M289.59,232.38v.8l-17.13,8.73v-.8Z"/><path class="cls-25" d="M289.59,234.78v.8l-17.14,8.74v-.81Z"/><path class="cls-25" d="M289.59,237.18v.8l-17.16,8.75,0-.81Z"/><path class="cls-26" d="M289.58,229l-17.1,8.71-.43-.22,17.1-8.71Z"/><polygon class="cls-24" points="272.48 237.55 272.43 248.39 271.79 248.72 271.79 237.9 272.48 237.55"/><polygon class="cls-25" points="271.1 237.55 271.1 248.36 271.79 248.72 271.79 237.9 271.1 237.55"/><path class="cls-26" d="M271.1,237.55l.69-.36.69.36-.69.35Z"/><polygon class="cls-24" points="271.52 238.19 271.54 248.59 254.37 257.33 254.43 246.91 271.52 238.19"/><path class="cls-25" d="M271.54,239.18v.8l-17.12,8.73v-.81Z"/><path class="cls-25" d="M271.54,241.58v.8l-17.14,8.73v-.8Z"/><path class="cls-25" d="M271.54,244v.8l-17.15,8.74v-.81Z"/><path class="cls-25" d="M271.54,246.38v.8l-17.17,8.75,0-.81Z"/><path class="cls-26" d="M271.53,238.19l-17.1,8.71-.43-.22L271.09,238Z"/><polygon class="cls-24" points="254.43 246.75 254.37 257.59 253.73 257.92 253.73 247.1 254.43 246.75"/><polygon class="cls-25" points="253.04 246.75 253.04 257.56 253.73 257.92 253.73 247.1 253.04 246.75"/><path class="cls-26" d="M253,246.75l.69-.36.69.36-.69.35Z"/><polygon class="cls-24" points="253.47 247.4 253.47 257.79 236.31 266.53 236.37 256.11 253.47 247.4"/><path class="cls-25" d="M253.48,248.38v.8l-17.12,8.73v-.8Z"/><path class="cls-25" d="M253.48,250.79v.79l-17.14,8.74v-.81Z"/><path class="cls-25" d="M253.48,253.18V254l-17.15,8.73v-.81Z"/><path class="cls-25" d="M253.48,255.59v.79l-17.17,8.75,0-.81Z"/><path class="cls-26" d="M253.47,247.39l-17.1,8.72-.44-.22,17.1-8.72Z"/><polygon class="cls-24" points="236.36 255.95 236.31 266.79 235.67 267.12 235.67 256.31 236.36 255.95"/><polygon class="cls-25" points="234.98 255.95 234.98 266.76 235.67 267.12 235.67 256.31 234.98 255.95"/><path class="cls-26" d="M235,256l.69-.35.69.35-.69.36Z"/><polygon class="cls-24" points="235.41 256.6 235.41 266.99 218.25 275.74 218.31 265.31 235.41 256.6"/><path class="cls-25" d="M235.42,257.59v.8l-17.12,8.72v-.8Z"/><path class="cls-25" d="M235.42,260v.8l-17.14,8.73v-.81Z"/><path class="cls-25" d="M235.42,262.38v.81l-17.15,8.73v-.8Z"/><path class="cls-25" d="M235.42,264.79v.8l-17.17,8.74,0-.81Z"/><path class="cls-26" d="M235.41,256.6l-17.1,8.71-.43-.22L235,256.38Z"/><polygon class="cls-24" points="218.31 265.15 218.25 275.99 217.61 276.32 217.61 265.51 218.31 265.15"/><polygon class="cls-25" points="216.92 265.15 216.92 275.97 217.61 276.32 217.61 265.51 216.92 265.15"/><path class="cls-26" d="M216.92,265.15l.69-.35.69.35-.69.36Z"/><polygon class="cls-24" points="217.35 265.8 217.35 276.19 200.19 284.94 200.25 274.51 217.35 265.8"/><path class="cls-25" d="M217.36,266.79v.8l-17.12,8.72v-.8Z"/><path class="cls-25" d="M217.36,269.19v.8l-17.14,8.73v-.8Z"/><path class="cls-25" d="M217.36,271.58v.81l-17.15,8.74v-.81Z"/><path class="cls-25" d="M217.36,274v.8l-17.17,8.74,0-.8Z"/><path class="cls-26" d="M217.35,265.8l-17.1,8.71-.43-.22,17.09-8.71Z"/><polygon class="cls-24" points="200.25 274.35 200.19 285.19 199.55 285.52 199.55 274.71 200.25 274.35"/><polygon class="cls-25" points="198.86 274.35 198.86 285.17 199.55 285.52 199.55 274.71 198.86 274.35"/><path class="cls-26" d="M198.86,274.35l.69-.35.69.35-.69.36Z"/></g></g></g></g></svg>